<?xml version="1.0" encoding="UTF-8"?>
<svg xmlns="http://www.w3.org/2000/svg" xmlns:xlink="http://www.w3.org/1999/xlink"
    width="3368" height="2380" viewBox="0 0 842 595" font-family="Simvoni">
<defs>
</defs>
<text x="421.0" y="585" font-size="10" text-anchor="middle">12</text>
<text x="16.0" y="131.9047619047619" font-size="24" dominant-baseline="middle">V</text>
<path d="M50.0,70.47619047619048 L50.0,60.47619047619048" stroke="black" stroke-width="0.3" />
<text x="50.0" y="55.476190476190474" font-size="7" text-anchor="middle">275</text>
<path d="M80.48,70.47619047619048 L80.48,65.47619047619048" stroke="black" stroke-width="0.3" />
<path d="M110.96000000000001,70.47619047619048 L110.96000000000001,65.47619047619048" stroke="black" stroke-width="0.3" />
<path d="M141.44,70.47619047619048 L141.44,65.47619047619048" stroke="black" stroke-width="0.3" />
<path d="M171.92000000000002,70.47619047619048 L171.92000000000002,65.47619047619048" stroke="black" stroke-width="0.3" />
<path d="M202.4,70.47619047619048 L202.4,60.47619047619048" stroke="black" stroke-width="0.3" />
<path d="M232.88,70.47619047619048 L232.88,65.47619047619048" stroke="black" stroke-width="0.3" />
<path d="M263.36,70.47619047619048 L263.36,65.47619047619048" stroke="black" stroke-width="0.3" />
<path d="M293.84000000000003,70.47619047619048 L293.84000000000003,65.47619047619048" stroke="black" stroke-width="0.3" />
<text x="293.84000000000003" y="50.476190476190474" font-size="12" text-anchor="middle">283</text>
<path d="M293.84000000000003,55.476190476190474 V75.47619047619048 M289.84000000000003,71.47619047619048 L293.84000000000003,75.47619047619048 L297.84000000000003,71.47619047619048" stroke-width="1" stroke="black" fill="none" transform="rotate(0.000000 293.840000 55.476190)" />
<path d="M324.32,70.47619047619048 L324.32,65.47619047619048" stroke="black" stroke-width="0.3" />
<path d="M354.8,70.47619047619048 L354.8,60.47619047619048" stroke="black" stroke-width="0.3" />
<path d="M385.28000000000003,70.47619047619048 L385.28000000000003,65.47619047619048" stroke="black" stroke-width="0.3" />
<path d="M415.76,70.47619047619048 L415.76,65.47619047619048" stroke="black" stroke-width="0.3" />
<path d="M446.24,70.47619047619048 L446.24,65.47619047619048" stroke="black" stroke-width="0.3" />
<path d="M476.72,70.47619047619048 L476.72,65.47619047619048" stroke="black" stroke-width="0.3" />
<path d="M507.2,70.47619047619048 L507.2,60.47619047619048" stroke="black" stroke-width="0.3" />
<text x="507.2" y="55.476190476190474" font-size="7" text-anchor="middle">290</text>
<path d="M537.6800000000001,70.47619047619048 L537.6800000000001,65.47619047619048" stroke="black" stroke-width="0.3" />
<path d="M568.16,70.47619047619048 L568.16,65.47619047619048" stroke="black" stroke-width="0.3" />
<path d="M598.64,70.47619047619048 L598.64,65.47619047619048" stroke="black" stroke-width="0.3" />
<path d="M629.12,70.47619047619048 L629.12,65.47619047619048" stroke="black" stroke-width="0.3" />
<path d="M659.6,70.47619047619048 L659.6,60.47619047619048" stroke="black" stroke-width="0.3" />
<path d="M690.08,70.47619047619048 L690.08,65.47619047619048" stroke="black" stroke-width="0.3" />
<path d="M720.5600000000001,70.47619047619048 L720.5600000000001,65.47619047619048" stroke="black" stroke-width="0.3" />
<path d="M751.04,70.47619047619048 L751.04,65.47619047619048" stroke="black" stroke-width="0.3" />
<text x="751.04" y="50.476190476190474" font-size="12" text-anchor="middle">298</text>
<path d="M751.04,55.476190476190474 V75.47619047619048 M747.04,71.47619047619048 L751.04,75.47619047619048 L755.04,71.47619047619048" stroke-width="1" stroke="black" fill="none" transform="rotate(0.000000 751.040000 55.476190)" />
<path d="M781.52,70.47619047619048 L781.52,65.47619047619048" stroke="black" stroke-width="0.3" />
<path d="M812.0,70.47619047619048 L812.0,60.47619047619048" stroke="black" stroke-width="0.3" />
<text x="16.0" y="310.23809523809524" font-size="24" dominant-baseline="middle">P</text>
<path d="M50.0,223.33333333333331 L50.0,213.33333333333331" stroke="black" stroke-width="0.3" />
<text x="50.0" y="208.33333333333331" font-size="7" text-anchor="middle">275</text>
<path d="M80.48,223.33333333333331 L80.48,218.33333333333331" stroke="black" stroke-width="0.3" />
<path d="M110.96000000000001,223.33333333333331 L110.96000000000001,218.33333333333331" stroke="black" stroke-width="0.3" />
<text x="110.96000000000001" y="203.33333333333331" font-size="12" text-anchor="middle">277</text>
<path d="M110.96000000000001,208.33333333333331 V228.33333333333331 M106.96000000000001,224.33333333333331 L110.96000000000001,228.33333333333331 L114.96000000000001,224.33333333333331" stroke-width="1" stroke="black" fill="none" transform="rotate(0.000000 110.960000 208.333333)" />
<path d="M141.44,223.33333333333331 L141.44,218.33333333333331" stroke="black" stroke-width="0.3" />
<path d="M171.92000000000002,223.33333333333331 L171.92000000000002,218.33333333333331" stroke="black" stroke-width="0.3" />
<text x="171.92000000000002" y="203.33333333333331" font-size="12" text-anchor="middle">279</text>
<path d="M171.92000000000002,208.33333333333331 V228.33333333333331 M167.92000000000002,224.33333333333331 L171.92000000000002,228.33333333333331 L175.92000000000002,224.33333333333331" stroke-width="1" stroke="black" fill="none" transform="rotate(0.000000 171.920000 208.333333)" />
<path d="M202.4,223.33333333333331 L202.4,213.33333333333331" stroke="black" stroke-width="0.3" />
<path d="M232.88,223.33333333333331 L232.88,218.33333333333331" stroke="black" stroke-width="0.3" />
<path d="M263.36,223.33333333333331 L263.36,218.33333333333331" stroke="black" stroke-width="0.3" />
<path d="M293.84000000000003,223.33333333333331 L293.84000000000003,218.33333333333331" stroke="black" stroke-width="0.3" />
<path d="M324.32,223.33333333333331 L324.32,218.33333333333331" stroke="black" stroke-width="0.3" />
<path d="M354.8,223.33333333333331 L354.8,213.33333333333331" stroke="black" stroke-width="0.3" />
<path d="M385.28000000000003,223.33333333333331 L385.28000000000003,218.33333333333331" stroke="black" stroke-width="0.3" />
<path d="M415.76,223.33333333333331 L415.76,218.33333333333331" stroke="black" stroke-width="0.3" />
<path d="M446.24,223.33333333333331 L446.24,218.33333333333331" stroke="black" stroke-width="0.3" />
<path d="M476.72,223.33333333333331 L476.72,218.33333333333331" stroke="black" stroke-width="0.3" />
<text x="476.72" y="203.33333333333331" font-size="12" text-anchor="middle">289</text>
<path d="M476.72,208.33333333333331 V228.33333333333331 M472.72,224.33333333333331 L476.72,228.33333333333331 L480.72,224.33333333333331" stroke-width="1" stroke="black" fill="none" transform="rotate(0.000000 476.720000 208.333333)" />
<path d="M507.2,223.33333333333331 L507.2,213.33333333333331" stroke="black" stroke-width="0.3" />
<path d="M537.6800000000001,223.33333333333331 L537.6800000000001,218.33333333333331" stroke="black" stroke-width="0.3" />
<path d="M568.16,223.33333333333331 L568.16,218.33333333333331" stroke="black" stroke-width="0.3" />
<path d="M598.64,223.33333333333331 L598.64,218.33333333333331" stroke="black" stroke-width="0.3" />
<path d="M629.12,223.33333333333331 L629.12,218.33333333333331" stroke="black" stroke-width="0.3" />
<path d="M659.6,223.33333333333331 L659.6,213.33333333333331" stroke="black" stroke-width="0.3" />
<path d="M690.08,223.33333333333331 L690.08,218.33333333333331" stroke="black" stroke-width="0.3" />
<path d="M720.5600000000001,223.33333333333331 L720.5600000000001,218.33333333333331" stroke="black" stroke-width="0.3" />
<path d="M751.04,223.33333333333331 L751.04,218.33333333333331" stroke="black" stroke-width="0.3" />
<text x="751.04" y="203.33333333333331" font-size="12" text-anchor="middle">298</text>
<path d="M751.04,208.33333333333331 V228.33333333333331 M747.04,224.33333333333331 L751.04,228.33333333333331 L755.04,224.33333333333331" stroke-width="1" stroke="black" fill="none" transform="rotate(0.000000 751.040000 208.333333)" />
<path d="M781.52,223.33333333333331 L781.52,218.33333333333331" stroke="black" stroke-width="0.3" />
<path d="M812.0,223.33333333333331 L812.0,213.33333333333331" stroke="black" stroke-width="0.3" />
<text x="16.0" y="488.57142857142856" font-size="24" dominant-baseline="middle">E</text>
<path d="M50.0,427.1428571428571 L50.0,417.1428571428571" stroke="black" stroke-width="0.3" />
<text x="50.0" y="412.1428571428571" font-size="7" text-anchor="middle">275</text>
<path d="M80.48,427.1428571428571 L80.48,422.1428571428571" stroke="black" stroke-width="0.3" />
<path d="M110.96000000000001,427.1428571428571 L110.96000000000001,422.1428571428571" stroke="black" stroke-width="0.3" />
<path d="M141.44,427.1428571428571 L141.44,422.1428571428571" stroke="black" stroke-width="0.3" />
<path d="M171.92000000000002,427.1428571428571 L171.92000000000002,422.1428571428571" stroke="black" stroke-width="0.3" />
<path d="M202.4,427.1428571428571 L202.4,417.1428571428571" stroke="black" stroke-width="0.3" />
<path d="M232.88,427.1428571428571 L232.88,422.1428571428571" stroke="black" stroke-width="0.3" />
<path d="M263.36,427.1428571428571 L263.36,422.1428571428571" stroke="black" stroke-width="0.3" />
<path d="M293.84000000000003,427.1428571428571 L293.84000000000003,422.1428571428571" stroke="black" stroke-width="0.3" />
<text x="293.84000000000003" y="407.1428571428571" font-size="12" text-anchor="middle">283</text>
<path d="M293.84000000000003,412.1428571428571 V432.1428571428571 M289.84000000000003,428.1428571428571 L293.84000000000003,432.1428571428571 L297.84000000000003,428.1428571428571" stroke-width="1" stroke="black" fill="none" transform="rotate(0.000000 293.840000 412.142857)" />
<path d="M324.32,427.1428571428571 L324.32,422.1428571428571" stroke="black" stroke-width="0.3" />
<path d="M354.8,427.1428571428571 L354.8,417.1428571428571" stroke="black" stroke-width="0.3" />
<text x="354.8" y="407.1428571428571" font-size="12" text-anchor="middle">285</text>
<path d="M354.8,412.1428571428571 V432.1428571428571 M350.8,428.1428571428571 L354.8,432.1428571428571 L358.8,428.1428571428571" stroke-width="1" stroke="black" fill="none" transform="rotate(0.000000 354.800000 412.142857)" />
<path d="M385.28000000000003,427.1428571428571 L385.28000000000003,422.1428571428571" stroke="black" stroke-width="0.3" />
<path d="M415.76,427.1428571428571 L415.76,422.1428571428571" stroke="black" stroke-width="0.3" />
<path d="M446.24,427.1428571428571 L446.24,422.1428571428571" stroke="black" stroke-width="0.3" />
<path d="M476.72,427.1428571428571 L476.72,422.1428571428571" stroke="black" stroke-width="0.3" />
<path d="M507.2,427.1428571428571 L507.2,417.1428571428571" stroke="black" stroke-width="0.3" />
<path d="M537.6800000000001,427.1428571428571 L537.6800000000001,422.1428571428571" stroke="black" stroke-width="0.3" />
<path d="M568.16,427.1428571428571 L568.16,422.1428571428571" stroke="black" stroke-width="0.3" />
<path d="M598.64,427.1428571428571 L598.64,422.1428571428571" stroke="black" stroke-width="0.3" />
<path d="M629.12,427.1428571428571 L629.12,422.1428571428571" stroke="black" stroke-width="0.3" />
<path d="M659.6,427.1428571428571 L659.6,417.1428571428571" stroke="black" stroke-width="0.3" />
<path d="M690.08,427.1428571428571 L690.08,422.1428571428571" stroke="black" stroke-width="0.3" />
<path d="M720.5600000000001,427.1428571428571 L720.5600000000001,422.1428571428571" stroke="black" stroke-width="0.3" />
<path d="M751.04,427.1428571428571 L751.04,422.1428571428571" stroke="black" stroke-width="0.3" />
<path d="M781.52,427.1428571428571 L781.52,422.1428571428571" stroke="black" stroke-width="0.3" />
<path d="M812.0,427.1428571428571 L812.0,417.1428571428571" stroke="black" stroke-width="0.3" />
<text x="291.84000000000003" y="96.23809523809524" font-size="16">F</text>
<text x="322.32" y="96.23809523809524" font-size="16">L</text>
<text x="351.8" y="96.23809523809524" font-size="16">S</text>
<path d="M291.14000000000004,128.1595238095238 C290.01500000000004,126.1345238095238,294.51500000000004,123.65952380952379,296.54,125.4595238095238 C297.665,127.4845238095238,293.165,129.9595238095238,291.14000000000004,128.1595238095238" fill="#444" />
<path d="M296.54,126.35952380952381 L296.54,104.66952380952381" stroke="black" stroke-width="0.45" />
<path d="M296.54,104.66952380952381 L301.04,114.72432380952381" stroke="black" stroke-width="0.9" />
<circle cx="296.44000000000005" cy="114.8095238095238" r="2" stroke="black" stroke-width="0.4" fill="none" />
<path d="M306.56000000000006,123.0295238095238 Q309.08000000000004,126.0220238095238,312.23,123.65952380952379 Q309.08000000000004,126.8095238095238,309.08000000000004,131.5345238095238" stroke="#444" fill="none" stroke-width="1.0125" />
<path d="M321.62000000000006,128.1595238095238 C320.49500000000006,126.1345238095238,324.99500000000006,123.65952380952379,327.02000000000004,125.4595238095238 C328.14500000000004,127.4845238095238,323.64500000000004,129.9595238095238,321.62000000000006,128.1595238095238" fill="#444" />
<path d="M327.02000000000004,126.35952380952381 L327.02000000000004,104.66952380952381" stroke="black" stroke-width="0.45" />
<path d="M327.02000000000004,104.66952380952381 L331.52000000000004,114.72432380952381" stroke="black" stroke-width="0.9" />
<circle cx="326.9200000000001" cy="114.8095238095238" r="2" stroke="black" stroke-width="0.4" fill="none" />
<path d="M337.0400000000001,123.0295238095238 Q339.56000000000006,126.0220238095238,342.71000000000004,123.65952380952379 Q339.56000000000006,126.8095238095238,339.56000000000006,131.5345238095238" stroke="#444" fill="none" stroke-width="1.0125" />
<path d="M352.1000000000001,128.1595238095238 C350.9750000000001,126.1345238095238,355.4750000000001,123.65952380952379,357.50000000000006,125.4595238095238 C358.62500000000006,127.4845238095238,354.12500000000006,129.9595238095238,352.1000000000001,128.1595238095238" fill="#444" />
<path d="M357.50000000000006,126.35952380952381 L357.50000000000006,104.66952380952381" stroke="black" stroke-width="0.45" />
<path d="M357.50000000000006,104.66952380952381 L362.00000000000006,114.72432380952381" stroke="black" stroke-width="0.9" />
<circle cx="357.4000000000001" cy="114.8095238095238" r="2" stroke="black" stroke-width="0.4" fill="none" />
<path d="M367.5200000000001,123.0295238095238 Q370.0400000000001,126.0220238095238,373.19000000000005,123.65952380952379 Q370.0400000000001,126.8095238095238,370.0400000000001,131.5345238095238" stroke="#444" fill="none" stroke-width="1.0125" />
<path d="M290.54,141.8095238095238 L290.54,146.8095238095238 Q290.54,141.8095238095238,291.79,141.8095238095238 Q293.04,141.8095238095238,293.04,146.8095238095238 Q293.04,141.8095238095238,294.29,141.8095238095238 Q295.54,141.8095238095238,295.54,146.8095238095238" stroke="black" fill="none" stroke-width="0.8333333333333334" />
<path d="M300.64000000000004,137.8095238095238 Q300.64000000000004,136.8095238095238,299.59000000000003,136.8095238095238 C298.19000000000005,136.8095238095238,297.84000000000003,148.8095238095238,297.49000000000007,149.3095238095238 Q296.79,149.3095238095238,296.79,148.3095238095238 M297.14000000000004,141.8095238095238 H299.94000000000005" stroke="black" fill="none" stroke-width="0.8333333333333334" />
<text x="751.04" y="96.23809523809524" font-size="16">VO-</text>
<text x="771.04" y="106.42857142857142" font-size="10" font-family="Cantarell Light" text-anchor="middle" font-style="italic"><tspan x="771.04" dy="0em">quasi</tspan><tspan x="771.04" dy="1em">Gesangsübung</tspan></text>
<text x="775.4240000000003" y="134.45238095238093" font-size="14" text-anchor="middle">3 x</text>
<path d="M747.74,175.02380952380952 L747.74,180.02380952380952 Q747.74,175.02380952380952,748.99,175.02380952380952 Q750.24,175.02380952380952,750.24,180.02380952380952 Q750.24,175.02380952380952,751.49,175.02380952380952 Q752.74,175.02380952380952,752.74,180.02380952380952" stroke="black" fill="none" stroke-width="0.8333333333333334" />
<path d="M757.8399999999999,171.02380952380952 Q757.8399999999999,170.02380952380952,756.79,170.02380952380952 C755.3899999999999,170.02380952380952,755.04,182.02380952380952,754.6899999999999,182.52380952380952 Q753.9899999999999,182.52380952380952,753.9899999999999,181.52380952380952 M754.3399999999999,175.02380952380952 H757.1399999999999" stroke="black" fill="none" stroke-width="0.8333333333333334" />
<path d="M748.3399999999999,151.3738095238095 C747.2149999999999,149.3488095238095,751.7149999999999,146.8738095238095,753.74,148.67380952380952 C754.865,150.69880952380953,750.365,153.17380952380952,748.3399999999999,151.3738095238095" stroke-width="0.30375" stroke="#444" fill="#444" />
<path d="M753.74,148.67380952380952 L753.74,131.79880952380952" stroke="black" stroke-width="0.45" />
<path d="M753.74,131.79880952380952 L754.2747368421052,132.06196741854637" stroke="black" stroke-width="1.5" />
<path d="M754.2747368421052,132.06196741854637 L754.8094736842105,132.3251253132832" stroke="black" stroke-width="1.5" />
<path d="M754.8094736842105,132.3251253132832 L755.3442105263157,132.58828320801996" stroke="black" stroke-width="1.5" />
<path d="M755.3442105263157,132.58828320801996 L755.878947368421,132.85144110275687" stroke="black" stroke-width="1.5" />
<path d="M755.878947368421,132.85144110275687 L756.4136842105262,133.11459899749366" stroke="black" stroke-width="1.5" />
<path d="M756.4136842105262,133.11459899749366 L756.9484210526315,133.3777568922305" stroke="black" stroke-width="1.5" />
<path d="M756.9484210526315,133.3777568922305 L757.4831578947367,133.64091478696733" stroke="black" stroke-width="1.5" />
<path d="M757.4831578947367,133.64091478696733 L758.0178947368419,133.90407268170412" stroke="black" stroke-width="1.5" />
<path d="M758.0178947368419,133.90407268170412 L758.5526315789472,134.167230576441" stroke="black" stroke-width="1.5" />
<path d="M758.5526315789472,134.167230576441 L759.0873684210524,134.43038847117776" stroke="black" stroke-width="1.5" />
<path d="M759.0873684210524,134.43038847117776 L759.6221052631577,134.69354636591464" stroke="black" stroke-width="1.5" />
<path d="M759.6221052631577,134.69354636591464 L760.1568421052629,134.95670426065143" stroke="black" stroke-width="1.5" />
<path d="M760.1568421052629,134.95670426065143 L760.691578947368,135.21986215538823" stroke="black" stroke-width="1.5" />
<path d="M760.691578947368,135.21986215538823 L761.2263157894733,135.4830200501251" stroke="black" stroke-width="1.5" />
<path d="M761.2263157894733,135.4830200501251 L761.7610526315785,135.7461779448619" stroke="black" stroke-width="1.5" />
<path d="M761.7610526315785,135.7461779448619 L762.2957894736838,136.00933583959878" stroke="black" stroke-width="1.5" />
<path d="M762.2957894736838,136.00933583959878 L762.830526315789,136.27249373433557" stroke="black" stroke-width="1.5" />
<path d="M762.830526315789,136.27249373433557 L763.3652631578943,136.53565162907242" stroke="black" stroke-width="1.5" />
<path d="M763.3652631578943,136.53565162907242 L763.8999999999995,136.7988095238092" stroke="black" stroke-width="1.5" />
<path d="M758.4999999999994,156.3738095238095 C757.3749999999994,154.3488095238095,761.8749999999994,151.8738095238095,763.8999999999995,153.67380952380952 C765.0249999999995,155.69880952380953,760.5249999999995,158.17380952380952,758.4999999999994,156.3738095238095" stroke-width="0.30375" stroke="#444" fill="#444" />
<path d="M763.8999999999995,153.67380952380952 L763.8999999999995,136.7988095238092" stroke="black" stroke-width="0.45" />
<path d="M763.8999999999995,136.7988095238092 L764.4347368421048,137.0619674185461" stroke="black" stroke-width="1.5" />
<path d="M764.4347368421048,137.0619674185461 L764.9694736842101,137.32512531328294" stroke="black" stroke-width="1.5" />
<path d="M764.9694736842101,137.32512531328294 L765.5042105263154,137.58828320801982" stroke="black" stroke-width="1.5" />
<path d="M765.5042105263154,137.58828320801982 L766.0389473684208,137.8514411027567" stroke="black" stroke-width="1.5" />
<path d="M766.0389473684208,137.8514411027567 L766.5736842105262,138.11459899749357" stroke="black" stroke-width="1.5" />
<path d="M766.5736842105262,138.11459899749357 L767.1084210526315,138.37775689223042" stroke="black" stroke-width="1.5" />
<path d="M767.1084210526315,138.37775689223042 L767.6431578947368,138.6409147869673" stroke="black" stroke-width="1.5" />
<path d="M767.6431578947368,138.6409147869673 L768.1778947368421,138.90407268170415" stroke="black" stroke-width="1.5" />
<path d="M768.1778947368421,138.90407268170415 L768.7126315789474,139.16723057644103" stroke="black" stroke-width="1.5" />
<path d="M768.7126315789474,139.16723057644103 L769.2473684210528,139.43038847117793" stroke="black" stroke-width="1.5" />
<path d="M769.2473684210528,139.43038847117793 L769.7821052631581,139.69354636591478" stroke="black" stroke-width="1.5" />
<path d="M769.7821052631581,139.69354636591478 L770.3168421052634,139.95670426065163" stroke="black" stroke-width="1.5" />
<path d="M770.3168421052634,139.95670426065163 L770.8515789473687,140.21986215538848" stroke="black" stroke-width="1.5" />
<path d="M770.8515789473687,140.21986215538848 L771.386315789474,140.48302005012533" stroke="black" stroke-width="1.5" />
<path d="M771.386315789474,140.48302005012533 L771.9210526315793,140.74617794486224" stroke="black" stroke-width="1.5" />
<path d="M771.9210526315793,140.74617794486224 L772.4557894736847,141.00933583959915" stroke="black" stroke-width="1.5" />
<path d="M772.4557894736847,141.00933583959915 L772.99052631579,141.272493734336" stroke="black" stroke-width="1.5" />
<path d="M772.99052631579,141.272493734336 L773.5252631578953,141.53565162907282" stroke="black" stroke-width="1.5" />
<path d="M773.5252631578953,141.53565162907282 L774.0600000000006,141.7988095238097" stroke="black" stroke-width="1.5" />
<path d="M768.6600000000005,161.3738095238095 C767.5350000000005,159.3488095238095,772.0350000000005,156.8738095238095,774.0600000000006,158.67380952380952 C775.1850000000006,160.69880952380953,770.6850000000006,163.17380952380952,768.6600000000005,161.3738095238095" stroke-width="0.30375" stroke="#444" fill="#444" />
<path d="M774.0600000000006,158.67380952380952 L774.0600000000006,141.7988095238097" stroke="black" stroke-width="0.45" />
<path d="M774.0600000000006,141.7988095238097 L774.5947368421058,142.06196741854652" stroke="black" stroke-width="1.5" />
<path d="M774.5947368421058,142.06196741854652 L775.1294736842111,142.3251253132834" stroke="black" stroke-width="1.5" />
<path d="M775.1294736842111,142.3251253132834 L775.6642105263163,142.5882832080202" stroke="black" stroke-width="1.5" />
<path d="M775.6642105263163,142.5882832080202 L776.1989473684215,142.85144110275695" stroke="black" stroke-width="1.5" />
<path d="M776.1989473684215,142.85144110275695 L776.7336842105268,143.11459899749383" stroke="black" stroke-width="1.5" />
<path d="M776.7336842105268,143.11459899749383 L777.268421052632,143.37775689223065" stroke="black" stroke-width="1.5" />
<path d="M777.268421052632,143.37775689223065 L777.8031578947373,143.64091478696747" stroke="black" stroke-width="1.5" />
<path d="M777.8031578947373,143.64091478696747 L778.3378947368425,143.9040726817043" stroke="black" stroke-width="1.5" />
<path d="M778.3378947368425,143.9040726817043 L778.8726315789477,144.16723057644109" stroke="black" stroke-width="1.5" />
<path d="M778.8726315789477,144.16723057644109 L779.407368421053,144.43038847117796" stroke="black" stroke-width="1.5" />
<path d="M779.407368421053,144.43038847117796 L779.9421052631582,144.69354636591476" stroke="black" stroke-width="1.5" />
<path d="M779.9421052631582,144.69354636591476 L780.4768421052634,144.95670426065158" stroke="black" stroke-width="1.5" />
<path d="M780.4768421052634,144.95670426065158 L781.0115789473687,145.21986215538843" stroke="black" stroke-width="1.5" />
<path d="M781.0115789473687,145.21986215538843 L781.5463157894739,145.48302005012522" stroke="black" stroke-width="1.5" />
<path d="M781.5463157894739,145.48302005012522 L782.0810526315792,145.7461779448621" stroke="black" stroke-width="1.5" />
<path d="M782.0810526315792,145.7461779448621 L782.6157894736843,146.0093358395989" stroke="black" stroke-width="1.5" />
<path d="M782.6157894736843,146.0093358395989 L783.1505263157895,146.27249373433568" stroke="black" stroke-width="1.5" />
<path d="M783.1505263157895,146.27249373433568 L783.6852631578948,146.53565162907253" stroke="black" stroke-width="1.5" />
<path d="M783.6852631578948,146.53565162907253 L784.22,146.79880952380935" stroke="black" stroke-width="1.5" />
<path d="M778.8199999999999,166.3738095238095 C777.6949999999999,164.3488095238095,782.1949999999999,161.8738095238095,784.22,163.67380952380952 C785.345,165.69880952380953,780.845,168.17380952380952,778.8199999999999,166.3738095238095" stroke-width="0.30375" stroke="#444" fill="#444" />
<path d="M784.22,163.67380952380952 L784.22,146.79880952380935" stroke="black" stroke-width="0.45" />
<path d="M784.22,146.79880952380935 L784.7547368421052,147.06196741854615" stroke="black" stroke-width="1.5" />
<path d="M784.7547368421052,147.06196741854615 L785.2894736842105,147.32512531328302" stroke="black" stroke-width="1.5" />
<path d="M785.2894736842105,147.32512531328302 L785.8242105263157,147.58828320801982" stroke="black" stroke-width="1.5" />
<path d="M785.8242105263157,147.58828320801982 L786.3589473684209,147.8514411027566" stroke="black" stroke-width="1.5" />
<path d="M786.3589473684209,147.8514411027566 L786.8936842105262,148.11459899749346" stroke="black" stroke-width="1.5" />
<path d="M786.8936842105262,148.11459899749346 L787.4284210526314,148.37775689223025" stroke="black" stroke-width="1.5" />
<path d="M787.4284210526314,148.37775689223025 L787.9631578947367,148.64091478696713" stroke="black" stroke-width="1.5" />
<path d="M787.9631578947367,148.64091478696713 L788.4978947368419,148.90407268170395" stroke="black" stroke-width="1.5" />
<path d="M788.4978947368419,148.90407268170395 L789.0326315789471,149.16723057644072" stroke="black" stroke-width="1.5" />
<path d="M789.0326315789471,149.16723057644072 L789.5673684210524,149.4303884711776" stroke="black" stroke-width="1.5" />
<path d="M789.5673684210524,149.4303884711776 L790.1021052631576,149.69354636591441" stroke="black" stroke-width="1.5" />
<path d="M790.1021052631576,149.69354636591441 L790.6368421052628,149.9567042606512" stroke="black" stroke-width="1.5" />
<path d="M790.6368421052628,149.9567042606512 L791.1715789473681,150.21986215538806" stroke="black" stroke-width="1.5" />
<path d="M791.1715789473681,150.21986215538806 L791.7063157894733,150.48302005012488" stroke="black" stroke-width="1.5" />
<path d="M791.7063157894733,150.48302005012488 L792.2410526315786,150.7461779448617" stroke="black" stroke-width="1.5" />
<path d="M792.2410526315786,150.7461779448617 L792.7757894736837,151.00933583959852" stroke="black" stroke-width="1.5" />
<path d="M792.7757894736837,151.00933583959852 L793.3105263157889,151.27249373433534" stroke="black" stroke-width="1.5" />
<path d="M793.3105263157889,151.27249373433534 L793.8452631578942,151.5356516290722" stroke="black" stroke-width="1.5" />
<path d="M793.8452631578942,151.5356516290722 L794.3799999999994,151.79880952380898" stroke="black" stroke-width="1.5" />
<path d="M788.9799999999993,171.3738095238095 C787.8549999999993,169.3488095238095,792.3549999999993,166.8738095238095,794.3799999999994,168.67380952380952 C795.5049999999994,170.69880952380953,791.0049999999994,173.17380952380952,788.9799999999993,171.3738095238095" stroke-width="0.30375" stroke="#444" fill="#444" />
<path d="M794.3799999999994,168.67380952380952 L794.3799999999994,151.79880952380898" stroke="black" stroke-width="0.45" />
<path d="M794.3799999999994,151.79880952380898 L794.9147368421047,152.06196741854583" stroke="black" stroke-width="1.5" />
<path d="M794.9147368421047,152.06196741854583 L795.44947368421,152.3251253132827" stroke="black" stroke-width="1.5" />
<path d="M795.44947368421,152.3251253132827 L795.9842105263155,152.58828320801962" stroke="black" stroke-width="1.5" />
<path d="M795.9842105263155,152.58828320801962 L796.5189473684208,152.85144110275647" stroke="black" stroke-width="1.5" />
<path d="M796.5189473684208,152.85144110275647 L797.0536842105261,153.11459899749332" stroke="black" stroke-width="1.5" />
<path d="M797.0536842105261,153.11459899749332 L797.5884210526314,153.3777568922302" stroke="black" stroke-width="1.5" />
<path d="M797.5884210526314,153.3777568922302 L798.1231578947367,153.64091478696707" stroke="black" stroke-width="1.5" />
<path d="M798.1231578947367,153.64091478696707 L798.6578947368421,153.90407268170398" stroke="black" stroke-width="1.5" />
<path d="M798.6578947368421,153.90407268170398 L799.1926315789474,154.16723057644083" stroke="black" stroke-width="1.5" />
<path d="M799.1926315789474,154.16723057644083 L799.7273684210527,154.4303884711777" stroke="black" stroke-width="1.5" />
<path d="M799.7273684210527,154.4303884711777 L800.262105263158,154.69354636591453" stroke="black" stroke-width="1.5" />
<path d="M800.262105263158,154.69354636591453 L800.7968421052634,154.95670426065146" stroke="black" stroke-width="1.5" />
<path d="M800.7968421052634,154.95670426065146 L801.3315789473687,155.21986215538834" stroke="black" stroke-width="1.5" />
<path d="M801.3315789473687,155.21986215538834 L801.866315789474,155.48302005012516" stroke="black" stroke-width="1.5" />
<path d="M801.866315789474,155.48302005012516 L802.4010526315793,155.74617794486204" stroke="black" stroke-width="1.5" />
<path d="M802.4010526315793,155.74617794486204 L802.9357894736846,156.0093358395989" stroke="black" stroke-width="1.5" />
<path d="M802.9357894736846,156.0093358395989 L803.47052631579,156.2724937343358" stroke="black" stroke-width="1.5" />
<path d="M803.47052631579,156.2724937343358 L804.0052631578953,156.53565162907265" stroke="black" stroke-width="1.5" />
<path d="M804.0052631578953,156.53565162907265 L804.5400000000006,156.79880952380952" stroke="black" stroke-width="1.5" />
<path d="M799.1400000000006,176.3738095238095 C798.0150000000006,174.3488095238095,802.5150000000006,171.8738095238095,804.5400000000006,173.67380952380952 C805.6650000000006,175.69880952380953,801.1650000000006,178.17380952380952,799.1400000000006,176.3738095238095" stroke-width="0.30375" stroke="#444" fill="#444" />
<path d="M804.5400000000006,173.67380952380952 L804.5400000000006,156.79880952380952" stroke="black" stroke-width="0.45" />
<path d="M802.2900000000006,155.69152605924262 L802.5400000000006,155.8145575553056" stroke="black" stroke-width="1.5" />
<path d="M802.5400000000006,155.8145575553056 L802.7900000000006,155.9375890513686" stroke="black" stroke-width="1.5" />
<path d="M802.7900000000006,155.9375890513686 L803.0400000000006,156.0606205474316" stroke="black" stroke-width="1.5" />
<path d="M803.0400000000006,156.0606205474316 L803.2900000000006,156.18365204349456" stroke="black" stroke-width="1.5" />
<path d="M803.2900000000006,156.18365204349456 L803.5400000000006,156.30668353955755" stroke="black" stroke-width="1.5" />
<path d="M803.5400000000006,156.30668353955755 L803.7900000000006,156.42971503562055" stroke="black" stroke-width="1.5" />
<path d="M803.7900000000006,156.42971503562055 L804.0400000000006,156.55274653168354" stroke="black" stroke-width="1.5" />
<path d="M804.0400000000006,156.55274653168354 L804.2900000000006,156.67577802774653" stroke="black" stroke-width="1.5" />
<path d="M804.2900000000006,156.67577802774653 L804.5400000000006,156.79880952380952" stroke="black" stroke-width="1.5" />
<path d="M732.7519999999993,129.83333333333331 L732.7519999999993,179.83333333333331" stroke="black" stroke-width="0.5" />
<path d="M735.8,129.83333333333331 L735.8,179.83333333333331" stroke="black" stroke-width="0.5" />
<path d="M815.0480000000007,129.83333333333331 L815.0480000000007,179.83333333333331" stroke="black" stroke-width="0.5" />
<path d="M818.0959999999997,129.83333333333331 L818.0959999999997,179.83333333333331" stroke="black" stroke-width="0.5" />
<circle cx="740.3719999999993" cy="149.83333333333331" r="1.5" fill="black" />
<circle cx="740.3719999999993" cy="159.83333333333331" r="1.5" fill="black" />
<circle cx="810.4759999999997" cy="149.83333333333331" r="1.5" fill="black" />
<circle cx="810.4759999999997" cy="159.83333333333331" r="1.5" fill="black" />
<circle cx="812.0" cy="50.476190476190474" r="1.4000000000000001" fill="black" />
<path d="M805.0,51.87619047619047 A7,7,0,1,1,819.0,51.87619047619047 A7,6.3,0,1,0,805.0,51.87619047619047" fill="black" stroke="black" stroke-width="0.7000000000000001" transform="rotate(0.000000,812.000000,50.476190)" />
<circle cx="812.0" cy="203.33333333333331" r="1.4000000000000001" fill="black" />
<path d="M805.0,204.73333333333332 A7,7,0,1,1,819.0,204.73333333333332 A7,6.3,0,1,0,805.0,204.73333333333332" fill="black" stroke="black" stroke-width="0.7000000000000001" transform="rotate(0.000000,812.000000,203.333333)" />
<circle cx="812.0" cy="407.1428571428571" r="1.4000000000000001" fill="black" />
<path d="M805.0,408.5428571428571 A7,7,0,1,1,819.0,408.5428571428571 A7,6.3,0,1,0,805.0,408.5428571428571" fill="black" stroke="black" stroke-width="0.7000000000000001" transform="rotate(0.000000,812.000000,407.142857)" />
<path d="M50.0,297.5 L165.82400000000035,297.5" stroke="black" stroke-width="0.5" />
<text x="48.0" y="246.54761904761904" font-size="12" font-family="Cantarell">Rohre</text>
<path d="M171.92000000000002,361.19047619047615 L263.36,361.19047619047615" stroke="black" stroke-width="0.5" />
<text x="169.92000000000002" y="310.23809523809524" font-size="12" font-family="Cantarell">Alufolie</text>
<path d="M476.72,310.23809523809524 L815.0480000000007,310.23809523809524" stroke="black" stroke-width="0.5" />
<text x="474.72" y="259.2857142857143" font-size="12" font-family="Cantarell">Waldteufel</text>
<path d="M44.0,262.54761904761904 C50.0,250.54761904761904,60.8,246.94761904761904,51.2,256.54761904761904 C59.6,246.94761904761904,62.0,250.54761904761904,52.4,258.947619047619 C60.8,250.54761904761904,64.4,251.74761904761903,53.6,261.34761904761905 C62.0,254.14761904761903,60.8,260.14761904761906,47.6,268.54761904761904" fill="none" stroke="black" stroke-width="0.75" />
<text x="47.0" y="293.5" font-size="6" font-family="Cantarell" text-anchor="end" dominant-baseline="middle">1</text>
<text x="43.0" y="297.5" font-size="6" font-family="Cantarell" text-anchor="end" dominant-baseline="middle">2</text>
<text x="47.0" y="301.5" font-size="6" font-family="Cantarell" text-anchor="end" dominant-baseline="middle">3</text>
<path d="M50.3,301.6 C49.175,299.575,53.675,297.1,55.7,298.9 C56.825,300.925,52.325,303.4,50.3,301.6" stroke="black" fill="none" stroke-width="0.675" />
<path d="M55.7,298.9 L55.7,285.94" stroke="black" stroke-width="0.45" />
<path d="M50.0,272.5 C48.75,284.1666666666667,51.666666666666664,282.5,51.666666666666664,281.25 M48.333333333333336,275.9 L51.666666666666664,275.9 M53.333333333333336,282.5 L53.333333333333336,277.0 Q54.583333333333336,278.6666666666667,55.833333333333336,277.0" fill="none" stroke="black" stroke-width="0.8" />
<path d="M55.833333333333336,277.0 C57.833333333333336,273.0,57.833333333333336,281.0,59.833333333333336,277.0 C61.833333333333336,273.0,61.833333333333336,281.0,63.833333333333336,277.0 C65.83333333333334,273.0,65.83333333333334,281.0,67.83333333333334,277.0 C69.83333333333334,273.0,69.83333333333334,281.0,71.83333333333334,277.0 C73.83333333333334,273.0,73.83333333333334,281.0,75.83333333333334,277.0 C77.83333333333334,273.0,77.83333333333334,281.0,79.83333333333334,277.0 C81.83333333333334,273.0,81.83333333333334,281.0,83.83333333333334,277.0 C85.83333333333334,273.0,85.83333333333334,281.0,87.83333333333334,277.0 C89.83333333333334,273.0,89.83333333333334,281.0,91.83333333333334,277.0 C93.83333333333334,273.0,93.83333333333334,281.0,95.83333333333334,277.0 C97.83333333333334,273.0,97.83333333333334,281.0,99.83333333333334,277.0 C101.83333333333334,273.0,101.83333333333334,281.0,103.83333333333334,277.0" fill="none" stroke="black" stroke-width="0.5" />
<path d="M108.26,298.85 C107.135,296.825,111.635,294.35,113.66000000000001,296.15 C114.78500000000001,298.175,110.28500000000001,300.65,108.26,298.85" stroke-width="0.30375" stroke="#444" fill="#444" />
<path d="M113.66000000000001,296.15 L113.66000000000001,279.275" stroke="black" stroke-width="0.45" />
<path d="M113.66000000000001,279.275 L113.8909090909091,279.2472222222222" stroke="black" stroke-width="1.5" />
<path d="M113.8909090909091,279.2472222222222 L114.1218181818182,279.21944444444443" stroke="black" stroke-width="1.5" />
<path d="M114.1218181818182,279.21944444444443 L114.35272727272728,279.19166666666666" stroke="black" stroke-width="1.5" />
<path d="M114.35272727272728,279.19166666666666 L114.58363636363637,279.16388888888883" stroke="black" stroke-width="1.5" />
<path d="M114.58363636363637,279.16388888888883 L114.81454545454547,279.1361111111111" stroke="black" stroke-width="1.5" />
<path d="M114.81454545454547,279.1361111111111 L115.04545454545456,279.10833333333335" stroke="black" stroke-width="1.5" />
<path d="M115.04545454545456,279.10833333333335 L115.27636363636364,279.0805555555556" stroke="black" stroke-width="1.5" />
<path d="M115.27636363636364,279.0805555555556 L115.50727272727273,279.05277777777775" stroke="black" stroke-width="1.5" />
<path d="M115.50727272727273,279.05277777777775 L115.73818181818183,279.0249999999999" stroke="black" stroke-width="1.5" />
<path d="M115.73818181818183,279.0249999999999 L115.96909090909092,278.99722222222226" stroke="black" stroke-width="1.5" />
<path d="M115.96909090909092,278.99722222222226 L116.2,278.96944444444443" stroke="black" stroke-width="1.5" />
<path d="M116.2,278.96944444444443 L116.4309090909091,278.94166666666666" stroke="black" stroke-width="1.5" />
<path d="M116.4309090909091,278.94166666666666 L116.66181818181819,278.9138888888889" stroke="black" stroke-width="1.5" />
<path d="M116.66181818181819,278.9138888888889 L116.89272727272729,278.88611111111106" stroke="black" stroke-width="1.5" />
<path d="M116.89272727272729,278.88611111111106 L117.12363636363636,278.85833333333335" stroke="black" stroke-width="1.5" />
<path d="M117.12363636363636,278.85833333333335 L117.35454545454546,278.8305555555555" stroke="black" stroke-width="1.5" />
<path d="M117.35454545454546,278.8305555555555 L117.58545454545455,278.80277777777775" stroke="black" stroke-width="1.5" />
<path d="M117.58545454545455,278.80277777777775 L117.81636363636365,278.7749999999999" stroke="black" stroke-width="1.5" />
<path d="M117.81636363636365,278.7749999999999 L118.04727272727273,278.74722222222215" stroke="black" stroke-width="1.5" />
<path d="M118.04727272727273,278.74722222222215 L118.27818181818182,278.7194444444444" stroke="black" stroke-width="1.5" />
<path d="M118.27818181818182,278.7194444444444 L118.50909090909092,278.69166666666666" stroke="black" stroke-width="1.5" />
<path d="M118.50909090909092,278.69166666666666 L118.74000000000001,278.6638888888889" stroke="black" stroke-width="1.5" />
<path d="M118.74000000000001,278.6638888888889 L118.97090909090909,278.6361111111111" stroke="black" stroke-width="1.5" />
<path d="M118.97090909090909,278.6361111111111 L119.20181818181818,278.60833333333335" stroke="black" stroke-width="1.5" />
<path d="M119.20181818181818,278.60833333333335 L119.43272727272728,278.58055555555546" stroke="black" stroke-width="1.5" />
<path d="M119.43272727272728,278.58055555555546 L119.66363636363637,278.55277777777775" stroke="black" stroke-width="1.5" />
<path d="M119.66363636363637,278.55277777777775 L119.89454545454545,278.525" stroke="black" stroke-width="1.5" />
<path d="M119.89454545454545,278.525 L120.12545454545455,278.49722222222226" stroke="black" stroke-width="1.5" />
<path d="M120.12545454545455,278.49722222222226 L120.35636363636364,278.4694444444444" stroke="black" stroke-width="1.5" />
<path d="M120.35636363636364,278.4694444444444 L120.58727272727273,278.44166666666666" stroke="black" stroke-width="1.5" />
<path d="M120.58727272727273,278.44166666666666 L120.81818181818181,278.4138888888889" stroke="black" stroke-width="1.5" />
<path d="M120.81818181818181,278.4138888888889 L121.0490909090909,278.38611111111106" stroke="black" stroke-width="1.5" />
<path d="M121.0490909090909,278.38611111111106 L121.28,278.35833333333335" stroke="black" stroke-width="1.5" />
<path d="M121.28,278.35833333333335 L121.5109090909091,278.3305555555555" stroke="black" stroke-width="1.5" />
<path d="M121.5109090909091,278.3305555555555 L121.74181818181819,278.3027777777778" stroke="black" stroke-width="1.5" />
<path d="M121.74181818181819,278.3027777777778 L121.97272727272727,278.275" stroke="black" stroke-width="1.5" />
<path d="M121.97272727272727,278.275 L122.20363636363636,278.24722222222215" stroke="black" stroke-width="1.5" />
<path d="M122.20363636363636,278.24722222222215 L122.43454545454546,278.21944444444443" stroke="black" stroke-width="1.5" />
<path d="M122.43454545454546,278.21944444444443 L122.66545454545454,278.1916666666666" stroke="black" stroke-width="1.5" />
<path d="M122.66545454545454,278.1916666666666 L122.89636363636363,278.16388888888883" stroke="black" stroke-width="1.5" />
<path d="M122.89636363636363,278.16388888888883 L123.12727272727273,278.13611111111106" stroke="black" stroke-width="1.5" />
<path d="M123.12727272727273,278.13611111111106 L123.35818181818182,278.10833333333335" stroke="black" stroke-width="1.5" />
<path d="M123.35818181818182,278.10833333333335 L123.58909090909091,278.0805555555555" stroke="black" stroke-width="1.5" />
<path d="M123.58909090909091,278.0805555555555 L123.82,278.05277777777775" stroke="black" stroke-width="1.5" />
<path d="M123.82,278.05277777777775 L124.05090909090909,278.025" stroke="black" stroke-width="1.5" />
<path d="M124.05090909090909,278.025 L124.28181818181818,277.99722222222215" stroke="black" stroke-width="1.5" />
<path d="M124.28181818181818,277.99722222222215 L124.51272727272728,277.96944444444443" stroke="black" stroke-width="1.5" />
<path d="M124.51272727272728,277.96944444444443 L124.74363636363636,277.9416666666666" stroke="black" stroke-width="1.5" />
<path d="M124.74363636363636,277.9416666666666 L124.97454545454545,277.9138888888889" stroke="black" stroke-width="1.5" />
<path d="M124.97454545454545,277.9138888888889 L125.20545454545454,277.88611111111106" stroke="black" stroke-width="1.5" />
<path d="M125.20545454545454,277.88611111111106 L125.43636363636364,277.85833333333335" stroke="black" stroke-width="1.5" />
<path d="M125.43636363636364,277.85833333333335 L125.66727272727272,277.8305555555555" stroke="black" stroke-width="1.5" />
<path d="M125.66727272727272,277.8305555555555 L125.89818181818181,277.80277777777775" stroke="black" stroke-width="1.5" />
<path d="M125.89818181818181,277.80277777777775 L126.1290909090909,277.775" stroke="black" stroke-width="1.5" />
<path d="M126.1290909090909,277.775 L126.36,277.7472222222222" stroke="black" stroke-width="1.5" />
<path d="M126.36,277.7472222222222 L126.5909090909091,277.71944444444443" stroke="black" stroke-width="1.5" />
<path d="M126.5909090909091,277.71944444444443 L126.82181818181817,277.69166666666666" stroke="black" stroke-width="1.5" />
<path d="M126.82181818181817,277.69166666666666 L127.05272727272727,277.6638888888889" stroke="black" stroke-width="1.5" />
<path d="M127.05272727272727,277.6638888888889 L127.28363636363636,277.63611111111106" stroke="black" stroke-width="1.5" />
<path d="M127.28363636363636,277.63611111111106 L127.51454545454544,277.60833333333335" stroke="black" stroke-width="1.5" />
<path d="M127.51454545454544,277.60833333333335 L127.74545454545454,277.5805555555555" stroke="black" stroke-width="1.5" />
<path d="M127.74545454545454,277.5805555555555 L127.97636363636363,277.55277777777775" stroke="black" stroke-width="1.5" />
<path d="M127.97636363636363,277.55277777777775 L128.2072727272727,277.525" stroke="black" stroke-width="1.5" />
<path d="M128.2072727272727,277.525 L128.43818181818182,277.4972222222222" stroke="black" stroke-width="1.5" />
<path d="M128.43818181818182,277.4972222222222 L128.6690909090909,277.46944444444443" stroke="black" stroke-width="1.5" />
<path d="M128.6690909090909,277.46944444444443 L128.89999999999998,277.44166666666666" stroke="black" stroke-width="1.5" />
<path d="M128.89999999999998,277.44166666666666 L129.13090909090909,277.4138888888889" stroke="black" stroke-width="1.5" />
<path d="M129.13090909090909,277.4138888888889 L129.36181818181817,277.38611111111106" stroke="black" stroke-width="1.5" />
<path d="M129.36181818181817,277.38611111111106 L129.59272727272727,277.3583333333333" stroke="black" stroke-width="1.5" />
<path d="M129.59272727272727,277.3583333333333 L129.82363636363635,277.3305555555555" stroke="black" stroke-width="1.5" />
<path d="M129.82363636363635,277.3305555555555 L130.05454545454543,277.30277777777775" stroke="black" stroke-width="1.5" />
<path d="M130.05454545454543,277.30277777777775 L130.28545454545454,277.275" stroke="black" stroke-width="1.5" />
<path d="M130.28545454545454,277.275 L130.51636363636362,277.2472222222222" stroke="black" stroke-width="1.5" />
<path d="M130.51636363636362,277.2472222222222 L130.74727272727273,277.21944444444443" stroke="black" stroke-width="1.5" />
<path d="M130.74727272727273,277.21944444444443 L130.9781818181818,277.1916666666666" stroke="black" stroke-width="1.5" />
<path d="M130.9781818181818,277.1916666666666 L131.2090909090909,277.1638888888889" stroke="black" stroke-width="1.5" />
<path d="M131.2090909090909,277.1638888888889 L131.44,277.13611111111106" stroke="black" stroke-width="1.5" />
<path d="M131.44,277.13611111111106 L131.67090909090908,277.1083333333333" stroke="black" stroke-width="1.5" />
<path d="M131.67090909090908,277.1083333333333 L131.90181818181816,277.0805555555555" stroke="black" stroke-width="1.5" />
<path d="M131.90181818181816,277.0805555555555 L132.13272727272727,277.05277777777775" stroke="black" stroke-width="1.5" />
<path d="M132.13272727272727,277.05277777777775 L132.36363636363635,277.025" stroke="black" stroke-width="1.5" />
<path d="M132.36363636363635,277.025 L132.59454545454545,276.9972222222222" stroke="black" stroke-width="1.5" />
<path d="M132.59454545454545,276.9972222222222 L132.82545454545453,276.96944444444443" stroke="black" stroke-width="1.5" />
<path d="M132.82545454545453,276.96944444444443 L133.0563636363636,276.94166666666666" stroke="black" stroke-width="1.5" />
<path d="M133.0563636363636,276.94166666666666 L133.28727272727272,276.9138888888889" stroke="black" stroke-width="1.5" />
<path d="M133.28727272727272,276.9138888888889 L133.5181818181818,276.88611111111106" stroke="black" stroke-width="1.5" />
<path d="M133.5181818181818,276.88611111111106 L133.7490909090909,276.85833333333335" stroke="black" stroke-width="1.5" />
<path d="M133.7490909090909,276.85833333333335 L133.98,276.8305555555555" stroke="black" stroke-width="1.5" />
<path d="M133.98,276.8305555555555 L134.21090909090907,276.80277777777775" stroke="black" stroke-width="1.5" />
<path d="M134.21090909090907,276.80277777777775 L134.44181818181818,276.775" stroke="black" stroke-width="1.5" />
<path d="M134.44181818181818,276.775 L134.67272727272726,276.7472222222222" stroke="black" stroke-width="1.5" />
<path d="M134.67272727272726,276.7472222222222 L134.90363636363634,276.71944444444443" stroke="black" stroke-width="1.5" />
<path d="M134.90363636363634,276.71944444444443 L135.13454545454545,276.69166666666666" stroke="black" stroke-width="1.5" />
<path d="M135.13454545454545,276.69166666666666 L135.36545454545453,276.6638888888889" stroke="black" stroke-width="1.5" />
<path d="M135.36545454545453,276.6638888888889 L135.5963636363636,276.6361111111111" stroke="black" stroke-width="1.5" />
<path d="M135.5963636363636,276.6361111111111 L135.8272727272727,276.6083333333333" stroke="black" stroke-width="1.5" />
<path d="M135.8272727272727,276.6083333333333 L136.0581818181818,276.5805555555555" stroke="black" stroke-width="1.5" />
<path d="M136.0581818181818,276.5805555555555 L136.2890909090909,276.55277777777775" stroke="black" stroke-width="1.5" />
<path d="M136.2890909090909,276.55277777777775 L136.51999999999998,276.525" stroke="black" stroke-width="1.5" />
<path d="M131.12,296.1 C129.995,294.075,134.495,291.6,136.51999999999998,293.4 C137.64499999999998,295.425,133.14499999999998,297.9,131.12,296.1" stroke-width="0.30375" stroke="#444" fill="#444" />
<path d="M136.51999999999998,293.4 L136.51999999999998,276.525" stroke="black" stroke-width="0.45" />
<path d="M134.26999999999998,276.7956692913386 L134.51999999999998,276.7655949256343" stroke="black" stroke-width="1.5" />
<path d="M134.51999999999998,276.7655949256343 L134.76999999999998,276.73552055993" stroke="black" stroke-width="1.5" />
<path d="M134.76999999999998,276.73552055993 L135.01999999999998,276.7054461942257" stroke="black" stroke-width="1.5" />
<path d="M135.01999999999998,276.7054461942257 L135.26999999999998,276.6753718285214" stroke="black" stroke-width="1.5" />
<path d="M135.26999999999998,276.6753718285214 L135.51999999999998,276.6452974628171" stroke="black" stroke-width="1.5" />
<path d="M135.51999999999998,276.6452974628171 L135.76999999999998,276.61522309711285" stroke="black" stroke-width="1.5" />
<path d="M135.76999999999998,276.61522309711285 L136.01999999999998,276.58514873140854" stroke="black" stroke-width="1.5" />
<path d="M136.01999999999998,276.58514873140854 L136.26999999999998,276.5550743657043" stroke="black" stroke-width="1.5" />
<path d="M136.26999999999998,276.5550743657043 L136.51999999999998,276.525" stroke="black" stroke-width="1.5" />
<path d="M134.26999999999998,281.2956692913386 L134.51999999999998,281.2655949256343" stroke="black" stroke-width="1.5" />
<path d="M134.51999999999998,281.2655949256343 L134.76999999999998,281.23552055993" stroke="black" stroke-width="1.5" />
<path d="M134.76999999999998,281.23552055993 L135.01999999999998,281.2054461942257" stroke="black" stroke-width="1.5" />
<path d="M135.01999999999998,281.2054461942257 L135.26999999999998,281.1753718285214" stroke="black" stroke-width="1.5" />
<path d="M135.26999999999998,281.1753718285214 L135.51999999999998,281.1452974628171" stroke="black" stroke-width="1.5" />
<path d="M135.51999999999998,281.1452974628171 L135.76999999999998,281.11522309711285" stroke="black" stroke-width="1.5" />
<path d="M135.76999999999998,281.11522309711285 L136.01999999999998,281.08514873140854" stroke="black" stroke-width="1.5" />
<path d="M136.01999999999998,281.08514873140854 L136.26999999999998,281.0550743657043" stroke="black" stroke-width="1.5" />
<path d="M136.26999999999998,281.0550743657043 L136.51999999999998,281.025" stroke="black" stroke-width="1.5" />
<path d="M133.82,300.5 Q137.63,303.548,141.44,300.5 Q137.63,304.1576,133.82,300.5" fill="black" stroke="black" stroke-width="0.7" />
<path d="M138.74,296.1 C137.615,294.075,142.115,291.6,144.14,293.4 C145.265,295.425,140.765,297.9,138.74,296.1" fill="#444" />
<path d="M144.14,294.29999999999995 L144.14,279.9" stroke="black" stroke-width="0.45" />
<path d="M49.375,312.5 Q49.375,311.75,50.0,313.0 Q50.0,316.875,47.5,324.0 M50.0,313.0 C55.0,310.0,55.0,318.75,50.0,316.875" stroke="black" fill="none" stroke-width="0.8333333333333334" />
<path d="M126.2,311.5 L107.91199999999931,315.5 L126.2,317.5" stroke="black" fill="none" stroke-width="0.4" />
<path d="M130.51999999999998,312.5 L130.51999999999998,317.5 Q130.51999999999998,312.5,131.76999999999998,312.5 Q133.01999999999998,312.5,133.01999999999998,317.5 Q133.01999999999998,312.5,134.26999999999998,312.5 Q135.51999999999998,312.5,135.51999999999998,317.5" stroke="black" fill="none" stroke-width="0.8333333333333334" />
<path d="M140.62,308.5 Q140.62,307.5,139.57,307.5 C138.17000000000002,307.5,137.82,319.5,137.47,320.0 Q136.77,320.0,136.77,319.0 M137.12,312.5 H139.92000000000002" stroke="black" fill="none" stroke-width="0.8333333333333334" />
<path d="M165.92000000000002,326.19047619047615 C171.92000000000002,314.19047619047615,182.72000000000003,310.5904761904761,173.12,320.19047619047615 C181.52,310.5904761904761,183.92000000000002,314.19047619047615,174.32000000000002,322.5904761904761 C182.72000000000003,314.19047619047615,186.32000000000002,315.39047619047614,175.52,324.99047619047616 C183.92000000000002,317.79047619047617,182.72000000000003,323.79047619047617,169.52,332.19047619047615" fill="none" stroke="black" stroke-width="0.75" />
<text x="187.16" y="326.19047619047615" font-size="8" font-family="Cantarell Light">(beide Hände, alle Finger)</text>
<path d="M171.22000000000003,362.54047619047617 C170.09500000000003,360.51547619047614,174.59500000000003,358.04047619047617,176.62,359.8404761904761 C177.745,361.86547619047616,173.245,364.3404761904761,171.22000000000003,362.54047619047617" stroke="black" fill="none" stroke-width="0.675" />
<path d="M176.62,359.8404761904761 L176.62,346.88047619047614" stroke="black" stroke-width="0.45" />
<circle cx="179.32" cy="359.39047619047614" r="0.75" fill="black" />
<path d="M171.92000000000002,335.19047619047615 C170.67000000000002,346.85714285714283,173.58666666666667,345.19047619047615,173.58666666666667,343.94047619047615 M170.25333333333336,338.5904761904761 L173.58666666666667,338.5904761904761 M175.25333333333336,345.19047619047615 L175.25333333333336,339.69047619047615 Q176.50333333333336,341.35714285714283,177.75333333333336,339.69047619047615" fill="none" stroke="black" stroke-width="0.8" />
<path d="M177.75333333333336,339.69047619047615 C179.75333333333336,335.69047619047615,179.75333333333336,343.69047619047615,181.75333333333336,339.69047619047615 C183.75333333333336,335.69047619047615,183.75333333333336,343.69047619047615,185.75333333333336,339.69047619047615 C187.75333333333336,335.69047619047615,187.75333333333336,343.69047619047615,189.75333333333336,339.69047619047615 C191.75333333333336,335.69047619047615,191.75333333333336,343.69047619047615,193.75333333333336,339.69047619047615 C195.75333333333336,335.69047619047615,195.75333333333336,343.69047619047615,197.75333333333336,339.69047619047615 C199.75333333333336,335.69047619047615,199.75333333333336,343.69047619047615,201.75333333333336,339.69047619047615 C203.75333333333336,335.69047619047615,203.75333333333336,343.69047619047615,205.75333333333336,339.69047619047615 C207.75333333333336,335.69047619047615,207.75333333333336,343.69047619047615,209.75333333333336,339.69047619047615 C211.75333333333336,335.69047619047615,211.75333333333336,343.69047619047615,213.75333333333336,339.69047619047615 C215.75333333333336,335.69047619047615,215.75333333333336,343.69047619047615,217.75333333333336,339.69047619047615 C219.75333333333336,335.69047619047615,219.75333333333336,343.69047619047615,221.75333333333336,339.69047619047615 C223.75333333333336,335.69047619047615,223.75333333333336,343.69047619047615,225.75333333333336,339.69047619047615 C227.75333333333336,335.69047619047615,227.75333333333336,343.69047619047615,229.75333333333336,339.69047619047615 C231.75333333333336,335.69047619047615,231.75333333333336,343.69047619047615,233.75333333333336,339.69047619047615 C235.75333333333336,335.69047619047615,235.75333333333336,343.69047619047615,237.75333333333336,339.69047619047615 C239.75333333333336,335.69047619047615,239.75333333333336,343.69047619047615,241.75333333333336,339.69047619047615 C243.75333333333336,335.69047619047615,243.75333333333336,343.69047619047615,245.75333333333336,339.69047619047615 C247.75333333333336,335.69047619047615,247.75333333333336,343.69047619047615,249.75333333333336,339.69047619047615 C251.75333333333336,335.69047619047615,251.75333333333336,343.69047619047615,253.75333333333336,339.69047619047615 C255.75333333333336,335.69047619047615,255.75333333333336,343.69047619047615,257.75333333333333,339.69047619047615" fill="none" stroke="black" stroke-width="0.5" />
<path d="M168.62,376.19047619047615 L168.62,381.19047619047615 Q168.62,376.19047619047615,169.87,376.19047619047615 Q171.12,376.19047619047615,171.12,381.19047619047615 Q171.12,376.19047619047615,172.37,376.19047619047615 Q173.62,376.19047619047615,173.62,381.19047619047615" stroke="black" fill="none" stroke-width="0.8333333333333334" />
<path d="M178.72000000000003,372.19047619047615 Q178.72000000000003,371.19047619047615,177.67000000000002,371.19047619047615 C176.27000000000004,371.19047619047615,175.92000000000002,383.19047619047615,175.57000000000002,383.69047619047615 Q174.87000000000003,383.69047619047615,174.87000000000003,382.69047619047615 M175.22000000000003,376.19047619047615 H178.02000000000004" stroke="black" fill="none" stroke-width="0.8333333333333334" />
<path d="M476.02000000000004,311.58809523809526 C474.89500000000004,309.56309523809523,479.39500000000004,307.08809523809526,481.42,308.8880952380952 C482.545,310.91309523809525,478.045,313.3880952380952,476.02000000000004,311.58809523809526" stroke-width="0.9" stroke="black" fill="none" />
<circle cx="484.12" cy="308.43809523809523" r="0.75" fill="black" />
<path d="M486.72,310.23809523809524 L489.72,314.04348230663953 L492.72,309.7093425900717 L495.72,309.3742231359884 L498.72,313.6267649296415 L501.72,315.26294567614104 L504.72,309.5749328110553 L507.72,311.5687573410858 L510.72,309.69722717788784 L513.72,312.1872755087164 L516.72,312.71818678860217 L519.72,317.33697824342516 L522.72,313.09763537573167 L525.72,313.21060679178174 L528.72,312.4676116464668 L531.72,318.4885163754485 L534.72,318.6220101431755 L537.72,320.0898024245986 L540.72,321.08484225633345 L543.72,321.2403611904401 L546.72,316.84704558185 L549.72,320.7596520864133 L552.72,318.9216046864219 L555.72,321.5897671679063 L558.72,316.5963475562296 L561.72,319.7829841551232 L564.72,317.4297625922605 L567.72,319.7734799581453 L570.72,319.8099812961947 L573.72,321.8551911229118 L576.72,326.2841843514727 L579.72,324.3776625693578 L582.72,325.3175419715039 L585.72,322.0587449504515 L588.72,325.9447724602191 L591.72,323.50040344638626 L594.72,327.80027361578385 L597.72,325.41681015162806 L600.72,329.06266976528667 L603.72,325.59687622660124 L606.72,328.13518368265983 L609.72,327.85423399040616 L612.72,331.13430228046906 L615.72,329.1271221906499 L618.72,328.7719166302615 L621.72,331.06931920493673 L624.72,331.8177120465232 L627.72,329.8253279291223 L630.72,329.4039049247255 L633.72,330.5523785438338 L636.72,334.9272503295963 L639.72,329.06057467018576 L642.72,329.12265857788645 L645.72,334.8433593402495 L648.72,332.6251075591414 L651.72,334.6588150581065 L654.72,334.3511269522997 L657.72,337.6553795248539 L660.72,333.87346251943865 L663.72,332.7136380274158 L666.72,338.3708782058606 L669.72,336.67517149237557 L672.72,340.82176889192857 L675.72,339.25716753029326 L678.72,334.4629726655123 L681.72,342.12848674026645 L684.72,335.24959586554417 L687.72,340.716629490706 L690.72,338.7773538080865" fill="none" stroke="#444" stroke-width="0.8" />
<path d="M480.22,321.23809523809524 Q480.22,320.23809523809524,479.17,320.23809523809524 C477.77000000000004,320.23809523809524,477.42,332.23809523809524,477.07000000000005,332.73809523809524 Q476.37,332.73809523809524,476.37,331.73809523809524 M476.72,325.23809523809524 H479.52000000000004" stroke="black" fill="none" stroke-width="0.8333333333333334" />
<path d="M690.6650000000001,317.2580952380952 Q687.1550000000001,311.7005952380952,691.5425,312.87059523809523 L689.495,309.36059523809524 L691.25,307.31309523809523 Q690.08,306.1430952380952,690.08,304.97309523809525" stroke="#444" fill="none" stroke-width="1.0125" />
<path d="M721.1450000000001,317.2580952380952 Q717.6350000000001,311.7005952380952,722.0225,312.87059523809523 L719.975,309.36059523809524 L721.73,307.31309523809523 Q720.5600000000001,306.1430952380952,720.5600000000001,304.97309523809525" stroke="#444" fill="none" stroke-width="1.0125" />
<path d="M748.3399999999999,311.58809523809526 C747.2149999999999,309.56309523809523,751.7149999999999,307.08809523809526,753.74,308.8880952380952 C754.865,310.91309523809525,750.365,313.3880952380952,748.3399999999999,311.58809523809526" fill="#444" />
<path d="M753.74,309.7880952380952 L753.74,292.68809523809523" stroke="black" stroke-width="0.45" />
<path d="M753.74,292.68809523809523 L758.24,299.87009523809525" stroke="black" stroke-width="0.9" />
<path d="M753.74,296.28809523809525 L758.24,303.47009523809527" stroke="black" stroke-width="0.9" />
<path d="M749.12,288.73809523809524 L753.92,290.23809523809524 L749.12,291.73809523809524" stroke="black" stroke-width="1" fill="none" />
<path d="M757.6640000000003,305.8280952380952 Q760.1840000000003,308.66309523809525,763.3340000000003,306.45809523809527 L761.7590000000004,308.34809523809525 Q760.1840000000003,309.92309523809524,757.3490000000003,307.71809523809526 M761.7590000000004,308.34809523809525 Q760.1840000000003,310.23809523809524,760.1840000000003,314.96309523809526" stroke="#444" fill="none" stroke-width="0.8099999999999999" />
<path d="M765.2840000000003,306.45809523809527 Q767.8040000000003,309.4505952380952,770.9540000000003,307.08809523809526 Q767.8040000000003,310.23809523809524,767.8040000000003,314.96309523809526" stroke="#444" fill="none" stroke-width="0.8099999999999999" />
<path d="M782.105,317.2580952380952 Q778.595,311.7005952380952,782.9825,312.87059523809523 L780.935,309.36059523809524 L782.6899999999999,307.31309523809523 Q781.52,306.1430952380952,781.52,304.97309523809525" stroke="#444" fill="none" stroke-width="1.0125" />
<text x="775.4240000000003" y="290.23809523809524" font-size="14" text-anchor="middle">3 x</text>
<path d="M732.7519999999993,295.23809523809524 L732.7519999999993,325.23809523809524" stroke="black" stroke-width="0.5" />
<path d="M735.8,295.23809523809524 L735.8,325.23809523809524" stroke="black" stroke-width="0.5" />
<path d="M815.0480000000007,295.23809523809524 L815.0480000000007,325.23809523809524" stroke="black" stroke-width="0.5" />
<path d="M818.0959999999997,295.23809523809524 L818.0959999999997,325.23809523809524" stroke="black" stroke-width="0.5" />
<circle cx="740.3719999999993" cy="305.23809523809524" r="1.5" fill="black" />
<circle cx="740.3719999999993" cy="315.23809523809524" r="1.5" fill="black" />
<circle cx="810.4759999999997" cy="305.23809523809524" r="1.5" fill="black" />
<circle cx="810.4759999999997" cy="315.23809523809524" r="1.5" fill="black" />
<path d="M293.84000000000003,499.7857142857142 L293.84000000000003,526.7857142857142" stroke="black" stroke-width="0.45" />
<circle cx="293.84000000000003" cy="529.4857142857143" r="0.6749999999999999" fill="black" />
<path d="M297.7502555992603,499.7857142857142 L297.7502555992603,524.7857142857142" stroke="black" stroke-width="0.45" />
<circle cx="297.7502555992603" cy="527.4857142857143" r="0.6749999999999999" fill="black" />
<path d="M302.9639297316073,499.7857142857142 L302.9639297316073,522.7857142857142" stroke="black" stroke-width="0.45" />
<circle cx="302.9639297316073" cy="525.4857142857143" r="0.6749999999999999" fill="black" />
<path d="M309.91549524140333,499.7857142857142 L309.91549524140333,520.7857142857142" stroke="black" stroke-width="0.45" />
<circle cx="309.91549524140333" cy="523.4857142857143" r="0.6749999999999999" fill="black" />
<path d="M319.1842492544647,499.7857142857142 L319.1842492544647,518.7857142857142" stroke="black" stroke-width="0.45" />
<circle cx="319.1842492544647" cy="521.4857142857143" r="0.6749999999999999" fill="black" />
<path d="M331.54258793854655,499.7857142857142 L331.54258793854655,516.7857142857142" stroke="black" stroke-width="0.45" />
<circle cx="331.54258793854655" cy="519.4857142857143" r="0.6749999999999999" fill="black" />
<path d="M348.02037285065563,499.7857142857142 L348.02037285065563,514.7857142857142" stroke="black" stroke-width="0.45" />
<circle cx="348.02037285065563" cy="517.4857142857143" r="0.6749999999999999" fill="black" />
<path d="M293.84000000000003,500.46071428571423 L348.02037285065563,500.46071428571423" stroke="black" stroke-width="1.3499999999999999" />
<path d="M293.84000000000003,504.51071428571424 L331.54258793854655,500.46071428571423" stroke="black" stroke-width="1.3499999999999999" />
<path d="M290.54,539.7857142857142 L290.54,544.7857142857142 Q290.54,539.7857142857142,291.79,539.7857142857142 Q293.04,539.7857142857142,293.04,544.7857142857142 Q293.04,539.7857142857142,294.29,539.7857142857142 Q295.54,539.7857142857142,295.54,544.7857142857142" stroke="black" fill="none" stroke-width="0.8333333333333334" />
<path d="M300.64000000000004,535.7857142857142 Q300.64000000000004,534.7857142857142,299.59000000000003,534.7857142857142 C298.19000000000005,534.7857142857142,297.84000000000003,546.7857142857142,297.49000000000007,547.2857142857142 Q296.79,547.2857142857142,296.79,546.2857142857142 M297.14000000000004,539.7857142857142 H299.94000000000005" stroke="black" fill="none" stroke-width="0.8333333333333334" />
<path d="M302.9840000000004,538.7857142857142 L342.6080000000007,541.7857142857142 L302.9840000000004,544.7857142857142" stroke="black" fill="none" stroke-width="0.4" />
<path d="M348.07900000000035,536.7857142857142 Q348.07900000000035,536.0357142857142,348.70400000000035,537.2857142857142 Q348.70400000000035,541.1607142857142,346.20400000000035,548.2857142857142 M348.70400000000035,537.2857142857142 C353.70400000000035,534.2857142857142,353.70400000000035,543.0357142857142,348.70400000000035,541.1607142857142" stroke="black" fill="none" stroke-width="0.8333333333333334" />
<path d="M352.1,464.4452380952381 C350.975,462.42023809523806,355.475,459.9452380952381,357.5,461.74523809523805 C358.625,463.7702380952381,354.125,466.24523809523805,352.1,464.4452380952381" fill="#444" />
<circle cx="359.75" cy="461.29523809523806" r="0.75" fill="#444" />
<path d="M357.5,462.645238095238 L357.5,446.895238095238" stroke="black" stroke-width="0.45" />
<path d="M357.5,446.895238095238 L362.0,454.07723809523804" stroke="black" stroke-width="0.9" />
<path d="M375.14000000000004,458.68523809523805 Q377.66,461.5202380952381,380.81,459.3152380952381 L379.235,461.2052380952381 Q377.66,462.7802380952381,374.82500000000005,460.5752380952381 M379.235,461.2052380952381 Q377.66,463.0952380952381,377.66,467.8202380952381" stroke="#444" fill="none" stroke-width="0.6749999999999999" />
<path d="M354.8,443.0952380952381 L355.8,441.76814845182275 L356.8,441.5609480295889 L357.8,443.34161786835716 L358.8,441.3691776717263 L359.8,444.8018231267027 L360.8,443.76214895665765 L361.8,442.33389679575924 L362.8,444.6327183112582 L363.8,443.88788042221904 L364.8,443.33162134448094 L365.8,444.09253247255907 L366.8,443.45835038632214 L367.8,443.24636827797633 L368.8,444.3680618181757 L369.8,444.0639337653682 L370.8,441.27022534428147 L371.8,441.68171065376106 L372.8,442.38869003442494 L373.8,443.74211707227175 L374.8,441.6870099819511 L375.8,444.18304314913416 L376.8,444.3559864833991 L377.8,442.43298986128065" fill="none" stroke="black" stroke-width="0.4" />
<path d="M382.58000000000004,464.4452380952381 C381.45500000000004,462.42023809523806,385.95500000000004,459.9452380952381,387.98,461.74523809523805 C389.105,463.7702380952381,384.605,466.24523809523805,382.58000000000004,464.4452380952381" fill="#444" />
<circle cx="390.23" cy="461.29523809523806" r="0.75" fill="#444" />
<path d="M387.98,462.645238095238 L387.98,446.895238095238" stroke="black" stroke-width="0.45" />
<path d="M387.98,446.895238095238 L392.48,454.07723809523804" stroke="black" stroke-width="0.9" />
<path d="M405.62000000000006,458.68523809523805 Q408.14000000000004,461.5202380952381,411.29,459.3152380952381 L409.71500000000003,461.2052380952381 Q408.14000000000004,462.7802380952381,405.30500000000006,460.5752380952381 M409.71500000000003,461.2052380952381 Q408.14000000000004,463.0952380952381,408.14000000000004,467.8202380952381" stroke="#444" fill="none" stroke-width="0.6749999999999999" />
<path d="M385.28000000000003,443.0952380952381 L386.28000000000003,443.1914843958704 L387.28000000000003,444.07673111544966 L388.28000000000003,442.7249672666448 L389.28000000000003,442.1551661010259 L390.28000000000003,444.8175953870912 L391.28000000000003,443.13453572610456 L392.28000000000003,443.0082192550937 L393.28000000000003,444.47283354683924 L394.28000000000003,444.55463384019515 L395.28000000000003,444.15142614408484 L396.28000000000003,443.7815652091191 L397.28000000000003,442.8836740582475 L398.28000000000003,444.77660694397764 L399.28000000000003,444.51946763546744 L400.28000000000003,443.72150497405215 L401.28000000000003,441.64785188680503 L402.28000000000003,444.4843575694528 L403.28000000000003,443.31257008432715 L404.28000000000003,441.821252932474 L405.28000000000003,444.66804234582116 L406.28000000000003,442.549702699921 L407.28000000000003,441.9637138271531 L408.28000000000003,443.8930826344601" fill="none" stroke="black" stroke-width="0.4" />
<path d="M413.06,464.4452380952381 C411.935,462.42023809523806,416.435,459.9452380952381,418.46,461.74523809523805 C419.585,463.7702380952381,415.085,466.24523809523805,413.06,464.4452380952381" fill="#444" />
<circle cx="420.71" cy="461.29523809523806" r="0.75" fill="#444" />
<path d="M418.46,462.645238095238 L418.46,446.895238095238" stroke="black" stroke-width="0.45" />
<path d="M418.46,446.895238095238 L422.96,454.07723809523804" stroke="black" stroke-width="0.9" />
<path d="M436.1,458.68523809523805 Q438.62,461.5202380952381,441.77,459.3152380952381 L440.195,461.2052380952381 Q438.62,462.7802380952381,435.785,460.5752380952381 M440.195,461.2052380952381 Q438.62,463.0952380952381,438.62,467.8202380952381" stroke="#444" fill="none" stroke-width="0.6749999999999999" />
<path d="M415.76,443.0952380952381 L416.76,442.48615622559464 L417.76,444.2472753730194 L418.76,444.41304987318165 L419.76,445.06241714715003 L420.76,442.80227279141684 L421.76,444.27061916483694 L422.76,441.98123544921043 L423.76,443.6974811028791 L424.76,442.2738500356478 L425.76,444.8076625556239 L426.76,445.0530636866253 L427.76,442.7383920445722 L428.76,442.8800236632737 L429.76,441.2023453223962 L430.76,444.023386933741 L431.76,441.46636728054057 L432.76,443.0143638997823 L433.76,441.79699304709027 L434.76,444.7093817159302 L435.76,441.92477085320337 L436.76,442.3009373391644 L437.76,442.1597586713399 L438.76,442.3779070651782" fill="none" stroke="black" stroke-width="0.4" />
<path d="M351.9875,471.5952380952381 Q351.9875,470.92023809523806,352.55,472.04523809523806 Q352.55,475.5327380952381,350.3,481.9452380952381 M352.55,472.04523809523806 C357.05,469.3452380952381,357.05,477.2202380952381,352.55,475.5327380952381" stroke="black" fill="none" stroke-width="0.75" />
<path d="M356.4875,471.5952380952381 Q356.4875,470.92023809523806,357.05,472.04523809523806 Q357.05,475.5327380952381,354.8,481.9452380952381 M357.05,472.04523809523806 C361.55,469.3452380952381,361.55,477.2202380952381,357.05,475.5327380952381" stroke="black" fill="none" stroke-width="0.75" />
<text x="366.99199999999934" y="480.0952380952381" font-size="8" font-family="Cantarell Light">(klanglich wie 16)</text>
</svg>