<?xml version="1.0" encoding="UTF-8"?>
<svg xmlns="http://www.w3.org/2000/svg" xmlns:xlink="http://www.w3.org/1999/xlink"
    width="3368" height="2380" viewBox="0 0 842 595" font-family="Simvoni">
<defs>
</defs>
<text x="421.0" y="585" font-size="10" text-anchor="middle">1</text>
<path d="M75.0,95.95238095238095 L75.0,85.95238095238095" stroke="black" stroke-width="0.3" />
<text x="75.0" y="80.95238095238095" font-size="7" text-anchor="middle">0</text>
<path d="M104.48,95.95238095238095 L104.48,90.95238095238095" stroke="black" stroke-width="0.3" />
<path d="M133.96,95.95238095238095 L133.96,90.95238095238095" stroke="black" stroke-width="0.3" />
<path d="M163.44,95.95238095238095 L163.44,90.95238095238095" stroke="black" stroke-width="0.3" />
<path d="M192.92000000000002,95.95238095238095 L192.92000000000002,90.95238095238095" stroke="black" stroke-width="0.3" />
<path d="M222.4,95.95238095238095 L222.4,85.95238095238095" stroke="black" stroke-width="0.3" />
<text x="222.4" y="80.95238095238095" font-size="7" text-anchor="middle">5</text>
<path d="M251.88,95.95238095238095 L251.88,90.95238095238095" stroke="black" stroke-width="0.3" />
<path d="M281.36,95.95238095238095 L281.36,90.95238095238095" stroke="black" stroke-width="0.3" />
<path d="M310.84000000000003,95.95238095238095 L310.84000000000003,90.95238095238095" stroke="black" stroke-width="0.3" />
<path d="M340.32,95.95238095238095 L340.32,90.95238095238095" stroke="black" stroke-width="0.3" />
<path d="M369.8,95.95238095238095 L369.8,85.95238095238095" stroke="black" stroke-width="0.3" />
<text x="369.8" y="80.95238095238095" font-size="7" text-anchor="middle">10</text>
<path d="M399.28000000000003,95.95238095238095 L399.28000000000003,90.95238095238095" stroke="black" stroke-width="0.3" />
<path d="M428.76,95.95238095238095 L428.76,90.95238095238095" stroke="black" stroke-width="0.3" />
<path d="M458.24,95.95238095238095 L458.24,90.95238095238095" stroke="black" stroke-width="0.3" />
<path d="M487.72,95.95238095238095 L487.72,90.95238095238095" stroke="black" stroke-width="0.3" />
<path d="M517.2,95.95238095238095 L517.2,85.95238095238095" stroke="black" stroke-width="0.3" />
<text x="517.2" y="80.95238095238095" font-size="7" text-anchor="middle">15</text>
<path d="M546.6800000000001,95.95238095238095 L546.6800000000001,90.95238095238095" stroke="black" stroke-width="0.3" />
<path d="M576.1600000000001,95.95238095238095 L576.1600000000001,90.95238095238095" stroke="black" stroke-width="0.3" />
<path d="M605.64,95.95238095238095 L605.64,90.95238095238095" stroke="black" stroke-width="0.3" />
<text x="605.64" y="75.95238095238095" font-size="12" text-anchor="middle">18</text>
<path d="M605.64,80.95238095238095 V100.95238095238095 M601.64,96.95238095238095 L605.64,100.95238095238095 L609.64,96.95238095238095" stroke-width="1" stroke="black" fill="none" transform="rotate(0.000000 605.640000 80.952381)" />
<path d="M635.12,95.95238095238095 L635.12,90.95238095238095" stroke="black" stroke-width="0.3" />
<path d="M664.6,95.95238095238095 L664.6,85.95238095238095" stroke="black" stroke-width="0.3" />
<text x="664.6" y="80.95238095238095" font-size="7" text-anchor="middle">20</text>
<path d="M694.08,95.95238095238095 L694.08,90.95238095238095" stroke="black" stroke-width="0.3" />
<path d="M723.5600000000001,95.95238095238095 L723.5600000000001,90.95238095238095" stroke="black" stroke-width="0.3" />
<path d="M753.04,95.95238095238095 L753.04,90.95238095238095" stroke="black" stroke-width="0.3" />
<path d="M782.52,95.95238095238095 L782.52,90.95238095238095" stroke="black" stroke-width="0.3" />
<path d="M812.0,95.95238095238095 L812.0,85.95238095238095" stroke="black" stroke-width="0.3" />
<text x="812.0" y="80.95238095238095" font-size="7" text-anchor="middle">25</text>
<path d="M75.0,210.59523809523807 L75.0,200.59523809523807" stroke="black" stroke-width="0.3" />
<text x="75.0" y="190.59523809523807" font-size="12" text-anchor="middle">0</text>
<path d="M75.0,195.59523809523807 V215.59523809523807 M71.0,211.59523809523807 L75.0,215.59523809523807 L79.0,211.59523809523807" stroke-width="1" stroke="black" fill="none" transform="rotate(0.000000 75.000000 195.595238)" />
<path d="M104.48,210.59523809523807 L104.48,205.59523809523807" stroke="black" stroke-width="0.3" />
<path d="M133.96,210.59523809523807 L133.96,205.59523809523807" stroke="black" stroke-width="0.3" />
<path d="M163.44,210.59523809523807 L163.44,205.59523809523807" stroke="black" stroke-width="0.3" />
<path d="M192.92000000000002,210.59523809523807 L192.92000000000002,205.59523809523807" stroke="black" stroke-width="0.3" />
<path d="M222.4,210.59523809523807 L222.4,200.59523809523807" stroke="black" stroke-width="0.3" />
<text x="222.4" y="195.59523809523807" font-size="7" text-anchor="middle">5</text>
<path d="M251.88,210.59523809523807 L251.88,205.59523809523807" stroke="black" stroke-width="0.3" />
<path d="M281.36,210.59523809523807 L281.36,205.59523809523807" stroke="black" stroke-width="0.3" />
<path d="M310.84000000000003,210.59523809523807 L310.84000000000003,205.59523809523807" stroke="black" stroke-width="0.3" />
<path d="M340.32,210.59523809523807 L340.32,205.59523809523807" stroke="black" stroke-width="0.3" />
<text x="340.32" y="190.59523809523807" font-size="12" text-anchor="middle">9</text>
<path d="M340.32,195.59523809523807 V215.59523809523807 M336.32,211.59523809523807 L340.32,215.59523809523807 L344.32,211.59523809523807" stroke-width="1" stroke="black" fill="none" transform="rotate(0.000000 340.320000 195.595238)" />
<path d="M369.8,210.59523809523807 L369.8,200.59523809523807" stroke="black" stroke-width="0.3" />
<path d="M399.28000000000003,210.59523809523807 L399.28000000000003,205.59523809523807" stroke="black" stroke-width="0.3" />
<path d="M428.76,210.59523809523807 L428.76,205.59523809523807" stroke="black" stroke-width="0.3" />
<path d="M458.24,210.59523809523807 L458.24,205.59523809523807" stroke="black" stroke-width="0.3" />
<path d="M487.72,210.59523809523807 L487.72,205.59523809523807" stroke="black" stroke-width="0.3" />
<path d="M517.2,210.59523809523807 L517.2,200.59523809523807" stroke="black" stroke-width="0.3" />
<text x="517.2" y="195.59523809523807" font-size="7" text-anchor="middle">15</text>
<path d="M546.6800000000001,210.59523809523807 L546.6800000000001,205.59523809523807" stroke="black" stroke-width="0.3" />
<path d="M576.1600000000001,210.59523809523807 L576.1600000000001,205.59523809523807" stroke="black" stroke-width="0.3" />
<path d="M605.64,210.59523809523807 L605.64,205.59523809523807" stroke="black" stroke-width="0.3" />
<path d="M635.12,210.59523809523807 L635.12,205.59523809523807" stroke="black" stroke-width="0.3" />
<text x="635.12" y="190.59523809523807" font-size="12" text-anchor="middle">19</text>
<path d="M635.12,195.59523809523807 V215.59523809523807 M631.12,211.59523809523807 L635.12,215.59523809523807 L639.12,211.59523809523807" stroke-width="1" stroke="black" fill="none" transform="rotate(0.000000 635.120000 195.595238)" />
<path d="M664.6,210.59523809523807 L664.6,200.59523809523807" stroke="black" stroke-width="0.3" />
<path d="M694.08,210.59523809523807 L694.08,205.59523809523807" stroke="black" stroke-width="0.3" />
<text x="694.08" y="190.59523809523807" font-size="12" text-anchor="middle">21</text>
<path d="M694.08,195.59523809523807 V215.59523809523807 M690.08,211.59523809523807 L694.08,215.59523809523807 L698.08,211.59523809523807" stroke-width="1" stroke="black" fill="none" transform="rotate(0.000000 694.080000 195.595238)" />
<path d="M723.5600000000001,210.59523809523807 L723.5600000000001,205.59523809523807" stroke="black" stroke-width="0.3" />
<path d="M753.04,210.59523809523807 L753.04,205.59523809523807" stroke="black" stroke-width="0.3" />
<path d="M782.52,210.59523809523807 L782.52,205.59523809523807" stroke="black" stroke-width="0.3" />
<path d="M812.0,210.59523809523807 L812.0,200.59523809523807" stroke="black" stroke-width="0.3" />
<text x="812.0" y="195.59523809523807" font-size="7" text-anchor="middle">25</text>
<path d="M75.0,401.66666666666663 L75.0,391.66666666666663" stroke="black" stroke-width="0.3" />
<text x="75.0" y="381.66666666666663" font-size="12" text-anchor="middle">0</text>
<path d="M75.0,386.66666666666663 V406.66666666666663 M71.0,402.66666666666663 L75.0,406.66666666666663 L79.0,402.66666666666663" stroke-width="1" stroke="black" fill="none" transform="rotate(0.000000 75.000000 386.666667)" />
<path d="M104.48,401.66666666666663 L104.48,396.66666666666663" stroke="black" stroke-width="0.3" />
<path d="M133.96,401.66666666666663 L133.96,396.66666666666663" stroke="black" stroke-width="0.3" />
<path d="M163.44,401.66666666666663 L163.44,396.66666666666663" stroke="black" stroke-width="0.3" />
<path d="M192.92000000000002,401.66666666666663 L192.92000000000002,396.66666666666663" stroke="black" stroke-width="0.3" />
<path d="M222.4,401.66666666666663 L222.4,391.66666666666663" stroke="black" stroke-width="0.3" />
<text x="222.4" y="386.66666666666663" font-size="7" text-anchor="middle">5</text>
<path d="M251.88,401.66666666666663 L251.88,396.66666666666663" stroke="black" stroke-width="0.3" />
<path d="M281.36,401.66666666666663 L281.36,396.66666666666663" stroke="black" stroke-width="0.3" />
<path d="M310.84000000000003,401.66666666666663 L310.84000000000003,396.66666666666663" stroke="black" stroke-width="0.3" />
<path d="M340.32,401.66666666666663 L340.32,396.66666666666663" stroke="black" stroke-width="0.3" />
<path d="M369.8,401.66666666666663 L369.8,391.66666666666663" stroke="black" stroke-width="0.3" />
<text x="369.8" y="386.66666666666663" font-size="7" text-anchor="middle">10</text>
<path d="M399.28000000000003,401.66666666666663 L399.28000000000003,396.66666666666663" stroke="black" stroke-width="0.3" />
<path d="M428.76,401.66666666666663 L428.76,396.66666666666663" stroke="black" stroke-width="0.3" />
<path d="M458.24,401.66666666666663 L458.24,396.66666666666663" stroke="black" stroke-width="0.3" />
<path d="M487.72,401.66666666666663 L487.72,396.66666666666663" stroke="black" stroke-width="0.3" />
<path d="M517.2,401.66666666666663 L517.2,391.66666666666663" stroke="black" stroke-width="0.3" />
<text x="517.2" y="381.66666666666663" font-size="12" text-anchor="middle">15</text>
<path d="M517.2,386.66666666666663 V406.66666666666663 M513.2,402.66666666666663 L517.2,406.66666666666663 L521.2,402.66666666666663" stroke-width="1" stroke="black" fill="none" transform="rotate(0.000000 517.200000 386.666667)" />
<path d="M546.6800000000001,401.66666666666663 L546.6800000000001,396.66666666666663" stroke="black" stroke-width="0.3" />
<text x="546.6800000000001" y="381.66666666666663" font-size="12" text-anchor="middle">16</text>
<path d="M546.6800000000001,386.66666666666663 V406.66666666666663 M542.6800000000001,402.66666666666663 L546.6800000000001,406.66666666666663 L550.6800000000001,402.66666666666663" stroke-width="1" stroke="black" fill="none" transform="rotate(0.000000 546.680000 386.666667)" />
<path d="M576.1600000000001,401.66666666666663 L576.1600000000001,396.66666666666663" stroke="black" stroke-width="0.3" />
<path d="M605.64,401.66666666666663 L605.64,396.66666666666663" stroke="black" stroke-width="0.3" />
<path d="M635.12,401.66666666666663 L635.12,396.66666666666663" stroke="black" stroke-width="0.3" />
<text x="635.12" y="381.66666666666663" font-size="12" text-anchor="middle">19</text>
<path d="M635.12,386.66666666666663 V406.66666666666663 M631.12,402.66666666666663 L635.12,406.66666666666663 L639.12,402.66666666666663" stroke-width="1" stroke="black" fill="none" transform="rotate(0.000000 635.120000 386.666667)" />
<path d="M664.6,401.66666666666663 L664.6,391.66666666666663" stroke="black" stroke-width="0.3" />
<path d="M694.08,401.66666666666663 L694.08,396.66666666666663" stroke="black" stroke-width="0.3" />
<text x="694.08" y="381.66666666666663" font-size="12" text-anchor="middle">21</text>
<path d="M694.08,386.66666666666663 V406.66666666666663 M690.08,402.66666666666663 L694.08,406.66666666666663 L698.08,402.66666666666663" stroke-width="1" stroke="black" fill="none" transform="rotate(0.000000 694.080000 386.666667)" />
<path d="M723.5600000000001,401.66666666666663 L723.5600000000001,396.66666666666663" stroke="black" stroke-width="0.3" />
<path d="M753.04,401.66666666666663 L753.04,396.66666666666663" stroke="black" stroke-width="0.3" />
<path d="M782.52,401.66666666666663 L782.52,396.66666666666663" stroke="black" stroke-width="0.3" />
<path d="M812.0,401.66666666666663 L812.0,391.66666666666663" stroke="black" stroke-width="0.3" />
<text x="812.0" y="386.66666666666663" font-size="7" text-anchor="middle">25</text>
<text x="428.76" y="30.0" font-size="20" text-anchor="middle" dominant-baseline="middle">Bizarre Plätze</text>
<path d="M809.6,15.2 C818.0,12.8,818.0,23.6,808.4,26.0 M812.0,8 L812.0,20 Q818.0,8,818.0,21.2" fill="none" stroke="black" stroke-width="1.0" transform="rotate(20 812 20)" />
<path d="M798.8,24.800000000000004 Q812.0,21.200000000000003,798.8,32.0 Q802.4,35.6,807.2,32.0" fill="none" stroke="black" stroke-width="1.0" transform="rotate(20 812 20)" />
<path d="M810.0,23.6 C805.2,24.200000000000003,805.2,33.2,810.0,33.800000000000004 C814.8,33.2,814.8,24.200000000000003,810.0,23.6" fill="none" stroke="black" stroke-width="1.0" transform="rotate(20 812 20)" />
<path d="M813.8,24.800000000000004 Q827.0,21.200000000000003,813.8,32.0 Q817.4,35.6,822.2,32.0" fill="none" stroke="black" stroke-width="1.0" transform="rotate(20 812 20)" />
<path d="M819.8,24.800000000000004 Q833.0,21.200000000000003,819.8,32.0 Q823.4,35.6,828.2,32.0" fill="none" stroke="black" stroke-width="1.0" transform="rotate(20 812 20)" />
<path d="M72.0,56.976190476190474 C70.75,54.726190476190474,75.75,51.976190476190474,78.0,53.976190476190474 C79.25,56.226190476190474,74.25,58.976190476190474,72.0,56.976190476190474" fill="#444" />
<path d="M78.0,54.976190476190474 L78.0,41.476190476190474" stroke="#444" stroke-width="1" />
<text x="83.844" y="55.476190476190474" font-size="12">=</text>
<text x="94.162" y="56.75" font-size="12">54</text>
<text x="10" y="144.64285714285714" font-size="24">V</text>
<text x="22" y="144.64285714285714" font-size="14">oice</text>
<text x="10" y="297.5" font-size="24">P</text>
<text x="22" y="297.5" font-size="14">er-</text>
<text x="10" y="317.5" font-size="14">cussion</text>
<text x="10" y="488.57142857142856" font-size="24">E</text>
<text x="22" y="488.57142857142856" font-size="14">lec-</text>
<text x="10" y="508.57142857142856" font-size="14">tronics</text>
<text x="603.64" y="108.97619047619047" font-size="16" dominant-baseline="hanging">DER</text>
<path d="M602.64,146.14285714285714 C601.39,143.89285714285714,606.39,141.14285714285714,608.64,143.14285714285714 C609.89,145.39285714285714,604.89,148.14285714285714,602.64,146.14285714285714" fill="#444" />
<path d="M608.64,144.14285714285714 L608.64,129.39285714285714" stroke="#444" stroke-width="1" />
<path d="M611.64,144.64285714285714 Q625.728,142.0952380952381,635.12,131.9047619047619 Q625.2584,141.84047619047618,611.64,144.64285714285714" fill="black" stroke="black" stroke-width="1" />
<text x="635.12" y="144.64285714285714" font-size="10" font-family="Cantarell Light" font-style="italic">Sprechstimme</text>
<path d="M602.01,162.07142857142858 L602.01,167.57142857142858 Q602.01,162.07142857142858,603.385,162.07142857142858 Q604.76,162.07142857142858,604.76,167.57142857142858 Q604.76,162.07142857142858,606.135,162.07142857142858 Q607.51,162.07142857142858,607.51,167.57142857142858" stroke="black" fill="none" stroke-width="0.9166666666666666" />
<path d="M613.12,157.67142857142858 Q613.12,156.57142857142858,611.965,156.57142857142858 C610.425,156.57142857142858,610.04,169.77142857142857,609.655,170.32142857142858 Q608.885,170.32142857142858,608.885,169.2214285714286 M609.27,162.07142857142858 H612.35" stroke="black" fill="none" stroke-width="0.9166666666666666" />
<path d="M639.67,155.8714285714286 Q639.67,154.57142857142858,638.305,154.57142857142858 C636.485,154.57142857142858,636.03,170.17142857142858,635.575,170.82142857142858 Q634.665,170.82142857142858,634.665,169.52142857142857 M635.12,161.07142857142858 H638.76" stroke="black" fill="none" stroke-width="1.0833333333333333" />
<path d="M631.12,157.47619047619048 L615.64,162.47619047619048 L631.12,167.47619047619048" stroke="black" fill="none" stroke-width="0.5" />
<path d="M75.0,277.1190476190476 L222.4,277.1190476190476" stroke="black" stroke-width="0.5" />
<path d="M340.32,277.1190476190476 L458.24,277.1190476190476" stroke="black" stroke-width="0.5" />
<path d="M635.12,277.1190476190476 L753.04,277.1190476190476" stroke="black" stroke-width="0.5" />
<text x="75.0" y="228.7142857142857" font-size="12" font-family="Cantarell">Tomtom</text>
<text x="635.12" y="228.7142857142857" font-size="12" font-family="Cantarell">Bongos</text>
<circle cx="77.94800000000001" cy="238.90476190476187" r="2" fill="black" />
<path d="M77.94800000000001,238.90476190476187 L77.94800000000001,250.90476190476187" stroke="black" stroke-width="0.4" />
<path d="M340.32,238.90476190476187 L356.32,238.90476190476187" stroke="black" stroke-width="1.6" />
<path d="M340.32,238.90476190476187 L340.32,243.70476190476188" stroke="black" stroke-width="0.8" />
<path d="M342.32,238.90476190476187 L342.32,243.70476190476188" stroke="black" stroke-width="0.8" />
<path d="M344.32,238.90476190476187 L344.32,243.70476190476188" stroke="black" stroke-width="0.8" />
<path d="M346.32,238.90476190476187 L346.32,243.70476190476188" stroke="black" stroke-width="0.8" />
<path d="M348.32,238.90476190476187 L348.32,243.70476190476188" stroke="black" stroke-width="0.8" />
<path d="M350.32,238.90476190476187 L350.32,243.70476190476188" stroke="black" stroke-width="0.8" />
<path d="M352.32,238.90476190476187 L352.32,243.70476190476188" stroke="black" stroke-width="0.8" />
<path d="M354.32,238.90476190476187 L354.32,243.70476190476188" stroke="black" stroke-width="0.8" />
<path d="M356.32,238.90476190476187 L356.32,243.70476190476188" stroke="black" stroke-width="0.8" />
<path d="M629.12,246.54761904761904 C635.12,234.54761904761904,645.92,230.94761904761904,636.32,240.54761904761904 C644.72,230.94761904761904,647.12,234.54761904761904,637.52,242.94761904761904 C645.92,234.54761904761904,649.52,235.74761904761903,638.72,245.34761904761905 C647.12,238.14761904761903,645.92,244.14761904761903,632.72,252.54761904761904" fill="none" stroke="black" stroke-width="0.75" />
<path d="M638.12,236.94761904761904 L641.72,233.34761904761905" stroke="black" stroke-width="1" stroke-linecap="round" />
<path d="M641.72,236.94761904761904 L645.5600000000001,233.34761904761905" stroke="black" stroke-width="1" stroke-linecap="round" />
<path d="M643.28,239.34761904761905 L647.48,235.74761904761905" stroke="black" stroke-width="1" stroke-linecap="round" />
<path d="M642.32,243.54761904761904 L645.9200000000001,240.54761904761904" stroke="black" stroke-width="1" stroke-linecap="round" />
<path d="M688.08,246.54761904761904 C694.08,234.54761904761904,704.88,230.94761904761904,695.2800000000001,240.54761904761904 C703.6800000000001,230.94761904761904,706.08,234.54761904761904,696.48,242.94761904761904 C704.88,234.54761904761904,708.48,235.74761904761903,697.6800000000001,245.34761904761905 C706.08,238.14761904761903,704.88,244.14761904761903,691.6800000000001,252.54761904761904" fill="none" stroke="black" stroke-width="0.75" />
<text x="70.0" y="277.1190476190476" font-size="10" text-anchor="end" dominant-baseline="middle" font-family="Cantarell">r.H.</text>
<path d="M72.3,278.4690476190476 C71.175,276.4440476190476,75.675,273.9690476190476,77.7,275.76904761904757 C78.825,277.7940476190476,74.325,280.26904761904757,72.3,278.4690476190476" fill="#444" />
<path d="M77.7,276.66904761904755 L77.7,262.26904761904757" stroke="black" stroke-width="0.45" />
<path d="M101.78,278.4690476190476 C100.655,276.4440476190476,105.155,273.9690476190476,107.18,275.76904761904757 C108.305,277.7940476190476,103.805,280.26904761904757,101.78,278.4690476190476" fill="#444" />
<path d="M107.18,276.66904761904755 L107.18,259.5690476190476" stroke="black" stroke-width="0.45" />
<path d="M107.18,259.5690476190476 L111.68,266.7510476190476" stroke="black" stroke-width="0.9" />
<path d="M107.18,263.1690476190476 L111.68,270.3510476190476" stroke="black" stroke-width="0.9" />
<path d="M77.94800000000001,282.1190476190476 Q89.74000000000001,286.83584761904757,101.532,282.1190476190476 Q89.74000000000001,287.77920761904755,77.94800000000001,282.1190476190476" fill="black" stroke="black" stroke-width="0.3" />
<path d="M110.80400000000002,273.3390476190476 Q113.32400000000001,276.33154761904757,116.47400000000002,273.9690476190476 Q113.32400000000001,277.1190476190476,113.32400000000001,281.8440476190476" stroke="#444" fill="none" stroke-width="0.6749999999999999" />
<path d="M122.416,278.4690476190476 C121.291,276.4440476190476,125.791,273.9690476190476,127.816,275.76904761904757 C128.941,277.7940476190476,124.441,280.26904761904757,122.416,278.4690476190476" fill="#444" />
<path d="M127.816,276.66904761904755 L127.816,259.5690476190476" stroke="black" stroke-width="0.45" />
<path d="M127.816,259.5690476190476 L132.316,266.7510476190476" stroke="black" stroke-width="0.9" />
<path d="M127.816,263.1690476190476 L132.316,270.3510476190476" stroke="black" stroke-width="0.9" />
<path d="M123.196,252.69047619047615 L127.996,254.19047619047615 L123.196,255.69047619047615" stroke="black" stroke-width="1" fill="none" />
<path d="M126.59,282.1190476190476 Q131.012,285.6566476190476,135.434,282.1190476190476 Q131.012,286.3641676190476,126.59,282.1190476190476" fill="black" stroke="black" stroke-width="0.5" />
<path d="M134.20800000000003,278.4690476190476 C133.08300000000003,276.4440476190476,137.58300000000003,273.9690476190476,139.608,275.76904761904757 C140.733,277.7940476190476,136.233,280.26904761904757,134.20800000000003,278.4690476190476" fill="#444" />
<path d="M139.608,276.66904761904755 L139.608,261.14404761904757" stroke="black" stroke-width="0.45" />
<path d="M146.0,278.4690476190476 C144.875,276.4440476190476,149.375,273.9690476190476,151.39999999999998,275.76904761904757 C152.52499999999998,277.7940476190476,148.02499999999998,280.26904761904757,146.0,278.4690476190476" fill="#444" />
<path d="M151.39999999999998,276.66904761904755 L151.39999999999998,261.14404761904757" stroke="black" stroke-width="0.45" />
<path d="M139.608,261.14404761904757 L151.39999999999998,261.14404761904757" stroke="black" stroke-width="2" />
<path d="M151.64800000000002,282.1190476190476 Q156.07000000000002,285.6566476190476,160.49200000000002,282.1190476190476 Q156.07000000000002,286.3641676190476,151.64800000000002,282.1190476190476" fill="black" stroke="black" stroke-width="0.5" />
<path d="M160.74,278.4690476190476 C159.615,276.4440476190476,164.115,273.9690476190476,166.14,275.76904761904757 C167.265,277.7940476190476,162.765,280.26904761904757,160.74,278.4690476190476" fill="#444" />
<path d="M166.14,276.66904761904755 L166.14,262.26904761904757" stroke="black" stroke-width="0.45" />
<path d="M166.388,282.1190476190476 Q178.91700000000003,287.1306476190476,191.44600000000003,282.1190476190476 Q178.91700000000003,288.1329676190476,166.388,282.1190476190476" fill="black" stroke="black" stroke-width="0.3" />
<path d="M190.22000000000003,278.4690476190476 C189.09500000000003,276.4440476190476,193.59500000000003,273.9690476190476,195.62,275.76904761904757 C196.745,277.7940476190476,192.245,280.26904761904757,190.22000000000003,278.4690476190476" fill="#444" />
<circle cx="197.87" cy="275.3190476190476" r="0.75" fill="#444" />
<path d="M195.62,276.66904761904755 L195.62,260.91904761904755" stroke="black" stroke-width="0.45" />
<path d="M195.62,260.91904761904755 L200.12,268.10104761904756" stroke="black" stroke-width="0.9" />
<path d="M212.51,272.70904761904757 Q215.03,275.5440476190476,218.18,273.3390476190476 L216.605,275.2290476190476 Q215.03,276.8040476190476,212.195,274.5990476190476 M216.605,275.2290476190476 Q215.03,277.1190476190476,215.03,281.8440476190476" stroke="#444" fill="none" stroke-width="0.6749999999999999" />
<path d="M78.85,287.6 Q78.85,286.5,77.695,286.5 C76.155,286.5,75.77,299.7,75.385,300.25 Q74.615,300.25,74.615,299.15 M75.0,292.0 H78.08" stroke="black" fill="none" stroke-width="0.9166666666666666" />
<path d="M148.7,284.1190476190476 L148.7,320.42857142857144" stroke="black" stroke-width="0.3" stroke-dasharray="2 2" />
<text x="70.0" y="328.07142857142856" font-size="10" text-anchor="end" dominant-baseline="middle" font-family="Cantarell">l.H.</text>
<text x="74.0" y="315.3333333333333" font-size="10" text-anchor="end" dominant-baseline="middle" font-family="Cantarell">+</text>
<text x="74.0" y="340.8095238095238" font-size="10" text-anchor="end" dominant-baseline="middle" font-family="Cantarell">-</text>
<circle cx="80.896" cy="345.90476190476187" r="2" fill="black" />
<path d="M80.896,345.90476190476187 L80.896,359.90476190476187" stroke="black" stroke-width="0.4" />
<path d="M75.42800000000001,323.66142857142853 Q77.94800000000001,326.49642857142857,81.09800000000001,324.2914285714286 L79.52300000000001,326.18142857142857 Q77.94800000000001,327.75642857142856,75.11300000000001,325.5514285714286 M79.52300000000001,326.18142857142857 Q77.94800000000001,328.07142857142856,77.94800000000001,332.7964285714286" stroke="#444" fill="none" stroke-width="0.6749999999999999" />
<path d="M82.37,340.8095238095238 L104.48,315.3333333333333 L142.804,315.3333333333333" stroke="black" fill="none" />
<path d="M146.17999999999998,323.66142857142853 Q148.7,326.49642857142857,151.85,324.2914285714286 L150.27499999999998,326.18142857142857 Q148.7,327.75642857142856,145.86499999999998,325.5514285714286 M150.27499999999998,326.18142857142857 Q148.7,328.07142857142856,148.7,332.7964285714286" stroke="#444" fill="none" stroke-width="0.6749999999999999" />
<path d="M156.07,340.8095238095238 L207.66,315.3333333333333" stroke="black" fill="none" />
<path d="M212.51,323.66142857142853 Q215.03,326.49642857142857,218.18,324.2914285714286 L216.605,326.18142857142857 Q215.03,327.75642857142856,212.195,325.5514285714286 M216.605,326.18142857142857 Q215.03,328.07142857142856,215.03,332.7964285714286" stroke="#444" fill="none" stroke-width="0.6749999999999999" />
<text x="89.74" y="348.4523809523809" font-size="10" font-family="Cantarell">Druck</text>
<path d="M222.4,277.1190476190476 L325.58000000000004,277.1190476190476" stroke="gray" stroke-width="0.5" stroke-dasharray="2 8" />
<path d="M337.62,278.4690476190476 C336.495,276.4440476190476,340.995,273.9690476190476,343.02,275.76904761904757 C344.145,277.7940476190476,339.645,280.26904761904757,337.62,278.4690476190476" fill="#444" />
<path d="M343.02,276.66904761904755 L343.02,262.26904761904757" stroke="black" stroke-width="0.45" />
<path d="M358.436,273.3390476190476 Q360.95599999999996,276.33154761904757,364.10599999999994,273.9690476190476 Q360.95599999999996,277.1190476190476,360.95599999999996,281.8440476190476" stroke="#444" fill="none" stroke-width="0.6749999999999999" />
<path d="M370.228,273.3390476190476 Q372.748,276.33154761904757,375.89799999999997,273.9690476190476 Q372.748,277.1190476190476,372.748,281.8440476190476" stroke="#444" fill="none" stroke-width="0.6749999999999999" />
<path d="M378.89200000000005,278.4690476190476 C377.76700000000005,276.4440476190476,382.26700000000005,273.9690476190476,384.29200000000003,275.76904761904757 C385.41700000000003,277.7940476190476,380.91700000000003,280.26904761904757,378.89200000000005,278.4690476190476" fill="#444" />
<path d="M384.29200000000003,276.66904761904755 L384.29200000000003,262.26904761904757" stroke="black" stroke-width="0.45" />
<path d="M399.708,273.3390476190476 Q402.228,276.33154761904757,405.378,273.9690476190476 Q402.228,277.1190476190476,402.228,281.8440476190476" stroke="#444" fill="none" stroke-width="0.6749999999999999" />
<path d="M408.552,273.3390476190476 Q411.072,276.33154761904757,414.222,273.9690476190476 Q411.072,277.1190476190476,411.072,281.8440476190476" stroke="#444" fill="none" stroke-width="0.6749999999999999" />
<path d="M416.0368,278.4690476190476 C414.9118,276.4440476190476,419.4118,273.9690476190476,421.4368,275.76904761904757 C422.5618,277.7940476190476,418.0618,280.26904761904757,416.0368,278.4690476190476" fill="#444" />
<path d="M421.4368,276.66904761904755 L421.4368,260.91904761904755" stroke="black" stroke-width="0.45" />
<path d="M421.4368,260.91904761904755 L425.9368,268.10104761904756" stroke="black" stroke-width="0.9" />
<path d="M419.916,282.1190476190476 Q423.601,285.06704761904757,427.286,282.1190476190476 Q423.601,285.6566476190476,419.916,282.1190476190476" fill="black" stroke="black" stroke-width="0.5" />
<path d="M426.06,278.4690476190476 C424.935,276.4440476190476,429.435,273.9690476190476,431.46,275.76904761904757 C432.585,277.7940476190476,428.085,280.26904761904757,426.06,278.4690476190476" fill="#444" />
<path d="M431.46,276.66904761904755 L431.46,260.91904761904755" stroke="black" stroke-width="0.45" />
<path d="M431.46,260.91904761904755 L435.96,268.10104761904756" stroke="black" stroke-width="0.9" />
<path d="M435.96840000000003,273.3390476190476 Q438.4884,276.33154761904757,441.6384,273.9690476190476 Q438.4884,277.1190476190476,438.4884,281.8440476190476" stroke="#444" fill="none" stroke-width="0.6749999999999999" />
<path d="M445.69680000000005,273.3390476190476 Q448.21680000000003,276.33154761904757,451.3668,273.9690476190476 Q448.21680000000003,277.1190476190476,448.21680000000003,281.8440476190476" stroke="#444" fill="none" stroke-width="0.6749999999999999" />
<text x="355.06" y="256.73809523809524" font-size="7" text-anchor="middle" font-family="Cantarell" font-style="italic" dominant-baseline="middle">3</text>
<path d="M341.32,260.73809523809524 L341.32,256.73809523809524 L351.56,256.73809523809524 M358.56,256.73809523809524 L368.8,256.73809523809524 L368.8,260.73809523809524" stroke="black" stroke-width="0.3" fill="none" />
<text x="384.54" y="256.73809523809524" font-size="7" text-anchor="middle" font-family="Cantarell" font-style="italic" dominant-baseline="middle">3</text>
<path d="M370.8,260.73809523809524 L370.8,256.73809523809524 L381.04,256.73809523809524 M388.04,256.73809523809524 L398.28000000000003,256.73809523809524 L398.28000000000003,260.73809523809524" stroke="black" stroke-width="0.3" fill="none" />
<text x="414.02000000000004" y="256.73809523809524" font-size="7" text-anchor="middle" font-family="Cantarell" font-style="italic" dominant-baseline="middle">3</text>
<path d="M400.28000000000003,260.73809523809524 L400.28000000000003,256.73809523809524 L410.52000000000004,256.73809523809524 M417.52000000000004,256.73809523809524 L427.76000000000005,256.73809523809524 L427.76000000000005,260.73809523809524" stroke="black" stroke-width="0.3" fill="none" />
<text x="443.50000000000006" y="256.73809523809524" font-size="7" text-anchor="middle" font-family="Cantarell" font-style="italic" dominant-baseline="middle">3</text>
<path d="M429.76000000000005,260.73809523809524 L429.76000000000005,256.73809523809524 L440.00000000000006,256.73809523809524 M447.00000000000006,256.73809523809524 L457.24000000000007,256.73809523809524 L457.24000000000007,260.73809523809524" stroke="black" stroke-width="0.3" fill="none" />
<path d="M336.82,292.5 L336.82,297.5 Q336.82,292.5,338.07,292.5 Q339.32,292.5,339.32,297.5 Q339.32,292.5,340.57,292.5 Q341.82,292.5,341.82,297.5" stroke="black" fill="none" stroke-width="0.8333333333333334" />
<path d="M343.195,292.5 Q343.195,291.75,343.82,293.0 Q343.82,296.875,341.32,304.0 M343.82,293.0 C348.82,290.0,348.82,298.75,343.82,296.875" stroke="black" fill="none" stroke-width="0.8333333333333334" />
<path d="M635.368,278.4690476190476 C634.243,276.4440476190476,638.743,273.9690476190476,640.7680000000001,275.76904761904757 C641.8930000000001,277.7940476190476,637.3930000000001,280.26904761904757,635.368,278.4690476190476" stroke="black" fill="none" stroke-width="0.675" />
<path d="M640.7680000000001,275.76904761904757 L640.7680000000001,262.8090476190476" stroke="black" stroke-width="0.45" />
<path d="M635.12,256.73809523809524 L636.12,256.49400935826577 L637.12,254.6934133280268 L638.12,253.94222072614474 L639.12,258.86143512748623 L640.12,254.7700977623522 L641.12,257.7472214210557 L642.12,259.7254790134096 L643.12,258.8315387731678 L644.12,257.56043888770375 L645.12,254.6251987598719 L646.12,254.28255207117073 L647.12,255.73919692053414 L648.12,254.2525072756369 L649.12,252.9834201205303 L650.12,258.18937131536586 L651.12,255.06955422926094 L652.12,258.45567734769537 L653.12,253.01381997574896 L654.12,253.1715637532459 L655.12,253.69417807371602 L656.12,253.26884586112666 L657.12,254.75766216334802 L658.12,259.87623247348876 L659.12,260.3733123954393 L660.12,256.16709725156113 L661.12,253.72025820541262 L662.12,256.04075578464557 L663.12,256.51891394134145 L664.12,254.874560036011 L665.12,254.83738267421953 L666.12,257.5673382018622 L667.12,255.2429774452623 L668.12,256.46719399634054 L669.12,253.83977766286952 L670.12,256.96707502443377 L671.12,253.85543396957632 L672.12,260.04184680498196 L673.12,259.7532700694035 L674.12,254.46326412490464 L675.12,254.94491028975403 L676.12,253.93704425702097 L677.12,257.4167589013814 L678.12,254.46643589242964 L679.12,254.3344377921102 L680.12,255.3883045116079 L681.12,256.2581977496377 L682.12,254.50956830243646 L683.12,258.4845983259219 L684.12,258.0645918361282 L685.12,258.1711368145256 L686.12,255.468273801124 L687.12,259.7269233949055 L688.12,255.82369233087172 L689.12,253.75639079558113" fill="none" stroke="black" stroke-width="0.8" />
<path d="M691.38,275.4990476190476 C690.255,273.47404761904755,694.755,270.9990476190476,696.7800000000001,272.79904761904754 C697.9050000000001,274.8240476190476,693.4050000000001,277.29904761904754,691.38,275.4990476190476" fill="#444" />
<path d="M696.7800000000001,273.6990476190475 L696.7800000000001,259.29904761904754" stroke="black" stroke-width="0.45" />
<path d="M710.8367999999999,281.43904761904764 C709.7117999999999,279.4140476190476,714.2117999999999,276.93904761904764,716.2368,278.7390476190476 C717.3618,280.76404761904763,712.8618,283.2390476190476,710.8367999999999,281.43904761904764" fill="#444" />
<path d="M716.2368,279.6390476190476 L716.2368,263.8890476190476" stroke="black" stroke-width="0.45" />
<path d="M716.2368,263.8890476190476 L720.7368,271.0710476190476" stroke="black" stroke-width="0.9" />
<path d="M714.716,285.0890476190476 Q718.4010000000001,288.0370476190476,722.086,285.0890476190476 Q718.4010000000001,288.6266476190476,714.716,285.0890476190476" fill="black" stroke="black" stroke-width="0.5" />
<path d="M720.86,281.43904761904764 C719.735,279.4140476190476,724.235,276.93904761904764,726.2600000000001,278.7390476190476 C727.3850000000001,280.76404761904763,722.8850000000001,283.2390476190476,720.86,281.43904761904764" fill="#444" />
<path d="M726.2600000000001,279.6390476190476 L726.2600000000001,263.8890476190476" stroke="black" stroke-width="0.45" />
<path d="M726.2600000000001,263.8890476190476 L730.7600000000001,271.0710476190476" stroke="black" stroke-width="0.9" />
<path d="M730.7683999999999,273.3390476190476 Q733.2883999999999,276.33154761904757,736.4383999999999,273.9690476190476 Q733.2883999999999,277.1190476190476,733.2883999999999,281.8440476190476" stroke="#444" fill="none" stroke-width="0.6749999999999999" />
<path d="M740.4968,273.3390476190476 Q743.0168,276.33154761904757,746.1668,273.9690476190476 Q743.0168,277.1190476190476,743.0168,281.8440476190476" stroke="#444" fill="none" stroke-width="0.6749999999999999" />
<text x="708.82" y="254.1904761904762" font-size="7" text-anchor="middle" font-family="Cantarell" font-style="italic" dominant-baseline="middle">3</text>
<path d="M695.08,258.1904761904762 L695.08,254.1904761904762 L705.32,254.1904761904762 M712.32,254.1904761904762 L722.5600000000001,254.1904761904762 L722.5600000000001,258.1904761904762" stroke="black" stroke-width="0.3" fill="none" />
<text x="738.3000000000001" y="254.1904761904762" font-size="7" text-anchor="middle" font-family="Cantarell" font-style="italic" dominant-baseline="middle">3</text>
<path d="M724.5600000000001,258.1904761904762 L724.5600000000001,254.1904761904762 L734.8000000000001,254.1904761904762 M741.8000000000001,254.1904761904762 L752.0400000000001,254.1904761904762 L752.0400000000001,258.1904761904762" stroke="black" stroke-width="0.3" fill="none" />
<path d="M636.97,288.5 Q636.97,287.5,635.9200000000001,287.5 C634.52,287.5,634.1700000000001,299.5,633.82,300.0 Q633.12,300.0,633.12,299.0 M633.47,292.5 H636.27" stroke="black" fill="none" stroke-width="0.8333333333333334" />
<path d="M640.27,288.5 Q640.27,287.5,639.22,287.5 C637.8199999999999,287.5,637.47,299.5,637.12,300.0 Q636.42,300.0,636.42,299.0 M636.77,292.5 H639.5699999999999" stroke="black" fill="none" stroke-width="0.8333333333333334" />
<path d="M690.7800000000001,292.5 L690.7800000000001,297.5 Q690.7800000000001,292.5,692.0300000000001,292.5 Q693.2800000000001,292.5,693.2800000000001,297.5 Q693.2800000000001,292.5,694.5300000000001,292.5 Q695.7800000000001,292.5,695.7800000000001,297.5" stroke="black" fill="none" stroke-width="0.8333333333333334" />
<path d="M700.88,288.5 Q700.88,287.5,699.83,287.5 C698.43,287.5,698.08,299.5,697.73,300.0 Q697.03,300.0,697.03,299.0 M697.38,292.5 H700.18" stroke="black" fill="none" stroke-width="0.8333333333333334" />
<path d="M75.0,488.57142857142856 L75.0,505.38571428571424" stroke="black" stroke-width="0.5" />
<path d="M119.22,488.57142857142856 L119.22,505.38571428571424" stroke="black" stroke-width="0.5" />
<path d="M146.3416,488.57142857142856 L146.3416,505.38571428571424" stroke="black" stroke-width="0.5" />
<path d="M166.0932,488.57142857142856 L166.0932,505.38571428571424" stroke="black" stroke-width="0.5" />
<path d="M181.4228,488.57142857142856 L181.4228,505.38571428571424" stroke="black" stroke-width="0.5" />
<path d="M193.80440000000002,488.57142857142856 L193.80440000000002,505.38571428571424" stroke="black" stroke-width="0.5" />
<path d="M204.41719999999998,488.57142857142856 L204.41719999999998,505.38571428571424" stroke="black" stroke-width="0.5" />
<path d="M213.556,488.57142857142856 L213.556,505.38571428571424" stroke="black" stroke-width="0.5" />
<path d="M221.2208,488.57142857142856 L221.2208,505.38571428571424" stroke="black" stroke-width="0.5" />
<path d="M228.0012,488.57142857142856 L228.0012,505.38571428571424" stroke="black" stroke-width="0.5" />
<path d="M234.192,488.57142857142856 L234.192,505.38571428571424" stroke="black" stroke-width="0.5" />
<path d="M239.79319999999998,488.57142857142856 L239.79319999999998,505.38571428571424" stroke="black" stroke-width="0.5" />
<path d="M244.51,488.57142857142856 L244.51,505.38571428571424" stroke="black" stroke-width="0.5" />
<path d="M248.93200000000002,488.57142857142856 L248.93200000000002,505.38571428571424" stroke="black" stroke-width="0.5" />
<path d="M253.0592,488.57142857142856 L253.0592,505.38571428571424" stroke="black" stroke-width="0.5" />
<path d="M256.89160000000004,488.57142857142856 L256.89160000000004,505.38571428571424" stroke="black" stroke-width="0.5" />
<path d="M260.1344,488.57142857142856 L260.1344,505.38571428571424" stroke="black" stroke-width="0.5" />
<path d="M263.3772,488.57142857142856 L263.3772,505.38571428571424" stroke="black" stroke-width="0.5" />
<path d="M266.0304,488.57142857142856 L266.0304,505.38571428571424" stroke="black" stroke-width="0.5" />
<path d="M268.6836,488.57142857142856 L268.6836,505.38571428571424" stroke="black" stroke-width="0.5" />
<path d="M271.33680000000004,488.57142857142856 L271.33680000000004,505.38571428571424" stroke="black" stroke-width="0.5" />
<path d="M273.4004,488.57142857142856 L273.4004,505.38571428571424" stroke="black" stroke-width="0.5" />
<path d="M275.464,488.57142857142856 L275.464,505.38571428571424" stroke="black" stroke-width="0.5" />
<path d="M277.5276,488.57142857142856 L277.5276,505.38571428571424" stroke="black" stroke-width="0.5" />
<path d="M279.2964,488.57142857142856 L279.2964,505.38571428571424" stroke="black" stroke-width="0.5" />
<path d="M281.0652,488.57142857142856 L281.0652,505.38571428571424" stroke="black" stroke-width="0.5" />
<path d="M75.0,488.57142857142856 L281.36,488.57142857142856" stroke="black" stroke-width="1" />
<text x="133.96" y="478.57142857142856" font-size="10" font-family="Cantarell Light">mit Tonhöhe (ähnlich Tomtom)</text>
<path d="M71.7,521.7857142857142 L71.7,526.7857142857142 Q71.7,521.7857142857142,72.95,521.7857142857142 Q74.2,521.7857142857142,74.2,526.7857142857142 Q74.2,521.7857142857142,75.45,521.7857142857142 Q76.7,521.7857142857142,76.7,526.7857142857142" stroke="black" fill="none" stroke-width="0.8333333333333334" />
<path d="M81.8,517.7857142857142 Q81.8,516.7857142857142,80.75,516.7857142857142 C79.35,516.7857142857142,79.0,528.7857142857142,78.64999999999999,529.2857142857142 Q77.95,529.2857142857142,77.95,528.2857142857142 M78.3,521.7857142857142 H81.1" stroke="black" fill="none" stroke-width="0.8333333333333334" />
<path d="M277.78700000000003,521.7857142857142 Q277.78700000000003,521.0357142857142,278.41200000000003,522.2857142857142 Q278.41200000000003,526.1607142857142,275.91200000000003,533.2857142857142 M278.41200000000003,522.2857142857142 C283.41200000000003,519.2857142857142,283.41200000000003,528.0357142857142,278.41200000000003,526.1607142857142" stroke="black" fill="none" stroke-width="0.8333333333333334" />
<path d="M89.74,519.7857142857142 L269.568,526.7857142857142 L89.74,527.7857142857142" stroke="black" fill="none" stroke-width="0.4" />
<path d="M95.01,476.88333333333327 C94.135,475.3083333333333,97.635,473.38333333333327,99.21,474.78333333333325 C100.085,476.35833333333323,96.585,478.28333333333325,95.01,476.88333333333327" fill="#444" />
<path d="M99.21,475.48333333333323 L99.21,464.28333333333325" stroke="black" stroke-width="0.35000000000000003" />
<circle cx="101.485" cy="474.4333333333332" r="0.7000000000000001" fill="#444" />
<text x="97.11" y="475.83333333333326" font-size="7" text-anchor="middle" font-family="Cantarell" font-style="italic" dominant-baseline="middle"></text>
<path d="M75.0,479.83333333333326 L75.0,475.83333333333326 L91.61,475.83333333333326 M102.61,475.83333333333326 L119.22,475.83333333333326 L119.22,479.83333333333326" stroke="black" stroke-width="0.3" fill="none" />
<path d="M514.5,566.35 C513.375,564.325,517.875,561.85,519.9000000000001,563.65 C521.0250000000001,565.675,516.5250000000001,568.15,514.5,566.35" stroke="black" fill="none" stroke-width="0.675" />
<path d="M519.9000000000001,563.65 L519.9000000000001,550.6899999999999" stroke="black" stroke-width="0.45" />
<circle cx="522.1500000000001" cy="563.1999999999999" r="0.75" fill="black" />
<path d="M526.0440000000001,565.0 Q572.0328000000001,559.9047619047619,602.692,539.5238095238095 Q570.4998400000001,559.3952380952381,526.0440000000001,565.0" fill="black" stroke="black" stroke-width="0.5" />
<path d="M632.6,433.8390476190476 Q635.12,436.83154761904757,638.27,434.4690476190476 Q635.12,437.6190476190476,635.12,442.3440476190476" stroke="#444" fill="none" stroke-width="0.6749999999999999" />
<path d="M642.3284,433.8390476190476 Q644.8484,436.83154761904757,647.9984,434.4690476190476 Q644.8484,437.6190476190476,644.8484,442.3440476190476" stroke="#444" fill="none" stroke-width="0.6749999999999999" />
<path d="M651.8768,441.9690476190476 C650.7518,439.9440476190476,655.2518,437.4690476190476,657.2768000000001,439.26904761904757 C658.4018000000001,441.2940476190476,653.9018000000001,443.76904761904757,651.8768,441.9690476190476" fill="#444" />
<path d="M657.2768000000001,440.16904761904755 L657.2768000000001,424.41904761904755" stroke="black" stroke-width="0.45" />
<path d="M657.2768000000001,424.41904761904755 L661.7768000000001,431.60104761904756" stroke="black" stroke-width="0.9" />
<text x="649.86" y="417.6190476190476" font-size="7" text-anchor="middle" font-family="Cantarell" font-style="italic" dominant-baseline="middle">3</text>
<path d="M636.12,421.6190476190476 L636.12,417.6190476190476 L646.36,417.6190476190476 M653.36,417.6190476190476 L663.6,417.6190476190476 L663.6,421.6190476190476" stroke="black" stroke-width="0.3" fill="none" />
<path d="M664.6,440.6190476190476 Q682.288,437.47142857142853,694.08,424.88095238095235 Q681.6984,437.15666666666664,664.6,440.6190476190476" fill="black" stroke="black" stroke-width="0.3" />
<path d="M515.2800000000001,545.6666666666666 L520.08,547.1666666666666 L515.2800000000001,548.6666666666666" stroke="black" stroke-width="1" fill="none" />
<path d="M520.7,573.8333333333333 Q520.7,572.8333333333333,519.6500000000001,572.8333333333333 C518.25,572.8333333333333,517.9000000000001,584.8333333333333,517.5500000000001,585.3333333333333 Q516.85,585.3333333333333,516.85,584.3333333333333 M517.2,577.8333333333333 H520.0" stroke="black" fill="none" stroke-width="0.8333333333333334" />
<path d="M593.6709999999999,577.8333333333333 Q593.6709999999999,577.0833333333333,594.2959999999999,578.3333333333333 Q594.2959999999999,582.2083333333333,591.7959999999999,589.3333333333333 M594.2959999999999,578.3333333333333 C599.2959999999999,575.3333333333333,599.2959999999999,584.0833333333333,594.2959999999999,582.2083333333333" stroke="black" fill="none" stroke-width="0.8333333333333334" />
<path d="M598.6709999999999,577.8333333333333 Q598.6709999999999,577.0833333333333,599.2959999999999,578.3333333333333 Q599.2959999999999,582.2083333333333,596.7959999999999,589.3333333333333 M599.2959999999999,578.3333333333333 C604.2959999999999,575.3333333333333,604.2959999999999,584.0833333333333,599.2959999999999,582.2083333333333" stroke="black" fill="none" stroke-width="0.8333333333333334" />
<path d="M526.0440000000001,576.2857142857143 L585.004,581.5595238095237 L526.0440000000001,584.2857142857143" stroke="black" fill="none" stroke-width="0.4" />
<path d="M652.1830000000001,448.6190476190476 Q652.1830000000001,447.8690476190476,652.8080000000001,449.1190476190476 Q652.8080000000001,452.9940476190476,650.3080000000001,460.1190476190476 M652.8080000000001,449.1190476190476 C657.8080000000001,446.1190476190476,657.8080000000001,454.8690476190476,652.8080000000001,452.9940476190476" stroke="black" fill="none" stroke-width="0.8333333333333334" />
<path d="M685.0590000000001,448.6190476190476 Q685.0590000000001,447.8690476190476,685.6840000000001,449.1190476190476 Q685.6840000000001,452.9940476190476,683.1840000000001,460.1190476190476 M685.6840000000001,449.1190476190476 C690.6840000000001,446.1190476190476,690.6840000000001,454.8690476190476,685.6840000000001,452.9940476190476" stroke="black" fill="none" stroke-width="0.8333333333333334" />
<path d="M690.0590000000001,448.6190476190476 Q690.0590000000001,447.8690476190476,690.6840000000001,449.1190476190476 Q690.6840000000001,452.9940476190476,688.1840000000001,460.1190476190476 M690.6840000000001,449.1190476190476 C695.6840000000001,446.1190476190476,695.6840000000001,454.8690476190476,690.6840000000001,452.9940476190476" stroke="black" fill="none" stroke-width="0.8333333333333334" />
<path d="M695.0590000000001,448.6190476190476 Q695.0590000000001,447.8690476190476,695.6840000000001,449.1190476190476 Q695.6840000000001,452.9940476190476,693.1840000000001,460.1190476190476 M695.6840000000001,449.1190476190476 C700.6840000000001,446.1190476190476,700.6840000000001,454.8690476190476,695.6840000000001,452.9940476190476" stroke="black" fill="none" stroke-width="0.8333333333333334" />
<path d="M661.6519999999999,451.1190476190476 L679.34,453.6190476190476 L661.6519999999999,456.1190476190476" stroke="black" fill="none" stroke-width="0.4" />
<path d="M546.6800000000001,475.8333333333333 L547.6800000000001,476.2780750647758 L548.6800000000001,477.2353963117363 L549.6800000000001,474.4397947266105 L550.6800000000001,474.6230649095597 L551.6800000000001,477.719020842139 L552.6800000000001,475.73562646739674 L553.6800000000001,474.964029128683 L554.6800000000001,477.42231185655976 L555.6800000000001,476.1244842703778 L556.6800000000001,477.55904164083586 L557.6800000000001,475.90604272370183 L558.6800000000001,473.8491259197572 L559.6800000000001,476.9265784179439 L560.6800000000001,476.696333882983 L561.6800000000001,473.98335591489194 L562.6800000000001,475.0122128497339 L563.6800000000001,477.5203794946252 L564.6800000000001,474.1065191202982 L565.6800000000001,476.8463979586604 L566.6800000000001,476.04696199934494 L567.6800000000001,475.9186506325185 L568.6800000000001,474.25700295913254 L569.6800000000001,477.04663688162583 L570.6800000000001,477.16370089594926 L571.6800000000001,476.3683804243492 L572.6800000000001,474.6806340568053 L573.6800000000001,476.35730436270916 L574.6800000000001,474.07289164157737 L575.6800000000001,475.89429018170625 L576.6800000000001,477.08861823949644 L577.6800000000001,475.22857406247647 L578.6800000000001,477.72374398116426 L579.6800000000001,476.15434317022556 L580.6800000000001,476.7904688795073 L581.6800000000001,476.3532305489211 L582.6800000000001,473.84135550624524 L583.6800000000001,475.81929097133747 L584.6800000000001,477.2654253234354 L585.6800000000001,473.98051606278057 L586.6800000000001,474.47300375142805 L587.6800000000001,475.88627124571764 L588.6800000000001,474.99923580226454 L589.6800000000001,477.1060201561667 L590.6800000000001,474.91008294324155 L591.6800000000001,477.4366980074703 L592.6800000000001,474.4865998367916 L593.6800000000001,477.48177776714937 L594.6800000000001,477.25764110300724 L595.6800000000001,475.6629073448808 L596.6800000000001,474.4113147640736 L597.6800000000001,477.1896574993518 L598.6800000000001,476.7688108286773 L599.6800000000001,477.21387485028947 L600.6800000000001,475.226172750812 L601.6800000000001,474.49679466723364 L602.6800000000001,474.53566559754756 L603.6800000000001,474.02954031465987 L604.6800000000001,477.13651316994594 L605.6800000000001,476.4423317143117 L606.6800000000001,474.81978652655647 L607.6800000000001,474.4977123783795 L608.6800000000001,474.9261929791619 L609.6800000000001,474.63705372202475 L610.6800000000001,474.37266310328886 L611.6800000000001,474.01349316146985 L612.6800000000001,474.70856281377786 L613.6800000000001,477.6092043775685 L614.6800000000001,476.7400718660515 L615.6800000000001,475.76991070034745 L616.6800000000001,475.85314955682736 L617.6800000000001,477.36942816575913 L618.6800000000001,476.74049619332845 L619.6800000000001,474.8102123237465 L620.6800000000001,475.74199488906396 L621.6800000000001,477.5965950385839 L622.6800000000001,475.4261099963296 L623.6800000000001,475.8570786008191 L624.6800000000001,476.79481309465916 L625.6800000000001,476.8111680911588 L626.6800000000001,474.55333296181584 L627.6800000000001,474.2766382235934 L628.6800000000001,476.8682309641478 L629.6800000000001,475.19747124176433 L630.6800000000001,477.18220665147106 L631.6800000000001,475.2841885996613 L632.6800000000001,474.633398194952 L633.6800000000001,474.71812013173565 L634.6800000000001,474.1737729991585 L635.6800000000001,476.532209983756 L636.6800000000001,477.01614296075354 L637.6800000000001,474.4574794029755 L638.6800000000001,474.13623419722325 L639.6800000000001,475.3007730980396 L640.6800000000001,476.8709557895147 L641.6800000000001,476.40352433088503 L642.6800000000001,476.877657874063 L643.6800000000001,475.48879806125706 L644.6800000000001,473.97925066741976 L645.6800000000001,476.1386404162202 L646.6800000000001,477.2726788137698 L647.6800000000001,475.49898004390377 L648.6800000000001,477.43964753418516 L649.6800000000001,477.77048315030345 L650.6800000000001,475.7494241481001 L651.6800000000001,477.77522534522535 L652.6800000000001,476.8722164445772 L653.6800000000001,475.9650630960241 L654.6800000000001,477.39737428230603 L655.6800000000001,477.4575133969074 L656.6800000000001,477.60579523735305 L657.6800000000001,476.5794748470197 L658.6800000000001,474.0884961833747 L659.6800000000001,474.53049616984674 L660.6800000000001,475.12588887927745 L661.6800000000001,475.1643321848445 L662.6800000000001,476.9254852792245 L663.6800000000001,477.6875014850148 L664.6800000000001,476.5790608902103 L665.6800000000001,473.9894541999707 L666.6800000000001,477.4983001843458 L667.6800000000001,476.1277422276261 L668.6800000000001,476.9033789190501 L669.6800000000001,475.03729351437283 L670.6800000000001,477.09212954899135 L671.6800000000001,475.63677164486535 L672.6800000000001,475.91891919592024 L673.6800000000001,474.4794794230952 L674.6800000000001,473.86988671405754 L675.6800000000001,476.6009079964896 L676.6800000000001,476.70752831374466 L677.6800000000001,474.8386869141516 L678.6800000000001,475.0563764865884 L679.6800000000001,475.45400381352584 L680.6800000000001,477.14970251197013 L681.6800000000001,476.5151808296967 L682.6800000000001,474.5344327485392 L683.6800000000001,474.62472994588154 L684.6800000000001,476.43549607240186 L685.6800000000001,476.0135200389278 L686.6800000000001,476.505038040598 L687.6800000000001,476.2022859480365 L688.6800000000001,474.24987813136414 L689.6800000000001,477.08385136266895 L690.6800000000001,476.92695147952253 L691.6800000000001,474.6277471916102 L692.6800000000001,474.0691388693762 L693.6800000000001,477.8303991630539 L694.6800000000001,477.77730705160394 L695.6800000000001,474.8606353823695 L696.6800000000001,475.7034906331144 L697.6800000000001,476.0689603041074 L698.6800000000001,477.19743539707355 L699.6800000000001,474.7745129187515 L700.6800000000001,475.0692852111511 L701.6800000000001,474.1796057428653 L702.6800000000001,475.9770927240613 L703.6800000000001,475.2406897694091 L704.6800000000001,476.04259766510006 L705.6800000000001,474.78424566616764 L706.6800000000001,474.5578444771025 L707.6800000000001,474.28834620167424 L708.6800000000001,474.97468720665483 L709.6800000000001,475.4202249153838 L710.6800000000001,477.38101879934607 L711.6800000000001,476.02990791789614 L712.6800000000001,473.905898661755 L713.6800000000001,475.72740339929976 L714.6800000000001,474.1172933365189 L715.6800000000001,477.831421731634 L716.6800000000001,477.68807150574344 L717.6800000000001,474.6900012176605 L718.6800000000001,476.8684270055826 L719.6800000000001,475.1748216292824 L720.6800000000001,474.4830899431944 L721.6800000000001,477.26911873399854 L722.6800000000001,476.949075381996 L723.6800000000001,475.0474215393982 L724.6800000000001,477.5100621794847 L725.6800000000001,476.8635194738865 L726.6800000000001,476.0256025136587 L727.6800000000001,476.9947842572141 L728.6800000000001,474.2318312893927 L729.6800000000001,477.0202265001284 L730.6800000000001,474.4080728934745 L731.6800000000001,474.2645203184355 L732.6800000000001,474.95849025143497 L733.6800000000001,474.3461877260334 L734.6800000000001,475.9364653290275 L735.6800000000001,476.05339306596505 L736.6800000000001,474.1673213802605 L737.6800000000001,476.81856646408204 L738.6800000000001,477.45571802437917 L739.6800000000001,476.2204842074947 L740.6800000000001,474.05884339244875 L741.6800000000001,476.97927599034466 L742.6800000000001,474.43305315542887 L743.6800000000001,477.24191724102843 L744.6800000000001,474.77216994913215 L745.6800000000001,475.81517463100784 L746.6800000000001,475.90854680779466 L747.6800000000001,474.936535818248 L748.6800000000001,473.8968924315634 L749.6800000000001,473.87622922552373 L750.6800000000001,476.2104539686516 L751.6800000000001,476.5728682015288 L752.6800000000001,477.6404726738777 L753.6800000000001,474.01947054783324 L754.6800000000001,475.6268775434527 L755.6800000000001,477.609833772637 L756.6800000000001,474.6747892747606 L757.6800000000001,475.66588445706157 L758.6800000000001,475.94291911851235 L759.6800000000001,477.53579418977387 L760.6800000000001,474.9097520405037 L761.6800000000001,477.2558562339727 L762.6800000000001,476.823934897065 L763.6800000000001,474.52402303799903 L764.6800000000001,477.17871295698234 L765.6800000000001,475.8545741313581 L766.6800000000001,474.50258870120706 L767.6800000000001,476.4408308009042 L768.6800000000001,475.70480395799086 L769.6800000000001,474.6212963601377 L770.6800000000001,475.58921593944723 L771.6800000000001,475.5202537625266 L772.6800000000001,475.22788279410486 L773.6800000000001,476.97906577661263 L774.6800000000001,476.7025186492575 L775.6800000000001,476.01909444945903 L776.6800000000001,476.1244792823812 L777.6800000000001,475.60120973153226 L778.6800000000001,475.96911721094926 L779.6800000000001,474.52772402697553 L780.6800000000001,477.4908800316258 L781.6800000000001,474.56631890989945 L782.6800000000001,476.05290833716487" fill="none" stroke="black" stroke-width="0.4" />
<path d="M546.8155,481.3333333333333 Q546.8155,480.6583333333333,547.378,481.7833333333333 Q547.378,485.2708333333333,545.128,491.68333333333334 M547.378,481.7833333333333 C551.878,479.0833333333333,551.878,486.9583333333333,547.378,485.2708333333333" stroke="black" fill="none" stroke-width="0.75" />
<path d="M551.3155,481.3333333333333 Q551.3155,480.6583333333333,551.878,481.7833333333333 Q551.878,485.2708333333333,549.628,491.68333333333334 M551.878,481.7833333333333 C556.378,479.0833333333333,556.378,486.9583333333333,551.878,485.2708333333333" stroke="black" fill="none" stroke-width="0.75" />
<text x="694.08" y="491.3095238095238" font-size="10" font-family="Cantarell Light">metallisch (Ratsche)</text>
<path d="M694.08,501.3095238095238 L820.844,501.3095238095238" stroke="black" stroke-width="1" />
<path d="M694.08,501.3095238095238 L694.08,518.1238095238095" stroke="black" stroke-width="0.5" />
<path d="M700.2708,501.3095238095238 L700.2708,518.1238095238095" stroke="black" stroke-width="0.5" />
<path d="M706.7564,501.3095238095238 L706.7564,518.1238095238095" stroke="black" stroke-width="0.5" />
<path d="M714.1264,501.3095238095238 L714.1264,518.1238095238095" stroke="black" stroke-width="0.5" />
<path d="M722.3808,501.3095238095238 L722.3808,518.1238095238095" stroke="black" stroke-width="0.5" />
<path d="M731.8144000000001,501.3095238095238 L731.8144000000001,518.1238095238095" stroke="black" stroke-width="0.5" />
<path d="M742.4272,501.3095238095238 L742.4272,518.1238095238095" stroke="black" stroke-width="0.5" />
<path d="M754.2192,501.3095238095238 L754.2192,518.1238095238095" stroke="black" stroke-width="0.5" />
<path d="M767.4852,501.3095238095238 L767.4852,518.1238095238095" stroke="black" stroke-width="0.5" />
<path d="M782.52,501.3095238095238 L782.52,518.1238095238095" stroke="black" stroke-width="0.5" />
<path d="M799.0287999999999,501.3095238095238 L799.0287999999999,518.1238095238095" stroke="black" stroke-width="0.5" />
<path d="M693.455,526.3095238095239 Q693.455,525.5595238095239,694.08,526.8095238095239 Q694.08,530.6845238095239,691.58,537.8095238095239 M694.08,526.8095238095239 C699.08,523.8095238095239,699.08,532.5595238095239,694.08,530.6845238095239" stroke="black" fill="none" stroke-width="0.8333333333333334" />
<path d="M812.0,528.3095238095239 L699.976,531.3095238095239 L812.0,534.3095238095239" stroke="black" fill="none" stroke-width="0.4" />
</svg>