<?xml version="1.0" encoding="UTF-8"?>
<svg xmlns="http://www.w3.org/2000/svg" xmlns:xlink="http://www.w3.org/1999/xlink"
    width="3368" height="2380" viewBox="0 0 842 595" font-family="Simvoni">
<defs>
</defs>
<text x="16.0" y="112.79761904761904" font-size="24" dominant-baseline="middle">V</text>
<path d="M50.0,70.47619047619048 L50.0,60.47619047619048" stroke="black" stroke-width="0.5" />
<text x="50.0" y="55.476190476190474" font-size="8" text-anchor="middle">75</text>
<path d="M80.48,70.47619047619048 L80.48,65.47619047619048" stroke="black" stroke-width="0.5" />
<path d="M110.96000000000001,70.47619047619048 L110.96000000000001,65.47619047619048" stroke="black" stroke-width="0.5" />
<path d="M141.44,70.47619047619048 L141.44,65.47619047619048" stroke="black" stroke-width="0.5" />
<path d="M171.92000000000002,70.47619047619048 L171.92000000000002,65.47619047619048" stroke="black" stroke-width="0.5" />
<path d="M202.4,70.47619047619048 L202.4,60.47619047619048" stroke="black" stroke-width="0.5" />
<text x="202.4" y="55.476190476190474" font-size="8" text-anchor="middle">80</text>
<path d="M232.88,70.47619047619048 L232.88,65.47619047619048" stroke="black" stroke-width="0.5" />
<path d="M263.36,70.47619047619048 L263.36,65.47619047619048" stroke="black" stroke-width="0.5" />
<path d="M293.84000000000003,70.47619047619048 L293.84000000000003,65.47619047619048" stroke="black" stroke-width="0.5" />
<path d="M324.32,70.47619047619048 L324.32,65.47619047619048" stroke="black" stroke-width="0.5" />
<path d="M354.8,70.47619047619048 L354.8,60.47619047619048" stroke="black" stroke-width="0.5" />
<text x="354.8" y="55.476190476190474" font-size="8" text-anchor="middle">85</text>
<path d="M385.28000000000003,70.47619047619048 L385.28000000000003,65.47619047619048" stroke="black" stroke-width="0.5" />
<path d="M415.76,70.47619047619048 L415.76,65.47619047619048" stroke="black" stroke-width="0.5" />
<path d="M446.24,70.47619047619048 L446.24,65.47619047619048" stroke="black" stroke-width="0.5" />
<path d="M476.72,70.47619047619048 L476.72,65.47619047619048" stroke="black" stroke-width="0.5" />
<path d="M507.2,70.47619047619048 L507.2,60.47619047619048" stroke="black" stroke-width="0.5" />
<path d="M537.6800000000001,70.47619047619048 L537.6800000000001,65.47619047619048" stroke="black" stroke-width="0.5" />
<path d="M568.16,70.47619047619048 L568.16,65.47619047619048" stroke="black" stroke-width="0.5" />
<text x="568.16" y="50.476190476190474" font-size="12" text-anchor="middle">92</text>
<path d="M568.16,55.476190476190474 V75.47619047619048 M564.16,71.47619047619048 L568.16,75.47619047619048 L572.16,71.47619047619048" stroke-width="1" stroke="black" fill="none" transform="rotate(0.000000 568.160000 55.476190)" />
<path d="M598.64,70.47619047619048 L598.64,65.47619047619048" stroke="black" stroke-width="0.5" />
<path d="M629.12,70.47619047619048 L629.12,65.47619047619048" stroke="black" stroke-width="0.5" />
<path d="M659.6,70.47619047619048 L659.6,60.47619047619048" stroke="black" stroke-width="0.5" />
<path d="M690.08,70.47619047619048 L690.08,65.47619047619048" stroke="black" stroke-width="0.5" />
<path d="M720.5600000000001,70.47619047619048 L720.5600000000001,65.47619047619048" stroke="black" stroke-width="0.5" />
<path d="M751.04,70.47619047619048 L751.04,65.47619047619048" stroke="black" stroke-width="0.5" />
<path d="M781.52,70.47619047619048 L781.52,65.47619047619048" stroke="black" stroke-width="0.5" />
<path d="M812.0,70.47619047619048 L812.0,60.47619047619048" stroke="black" stroke-width="0.5" />
<text x="812.0" y="55.476190476190474" font-size="8" text-anchor="middle">100</text>
<text x="16.0" y="278.3928571428571" font-size="24" dominant-baseline="middle">P</text>
<path d="M50.0,185.11904761904762 L50.0,175.11904761904762" stroke="black" stroke-width="0.5" />
<text x="50.0" y="170.11904761904762" font-size="8" text-anchor="middle">75</text>
<path d="M80.48,185.11904761904762 L80.48,180.11904761904762" stroke="black" stroke-width="0.5" />
<path d="M110.96000000000001,185.11904761904762 L110.96000000000001,180.11904761904762" stroke="black" stroke-width="0.5" />
<path d="M141.44,185.11904761904762 L141.44,180.11904761904762" stroke="black" stroke-width="0.5" />
<path d="M171.92000000000002,185.11904761904762 L171.92000000000002,180.11904761904762" stroke="black" stroke-width="0.5" />
<text x="171.92000000000002" y="165.11904761904762" font-size="12" text-anchor="middle">79</text>
<path d="M171.92000000000002,170.11904761904762 V190.11904761904762 M167.92000000000002,186.11904761904762 L171.92000000000002,190.11904761904762 L175.92000000000002,186.11904761904762" stroke-width="1" stroke="black" fill="none" transform="rotate(0.000000 171.920000 170.119048)" />
<path d="M202.4,185.11904761904762 L202.4,175.11904761904762" stroke="black" stroke-width="0.5" />
<path d="M232.88,185.11904761904762 L232.88,180.11904761904762" stroke="black" stroke-width="0.5" />
<path d="M263.36,185.11904761904762 L263.36,180.11904761904762" stroke="black" stroke-width="0.5" />
<text x="263.36" y="165.11904761904762" font-size="12" text-anchor="middle">82</text>
<path d="M263.36,170.11904761904762 V190.11904761904762 M259.36,186.11904761904762 L263.36,190.11904761904762 L267.36,186.11904761904762" stroke-width="1" stroke="black" fill="none" transform="rotate(0.000000 263.360000 170.119048)" />
<path d="M293.84000000000003,185.11904761904762 L293.84000000000003,180.11904761904762" stroke="black" stroke-width="0.5" />
<path d="M324.32,185.11904761904762 L324.32,180.11904761904762" stroke="black" stroke-width="0.5" />
<path d="M354.8,185.11904761904762 L354.8,175.11904761904762" stroke="black" stroke-width="0.5" />
<path d="M385.28000000000003,185.11904761904762 L385.28000000000003,180.11904761904762" stroke="black" stroke-width="0.5" />
<path d="M415.76,185.11904761904762 L415.76,180.11904761904762" stroke="black" stroke-width="0.5" />
<text x="415.76" y="165.11904761904762" font-size="12" text-anchor="middle">87</text>
<path d="M415.76,170.11904761904762 V190.11904761904762 M411.76,186.11904761904762 L415.76,190.11904761904762 L419.76,186.11904761904762" stroke-width="1" stroke="black" fill="none" transform="rotate(0.000000 415.760000 170.119048)" />
<path d="M446.24,185.11904761904762 L446.24,180.11904761904762" stroke="black" stroke-width="0.5" />
<path d="M476.72,185.11904761904762 L476.72,180.11904761904762" stroke="black" stroke-width="0.5" />
<path d="M507.2,185.11904761904762 L507.2,175.11904761904762" stroke="black" stroke-width="0.5" />
<text x="507.2" y="170.11904761904762" font-size="8" text-anchor="middle">90</text>
<path d="M537.6800000000001,185.11904761904762 L537.6800000000001,180.11904761904762" stroke="black" stroke-width="0.5" />
<path d="M568.16,185.11904761904762 L568.16,180.11904761904762" stroke="black" stroke-width="0.5" />
<path d="M598.64,185.11904761904762 L598.64,180.11904761904762" stroke="black" stroke-width="0.5" />
<path d="M629.12,185.11904761904762 L629.12,180.11904761904762" stroke="black" stroke-width="0.5" />
<path d="M659.6,185.11904761904762 L659.6,175.11904761904762" stroke="black" stroke-width="0.5" />
<path d="M690.08,185.11904761904762 L690.08,180.11904761904762" stroke="black" stroke-width="0.5" />
<text x="690.08" y="165.11904761904762" font-size="12" text-anchor="middle">96</text>
<path d="M690.08,170.11904761904762 V190.11904761904762 M686.08,186.11904761904762 L690.08,190.11904761904762 L694.08,186.11904761904762" stroke-width="1" stroke="black" fill="none" transform="rotate(0.000000 690.080000 170.119048)" />
<path d="M720.5600000000001,185.11904761904762 L720.5600000000001,180.11904761904762" stroke="black" stroke-width="0.5" />
<path d="M751.04,185.11904761904762 L751.04,180.11904761904762" stroke="black" stroke-width="0.5" />
<path d="M781.52,185.11904761904762 L781.52,180.11904761904762" stroke="black" stroke-width="0.5" />
<text x="781.52" y="165.11904761904762" font-size="12" text-anchor="middle">99</text>
<path d="M781.52,170.11904761904762 V190.11904761904762 M777.52,186.11904761904762 L781.52,190.11904761904762 L785.52,186.11904761904762" stroke-width="1" stroke="black" fill="none" transform="rotate(0.000000 781.520000 170.119048)" />
<path d="M812.0,185.11904761904762 L812.0,175.11904761904762" stroke="black" stroke-width="0.5" />
<text x="16.0" y="475.8333333333333" font-size="24" dominant-baseline="middle">E</text>
<path d="M50.0,401.66666666666663 L50.0,391.66666666666663" stroke="black" stroke-width="0.5" />
<text x="50.0" y="386.66666666666663" font-size="8" text-anchor="middle">75</text>
<path d="M80.48,401.66666666666663 L80.48,396.66666666666663" stroke="black" stroke-width="0.5" />
<path d="M110.96000000000001,401.66666666666663 L110.96000000000001,396.66666666666663" stroke="black" stroke-width="0.5" />
<path d="M141.44,401.66666666666663 L141.44,396.66666666666663" stroke="black" stroke-width="0.5" />
<path d="M171.92000000000002,401.66666666666663 L171.92000000000002,396.66666666666663" stroke="black" stroke-width="0.5" />
<text x="171.92000000000002" y="381.66666666666663" font-size="12" text-anchor="middle">79</text>
<path d="M171.92000000000002,386.66666666666663 V406.66666666666663 M167.92000000000002,402.66666666666663 L171.92000000000002,406.66666666666663 L175.92000000000002,402.66666666666663" stroke-width="1" stroke="black" fill="none" transform="rotate(0.000000 171.920000 386.666667)" />
<path d="M202.4,401.66666666666663 L202.4,391.66666666666663" stroke="black" stroke-width="0.5" />
<path d="M232.88,401.66666666666663 L232.88,396.66666666666663" stroke="black" stroke-width="0.5" />
<path d="M263.36,401.66666666666663 L263.36,396.66666666666663" stroke="black" stroke-width="0.5" />
<path d="M293.84000000000003,401.66666666666663 L293.84000000000003,396.66666666666663" stroke="black" stroke-width="0.5" />
<path d="M324.32,401.66666666666663 L324.32,396.66666666666663" stroke="black" stroke-width="0.5" />
<path d="M354.8,401.66666666666663 L354.8,391.66666666666663" stroke="black" stroke-width="0.5" />
<path d="M385.28000000000003,401.66666666666663 L385.28000000000003,396.66666666666663" stroke="black" stroke-width="0.5" />
<path d="M415.76,401.66666666666663 L415.76,396.66666666666663" stroke="black" stroke-width="0.5" />
<text x="415.76" y="381.66666666666663" font-size="12" text-anchor="middle">87</text>
<path d="M415.76,386.66666666666663 V406.66666666666663 M411.76,402.66666666666663 L415.76,406.66666666666663 L419.76,402.66666666666663" stroke-width="1" stroke="black" fill="none" transform="rotate(0.000000 415.760000 386.666667)" />
<path d="M446.24,401.66666666666663 L446.24,396.66666666666663" stroke="black" stroke-width="0.5" />
<path d="M476.72,401.66666666666663 L476.72,396.66666666666663" stroke="black" stroke-width="0.5" />
<path d="M507.2,401.66666666666663 L507.2,391.66666666666663" stroke="black" stroke-width="0.5" />
<text x="507.2" y="386.66666666666663" font-size="8" text-anchor="middle">90</text>
<path d="M537.6800000000001,401.66666666666663 L537.6800000000001,396.66666666666663" stroke="black" stroke-width="0.5" />
<path d="M568.16,401.66666666666663 L568.16,396.66666666666663" stroke="black" stroke-width="0.5" />
<path d="M598.64,401.66666666666663 L598.64,396.66666666666663" stroke="black" stroke-width="0.5" />
<path d="M629.12,401.66666666666663 L629.12,396.66666666666663" stroke="black" stroke-width="0.5" />
<path d="M659.6,401.66666666666663 L659.6,391.66666666666663" stroke="black" stroke-width="0.5" />
<text x="659.6" y="386.66666666666663" font-size="8" text-anchor="middle">95</text>
<path d="M690.08,401.66666666666663 L690.08,396.66666666666663" stroke="black" stroke-width="0.5" />
<path d="M720.5600000000001,401.66666666666663 L720.5600000000001,396.66666666666663" stroke="black" stroke-width="0.5" />
<path d="M751.04,401.66666666666663 L751.04,396.66666666666663" stroke="black" stroke-width="0.5" />
<path d="M781.52,401.66666666666663 L781.52,396.66666666666663" stroke="black" stroke-width="0.5" />
<path d="M812.0,401.66666666666663 L812.0,391.66666666666663" stroke="black" stroke-width="0.5" />
<text x="812.0" y="386.66666666666663" font-size="8" text-anchor="middle">100</text>
<text x="566.16" y="96.23809523809524" font-size="16">IM</text>
<text x="611.88" y="96.23809523809524" font-size="16">ARM</text>
<path d="M565.4599999999999,133.2547619047619 C564.3349999999999,131.2297619047619,568.8349999999999,128.7547619047619,570.86,130.5547619047619 C571.985,132.5797619047619,567.485,135.0547619047619,565.4599999999999,133.2547619047619" fill="#444" />
<circle cx="573.11" cy="130.10476190476192" r="0.75" fill="#444" />
<path d="M570.86,131.4547619047619 L570.86,115.70476190476191" stroke="#444" stroke-width="0.45" />
<path d="M570.86,115.70476190476191 L575.36,122.88676190476191" stroke="#444" stroke-width="0.9" />
<path d="M587.9399999999999,125.24095238095238 Q591.02,128.70595238095237,594.87,126.01095238095238 L592.9449999999999,128.32095238095238 Q591.02,130.2459523809524,587.555,127.55095238095238 M592.9449999999999,128.32095238095238 Q591.02,130.63095238095238,591.02,136.40595238095239" stroke="#444" fill="none" stroke-width="0.825" />
<path d="M597.0839999999998,126.01095238095238 Q600.1639999999999,129.66845238095237,604.0139999999999,126.78095238095239 Q600.1639999999999,130.63095238095238,600.1639999999999,136.40595238095239" stroke="#444" fill="none" stroke-width="0.825" />
<path d="M611.18,129.4333333333333 C610.055,127.40833333333332,614.555,124.93333333333331,616.58,126.73333333333332 C617.705,128.75833333333333,613.205,131.23333333333332,611.18,129.4333333333333" fill="#444" />
<path d="M616.58,127.63333333333333 L616.58,111.88333333333333" stroke="#444" stroke-width="0.45" />
<path d="M616.58,111.88333333333333 L621.08,119.06533333333333" stroke="#444" stroke-width="0.9" />
<path d="M615.4039999999999,132.08333333333331 Q621.5,135.74093333333337,627.5960000000001,132.08333333333331 Q621.5,136.4724533333334,615.4039999999999,132.08333333333331" fill="black" stroke="black" stroke-width="0.5" />
<path d="M626.42,129.4333333333333 C625.295,127.40833333333332,629.795,124.93333333333331,631.82,126.73333333333332 C632.945,128.75833333333333,628.445,131.23333333333332,626.42,129.4333333333333" fill="#444" />
<path d="M631.82,127.63333333333333 L631.82,110.53333333333332" stroke="#444" stroke-width="0.45" />
<path d="M631.82,110.53333333333332 L636.32,117.71533333333332" stroke="#444" stroke-width="0.9" />
<path d="M631.82,113.23333333333332 L636.32,120.41533333333332" stroke="#444" stroke-width="0.9" />
<path d="M635.1839999999999,125.24095238095238 Q638.2639999999999,128.70595238095237,642.1139999999999,126.01095238095238 L640.1889999999999,128.32095238095238 Q638.2639999999999,130.2459523809524,634.7989999999999,127.55095238095238 M640.1889999999999,128.32095238095238 Q638.2639999999999,130.63095238095238,638.2639999999999,136.40595238095239" stroke="#444" fill="none" stroke-width="0.825" />
<path d="M642.8039999999999,126.01095238095238 Q645.8839999999999,129.66845238095237,649.7339999999999,126.78095238095239 Q645.8839999999999,130.63095238095238,645.8839999999999,136.40595238095239" stroke="#444" fill="none" stroke-width="0.825" />
<text x="583.4" y="149.73809523809524" font-size="10" font-family="Cantarell Light" font-style="italic">gesungen, hoch</text>
<path d="M565.3475,143.23809523809524 Q565.3475,142.26309523809525,566.16,143.88809523809525 Q566.16,148.92559523809524,562.91,158.18809523809523 M566.16,143.88809523809525 C572.66,139.98809523809524,572.66,151.36309523809524,566.16,148.92559523809524" stroke="black" fill="none" stroke-width="1.0833333333333333" />
<path d="M50.0,322.9761904761905 L110.96000000000001,322.9761904761905" stroke="black" stroke-width="0.5" />
<text x="48.0" y="284.76190476190476" font-size="12" font-family="Cantarell">(Waldt.)</text>
<path d="M171.92000000000002,259.2857142857143 L415.76,259.2857142857143" stroke="black" stroke-width="0.5" />
<text x="169.92000000000002" y="208.33333333333331" font-size="12" font-family="Cantarell">Woodblock</text>
<text x="166.92000000000002" y="259.2857142857143" font-size="8" text-anchor="end" dominant-baseline="middle" font-family="Cantarell">r.H.</text>
<path d="M263.36,356.0952380952381 L385.28000000000003,356.0952380952381" stroke="black" stroke-width="0.5" />
<text x="261.36" y="292.4047619047619" font-size="12" font-family="Cantarell">Tomtom</text>
<text x="258.36" y="356.0952380952381" font-size="8" text-anchor="end" dominant-baseline="middle" font-family="Cantarell">l.H.</text>
<path d="M415.76,259.2857142857143 L537.6800000000001,259.2857142857143" stroke="black" stroke-width="0.5" />
<text x="413.76" y="208.33333333333331" font-size="12" font-family="Cantarell">Tomtom</text>
<path d="M690.08,297.5 L812.0,297.5" stroke="black" stroke-width="0.5" />
<text x="688.08" y="246.54761904761904" font-size="12" font-family="Cantarell">Tamtam</text>
<path d="M47.3,324.3261904761905 C46.175,322.30119047619047,50.675,319.8261904761905,52.7,321.62619047619046 C53.825,323.6511904761905,49.325,326.12619047619046,47.3,324.3261904761905" fill="#444" />
<path d="M52.7,322.52619047619044 L52.7,308.12619047619046" stroke="#444" stroke-width="0.45" />
<path d="M53.047999999999824,326.9761904761905 Q65.24,334.2913904761906,77.43200000000017,326.9761904761905 Q65.24,335.75443047619063,53.047999999999824,326.9761904761905" fill="black" stroke="black" stroke-width="0.5" />
<path d="M77.78,324.3261904761905 C76.655,322.30119047619047,81.155,319.8261904761905,83.18,321.62619047619046 C84.305,323.6511904761905,79.805,326.12619047619046,77.78,324.3261904761905" fill="#444" />
<path d="M83.18,322.52619047619044 L83.18,306.77619047619044" stroke="#444" stroke-width="0.45" />
<path d="M83.18,306.77619047619044 L87.68,313.95819047619045" stroke="#444" stroke-width="0.9" />
<path d="M50.0,302.9761904761905 L52.0,304.0172716503282 L54.0,303.47714931040144 L56.0,303.6077912049044 L58.0,303.7296889290928 L60.0,302.05150454004786 L62.0,303.2741310780952 L64.0,301.7750677584217 L66.0,302.2437698523562 L68.0,304.3568919740319 L70.0,303.5484589768023 L72.0,301.9526043166947 L74.0,303.3063548199272 L76.0,301.5383937639878 L78.0,303.87541722219635 L80.0,303.2208027079188 L82.0,303.8290175424435 L84.0,303.62415167059163 L86.0,303.39753032477694 L88.0,302.5803179181429 L90.0,302.7940971788183 L92.0,302.3639966137958 L94.0,302.8051248946807 L96.0,302.2809006111445" fill="none" stroke="black" stroke-width="0.45" />
<path d="M93.2,319.1961904761905 Q95.72,322.18869047619046,98.87,319.8261904761905 Q95.72,322.9761904761905,95.72,327.7011904761905" stroke="#444" fill="none" stroke-width="1.0125" />
<path d="M171.92000000000002,214.28571428571428 L171.92000000000002,234.28571428571428" stroke="black" stroke-width="1.0" />
<path d="M171.92000000000002,229.28571428571428 L171.92000000000002,234.28571428571428" stroke="black" stroke-width="2.0" />
<path d="M169.22000000000003,260.6357142857143 C168.09500000000003,258.61071428571427,172.59500000000003,256.1357142857143,174.62,257.93571428571425 C175.745,259.9607142857143,171.245,262.43571428571425,169.22000000000003,260.6357142857143" fill="#444" />
<path d="M174.62,258.83571428571423 L174.62,244.43571428571425" stroke="#444" stroke-width="0.45" />
<path d="M175.42000000000002,270.2857142857143 Q175.42000000000002,269.2857142857143,174.37,269.2857142857143 C172.97000000000003,269.2857142857143,172.62,281.2857142857143,172.27,281.7857142857143 Q171.57000000000002,281.7857142857143,171.57000000000002,280.7857142857143 M171.92000000000002,274.2857142857143 H174.72000000000003" stroke="black" fill="none" stroke-width="0.8333333333333334" />
<path d="M199.88,255.50571428571428 Q202.4,258.49821428571425,205.55,256.1357142857143 Q202.4,259.2857142857143,202.4,264.0107142857143" stroke="#444" fill="none" stroke-width="1.0125" />
<path d="M214.94000000000003,260.6357142857143 C213.81500000000003,258.61071428571427,218.31500000000003,256.1357142857143,220.34,257.93571428571425 C221.465,259.9607142857143,216.965,262.43571428571425,214.94000000000003,260.6357142857143" fill="#444" />
<path d="M220.34,258.83571428571423 L220.34,243.08571428571426" stroke="#444" stroke-width="0.45" />
<path d="M220.34,243.08571428571426 L224.84,250.26771428571425" stroke="#444" stroke-width="0.9" />
<path d="M230.35999999999999,255.50571428571428 Q232.88,258.49821428571425,236.03,256.1357142857143 Q232.88,259.2857142857143,232.88,264.0107142857143" stroke="#444" fill="none" stroke-width="1.0125" />
<circle cx="237.605" cy="257.7107142857143" r="0.63" fill="#444" />
<path d="M245.6,255.50571428571428 Q248.12,258.49821428571425,251.27,256.1357142857143 Q248.12,259.2857142857143,248.12,264.0107142857143" stroke="#444" fill="none" stroke-width="1.0125" />
<path d="M254.5639999999999,260.6357142857143 C253.4389999999999,258.61071428571427,257.9389999999999,256.1357142857143,259.9639999999999,257.93571428571425 C261.0889999999999,259.9607142857143,256.5889999999999,262.43571428571425,254.5639999999999,260.6357142857143" fill="#444" />
<path d="M259.9639999999999,258.83571428571423 L259.9639999999999,241.73571428571427" stroke="#444" stroke-width="0.45" />
<path d="M259.9639999999999,241.73571428571427 L264.4639999999999,248.91771428571425" stroke="#444" stroke-width="0.9" />
<path d="M259.9639999999999,244.43571428571425 L264.4639999999999,251.61771428571424" stroke="#444" stroke-width="0.9" />
<text x="248.12" y="234.28571428571428" font-size="7" text-anchor="middle" font-family="Cantarell" font-style="italic" dominant-baseline="middle">6</text>
<path d="M233.88,238.28571428571428 L233.88,234.28571428571428 L244.62,234.28571428571428 M251.62,234.28571428571428 L262.36,234.28571428571428 L262.36,238.28571428571428" stroke="black" stroke-width="0.3" fill="none" />
<path d="M266.99299999999977,264.30571428571426 Q263.4829999999998,258.74821428571425,267.87049999999977,259.91821428571427 L265.8229999999998,256.4082142857143 L267.5779999999998,254.36071428571427 Q266.4079999999998,253.19071428571428,266.4079999999998,252.0207142857143" stroke="#444" fill="none" stroke-width="1.0125" />
<path d="M291.14000000000004,260.6357142857143 C290.01500000000004,258.61071428571427,294.51500000000004,256.1357142857143,296.54,257.93571428571425 C297.665,259.9607142857143,293.165,262.43571428571425,291.14000000000004,260.6357142857143" fill="#444" />
<path d="M296.54,258.83571428571423 L296.54,244.43571428571425" stroke="#444" stroke-width="0.45" />
<path d="M321.62,260.6357142857143 C320.495,258.61071428571427,324.995,256.1357142857143,327.02,257.93571428571425 C328.145,259.9607142857143,323.645,262.43571428571425,321.62,260.6357142857143" fill="#444" />
<path d="M327.02,258.83571428571423 L327.02,241.06071428571425" stroke="#444" stroke-width="0.45" />
<circle cx="329.27" cy="257.48571428571427" r="0.75" fill="#444" />
<path d="M336.86,260.6357142857143 C335.735,258.61071428571427,340.235,256.1357142857143,342.26,257.93571428571425 C343.385,259.9607142857143,338.885,262.43571428571425,336.86,260.6357142857143" fill="#444" />
<path d="M342.26,258.83571428571423 L342.26,241.06071428571425" stroke="#444" stroke-width="0.45" />
<path d="M347.52799999999985,260.6357142857143 C346.40299999999985,258.61071428571427,350.90299999999985,256.1357142857143,352.9279999999998,257.93571428571425 C354.0529999999998,259.9607142857143,349.5529999999998,262.43571428571425,347.52799999999985,260.6357142857143" fill="#444" />
<path d="M352.9279999999998,258.83571428571423 L352.9279999999998,241.06071428571425" stroke="#444" stroke-width="0.45" />
<path d="M327.02,241.06071428571425 L342.26,241.06071428571425" stroke="#444" stroke-width="1.5" />
<path d="M342.26,241.06071428571425 L352.9279999999998,241.06071428571425" stroke="#444" stroke-width="1.5" />
<path d="M352.9279999999998,244.06071428571425 L349.9279999999998,244.06071428571425" stroke="#444" stroke-width="1.5" />
<path d="M327.3679999999998,264.2857142857143 Q331.94,267.0289142857144,336.51200000000017,264.2857142857143 Q331.94,267.5775542857144,327.3679999999998,264.2857142857143" fill="black" stroke="black" stroke-width="0.5" />
<text x="339.56" y="234.28571428571428" font-size="7" text-anchor="middle" font-family="Cantarell" font-style="italic" dominant-baseline="middle">6</text>
<path d="M325.32,238.28571428571428 L325.32,234.28571428571428 L336.06,234.28571428571428 M343.06,234.28571428571428 L353.8,234.28571428571428 L353.8,238.28571428571428" stroke="black" stroke-width="0.3" fill="none" />
<path d="M355.32799999999986,255.50571428571428 Q357.84799999999984,258.49821428571425,360.9979999999998,256.1357142857143 Q357.84799999999984,259.2857142857143,357.84799999999984,264.0107142857143" stroke="#444" fill="none" stroke-width="1.0125" />
<path d="M367.34000000000003,260.6357142857143 C366.21500000000003,258.61071428571427,370.71500000000003,256.1357142857143,372.74,257.93571428571425 C373.865,259.9607142857143,369.365,262.43571428571425,367.34000000000003,260.6357142857143" fill="#444" />
<path d="M372.74,258.83571428571423 L372.74,243.08571428571426" stroke="#444" stroke-width="0.45" />
<path d="M372.74,243.08571428571426 L377.24,250.26771428571425" stroke="#444" stroke-width="0.9" />
<path d="M388.3279999999998,270.2857142857143 L368.5160000000001,274.2857142857143 L388.3279999999998,278.2857142857143" stroke="black" fill="none" stroke-width="0.4" />
<path d="M382.58000000000004,260.6357142857143 C381.45500000000004,258.61071428571427,385.95500000000004,256.1357142857143,387.98,257.93571428571425 C389.105,259.9607142857143,384.605,262.43571428571425,382.58000000000004,260.6357142857143" fill="#444" />
<path d="M387.98,258.83571428571423 L387.98,241.06071428571425" stroke="#444" stroke-width="0.45" />
<path d="M391.72399999999993,260.6357142857143 C390.59899999999993,258.61071428571427,395.09899999999993,256.1357142857143,397.1239999999999,257.93571428571425 C398.2489999999999,259.9607142857143,393.7489999999999,262.43571428571425,391.72399999999993,260.6357142857143" fill="#444" />
<path d="M397.1239999999999,258.83571428571423 L397.1239999999999,241.06071428571425" stroke="#444" stroke-width="0.45" />
<path d="M387.98,241.06071428571425 L397.1239999999999,241.06071428571425" stroke="#444" stroke-width="1.5" />
<path d="M397.1239999999999,244.06071428571425 L394.1239999999999,244.06071428571425" stroke="#444" stroke-width="1.5" />
<text x="392.9" y="234.28571428571428" font-size="7" text-anchor="middle" font-family="Cantarell" font-style="italic" dominant-baseline="middle">3</text>
<path d="M386.28000000000003,238.28571428571428 L386.28000000000003,234.28571428571428 L389.4,234.28571428571428 M396.4,234.28571428571428 L399.52,234.28571428571428 L399.52,238.28571428571428" stroke="black" stroke-width="0.3" fill="none" />
<path d="M393.2260000000001,270.2857142857143 Q393.2260000000001,269.2857142857143,392.1760000000001,269.2857142857143 C390.7760000000001,269.2857142857143,390.4260000000001,281.2857142857143,390.07600000000014,281.7857142857143 Q389.3760000000001,281.7857142857143,389.3760000000001,280.7857142857143 M389.7260000000001,274.2857142857143 H392.5260000000001" stroke="black" fill="none" stroke-width="0.8333333333333334" />
<path d="M396.52600000000007,270.2857142857143 Q396.52600000000007,269.2857142857143,395.47600000000006,269.2857142857143 C394.0760000000001,269.2857142857143,393.72600000000006,281.2857142857143,393.3760000000001,281.7857142857143 Q392.67600000000004,281.7857142857143,392.67600000000004,280.7857142857143 M393.02600000000007,274.2857142857143 H395.8260000000001" stroke="black" fill="none" stroke-width="0.8333333333333334" />
<path d="M399.52399999999994,255.50571428571428 Q402.0439999999999,258.49821428571425,405.1939999999999,256.1357142857143 Q402.0439999999999,259.2857142857143,402.0439999999999,264.0107142857143" stroke="#444" fill="none" stroke-width="1.0125" />
<path d="M265.36,296.0952380952381 L265.36,316.0952380952381" stroke="black" stroke-width="1.0" />
<path d="M265.36,311.0952380952381 L265.36,316.0952380952381" stroke="black" stroke-width="2.0" />
<text x="269.36" y="310.0952380952381" font-size="10" font-family="Cantarell Light" font-style="italic">(Griff)</text>
<path d="M273.94316413284673,321.51207396239136 L270.6763308037649,324.77890729147316" stroke="black" stroke-width="0.7" />
<path d="M276.67,328.0952380952381 L272.05,328.0952380952381" stroke="black" stroke-width="0.7" />
<path d="M272.30974746830583,323.14549062693226 A7,7,0,1,0,274.36,328.0952380952381" stroke="black" stroke-width="0.7" fill="none" />
<path d="M274.7558569483191,332.36523809523806 L274.36,328.0952380952381 L272.08849870466304,330.8252380952381" fill="black" />
<path d="M260.66,357.4452380952381 C259.535,355.42023809523806,264.035,352.9452380952381,266.06,354.74523809523805 C267.185,356.7702380952381,262.685,359.24523809523805,260.66,357.4452380952381" fill="#444" />
<circle cx="268.31" cy="354.29523809523806" r="0.75" fill="#444" />
<path d="M266.06,355.645238095238 L266.06,339.895238095238" stroke="#444" stroke-width="0.45" />
<path d="M266.06,339.895238095238 L270.56,347.07723809523804" stroke="#444" stroke-width="0.9" />
<path d="M259.86,366.0952380952381 L259.86,371.0952380952381 Q259.86,366.0952380952381,261.11,366.0952380952381 Q262.36,366.0952380952381,262.36,371.0952380952381 Q262.36,366.0952380952381,263.61,366.0952380952381 Q264.86,366.0952380952381,264.86,371.0952380952381" stroke="black" fill="none" stroke-width="0.8333333333333334" />
<path d="M266.235,366.0952380952381 Q266.235,365.3452380952381,266.86,366.5952380952381 Q266.86,370.4702380952381,264.36,377.5952380952381 M266.86,366.5952380952381 C271.86,363.5952380952381,271.86,372.3452380952381,266.86,370.4702380952381" stroke="black" fill="none" stroke-width="0.8333333333333334" />
<path d="M282.1760000000001,351.68523809523805 Q284.6960000000001,354.5202380952381,287.84600000000006,352.3152380952381 L286.2710000000001,354.2052380952381 Q284.6960000000001,355.7802380952381,281.8610000000001,353.5752380952381 M286.2710000000001,354.2052380952381 Q284.6960000000001,356.0952380952381,284.6960000000001,360.8202380952381" stroke="#444" fill="none" stroke-width="1.0125" />
<path d="M291.32000000000005,352.3152380952381 Q293.84000000000003,355.30773809523805,296.99,352.9452380952381 Q293.84000000000003,356.0952380952381,293.84000000000003,360.8202380952381" stroke="#444" fill="none" stroke-width="1.0125" />
<path d="M322.39,328.0952380952381 L317.77,328.0952380952381" stroke="black" stroke-width="0.7" />
<path d="M319.6631641328467,321.51207396239136 L316.3963308037649,324.77890729147316" stroke="black" stroke-width="0.7" />
<path d="M320.08,328.0952380952381 A7,7,0,1,1,318.0297474683058,323.14549062693226" stroke="black" stroke-width="0.7" fill="none" />
<path d="M315.2903146451755,319.8462315387294 L318.0297474683058,323.14549062693226 L314.4931519862597,322.82128308369977" fill="black" />
<path d="M306.38,357.4452380952381 C305.255,355.42023809523806,309.755,352.9452380952381,311.78,354.74523809523805 C312.905,356.7702380952381,308.405,359.24523809523805,306.38,357.4452380952381" fill="#444" />
<path d="M311.78,355.645238095238 L311.78,339.895238095238" stroke="#444" stroke-width="0.45" />
<path d="M311.78,339.895238095238 L316.28,347.07723809523804" stroke="#444" stroke-width="0.9" />
<path d="M312.1279999999998,361.0952380952381 Q316.7,363.8384380952382,321.27200000000016,361.0952380952381 Q316.7,364.3870780952382,312.1279999999998,361.0952380952381" fill="black" stroke="black" stroke-width="0.5" />
<path d="M321.62,357.4452380952381 C320.495,355.42023809523806,324.995,352.9452380952381,327.02,354.74523809523805 C328.145,356.7702380952381,323.645,359.24523809523805,321.62,357.4452380952381" fill="#444" />
<path d="M327.02,355.645238095238 L327.02,338.54523809523806" stroke="#444" stroke-width="0.45" />
<path d="M327.02,338.54523809523806 L331.52,345.7272380952381" stroke="#444" stroke-width="0.9" />
<path d="M327.02,341.24523809523805 L331.52,348.42723809523807" stroke="#444" stroke-width="0.9" />
<path d="M329.42,351.68523809523805 Q331.94,354.5202380952381,335.09,352.3152380952381 L333.515,354.2052380952381 Q331.94,355.7802380952381,329.105,353.5752380952381 M333.515,354.2052380952381 Q331.94,356.0952380952381,331.94,360.8202380952381" stroke="#444" fill="none" stroke-width="1.0125" />
<path d="M337.04,352.3152380952381 Q339.56,355.30773809523805,342.71,352.9452380952381 Q339.56,356.0952380952381,339.56,360.8202380952381" stroke="#444" fill="none" stroke-width="1.0125" />
<path d="M365.38316413284673,321.51207396239136 L362.1163308037649,324.77890729147316" stroke="black" stroke-width="0.7" />
<path d="M368.11,328.0952380952381 L363.49,328.0952380952381" stroke="black" stroke-width="0.7" />
<path d="M363.7497474683058,323.14549062693226 A7,7,0,1,0,365.8,328.0952380952381" stroke="black" stroke-width="0.7" fill="none" />
<path d="M366.1958569483191,332.36523809523806 L365.8,328.0952380952381 L363.52849870466304,330.8252380952381" fill="black" />
<path d="M352.1,357.4452380952381 C350.975,355.42023809523806,355.475,352.9452380952381,357.5,354.74523809523805 C358.625,356.7702380952381,354.125,359.24523809523805,352.1,357.4452380952381" fill="#444" />
<circle cx="359.75" cy="354.29523809523806" r="0.75" fill="#444" />
<path d="M357.5,355.645238095238 L357.5,339.895238095238" stroke="#444" stroke-width="0.45" />
<path d="M357.5,339.895238095238 L362.0,347.07723809523804" stroke="#444" stroke-width="0.9" />
<path d="M373.6160000000001,351.68523809523805 Q376.1360000000001,354.5202380952381,379.28600000000006,352.3152380952381 L377.71100000000007,354.2052380952381 Q376.1360000000001,355.7802380952381,373.3010000000001,353.5752380952381 M377.71100000000007,354.2052380952381 Q376.1360000000001,356.0952380952381,376.1360000000001,360.8202380952381" stroke="#444" fill="none" stroke-width="1.0125" />
<path d="M413.06,260.6357142857143 C411.935,258.61071428571427,416.435,256.1357142857143,418.46,257.93571428571425 C419.585,259.9607142857143,415.085,262.43571428571425,413.06,260.6357142857143" fill="#444" />
<path d="M418.46,258.83571428571423 L418.46,241.06071428571425" stroke="#444" stroke-width="0.45" />
<circle cx="420.71" cy="257.48571428571427" r="0.75" fill="#444" />
<path d="M431.34799999999984,260.6357142857143 C430.22299999999984,258.61071428571427,434.72299999999984,256.1357142857143,436.7479999999998,257.93571428571425 C437.8729999999998,259.9607142857143,433.3729999999998,262.43571428571425,431.34799999999984,260.6357142857143" fill="#444" />
<path d="M436.7479999999998,258.83571428571423 L436.7479999999998,241.06071428571425" stroke="#444" stroke-width="0.45" />
<path d="M418.46,241.06071428571425 L436.7479999999998,241.06071428571425" stroke="#444" stroke-width="1.5" />
<path d="M435.5720000000002,264.2857142857143 Q440.1440000000001,267.0289142857142,444.71600000000007,264.2857142857143 Q440.1440000000001,267.5775542857142,435.5720000000002,264.2857142857143" fill="black" stroke="black" stroke-width="0.5" />
<path d="M443.54,260.6357142857143 C442.415,258.61071428571427,446.915,256.1357142857143,448.94,257.93571428571425 C450.065,259.9607142857143,445.565,262.43571428571425,443.54,260.6357142857143" fill="#444" />
<path d="M448.94,258.83571428571423 L448.94,241.06071428571425" stroke="#444" stroke-width="0.45" />
<path d="M451.16,260.6357142857143 C450.035,258.61071428571427,454.535,256.1357142857143,456.56,257.93571428571425 C457.685,259.9607142857143,453.185,262.43571428571425,451.16,260.6357142857143" fill="#444" />
<path d="M456.56,258.83571428571423 L456.56,241.06071428571425" stroke="#444" stroke-width="0.45" />
<path d="M463.3520000000002,260.6357142857143 C462.2270000000002,258.61071428571427,466.7270000000002,256.1357142857143,468.7520000000002,257.93571428571425 C469.8770000000002,259.9607142857143,465.3770000000002,262.43571428571425,463.3520000000002,260.6357142857143" fill="#444" />
<path d="M468.7520000000002,258.83571428571423 L468.7520000000002,241.06071428571425" stroke="#444" stroke-width="0.45" />
<path d="M448.94,241.06071428571425 L456.56,241.06071428571425" stroke="#444" stroke-width="1.5" />
<path d="M448.94,244.06071428571425 L451.94,244.06071428571425" stroke="#444" stroke-width="1.5" />
<path d="M456.56,241.06071428571425 L468.7520000000002,241.06071428571425" stroke="#444" stroke-width="1.5" />
<path d="M467.5760000000001,264.2857142857143 Q471.3860000000001,266.5717142857143,475.1960000000001,264.2857142857143 Q471.3860000000001,267.0289142857143,467.5760000000001,264.2857142857143" fill="black" stroke="black" stroke-width="0.5" />
<path d="M474.02000000000004,260.6357142857143 C472.89500000000004,258.61071428571427,477.39500000000004,256.1357142857143,479.42,257.93571428571425 C480.545,259.9607142857143,476.045,262.43571428571425,474.02000000000004,260.6357142857143" fill="#444" />
<path d="M479.42,258.83571428571423 L479.42,241.73571428571427" stroke="#444" stroke-width="0.45" />
<path d="M479.42,241.73571428571427 L483.92,248.91771428571425" stroke="#444" stroke-width="0.9" />
<path d="M479.42,244.43571428571425 L483.92,251.61771428571424" stroke="#444" stroke-width="0.9" />
<path d="M483.16399999999993,260.6357142857143 C482.03899999999993,258.61071428571427,486.53899999999993,256.1357142857143,488.5639999999999,257.93571428571425 C489.6889999999999,259.9607142857143,485.1889999999999,262.43571428571425,483.16399999999993,260.6357142857143" fill="#444" />
<path d="M488.5639999999999,258.83571428571423 L488.5639999999999,244.43571428571425" stroke="#444" stroke-width="0.45" />
<path d="M483.9439999999999,237.78571428571428 L488.7439999999999,239.28571428571428 L483.9439999999999,240.78571428571428" stroke="black" stroke-width="1" fill="none" />
<path d="M488.9120000000002,264.2857142857143 Q496.53200000000015,267.3337142857143,504.15200000000016,264.2857142857143 Q496.53200000000015,267.9433142857143,488.9120000000002,264.2857142857143" fill="black" stroke="black" stroke-width="0.5" />
<path d="M504.5,260.6357142857143 C503.375,258.61071428571427,507.875,256.1357142857143,509.9,257.93571428571425 C511.025,259.9607142857143,506.525,262.43571428571425,504.5,260.6357142857143" fill="#444" />
<path d="M509.9,258.83571428571423 L509.9,244.43571428571425" stroke="#444" stroke-width="0.45" />
<text x="431.0" y="234.28571428571428" font-size="7" text-anchor="middle" font-family="Cantarell" font-style="italic" dominant-baseline="middle">5</text>
<path d="M416.76,238.28571428571428 L416.76,234.28571428571428 L427.5,234.28571428571428 M434.5,234.28571428571428 L445.24,234.28571428571428 L445.24,238.28571428571428" stroke="black" stroke-width="0.3" fill="none" />
<text x="461.48" y="234.28571428571428" font-size="7" text-anchor="middle" font-family="Cantarell" font-style="italic" dominant-baseline="middle">5</text>
<path d="M447.24,238.28571428571428 L447.24,234.28571428571428 L457.98,234.28571428571428 M464.98,234.28571428571428 L475.72,234.28571428571428 L475.72,238.28571428571428" stroke="black" stroke-width="0.3" fill="none" />
<text x="491.96000000000004" y="234.28571428571428" font-size="7" text-anchor="middle" font-family="Cantarell" font-style="italic" dominant-baseline="middle">5</text>
<path d="M477.72,238.28571428571428 L477.72,234.28571428571428 L488.46000000000004,234.28571428571428 M495.46000000000004,234.28571428571428 L506.20000000000005,234.28571428571428 L506.20000000000005,238.28571428571428" stroke="black" stroke-width="0.3" fill="none" />
<path d="M419.26,270.2857142857143 Q419.26,269.2857142857143,418.21,269.2857142857143 C416.81,269.2857142857143,416.46,281.2857142857143,416.11,281.7857142857143 Q415.40999999999997,281.7857142857143,415.40999999999997,280.7857142857143 M415.76,274.2857142857143 H418.56" stroke="black" fill="none" stroke-width="0.8333333333333334" />
<path d="M484.6660000000001,270.2857142857143 Q484.6660000000001,269.2857142857143,483.6160000000001,269.2857142857143 C482.2160000000001,269.2857142857143,481.8660000000001,281.2857142857143,481.51600000000013,281.7857142857143 Q480.8160000000001,281.7857142857143,480.8160000000001,280.7857142857143 M481.1660000000001,274.2857142857143 H483.9660000000001" stroke="black" fill="none" stroke-width="0.8333333333333334" />
<path d="M487.96600000000007,270.2857142857143 Q487.96600000000007,269.2857142857143,486.91600000000005,269.2857142857143 C485.5160000000001,269.2857142857143,485.16600000000005,281.2857142857143,484.8160000000001,281.7857142857143 Q484.11600000000004,281.7857142857143,484.11600000000004,280.7857142857143 M484.46600000000007,274.2857142857143 H487.2660000000001" stroke="black" fill="none" stroke-width="0.8333333333333334" />
<path d="M476.72,271.2857142857143 L423.38,276.2857142857143 L476.72,279.2857142857143" stroke="black" fill="none" stroke-width="0.4" />
<text x="410.76" y="310.23809523809524" font-size="8" text-anchor="end" dominant-baseline="middle" font-family="Cantarell">l.H. Druck</text>
<text x="413.76" y="303.23809523809524" font-size="10" text-anchor="end" dominant-baseline="middle" font-family="Cantarell">+</text>
<text x="413.76" y="317.23809523809524" font-size="10" text-anchor="end" dominant-baseline="middle" font-family="Cantarell">-</text>
<path d="M413.24,305.8280952380952 Q415.76,308.66309523809525,418.90999999999997,306.45809523809527 L417.335,308.34809523809525 Q415.76,309.92309523809524,412.925,307.71809523809526 M417.335,308.34809523809525 Q415.76,310.23809523809524,415.76,314.96309523809526" stroke="#444" fill="none" stroke-width="0.6749999999999999" />
<path d="M418.8079999999998,317.23809523809524 L431.0,303.23809523809524" stroke="black" />
<path d="M418.8079999999998,317.23809523809524 L418.8079999999998,332.08809523809526" stroke="#444" stroke-width="0.45" />
<path d="M418.8079999999998,332.08809523809526 L423.3079999999998,324.90609523809525" stroke="#444" stroke-width="0.9" />
<circle cx="421.0579999999998" cy="319.48809523809524" r="0.75" fill="#444" />
<path d="M431.52799999999985,305.8280952380952 Q434.04799999999983,308.66309523809525,437.1979999999998,306.45809523809527 L435.6229999999998,308.34809523809525 Q434.04799999999983,309.92309523809524,431.21299999999985,307.71809523809526 M435.6229999999998,308.34809523809525 Q434.04799999999983,310.23809523809524,434.04799999999983,314.96309523809526" stroke="#444" fill="none" stroke-width="0.6749999999999999" />
<path d="M438.62,317.23809523809524 L449.28799999999984,303.23809523809524" stroke="black" />
<path d="M438.62,317.23809523809524 L438.62,333.43809523809523" stroke="#444" stroke-width="0.45" />
<path d="M438.62,333.43809523809523 L443.12,326.2560952380952" stroke="#444" stroke-width="0.9" />
<path d="M438.62,330.73809523809524 L443.12,323.5560952380952" stroke="#444" stroke-width="0.9" />
<path d="M444.71600000000007,310.23809523809524 L444.71600000000007,326.43809523809523" stroke="#444" stroke-width="0.45" />
<path d="M444.71600000000007,326.43809523809523 L449.21600000000007,319.2560952380952" stroke="#444" stroke-width="0.9" />
<path d="M444.71600000000007,323.73809523809524 L449.21600000000007,316.5560952380952" stroke="#444" stroke-width="0.9" />
<path d="M449.8160000000001,305.8280952380952 Q452.33600000000007,308.66309523809525,455.48600000000005,306.45809523809527 L453.91100000000006,308.34809523809525 Q452.33600000000007,309.92309523809524,449.5010000000001,307.71809523809526 M453.91100000000006,308.34809523809525 Q452.33600000000007,310.23809523809524,452.33600000000007,314.96309523809526" stroke="#444" fill="none" stroke-width="0.6749999999999999" />
<path d="M455.3839999999999,317.23809523809524 L461.48,303.23809523809524" stroke="black" />
<path d="M455.3839999999999,317.23809523809524 L455.3839999999999,333.43809523809523" stroke="#444" stroke-width="0.45" />
<path d="M455.3839999999999,333.43809523809523 L459.8839999999999,326.2560952380952" stroke="#444" stroke-width="0.9" />
<path d="M455.3839999999999,330.73809523809524 L459.8839999999999,323.5560952380952" stroke="#444" stroke-width="0.9" />
<path d="M462.00799999999987,305.8280952380952 Q464.52799999999985,308.66309523809525,467.6779999999998,306.45809523809527 L466.10299999999984,308.34809523809525 Q464.52799999999985,309.92309523809524,461.69299999999987,307.71809523809526 M466.10299999999984,308.34809523809525 Q464.52799999999985,310.23809523809524,464.52799999999985,314.96309523809526" stroke="#444" fill="none" stroke-width="0.6749999999999999" />
<path d="M467.5760000000001,317.23809523809524 L479.76799999999986,303.23809523809524" stroke="black" />
<path d="M467.5760000000001,317.23809523809524 L467.5760000000001,333.43809523809523" stroke="#444" stroke-width="0.45" />
<path d="M467.5760000000001,333.43809523809523 L472.0760000000001,326.2560952380952" stroke="#444" stroke-width="0.9" />
<path d="M467.5760000000001,330.73809523809524 L472.0760000000001,323.5560952380952" stroke="#444" stroke-width="0.9" />
<path d="M473.6720000000002,310.23809523809524 L473.6720000000002,326.43809523809523" stroke="#444" stroke-width="0.45" />
<path d="M473.6720000000002,326.43809523809523 L478.1720000000002,319.2560952380952" stroke="#444" stroke-width="0.9" />
<path d="M473.6720000000002,323.73809523809524 L478.1720000000002,316.5560952380952" stroke="#444" stroke-width="0.9" />
<path d="M480.2960000000001,305.8280952380952 Q482.8160000000001,308.66309523809525,485.96600000000007,306.45809523809527 L484.3910000000001,308.34809523809525 Q482.8160000000001,309.92309523809524,479.9810000000001,307.71809523809526 M484.3910000000001,308.34809523809525 Q482.8160000000001,310.23809523809524,482.8160000000001,314.96309523809526" stroke="#444" fill="none" stroke-width="0.6749999999999999" />
<path d="M488.9120000000002,317.23809523809524 L536.1560000000002,303.23809523809524" stroke="black" />
<path d="M488.9120000000002,317.23809523809524 L488.9120000000002,332.08809523809526" stroke="#444" stroke-width="0.45" />
<path d="M488.9120000000002,332.08809523809526 L493.4120000000002,324.90609523809525" stroke="#444" stroke-width="0.9" />
<circle cx="491.1620000000002" cy="319.48809523809524" r="0.75" fill="#444" />
<path d="M507.2,312.23809523809524 L507.2,327.08809523809526" stroke="#444" stroke-width="0.45" />
<text x="429.4760000000001" y="295.23809523809524" font-size="7" text-anchor="middle" font-family="Cantarell" font-style="italic" dominant-baseline="middle">5</text>
<path d="M416.76,299.23809523809524 L416.76,295.23809523809524 L425.9760000000001,295.23809523809524 M432.9760000000001,295.23809523809524 L442.1920000000002,295.23809523809524 L442.1920000000002,299.23809523809524" stroke="black" stroke-width="0.3" fill="none" />
<text x="458.4320000000002" y="295.23809523809524" font-size="7" text-anchor="middle" font-family="Cantarell" font-style="italic" dominant-baseline="middle">5</text>
<path d="M444.1920000000002,299.23809523809524 L444.1920000000002,295.23809523809524 L454.9320000000002,295.23809523809524 M461.9320000000002,295.23809523809524 L472.6720000000002,295.23809523809524 L472.6720000000002,299.23809523809524" stroke="black" stroke-width="0.3" fill="none" />
<text x="488.91200000000015" y="295.23809523809524" font-size="7" text-anchor="middle" font-family="Cantarell" font-style="italic" dominant-baseline="middle">5</text>
<path d="M474.6720000000002,299.23809523809524 L474.6720000000002,295.23809523809524 L485.41200000000015,295.23809523809524 M492.41200000000015,295.23809523809524 L503.15200000000016,295.23809523809524 L503.15200000000016,299.23809523809524" stroke="black" stroke-width="0.3" fill="none" />
<circle cx="692.08" cy="257.5" r="2" stroke="black" fill="none" stroke-width="0.5" />
<path d="M692.08,259.5 L692.08,271.5" stroke="black" stroke-width="0.5" />
<circle cx="692.08" cy="257.5" r="1.0" fill="black" />
<text x="685.08" y="297.5" font-size="8" text-anchor="end" dominant-baseline="middle" font-family="Cantarell">r.H.</text>
<path d="M689.38,298.85 C688.255,296.825,692.755,294.35,694.7800000000001,296.15 C695.9050000000001,298.175,691.4050000000001,300.65,689.38,298.85" stroke="black" fill="none" stroke-width="0.675" />
<path d="M694.7800000000001,296.15 L694.7800000000001,283.19" stroke="black" stroke-width="0.45" />
<circle cx="697.5925000000001" cy="295.7" r="0.75" fill="black" />
<path d="M689.455,312.5 Q689.455,311.75,690.08,313.0 Q690.08,316.875,687.58,324.0 M690.08,313.0 C695.08,310.0,695.08,318.75,690.08,316.875" stroke="black" fill="none" stroke-width="0.8333333333333334" />
<path d="M700.08,297.5 Q739.8,305.5,766.28,337.5 Q738.476,306.3,700.08,297.5" fill="black" stroke="black" stroke-width="0.5" />
<path d="M778.8199999999999,298.85 C777.6949999999999,296.825,782.1949999999999,294.35,784.22,296.15 C785.345,298.175,780.845,300.65,778.8199999999999,298.85" fill="#444" />
<path d="M778.8199999999999,297.95000000000005 L778.8199999999999,313.70000000000005" stroke="#444" stroke-width="0.45" />
<path d="M778.8199999999999,313.70000000000005 L783.3199999999999,306.51800000000003" stroke="#444" stroke-width="0.9" />
<path d="M778.4720000000002,292.5 L784.5679999999999,292.5" stroke="black" />
<path d="M777.8470000000002,317.5 Q777.8470000000002,316.75,778.4720000000002,318.0 Q778.4720000000002,321.875,775.9720000000002,329.0 M778.4720000000002,318.0 C783.4720000000002,315.0,783.4720000000002,323.75,778.4720000000002,321.875" stroke="black" fill="none" stroke-width="0.8333333333333334" />
<text x="781.52" y="287.5" font-size="8" text-anchor="middle" font-family="Cantarell">l.H.</text>
<path d="M778.4720000000002,264.5 L787.4720000000002,264.5" stroke="black" stroke-width="0.9" />
<path d="M778.4720000000002,264.5 L778.4720000000002,267.2" stroke="black" stroke-width="0.45" />
<path d="M779.5970000000002,264.5 L779.5970000000002,267.2" stroke="black" stroke-width="0.45" />
<path d="M780.7220000000002,264.5 L780.7220000000002,267.2" stroke="black" stroke-width="0.45" />
<path d="M781.8470000000002,264.5 L781.8470000000002,267.2" stroke="black" stroke-width="0.45" />
<path d="M782.9720000000002,264.5 L782.9720000000002,267.2" stroke="black" stroke-width="0.45" />
<path d="M784.0970000000002,264.5 L784.0970000000002,267.2" stroke="black" stroke-width="0.45" />
<path d="M785.2220000000002,264.5 L785.2220000000002,267.2" stroke="black" stroke-width="0.45" />
<path d="M786.3470000000002,264.5 L786.3470000000002,267.2" stroke="black" stroke-width="0.45" />
<path d="M787.4720000000002,264.5 L787.4720000000002,267.2" stroke="black" stroke-width="0.45" />
<path d="M794.24,293.72 Q796.76,296.7125,799.91,294.35 Q796.76,297.5,796.76,302.225" stroke="#444" fill="none" stroke-width="0.6749999999999999" />
<path d="M50.0,437.6190476190476 L51.5,439.4395582979152 L53.0,438.3852653430269 L54.5,436.664785415782 L56.0,438.32409606166317 L57.5,439.2193335796655 L59.0,437.2840397187775 L60.5,435.91034854160773 L62.0,437.9066072364132 L63.5,435.7353017652754 L65.0,439.5290814387315 L66.5,437.4956500886169 L68.0,436.1258290220546 L69.5,435.9712080663488 L71.0,436.27902639136965 L72.5,437.59473455217676 L74.0,435.7215865939946 L75.5,437.24263758742876 L77.0,438.3213982480615 L78.5,436.24658423947244 L80.0,438.4324030935869 L81.5,435.8864934433609 L83.0,437.1381117017654 L84.5,438.3707666161978 L86.0,437.4232928104699 L87.5,436.2438164582461 L89.0,435.99300634940323 L90.5,436.74856558594433 L92.0,438.09445288824395 L93.5,436.2051041920334 L95.0,436.37314080258477 L96.5,438.15872252335413 L98.0,439.58824038683764 L99.5,439.06029817919136 L101.0,437.9307014824736 L102.5,436.2870786284015 L104.0,439.11592619035736 L105.5,438.41228011680454 L107.0,436.0280265129294 L108.5,438.3803823679924 L110.0,437.14030270646583 L111.5,437.41180314094555 L113.0,439.3832130393382 L114.5,437.39828285988966 L116.0,437.0461712005348 L117.5,438.08646777851135 L119.0,438.7059600480313 L120.5,438.09054372631056 L122.0,436.1938921044056 L123.5,436.0349817584504 L125.0,437.92466150068066 L126.5,437.7644072684988 L128.0,438.9014853055135 L129.5,435.62466435113885 L131.0,437.99849724165216 L132.5,437.9894094414556 L134.0,436.4512825273802 L135.5,436.5504098895971 L137.0,436.1167886248345 L138.5,437.27125849923215 L140.0,437.537522016588 L141.5,437.45621550503967 L143.0,439.60940852622116 L144.5,437.2397042822472 L146.0,438.48185500687373 L147.5,438.416654848283 L149.0,437.8200169923362 L150.5,438.9650612177715 L152.0,439.5903914414644 L153.5,436.29275861316927 L155.0,436.04585870118973 L156.5,439.3790961490157 L158.0,436.10343172922944 L159.5,438.22665331463253 L161.0,437.5327253000812 L162.5,436.76788273130074 L164.0,438.9974147809678 L165.5,435.9016870566713 L167.0,437.12371764034816 L168.5,436.663156363435 L170.0,435.64794325520785 L171.5,436.96959123855163 L173.0,436.0936858352614" fill="none" stroke="black" stroke-width="0.4" />
<path d="M171.92000000000002,488.57142857142856 Q263.36,498.76190476190476,324.32,539.5238095238095 Q260.312,499.7809523809524,171.92000000000002,488.57142857142856" fill="black" stroke="black" stroke-width="0.5" />
<path d="M172.00000000000003,482.07142857142856 L176.8,483.57142857142856 L172.00000000000003,485.07142857142856" stroke="black" stroke-width="1" fill="none" />
<path d="M168.62,547.2619047619047 L168.62,552.2619047619047 Q168.62,547.2619047619047,169.87,547.2619047619047 Q171.12,547.2619047619047,171.12,552.2619047619047 Q171.12,547.2619047619047,172.37,547.2619047619047 Q173.62,547.2619047619047,173.62,552.2619047619047" stroke="black" fill="none" stroke-width="0.8333333333333334" />
<path d="M178.72000000000003,543.2619047619047 Q178.72000000000003,542.2619047619047,177.67000000000002,542.2619047619047 C176.27000000000004,542.2619047619047,175.92000000000002,554.2619047619047,175.57000000000002,554.7619047619047 Q174.87000000000003,554.7619047619047,174.87000000000003,553.7619047619047 M175.22000000000003,547.2619047619047 H178.02000000000004" stroke="black" fill="none" stroke-width="0.8333333333333334" />
<path d="M323.695,547.2619047619047 Q323.695,546.5119047619047,324.32,547.7619047619047 Q324.32,551.6369047619047,321.82,558.7619047619047 M324.32,547.7619047619047 C329.32,544.7619047619047,329.32,553.5119047619047,324.32,551.6369047619047" stroke="black" fill="none" stroke-width="0.8333333333333334" />
<path d="M181.92000000000002,545.2619047619047 L318.22399999999993,551.2619047619047 L181.92000000000002,551.2619047619047" stroke="black" fill="none" stroke-width="0.4" />
<text x="415.76" y="438.0952380952381" font-size="8" font-family="Cantarell Light">Rauschen, Mittellage</text>
<path d="M415.135,478.0952380952381 Q415.135,477.3452380952381,415.76,478.5952380952381 Q415.76,482.4702380952381,413.26,489.5952380952381 M415.76,478.5952380952381 C420.76,475.5952380952381,420.76,484.3452380952381,415.76,482.4702380952381" stroke="black" fill="none" stroke-width="0.8333333333333334" />
<path d="M413.06,464.4452380952381 C411.935,462.42023809523806,416.435,459.9452380952381,418.46,461.74523809523805 C419.585,463.7702380952381,415.085,466.24523809523805,413.06,464.4452380952381" fill="#444" />
<path d="M418.46,462.645238095238 L418.46,448.24523809523805" stroke="#444" stroke-width="0.45" />
<circle cx="421.835" cy="461.29523809523806" r="0.75" fill="#444" />
<path d="M458.96000000000004,459.3152380952381 Q461.48,462.30773809523805,464.63,459.9452380952381 Q461.48,463.0952380952381,461.48,467.8202380952381" stroke="#444" fill="none" stroke-width="0.6749999999999999" />
<path d="M474.02000000000004,464.4452380952381 C472.89500000000004,462.42023809523806,477.39500000000004,459.9452380952381,479.42,461.74523809523805 C480.545,463.7702380952381,476.045,466.24523809523805,474.02000000000004,464.4452380952381" fill="#444" />
<path d="M479.42,462.645238095238 L479.42,448.24523809523805" stroke="#444" stroke-width="0.45" />
<circle cx="482.795" cy="461.29523809523806" r="0.75" fill="#444" />
<path d="M519.9200000000001,459.3152380952381 Q522.44,462.30773809523805,525.59,459.9452380952381 Q522.44,463.0952380952381,522.44,467.8202380952381" stroke="#444" fill="none" stroke-width="0.6749999999999999" />
<path d="M534.98,464.4452380952381 C533.855,462.42023809523806,538.355,459.9452380952381,540.3800000000001,461.74523809523805 C541.5050000000001,463.7702380952381,537.0050000000001,466.24523809523805,534.98,464.4452380952381" fill="#444" />
<path d="M540.3800000000001,462.645238095238 L540.3800000000001,448.24523809523805" stroke="#444" stroke-width="0.45" />
<circle cx="543.7550000000001" cy="461.29523809523806" r="0.75" fill="#444" />
<path d="M580.88,459.3152380952381 Q583.4,462.30773809523805,586.55,459.9452380952381 Q583.4,463.0952380952381,583.4,467.8202380952381" stroke="#444" fill="none" stroke-width="0.6749999999999999" />
</svg>