<?xml version="1.0" encoding="UTF-8"?>
<svg xmlns="http://www.w3.org/2000/svg" xmlns:xlink="http://www.w3.org/1999/xlink"
    width="3368" height="2380" viewBox="0 0 842 595" font-family="Simvoni">
<defs>
</defs>
<text x="16.0" y="112.79761904761904" font-size="24" dominant-baseline="middle">V</text>
<path d="M50.0,70.47619047619048 L50.0,60.47619047619048" stroke="black" stroke-width="0.5" />
<text x="50.0" y="55.476190476190474" font-size="8" text-anchor="middle">50</text>
<path d="M80.48,70.47619047619048 L80.48,65.47619047619048" stroke="black" stroke-width="0.5" />
<path d="M110.96000000000001,70.47619047619048 L110.96000000000001,65.47619047619048" stroke="black" stroke-width="0.5" />
<path d="M141.44,70.47619047619048 L141.44,65.47619047619048" stroke="black" stroke-width="0.5" />
<path d="M171.92000000000002,70.47619047619048 L171.92000000000002,65.47619047619048" stroke="black" stroke-width="0.5" />
<text x="171.92000000000002" y="50.476190476190474" font-size="12" text-anchor="middle">54</text>
<path d="M171.92000000000002,55.476190476190474 V75.47619047619048 M167.92000000000002,71.47619047619048 L171.92000000000002,75.47619047619048 L175.92000000000002,71.47619047619048" stroke-width="1" stroke="black" fill="none" transform="rotate(0.000000 171.920000 55.476190)" />
<path d="M202.4,70.47619047619048 L202.4,60.47619047619048" stroke="black" stroke-width="0.5" />
<path d="M232.88,70.47619047619048 L232.88,65.47619047619048" stroke="black" stroke-width="0.5" />
<path d="M263.36,70.47619047619048 L263.36,65.47619047619048" stroke="black" stroke-width="0.5" />
<path d="M293.84000000000003,70.47619047619048 L293.84000000000003,65.47619047619048" stroke="black" stroke-width="0.5" />
<path d="M324.32,70.47619047619048 L324.32,65.47619047619048" stroke="black" stroke-width="0.5" />
<path d="M354.8,70.47619047619048 L354.8,60.47619047619048" stroke="black" stroke-width="0.5" />
<text x="354.8" y="55.476190476190474" font-size="8" text-anchor="middle">60</text>
<path d="M385.28000000000003,70.47619047619048 L385.28000000000003,65.47619047619048" stroke="black" stroke-width="0.5" />
<path d="M415.76,70.47619047619048 L415.76,65.47619047619048" stroke="black" stroke-width="0.5" />
<path d="M446.24,70.47619047619048 L446.24,65.47619047619048" stroke="black" stroke-width="0.5" />
<path d="M476.72,70.47619047619048 L476.72,65.47619047619048" stroke="black" stroke-width="0.5" />
<path d="M507.2,70.47619047619048 L507.2,60.47619047619048" stroke="black" stroke-width="0.5" />
<text x="507.2" y="55.476190476190474" font-size="8" text-anchor="middle">65</text>
<path d="M537.6800000000001,70.47619047619048 L537.6800000000001,65.47619047619048" stroke="black" stroke-width="0.5" />
<path d="M568.16,70.47619047619048 L568.16,65.47619047619048" stroke="black" stroke-width="0.5" />
<path d="M598.64,70.47619047619048 L598.64,65.47619047619048" stroke="black" stroke-width="0.5" />
<path d="M629.12,70.47619047619048 L629.12,65.47619047619048" stroke="black" stroke-width="0.5" />
<path d="M659.6,70.47619047619048 L659.6,60.47619047619048" stroke="black" stroke-width="0.5" />
<path d="M690.08,70.47619047619048 L690.08,65.47619047619048" stroke="black" stroke-width="0.5" />
<path d="M720.5600000000001,70.47619047619048 L720.5600000000001,65.47619047619048" stroke="black" stroke-width="0.5" />
<text x="720.5600000000001" y="50.476190476190474" font-size="12" text-anchor="middle">72</text>
<path d="M720.5600000000001,55.476190476190474 V75.47619047619048 M716.5600000000001,71.47619047619048 L720.5600000000001,75.47619047619048 L724.5600000000001,71.47619047619048" stroke-width="1" stroke="black" fill="none" transform="rotate(0.000000 720.560000 55.476190)" />
<path d="M751.04,70.47619047619048 L751.04,65.47619047619048" stroke="black" stroke-width="0.5" />
<path d="M781.52,70.47619047619048 L781.52,65.47619047619048" stroke="black" stroke-width="0.5" />
<path d="M812.0,70.47619047619048 L812.0,60.47619047619048" stroke="black" stroke-width="0.5" />
<text x="812.0" y="55.476190476190474" font-size="8" text-anchor="middle">75</text>
<text x="16.0" y="278.3928571428571" font-size="24" dominant-baseline="middle">P</text>
<path d="M50.0,185.11904761904762 L50.0,175.11904761904762" stroke="black" stroke-width="0.5" />
<text x="50.0" y="170.11904761904762" font-size="8" text-anchor="middle">50</text>
<path d="M80.48,185.11904761904762 L80.48,180.11904761904762" stroke="black" stroke-width="0.5" />
<path d="M110.96000000000001,185.11904761904762 L110.96000000000001,180.11904761904762" stroke="black" stroke-width="0.5" />
<path d="M141.44,185.11904761904762 L141.44,180.11904761904762" stroke="black" stroke-width="0.5" />
<path d="M171.92000000000002,185.11904761904762 L171.92000000000002,180.11904761904762" stroke="black" stroke-width="0.5" />
<path d="M202.4,185.11904761904762 L202.4,175.11904761904762" stroke="black" stroke-width="0.5" />
<text x="202.4" y="170.11904761904762" font-size="8" text-anchor="middle">55</text>
<path d="M232.88,185.11904761904762 L232.88,180.11904761904762" stroke="black" stroke-width="0.5" />
<path d="M263.36,185.11904761904762 L263.36,180.11904761904762" stroke="black" stroke-width="0.5" />
<path d="M293.84000000000003,185.11904761904762 L293.84000000000003,180.11904761904762" stroke="black" stroke-width="0.5" />
<path d="M324.32,185.11904761904762 L324.32,180.11904761904762" stroke="black" stroke-width="0.5" />
<path d="M354.8,185.11904761904762 L354.8,175.11904761904762" stroke="black" stroke-width="0.5" />
<text x="354.8" y="170.11904761904762" font-size="8" text-anchor="middle">60</text>
<path d="M385.28000000000003,185.11904761904762 L385.28000000000003,180.11904761904762" stroke="black" stroke-width="0.5" />
<path d="M415.76,185.11904761904762 L415.76,180.11904761904762" stroke="black" stroke-width="0.5" />
<path d="M446.24,185.11904761904762 L446.24,180.11904761904762" stroke="black" stroke-width="0.5" />
<path d="M476.72,185.11904761904762 L476.72,180.11904761904762" stroke="black" stroke-width="0.5" />
<path d="M507.2,185.11904761904762 L507.2,175.11904761904762" stroke="black" stroke-width="0.5" />
<text x="507.2" y="170.11904761904762" font-size="8" text-anchor="middle">65</text>
<path d="M537.6800000000001,185.11904761904762 L537.6800000000001,180.11904761904762" stroke="black" stroke-width="0.5" />
<path d="M568.16,185.11904761904762 L568.16,180.11904761904762" stroke="black" stroke-width="0.5" />
<path d="M598.64,185.11904761904762 L598.64,180.11904761904762" stroke="black" stroke-width="0.5" />
<text x="598.64" y="165.11904761904762" font-size="12" text-anchor="middle">68</text>
<path d="M598.64,170.11904761904762 V190.11904761904762 M594.64,186.11904761904762 L598.64,190.11904761904762 L602.64,186.11904761904762" stroke-width="1" stroke="black" fill="none" transform="rotate(0.000000 598.640000 170.119048)" />
<path d="M629.12,185.11904761904762 L629.12,180.11904761904762" stroke="black" stroke-width="0.5" />
<path d="M659.6,185.11904761904762 L659.6,175.11904761904762" stroke="black" stroke-width="0.5" />
<text x="659.6" y="165.11904761904762" font-size="12" text-anchor="middle">70</text>
<path d="M659.6,170.11904761904762 V190.11904761904762 M655.6,186.11904761904762 L659.6,190.11904761904762 L663.6,186.11904761904762" stroke-width="1" stroke="black" fill="none" transform="rotate(0.000000 659.600000 170.119048)" />
<path d="M690.08,185.11904761904762 L690.08,180.11904761904762" stroke="black" stroke-width="0.5" />
<path d="M720.5600000000001,185.11904761904762 L720.5600000000001,180.11904761904762" stroke="black" stroke-width="0.5" />
<path d="M751.04,185.11904761904762 L751.04,180.11904761904762" stroke="black" stroke-width="0.5" />
<path d="M781.52,185.11904761904762 L781.52,180.11904761904762" stroke="black" stroke-width="0.5" />
<path d="M812.0,185.11904761904762 L812.0,175.11904761904762" stroke="black" stroke-width="0.5" />
<text x="812.0" y="170.11904761904762" font-size="8" text-anchor="middle">75</text>
<text x="16.0" y="475.8333333333333" font-size="24" dominant-baseline="middle">E</text>
<path d="M50.0,401.66666666666663 L50.0,391.66666666666663" stroke="black" stroke-width="0.5" />
<text x="50.0" y="386.66666666666663" font-size="8" text-anchor="middle">50</text>
<path d="M80.48,401.66666666666663 L80.48,396.66666666666663" stroke="black" stroke-width="0.5" />
<path d="M110.96000000000001,401.66666666666663 L110.96000000000001,396.66666666666663" stroke="black" stroke-width="0.5" />
<path d="M141.44,401.66666666666663 L141.44,396.66666666666663" stroke="black" stroke-width="0.5" />
<path d="M171.92000000000002,401.66666666666663 L171.92000000000002,396.66666666666663" stroke="black" stroke-width="0.5" />
<path d="M202.4,401.66666666666663 L202.4,391.66666666666663" stroke="black" stroke-width="0.5" />
<text x="202.4" y="386.66666666666663" font-size="8" text-anchor="middle">55</text>
<path d="M232.88,401.66666666666663 L232.88,396.66666666666663" stroke="black" stroke-width="0.5" />
<path d="M263.36,401.66666666666663 L263.36,396.66666666666663" stroke="black" stroke-width="0.5" />
<path d="M293.84000000000003,401.66666666666663 L293.84000000000003,396.66666666666663" stroke="black" stroke-width="0.5" />
<path d="M324.32,401.66666666666663 L324.32,396.66666666666663" stroke="black" stroke-width="0.5" />
<path d="M354.8,401.66666666666663 L354.8,391.66666666666663" stroke="black" stroke-width="0.5" />
<text x="354.8" y="386.66666666666663" font-size="8" text-anchor="middle">60</text>
<path d="M385.28000000000003,401.66666666666663 L385.28000000000003,396.66666666666663" stroke="black" stroke-width="0.5" />
<path d="M415.76,401.66666666666663 L415.76,396.66666666666663" stroke="black" stroke-width="0.5" />
<path d="M446.24,401.66666666666663 L446.24,396.66666666666663" stroke="black" stroke-width="0.5" />
<path d="M476.72,401.66666666666663 L476.72,396.66666666666663" stroke="black" stroke-width="0.5" />
<path d="M507.2,401.66666666666663 L507.2,391.66666666666663" stroke="black" stroke-width="0.5" />
<path d="M537.6800000000001,401.66666666666663 L537.6800000000001,396.66666666666663" stroke="black" stroke-width="0.5" />
<text x="537.6800000000001" y="381.66666666666663" font-size="12" text-anchor="middle">66</text>
<path d="M537.6800000000001,386.66666666666663 V406.66666666666663 M533.6800000000001,402.66666666666663 L537.6800000000001,406.66666666666663 L541.6800000000001,402.66666666666663" stroke-width="1" stroke="black" fill="none" transform="rotate(0.000000 537.680000 386.666667)" />
<path d="M568.16,401.66666666666663 L568.16,396.66666666666663" stroke="black" stroke-width="0.5" />
<path d="M598.64,401.66666666666663 L598.64,396.66666666666663" stroke="black" stroke-width="0.5" />
<text x="598.64" y="381.66666666666663" font-size="12" text-anchor="middle">68</text>
<path d="M598.64,386.66666666666663 V406.66666666666663 M594.64,402.66666666666663 L598.64,406.66666666666663 L602.64,402.66666666666663" stroke-width="1" stroke="black" fill="none" transform="rotate(0.000000 598.640000 386.666667)" />
<path d="M629.12,401.66666666666663 L629.12,396.66666666666663" stroke="black" stroke-width="0.5" />
<path d="M659.6,401.66666666666663 L659.6,391.66666666666663" stroke="black" stroke-width="0.5" />
<text x="659.6" y="386.66666666666663" font-size="8" text-anchor="middle">70</text>
<path d="M690.08,401.66666666666663 L690.08,396.66666666666663" stroke="black" stroke-width="0.5" />
<path d="M720.5600000000001,401.66666666666663 L720.5600000000001,396.66666666666663" stroke="black" stroke-width="0.5" />
<path d="M751.04,401.66666666666663 L751.04,396.66666666666663" stroke="black" stroke-width="0.5" />
<path d="M781.52,401.66666666666663 L781.52,396.66666666666663" stroke="black" stroke-width="0.5" />
<path d="M812.0,401.66666666666663 L812.0,391.66666666666663" stroke="black" stroke-width="0.5" />
<text x="812.0" y="386.66666666666663" font-size="8" text-anchor="middle">75</text>
<text x="169.92000000000002" y="96.23809523809524" font-size="16">BEKAM</text>
<path d="M169.22000000000003,128.1595238095238 C168.09500000000003,126.1345238095238,172.59500000000003,123.65952380952379,174.62,125.4595238095238 C175.745,127.4845238095238,171.245,129.9595238095238,169.22000000000003,128.1595238095238" fill="#444" />
<path d="M174.62,126.35952380952381 L174.62,110.60952380952381" stroke="#444" stroke-width="0.45" />
<path d="M174.62,110.60952380952381 L179.12,117.79152380952381" stroke="#444" stroke-width="0.9" />
<path d="M179.27839999999995,135.80238095238093 C178.15339999999995,133.77738095238092,182.65339999999995,131.30238095238093,184.67839999999993,133.10238095238094 C185.80339999999993,135.12738095238095,181.30339999999993,137.60238095238094,179.27839999999995,135.80238095238093" fill="#444" />
<path d="M184.67839999999993,134.00238095238095 L184.67839999999993,118.25238095238095" stroke="#444" stroke-width="0.45" />
<path d="M184.67839999999993,118.25238095238095 L189.17839999999993,125.43438095238095" stroke="#444" stroke-width="0.9" />
<path d="M190.17600000000007,126.01095238095238 Q193.25600000000009,129.66845238095237,197.10600000000008,126.78095238095239 Q193.25600000000009,130.63095238095238,193.25600000000009,136.40595238095239" stroke="#444" fill="none" stroke-width="0.825" />
<text x="187.16000000000003" y="103.88095238095238" font-size="7" text-anchor="middle" font-family="Cantarell" font-style="italic" dominant-baseline="middle">3</text>
<path d="M172.92000000000002,107.88095238095238 L172.92000000000002,103.88095238095238 L183.66000000000003,103.88095238095238 M190.66000000000003,103.88095238095238 L201.4,103.88095238095238 L201.4,107.88095238095238" stroke="black" stroke-width="0.3" fill="none" />
<text x="205.44800000000004" y="130.63095238095238" font-size="10" font-family="Cantarell Light" font-style="italic">kindlich singen</text>
<path d="M167.63000000000002,148.33333333333331 L167.63000000000002,154.83333333333331 Q167.63000000000002,148.33333333333331,169.25500000000002,148.33333333333331 Q170.88000000000002,148.33333333333331,170.88000000000002,154.83333333333331 Q170.88000000000002,148.33333333333331,172.50500000000002,148.33333333333331 Q174.13000000000002,148.33333333333331,174.13000000000002,154.83333333333331" stroke="black" fill="none" stroke-width="1.0833333333333333" />
<path d="M180.76000000000002,143.13333333333333 Q180.76000000000002,141.83333333333331,179.395,141.83333333333331 C177.57500000000002,141.83333333333331,177.12,157.4333333333333,176.66500000000002,158.08333333333331 Q175.755,158.08333333333331,175.755,156.7833333333333 M176.21,148.33333333333331 H179.85" stroke="black" fill="none" stroke-width="1.0833333333333333" />
<text x="718.5600000000001" y="96.23809523809524" font-size="16" letter-spacing="4">SCHMRZN</text>
<path d="M718.5600000000001,106.42857142857142 L720.3557917496169,103.38918665277428 L722.1063673342331,109.5148200743642 L724.723067911632,102.97590410583912 L727.12101082807,109.56695323527752 L728.6438843738292,102.95193161821031 L731.2516610244734,110.17325643257206 L733.6146894004818,103.02548791422257 L735.5546854867512,110.34678497119091 L737.91679058052,103.13343843080425 L740.3240718518354,110.38051168482875 L742.303864066424,103.22479552394547 L745.1279682473325,109.45649914340234 L747.1678744138311,102.83442578234335 L748.673395100487,109.90498955315472 L750.295684403173,102.77435416494727 L752.9985216958981,110.28240484840822 L755.2817875073391,103.04321177841932 L756.9551125627402,110.20318590394639 L759.4741337049218,102.5041113914938 L761.4285961735607,109.79735414045717 L763.3749538623886,102.90283798579755 L766.0640585946694,109.65946693629381 L768.8144276970834,103.2941306518922 L771.7860256987897,109.4459941373732 L774.4024616535763,102.96442256632866 L777.1592106475924,110.1438899208515 L780.0828198390159,102.43734484275264 L782.5795214423734,110.25978105253014 L785.1197899188684,103.1972066527387 L788.0888865452958,110.06430582692822 L790.1910610210239,102.59685046110789 L792.3616471478439,109.99743944366175 L794.4032125977249,102.50123920893121 L796.1708242169645,110.28439280415826 L798.569228635849,102.68015021761134 L801.2411898223914,110.22069208384063 L804.2223188078029,102.59857205777584 L806.0709442890683,109.44004396875346 L808.6138262749195,102.76027182068258 L810.4455589889117,109.63595007268037 L812.1179483734849,102.45613061148501" fill="none" stroke="black" stroke-width="0.6400000000000001" />
<path d="M717.86,135.80238095238093 C716.735,133.77738095238092,721.235,131.30238095238093,723.2600000000001,133.10238095238094 C724.3850000000001,135.12738095238095,719.8850000000001,137.60238095238094,717.86,135.80238095238093" stroke="#444" fill="none" />
<path d="M723.2600000000001,133.10238095238094 L723.2600000000001,113.66238095238094" stroke="#444" stroke-width="0.45" />
<circle cx="726.6350000000001" cy="132.65238095238095" r="0.8999999999999999" fill="#444" />
<circle cx="723.1600000000001" cy="119.16666666666666" r="2" stroke="black" stroke-width="0.4" fill="none" />
<text x="766.28" y="124.26190476190476" font-size="10" font-family="Cantarell Light" font-style="italic" text-anchor="middle"><tspan x="766.28" dy="0em">sehr verspannt,</tspan><tspan x="766.28" dy="1em">Überdruck</tspan></text>
<path d="M719.965,143.13333333333333 Q719.965,141.83333333333331,718.6,141.83333333333331 C716.7800000000001,141.83333333333331,716.325,157.4333333333333,715.8700000000001,158.08333333333331 Q714.96,158.08333333333331,714.96,156.7833333333333 M715.4150000000001,148.33333333333331 H719.0550000000001" stroke="black" fill="none" stroke-width="1.0833333333333333" />
<path d="M724.255,143.13333333333333 Q724.255,141.83333333333331,722.89,141.83333333333331 C721.07,141.83333333333331,720.615,157.4333333333333,720.1600000000001,158.08333333333331 Q719.25,158.08333333333331,719.25,156.7833333333333 M719.705,148.33333333333331 H723.345" stroke="black" fill="none" stroke-width="1.0833333333333333" />
<path d="M50.0,272.0238095238095 L507.2,272.0238095238095" stroke="black" stroke-width="0.5" />
<text x="48.0" y="221.07142857142856" font-size="12" font-family="Cantarell"></text>
<path d="M598.64,259.2857142857143 L659.6,259.2857142857143" stroke="black" stroke-width="0.5" />
<text x="596.64" y="205.78571428571428" font-size="12" font-family="Cantarell">Rohre</text>
<text x="594.64" y="256.2857142857143" font-size="6" font-family="Cantarell" text-anchor="end" dominant-baseline="middle">1</text>
<text x="590.64" y="260.2857142857143" font-size="6" font-family="Cantarell" text-anchor="end" dominant-baseline="middle">2</text>
<circle cx="598.64" cy="213.78571428571428" r="2" fill="black" />
<path d="M598.64,213.78571428571428 L598.64,231.78571428571428" stroke="black" stroke-width="0.4" />
<path d="M659.6,348.4523809523809 L812.0,348.4523809523809" stroke="black" stroke-width="0.5" />
<text x="657.6" y="310.23809523809524" font-size="12" font-family="Cantarell">Waldteufel</text>
<path d="M47.3,273.37380952380954 C46.175,271.3488095238095,50.675,268.87380952380954,52.7,270.6738095238095 C53.825,272.69880952380953,49.325,275.1738095238095,47.3,273.37380952380954" fill="#444" />
<path d="M52.7,271.5738095238095 L52.7,257.1738095238095" stroke="#444" stroke-width="0.45" />
<path d="M40.85600000000009,276.0238095238095 Q44.66600000000008,278.3098095238095,48.476000000000084,276.0238095238095 Q44.66600000000008,278.7670095238095,40.85600000000009,276.0238095238095" fill="black" stroke="black" stroke-width="0.5" />
<path d="M65.58800000000004,273.37380952380954 C64.46300000000004,271.3488095238095,68.96300000000004,268.87380952380954,70.98800000000004,270.6738095238095 C72.11300000000004,272.69880952380953,67.61300000000004,275.1738095238095,65.58800000000004,273.37380952380954" fill="#444" />
<path d="M70.98800000000004,271.5738095238095 L70.98800000000004,255.8238095238095" stroke="#444" stroke-width="0.45" />
<path d="M70.98800000000004,255.8238095238095 L75.48800000000004,263.0058095238095" stroke="#444" stroke-width="0.9" />
<path d="M69.81199999999995,276.0238095238095 Q74.38400000000001,278.7670095238096,78.95600000000009,276.0238095238095 Q74.38400000000001,279.3156495238096,69.81199999999995,276.0238095238095" fill="black" stroke="black" stroke-width="0.5" />
<path d="M77.78,273.37380952380954 C76.655,271.3488095238095,81.155,268.87380952380954,83.18,270.6738095238095 C84.305,272.69880952380953,79.805,275.1738095238095,77.78,273.37380952380954" fill="#444" />
<path d="M83.18,271.5738095238095 L83.18,255.8238095238095" stroke="#444" stroke-width="0.45" />
<path d="M83.18,255.8238095238095 L87.68,263.0058095238095" stroke="#444" stroke-width="0.9" />
<path d="M87.83839999999994,273.37380952380954 C86.71339999999994,271.3488095238095,91.21339999999994,268.87380952380954,93.23839999999994,270.6738095238095 C94.36339999999994,272.69880952380953,89.86339999999994,275.1738095238095,87.83839999999994,273.37380952380954" fill="#444" />
<path d="M87.83839999999994,272.47380952380956 L87.83839999999994,288.22380952380956" stroke="#444" stroke-width="0.45" />
<path d="M87.83839999999994,288.22380952380956 L92.33839999999994,281.04180952380955" stroke="#444" stroke-width="0.9" />
<path d="M87.70399999999991,264.5238095238095 L92.5039999999999,266.0238095238095 L87.70399999999991,267.5238095238095" stroke="black" stroke-width="1" fill="none" />
<path d="M97.89679999999989,273.37380952380954 C96.77179999999989,271.3488095238095,101.27179999999989,268.87380952380954,103.29679999999989,270.6738095238095 C104.42179999999989,272.69880952380953,99.92179999999989,275.1738095238095,97.89679999999989,273.37380952380954" fill="#444" />
<path d="M103.29679999999989,271.5738095238095 L103.29679999999989,255.8238095238095" stroke="#444" stroke-width="0.45" />
<path d="M103.29679999999989,255.8238095238095 L107.79679999999989,263.0058095238095" stroke="#444" stroke-width="0.9" />
<path d="M101.81600000000009,276.0238095238095 Q105.62600000000009,278.3098095238095,109.43600000000009,276.0238095238095 Q105.62600000000009,278.7670095238095,101.81600000000009,276.0238095238095" fill="black" stroke="black" stroke-width="0.5" />
<path d="M108.26,273.37380952380954 C107.135,271.3488095238095,111.635,268.87380952380954,113.66000000000001,270.6738095238095 C114.78500000000001,272.69880952380953,110.28500000000001,275.1738095238095,108.26,273.37380952380954" fill="#444" />
<path d="M113.66000000000001,271.5738095238095 L113.66000000000001,257.1738095238095" stroke="#444" stroke-width="0.45" />
<path d="M128.3767999999999,273.37380952380954 C127.25179999999988,271.3488095238095,131.7517999999999,268.87380952380954,133.77679999999987,270.6738095238095 C134.90179999999987,272.69880952380953,130.40179999999987,275.1738095238095,128.3767999999999,273.37380952380954" fill="#444" />
<path d="M133.77679999999987,271.5738095238095 L133.77679999999987,255.8238095238095" stroke="#444" stroke-width="0.45" />
<path d="M133.77679999999987,255.8238095238095 L138.27679999999987,263.0058095238095" stroke="#444" stroke-width="0.9" />
<path d="M132.2960000000001,276.0238095238095 Q136.1060000000001,278.3098095238095,139.91600000000008,276.0238095238095 Q136.1060000000001,278.7670095238095,132.2960000000001,276.0238095238095" fill="black" stroke="black" stroke-width="0.5" />
<path d="M138.74,273.37380952380954 C137.615,271.3488095238095,142.115,268.87380952380954,144.14,270.6738095238095 C145.265,272.69880952380953,140.765,275.1738095238095,138.74,273.37380952380954" fill="#444" />
<path d="M144.14,271.5738095238095 L144.14,257.1738095238095" stroke="#444" stroke-width="0.45" />
<path d="M172.50500000000002,277.0438095238095 Q168.995,271.4863095238095,173.38250000000002,272.6563095238095 L171.335,269.1463095238095 L173.09,267.0988095238095 Q171.92000000000002,265.9288095238095,171.92000000000002,264.75880952380953" stroke="#444" fill="none" stroke-width="1.0125" />
<path d="M202.985,277.0438095238095 Q199.475,271.4863095238095,203.8625,272.6563095238095 L201.815,269.1463095238095 L203.57,267.0988095238095 Q202.4,265.9288095238095,202.4,264.75880952380953" stroke="#444" fill="none" stroke-width="1.0125" />
<path d="M230.18,273.37380952380954 C229.055,271.3488095238095,233.555,268.87380952380954,235.57999999999998,270.6738095238095 C236.70499999999998,272.69880952380953,232.20499999999998,275.1738095238095,230.18,273.37380952380954" fill="#444" />
<path d="M235.57999999999998,271.5738095238095 L235.57999999999998,257.1738095238095" stroke="#444" stroke-width="0.45" />
<path d="M234.4039999999999,276.0238095238095 Q248.12,284.2534095238096,261.8360000000001,276.0238095238095 Q248.12,285.89932952380957,234.4039999999999,276.0238095238095" fill="black" stroke="black" stroke-width="0.5" />
<path d="M260.66,273.37380952380954 C259.535,271.3488095238095,264.035,268.87380952380954,266.06,270.6738095238095 C267.185,272.69880952380953,262.685,275.1738095238095,260.66,273.37380952380954" fill="#444" />
<path d="M266.06,271.5738095238095 L266.06,257.1738095238095" stroke="#444" stroke-width="0.45" />
<path d="M280.7767999999999,273.37380952380954 C279.6517999999999,271.3488095238095,284.1517999999999,268.87380952380954,286.1767999999999,270.6738095238095 C287.3017999999999,272.69880952380953,282.8017999999999,275.1738095238095,280.7767999999999,273.37380952380954" fill="#444" />
<path d="M286.1767999999999,271.5738095238095 L286.1767999999999,255.8238095238095" stroke="#444" stroke-width="0.45" />
<path d="M286.1767999999999,255.8238095238095 L290.6767999999999,263.0058095238095" stroke="#444" stroke-width="0.9" />
<path d="M284.6960000000001,276.0238095238095 Q288.5060000000001,278.3098095238095,292.3160000000001,276.0238095238095 Q288.5060000000001,278.7670095238095,284.6960000000001,276.0238095238095" fill="black" stroke="black" stroke-width="0.5" />
<path d="M291.14000000000004,273.37380952380954 C290.01500000000004,271.3488095238095,294.51500000000004,268.87380952380954,296.54,270.6738095238095 C297.665,272.69880952380953,293.165,275.1738095238095,291.14000000000004,273.37380952380954" fill="#444" />
<path d="M296.54,271.5738095238095 L296.54,255.8238095238095" stroke="#444" stroke-width="0.45" />
<path d="M296.54,255.8238095238095 L301.04,263.0058095238095" stroke="#444" stroke-width="0.9" />
<path d="M301.19839999999994,273.37380952380954 C300.07339999999994,271.3488095238095,304.57339999999994,268.87380952380954,306.5983999999999,270.6738095238095 C307.7233999999999,272.69880952380953,303.2233999999999,275.1738095238095,301.19839999999994,273.37380952380954" fill="#444" />
<path d="M301.19839999999994,272.47380952380956 L301.19839999999994,288.22380952380956" stroke="#444" stroke-width="0.45" />
<path d="M301.19839999999994,288.22380952380956 L305.69839999999994,281.04180952380955" stroke="#444" stroke-width="0.9" />
<path d="M301.0639999999999,264.5238095238095 L305.8639999999999,266.0238095238095 L301.0639999999999,267.5238095238095" stroke="black" stroke-width="1" fill="none" />
<path d="M311.2567999999999,273.37380952380954 C310.1317999999999,271.3488095238095,314.6317999999999,268.87380952380954,316.65679999999986,270.6738095238095 C317.78179999999986,272.69880952380953,313.28179999999986,275.1738095238095,311.2567999999999,273.37380952380954" fill="#444" />
<path d="M316.65679999999986,271.5738095238095 L316.65679999999986,255.8238095238095" stroke="#444" stroke-width="0.45" />
<path d="M316.65679999999986,255.8238095238095 L321.15679999999986,263.0058095238095" stroke="#444" stroke-width="0.9" />
<path d="M315.1760000000001,276.0238095238095 Q318.9860000000001,278.3098095238095,322.7960000000001,276.0238095238095 Q318.9860000000001,278.7670095238095,315.1760000000001,276.0238095238095" fill="black" stroke="black" stroke-width="0.5" />
<path d="M321.62,273.37380952380954 C320.495,271.3488095238095,324.995,268.87380952380954,327.02,270.6738095238095 C328.145,272.69880952380953,323.645,275.1738095238095,321.62,273.37380952380954" fill="#444" />
<path d="M327.02,271.5738095238095 L327.02,257.1738095238095" stroke="#444" stroke-width="0.45" />
<path d="M355.385,277.0438095238095 Q351.875,271.4863095238095,356.2625,272.6563095238095 L354.21500000000003,269.1463095238095 L355.97,267.0988095238095 Q354.8,265.9288095238095,354.8,264.75880952380953" stroke="#444" fill="none" stroke-width="1.0125" />
<path d="M385.865,277.0438095238095 Q382.355,271.4863095238095,386.7425,272.6563095238095 L384.69500000000005,269.1463095238095 L386.45000000000005,267.0988095238095 Q385.28000000000003,265.9288095238095,385.28000000000003,264.75880952380953" stroke="#444" fill="none" stroke-width="1.0125" />
<path d="M413.06,273.37380952380954 C411.935,271.3488095238095,416.435,268.87380952380954,418.46,270.6738095238095 C419.585,272.69880952380953,415.085,275.1738095238095,413.06,273.37380952380954" fill="#444" />
<path d="M418.46,271.5738095238095 L418.46,257.1738095238095" stroke="#444" stroke-width="0.45" />
<path d="M417.28399999999993,276.0238095238095 Q431.0,284.2534095238096,444.71600000000007,276.0238095238095 Q431.0,285.89932952380957,417.28399999999993,276.0238095238095" fill="black" stroke="black" stroke-width="0.5" />
<path d="M443.54,273.37380952380954 C442.415,271.3488095238095,446.915,268.87380952380954,448.94,270.6738095238095 C450.065,272.69880952380953,445.565,275.1738095238095,443.54,273.37380952380954" fill="#444" />
<path d="M448.94,271.5738095238095 L448.94,257.1738095238095" stroke="#444" stroke-width="0.45" />
<path d="M463.6567999999999,273.37380952380954 C462.5317999999999,271.3488095238095,467.0317999999999,268.87380952380954,469.0567999999999,270.6738095238095 C470.1817999999999,272.69880952380953,465.6817999999999,275.1738095238095,463.6567999999999,273.37380952380954" fill="#444" />
<path d="M469.0567999999999,271.5738095238095 L469.0567999999999,255.8238095238095" stroke="#444" stroke-width="0.45" />
<path d="M469.0567999999999,255.8238095238095 L473.5567999999999,263.0058095238095" stroke="#444" stroke-width="0.9" />
<path d="M467.5760000000001,276.0238095238095 Q471.3860000000001,278.3098095238095,475.1960000000001,276.0238095238095 Q471.3860000000001,278.7670095238095,467.5760000000001,276.0238095238095" fill="black" stroke="black" stroke-width="0.5" />
<path d="M474.02000000000004,273.37380952380954 C472.89500000000004,271.3488095238095,477.39500000000004,268.87380952380954,479.42,270.6738095238095 C480.545,272.69880952380953,476.045,275.1738095238095,474.02000000000004,273.37380952380954" fill="#444" />
<path d="M479.42,271.5738095238095 L479.42,255.8238095238095" stroke="#444" stroke-width="0.45" />
<path d="M479.42,255.8238095238095 L483.92,263.0058095238095" stroke="#444" stroke-width="0.9" />
<path d="M484.0784,273.37380952380954 C482.9534,271.3488095238095,487.4534,268.87380952380954,489.47839999999997,270.6738095238095 C490.60339999999997,272.69880952380953,486.10339999999997,275.1738095238095,484.0784,273.37380952380954" fill="#444" />
<path d="M484.0784,272.47380952380956 L484.0784,288.22380952380956" stroke="#444" stroke-width="0.45" />
<path d="M484.0784,288.22380952380956 L488.5784,281.04180952380955" stroke="#444" stroke-width="0.9" />
<path d="M483.9439999999999,264.5238095238095 L488.7439999999999,266.0238095238095 L483.9439999999999,267.5238095238095" stroke="black" stroke-width="1" fill="none" />
<path d="M488.9120000000002,263.0238095238095 Q499.58000000000004,256.6230095238096,510.2479999999998,259.0238095238095 Q499.58000000000004,255.34284952380966,488.9120000000002,263.0238095238095" fill="black" stroke="black" stroke-width="0.3" />
<path d="M494.31679999999994,266.24380952380955 Q496.8367999999999,269.2363095238095,499.9867999999999,266.87380952380954 Q496.8367999999999,270.0238095238095,496.8367999999999,274.74880952380954" stroke="#444" fill="none" stroke-width="1.0125" />
<text x="65.24000000000001" y="248.02380952380952" font-size="7" text-anchor="middle" font-family="Cantarell" font-style="italic" dominant-baseline="middle">3</text>
<path d="M51.0,252.02380952380952 L51.0,248.02380952380952 L61.74000000000001,248.02380952380952 M68.74000000000001,248.02380952380952 L79.48,248.02380952380952 L79.48,252.02380952380952" stroke="black" stroke-width="0.3" fill="none" />
<text x="95.72" y="248.02380952380952" font-size="7" text-anchor="middle" font-family="Cantarell" font-style="italic" dominant-baseline="middle">3</text>
<path d="M81.48,252.02380952380952 L81.48,248.02380952380952 L92.22,248.02380952380952 M99.22,248.02380952380952 L109.96000000000001,248.02380952380952 L109.96000000000001,252.02380952380952" stroke="black" stroke-width="0.3" fill="none" />
<text x="126.2" y="248.02380952380952" font-size="7" text-anchor="middle" font-family="Cantarell" font-style="italic" dominant-baseline="middle">3</text>
<path d="M111.96000000000001,252.02380952380952 L111.96000000000001,248.02380952380952 L122.7,248.02380952380952 M129.7,248.02380952380952 L140.44,248.02380952380952 L140.44,252.02380952380952" stroke="black" stroke-width="0.3" fill="none" />
<text x="278.6" y="248.02380952380952" font-size="7" text-anchor="middle" font-family="Cantarell" font-style="italic" dominant-baseline="middle">3</text>
<path d="M264.36,252.02380952380952 L264.36,248.02380952380952 L275.1,248.02380952380952 M282.1,248.02380952380952 L292.84000000000003,248.02380952380952 L292.84000000000003,252.02380952380952" stroke="black" stroke-width="0.3" fill="none" />
<text x="309.08000000000004" y="248.02380952380952" font-size="7" text-anchor="middle" font-family="Cantarell" font-style="italic" dominant-baseline="middle">3</text>
<path d="M294.84000000000003,252.02380952380952 L294.84000000000003,248.02380952380952 L305.58000000000004,248.02380952380952 M312.58000000000004,248.02380952380952 L323.32000000000005,248.02380952380952 L323.32000000000005,252.02380952380952" stroke="black" stroke-width="0.3" fill="none" />
<text x="461.48" y="248.02380952380952" font-size="7" text-anchor="middle" font-family="Cantarell" font-style="italic" dominant-baseline="middle">3</text>
<path d="M447.24,252.02380952380952 L447.24,248.02380952380952 L457.98,248.02380952380952 M464.98,248.02380952380952 L475.72,248.02380952380952 L475.72,252.02380952380952" stroke="black" stroke-width="0.3" fill="none" />
<text x="491.96000000000004" y="248.02380952380952" font-size="7" text-anchor="middle" font-family="Cantarell" font-style="italic" dominant-baseline="middle">3</text>
<path d="M477.72,252.02380952380952 L477.72,248.02380952380952 L488.46000000000004,248.02380952380952 M495.46000000000004,248.02380952380952 L506.20000000000005,248.02380952380952 L506.20000000000005,252.02380952380952" stroke="black" stroke-width="0.3" fill="none" />
<path d="M89.62399999999991,307.6904761904762 V322.6904761904762 M86.62399999999991,319.6904761904762 L89.62399999999991,322.6904761904762 L92.62399999999991,319.6904761904762" stroke-width="0.5" stroke="black" fill="none" transform="rotate(180.000000 89.624000 307.690476)" />
<text x="89.62399999999991" y="310.23809523809524" font-size="10" font-family="Cantarell Light" font-style="italic" text-anchor="middle" dominant-baseline="hanging"><tspan x="89.62399999999991" dy="0em">mit der Rückseite</tspan><tspan x="89.62399999999991" dy="1em">der Bürste schlagen</tspan></text>
<path d="M595.9399999999999,260.6357142857143 C594.8149999999999,258.61071428571427,599.3149999999999,256.1357142857143,601.34,257.93571428571425 C602.465,259.9607142857143,597.965,262.43571428571425,595.9399999999999,260.6357142857143" fill="#444" />
<path d="M595.9399999999999,259.7357142857143 L595.9399999999999,274.1357142857143" stroke="#444" stroke-width="0.45" />
<path d="M616.0567999999998,257.3857142857143 C614.9317999999998,255.36071428571427,619.4317999999998,252.88571428571427,621.4567999999999,254.68571428571428 C622.5817999999999,256.7107142857143,618.0817999999999,259.18571428571425,616.0567999999998,257.3857142857143" fill="#444" />
<path d="M616.0567999999998,256.4857142857143 L616.0567999999998,272.2357142857143" stroke="#444" stroke-width="0.45" />
<path d="M616.0567999999998,272.2357142857143 L620.5567999999998,265.0537142857143" stroke="#444" stroke-width="0.9" />
<path d="M619.9760000000001,251.78571428571428 Q624.548,249.0425142857143,629.12,251.78571428571428 Q624.548,248.4938742857143,619.9760000000001,251.78571428571428" fill="black" stroke="black" stroke-width="0.5" />
<path d="M626.42,257.3857142857143 C625.295,255.36071428571427,629.795,252.88571428571427,631.82,254.68571428571428 C632.945,256.7107142857143,628.445,259.18571428571425,626.42,257.3857142857143" fill="#444" />
<path d="M626.42,256.4857142857143 L626.42,272.2357142857143" stroke="#444" stroke-width="0.45" />
<path d="M626.42,272.2357142857143 L630.92,265.0537142857143" stroke="#444" stroke-width="0.9" />
<path d="M638.7920000000001,255.50571428571428 Q641.3120000000001,258.49821428571425,644.4620000000001,256.1357142857143 Q641.3120000000001,259.2857142857143,641.3120000000001,264.0107142857143" stroke="#444" fill="none" stroke-width="0.8099999999999999" />
<path d="M647.9360000000001,255.50571428571428 Q650.4560000000001,258.49821428571425,653.6060000000001,256.1357142857143 Q650.4560000000001,259.2857142857143,650.4560000000001,264.0107142857143" stroke="#444" fill="none" stroke-width="0.8099999999999999" />
<text x="613.88" y="238.90476190476187" font-size="7" text-anchor="middle" font-family="Cantarell" font-style="italic" dominant-baseline="middle">3</text>
<path d="M599.64,242.90476190476187 L599.64,238.90476190476187 L610.38,238.90476190476187 M617.38,238.90476190476187 L628.12,238.90476190476187 L628.12,242.90476190476187" stroke="black" stroke-width="0.3" fill="none" />
<text x="644.36" y="238.90476190476187" font-size="7" text-anchor="middle" font-family="Cantarell" font-style="italic" dominant-baseline="middle">3</text>
<path d="M630.12,242.90476190476187 L630.12,238.90476190476187 L640.86,238.90476190476187 M647.86,238.90476190476187 L658.6,238.90476190476187 L658.6,242.90476190476187" stroke="black" stroke-width="0.3" fill="none" />
<path d="M593.6160000000001,278.4880952380952 L593.6160000000001,283.4880952380952 Q593.6160000000001,278.4880952380952,594.8660000000001,278.4880952380952 Q596.1160000000001,278.4880952380952,596.1160000000001,283.4880952380952 Q596.1160000000001,278.4880952380952,597.3660000000001,278.4880952380952 Q598.6160000000001,278.4880952380952,598.6160000000001,283.4880952380952" stroke="black" fill="none" stroke-width="0.8333333333333334" />
<path d="M599.9910000000001,278.4880952380952 Q599.9910000000001,277.7380952380952,600.6160000000001,278.9880952380952 Q600.6160000000001,282.8630952380952,598.1160000000001,289.9880952380952 M600.6160000000001,278.9880952380952 C605.6160000000001,275.9880952380952,605.6160000000001,284.7380952380952,600.6160000000001,282.8630952380952" stroke="black" fill="none" stroke-width="0.8333333333333334" />
<path d="M656.9,349.80238095238093 C655.775,347.7773809523809,660.275,345.30238095238093,662.3000000000001,347.1023809523809 C663.4250000000001,349.1273809523809,658.9250000000001,351.6023809523809,656.9,349.80238095238093" fill="#444" />
<path d="M662.3000000000001,348.00238095238086 L662.3000000000001,333.6023809523809" stroke="#444" stroke-width="0.45" />
<path d="M663.1,359.4523809523809 Q663.1,358.4523809523809,662.0500000000001,358.4523809523809 C660.65,358.4523809523809,660.3000000000001,370.4523809523809,659.95,370.9523809523809 Q659.25,370.9523809523809,659.25,369.9523809523809 M659.6,363.4523809523809 H662.4" stroke="black" fill="none" stroke-width="0.8333333333333334" />
<path d="M662.6479999999998,352.4523809523809 Q674.8399999999999,359.767580952381,687.0320000000002,352.4523809523809 Q674.8399999999999,361.23062095238106,662.6479999999998,352.4523809523809" fill="black" stroke="black" stroke-width="0.5" />
<path d="M687.38,349.80238095238093 C686.255,347.7773809523809,690.755,345.30238095238093,692.7800000000001,347.1023809523809 C693.9050000000001,349.1273809523809,689.4050000000001,351.6023809523809,687.38,349.80238095238093" fill="#444" />
<path d="M692.7800000000001,348.00238095238086 L692.7800000000001,332.25238095238086" stroke="#444" stroke-width="0.45" />
<path d="M692.7800000000001,332.25238095238086 L697.2800000000001,339.4343809523809" stroke="#444" stroke-width="0.9" />
<path d="M659.6,328.4523809523809 L661.6,328.42971111873726 L663.6,327.44705221289774 L665.6,328.2223561524436 L667.6,327.7011000300838 L669.6,329.0914486852362 L671.6,328.66815288347726 L673.6,329.77678536998854 L675.6,327.4187643053519 L677.6,329.5010560067958 L679.6,328.38065920746106 L681.6,329.5911431352144 L683.6,328.32939922182254 L685.6,329.5197152502718 L687.6,327.77260745851027 L689.6,329.36194852254044 L691.6,327.10124291753925 L693.6,328.56413206311754 L695.6,328.6237316703224 L697.6,328.5405126089392 L699.6,327.43628152634875 L701.6,328.1502327460155 L703.6,328.5174784000582 L705.6,327.1411690827758" fill="none" stroke="black" stroke-width="0.45" />
<path d="M702.8000000000001,344.67238095238093 Q705.32,347.6648809523809,708.47,345.30238095238093 Q705.32,348.4523809523809,705.32,353.17738095238093" stroke="#444" fill="none" stroke-width="1.0125" />
<path d="M718.0400000000001,344.67238095238093 Q720.5600000000001,347.6648809523809,723.71,345.30238095238093 Q720.5600000000001,348.4523809523809,720.5600000000001,353.17738095238093" stroke="#444" fill="none" stroke-width="1.0125" />
<path d="M733.0999999999999,349.80238095238093 C731.9749999999999,347.7773809523809,736.4749999999999,345.30238095238093,738.5,347.1023809523809 C739.625,349.1273809523809,735.125,351.6023809523809,733.0999999999999,349.80238095238093" fill="#444" />
<path d="M738.5,348.00238095238086 L738.5,332.25238095238086" stroke="#444" stroke-width="0.45" />
<path d="M738.5,332.25238095238086 L743.0,339.4343809523809" stroke="#444" stroke-width="0.9" />
<path d="M737.324,352.4523809523809 Q743.4200000000001,356.10998095238097,749.5160000000001,352.4523809523809 Q743.4200000000001,356.84150095238095,737.324,352.4523809523809" fill="black" stroke="black" stroke-width="0.5" />
<path d="M748.3399999999999,349.80238095238093 C747.2149999999999,347.7773809523809,751.7149999999999,345.30238095238093,753.74,347.1023809523809 C754.865,349.1273809523809,750.365,351.6023809523809,748.3399999999999,349.80238095238093" fill="#444" />
<path d="M753.74,348.00238095238086 L753.74,333.6023809523809" stroke="#444" stroke-width="0.45" />
<path d="M735.8,328.4523809523809 L737.8,328.85771023818484 L739.8,328.7964835318225 L741.8,329.02917081268583 L743.8,327.8924767378528 L745.8,329.823872451961 L747.8,328.1015513678031 L749.8,329.6475333283837 L751.8,328.76423979021456 L753.8,328.92899656644073 L755.8,329.0588393731738 L757.8,329.11591409704266 L759.8,328.36226082038223 L761.8,329.3418834204115 L763.8,328.43243253046177 L765.8,328.83947380195707 L767.8,327.1359201102147 L769.8,329.19676677445216 L771.8,327.5295252455808 L773.8,329.34722121893105 L775.8,328.83473738613253 L777.8,327.5957506309407 L779.8,328.52539669710353 L781.8,328.76149882071684" fill="none" stroke="black" stroke-width="0.45" />
<path d="M782.105,353.4723809523809 Q778.595,347.9148809523809,782.9825,349.0848809523809 L780.935,345.5748809523809 L782.6899999999999,343.5273809523809 Q781.52,342.3573809523809,781.52,341.1873809523809" stroke="#444" fill="none" stroke-width="1.0125" />
<path d="M534.98,464.4452380952381 C533.855,462.42023809523806,538.355,459.9452380952381,540.3800000000001,461.74523809523805 C541.5050000000001,463.7702380952381,537.0050000000001,466.24523809523805,534.98,464.4452380952381" fill="#444" />
<path d="M540.3800000000001,462.645238095238 L540.3800000000001,448.24523809523805" stroke="#444" stroke-width="0.45" />
<path d="M565.4599999999999,464.4452380952381 C564.3349999999999,462.42023809523806,568.8349999999999,459.9452380952381,570.86,461.74523809523805 C571.985,463.7702380952381,567.485,466.24523809523805,565.4599999999999,464.4452380952381" fill="#444" />
<path d="M570.86,462.645238095238 L570.86,448.24523809523805" stroke="#444" stroke-width="0.45" />
<path d="M537.0550000000001,473.0952380952381 Q537.0550000000001,472.3452380952381,537.6800000000001,473.5952380952381 Q537.6800000000001,477.4702380952381,535.1800000000001,484.5952380952381 M537.6800000000001,473.5952380952381 C542.6800000000001,470.5952380952381,542.6800000000001,479.3452380952381,537.6800000000001,477.4702380952381" stroke="black" fill="none" stroke-width="0.8333333333333334" />
<text x="531.584" y="498.0952380952381" font-size="8" font-family="Cantarell Light">(ähnlich Rohr 3)</text>
<path d="M598.64,437.6190476190476 L600.14,439.3322361626386 L601.64,438.49306134574533 L603.14,437.7537717306046 L604.64,436.62147803115255 L606.14,435.92585414677643 L607.64,437.8050204403929 L609.14,439.43178132778854 L610.64,439.0348907020333 L612.14,437.91843245764744 L613.64,437.60495608424225 L615.14,436.63997583075167 L616.64,439.5018313488474 L618.14,436.9913855704097 L619.64,436.18922810284226 L621.14,435.702023704656 L622.64,438.446084797546 L624.14,436.4022328517496 L625.64,435.8405382098334 L627.14,436.05346322519824 L628.64,437.2641297110374 L630.14,437.19608397804933 L631.64,436.9491571208239 L633.14,435.637994191715 L634.64,438.5602352817381 L636.14,437.4727119797668 L637.64,436.1771001912262 L639.14,436.6711233635441 L640.64,436.57361465537184 L642.14,438.5515167183902 L643.64,435.7899512405362 L645.14,436.96384537457396 L646.64,438.8397016944309 L648.14,438.52667597912205 L649.64,438.6660552099409 L651.14,436.5246482038913 L652.64,438.3374037014291 L654.14,436.61141627054207 L655.64,437.87438750523694 L657.14,437.566530030759 L658.64,437.3201729689924 L660.14,439.4396106351969 L661.64,435.93851797475133 L663.14,439.237093826003 L664.64,436.08745917873864 L666.14,438.4904655666879 L667.64,436.50564156955704 L669.14,439.29695899351566 L670.64,437.3910602583306 L672.14,439.3582087774148 L673.64,435.95333479153044 L675.14,435.9962256798461 L676.64,436.6883921804855 L678.14,437.38667419287214 L679.64,436.8703972058964 L681.14,436.5531093749032 L682.64,438.8875367969837 L684.14,437.7878567660164 L685.64,438.3857956495989 L687.14,437.8595867602975 L688.64,439.4531381072288 L690.14,439.0325822924951 L691.64,438.2097750168558 L693.14,439.2590036722887 L694.64,436.3778632608933 L696.14,436.4969390418137 L697.64,437.1024162019676 L699.14,436.4731466840766 L700.64,438.6419621576454 L702.14,437.4008421542456 L703.64,436.4104102456652 L705.14,439.1457521694754 L706.64,439.4267298937806 L708.14,435.9762204146417 L709.64,436.86467541300317 L711.14,435.779135992715 L712.64,438.53300680455493 L714.14,436.33751417804456 L715.64,437.9526576990234 L717.14,436.1963645559686 L718.64,437.8158116460641 L720.14,437.5436809978233 L721.64,439.5971631811419 L723.14,437.94688634693995 L724.64,437.0974042738271 L726.14,436.44602125955674 L727.64,439.0378591713021 L729.14,438.7894776760776 L730.64,437.5251199095747 L732.14,438.6990876693713 L733.64,438.36251611410887 L735.14,436.6471979617352 L736.64,437.13743623168847 L738.14,437.5881056766823 L739.64,438.12501254550756 L741.14,439.22998520561356 L742.64,436.4679705045463 L744.14,438.4578840406359 L745.64,436.3664964323299 L747.14,437.87667947887115 L748.64,436.1975538024933 L750.14,436.8993926846289 L751.64,437.36634918323847 L753.14,435.80554791305985 L754.64,437.0410547787168 L756.14,438.23739143612033 L757.64,439.22657495920356 L759.14,438.6898405311155 L760.64,439.3033237136436 L762.14,438.3740149341737 L763.64,438.26102211714556 L765.14,435.7430256767773 L766.64,439.349990354586 L768.14,438.02906755546735 L769.64,439.3983606909203 L771.14,438.7589723700373 L772.64,438.28487942442007 L774.14,439.0321463681212 L775.64,439.4646831376941 L777.14,437.10268520890116 L778.64,438.7979713128205 L780.14,436.48573324030514 L781.64,438.7594803115158 L783.14,437.49369979759035 L784.64,439.27106763719775 L786.14,438.93466135028507 L787.64,436.42276824978126 L789.14,436.68991083495854 L790.64,436.153601760556 L792.14,436.1857213234669 L793.64,436.84258921630703 L795.14,435.6729581783711 L796.64,437.6767015946105 L798.14,437.5238430893876 L799.64,438.03388757791777 L801.14,438.61415070741225 L802.64,437.74467510855743 L804.14,439.2906950574443 L805.64,436.05512969326793 L807.14,437.36143621499525 L808.64,437.2195384583839 L810.14,438.44412546373906 L811.64,436.99163889130926 L813.14,439.50209286973893" fill="none" stroke="black" stroke-width="0.4" />
<path d="M598.5629999999999,448.6190476190476 Q598.5629999999999,447.8690476190476,599.1879999999999,449.1190476190476 Q599.1879999999999,452.9940476190476,596.6879999999999,460.1190476190476 M599.1879999999999,449.1190476190476 C604.1879999999999,446.1190476190476,604.1879999999999,454.8690476190476,599.1879999999999,452.9940476190476" stroke="black" fill="none" stroke-width="0.8333333333333334" />
<path d="M603.5629999999999,448.6190476190476 Q603.5629999999999,447.8690476190476,604.1879999999999,449.1190476190476 Q604.1879999999999,452.9940476190476,601.6879999999999,460.1190476190476 M604.1879999999999,449.1190476190476 C609.1879999999999,446.1190476190476,609.1879999999999,454.8690476190476,604.1879999999999,452.9940476190476" stroke="black" fill="none" stroke-width="0.8333333333333334" />
<text x="629.12" y="457.6190476190476" font-size="8" font-family="Cantarell Light">(etwas aufgerissener als bei 16)</text>
</svg>