<?xml version="1.0" encoding="UTF-8"?>
<svg xmlns="http://www.w3.org/2000/svg" xmlns:xlink="http://www.w3.org/1999/xlink"
    width="3368" height="2380" viewBox="0 0 842 595" font-family="Simvoni">
<defs>
<clipPath id="d0">
<rect x="50.0" y="412.1428571428571" width="243.84" height="254.76190476190476" />
</clipPath>
</defs>
<text x="421.0" y="585" font-size="10" text-anchor="middle">15</text>
<text x="16.0" y="119.16666666666666" font-size="24" dominant-baseline="middle">V</text>
<path d="M50.0,70.47619047619048 L50.0,60.47619047619048" stroke="black" stroke-width="0.3" />
<text x="50.0" y="55.476190476190474" font-size="7" text-anchor="middle">350</text>
<path d="M80.48,70.47619047619048 L80.48,65.47619047619048" stroke="black" stroke-width="0.3" />
<path d="M110.96000000000001,70.47619047619048 L110.96000000000001,65.47619047619048" stroke="black" stroke-width="0.3" />
<path d="M141.44,70.47619047619048 L141.44,65.47619047619048" stroke="black" stroke-width="0.3" />
<path d="M171.92000000000002,70.47619047619048 L171.92000000000002,65.47619047619048" stroke="black" stroke-width="0.3" />
<path d="M202.4,70.47619047619048 L202.4,60.47619047619048" stroke="black" stroke-width="0.3" />
<text x="202.4" y="55.476190476190474" font-size="7" text-anchor="middle">355</text>
<path d="M232.88,70.47619047619048 L232.88,65.47619047619048" stroke="black" stroke-width="0.3" />
<path d="M263.36,70.47619047619048 L263.36,65.47619047619048" stroke="black" stroke-width="0.3" />
<path d="M293.84000000000003,70.47619047619048 L293.84000000000003,65.47619047619048" stroke="black" stroke-width="0.3" />
<path d="M324.32,70.47619047619048 L324.32,65.47619047619048" stroke="black" stroke-width="0.3" />
<path d="M354.8,70.47619047619048 L354.8,60.47619047619048" stroke="black" stroke-width="0.3" />
<text x="354.8" y="50.476190476190474" font-size="12" text-anchor="middle">360</text>
<path d="M354.8,55.476190476190474 V75.47619047619048 M350.8,71.47619047619048 L354.8,75.47619047619048 L358.8,71.47619047619048" stroke-width="1" stroke="black" fill="none" transform="rotate(0.000000 354.800000 55.476190)" />
<path d="M385.28000000000003,70.47619047619048 L385.28000000000003,65.47619047619048" stroke="black" stroke-width="0.3" />
<path d="M415.76,70.47619047619048 L415.76,65.47619047619048" stroke="black" stroke-width="0.3" />
<path d="M446.24,70.47619047619048 L446.24,65.47619047619048" stroke="black" stroke-width="0.3" />
<path d="M476.72,70.47619047619048 L476.72,65.47619047619048" stroke="black" stroke-width="0.3" />
<path d="M507.2,70.47619047619048 L507.2,60.47619047619048" stroke="black" stroke-width="0.3" />
<text x="507.2" y="55.476190476190474" font-size="7" text-anchor="middle">365</text>
<path d="M537.6800000000001,70.47619047619048 L537.6800000000001,65.47619047619048" stroke="black" stroke-width="0.3" />
<path d="M568.16,70.47619047619048 L568.16,65.47619047619048" stroke="black" stroke-width="0.3" />
<path d="M598.64,70.47619047619048 L598.64,65.47619047619048" stroke="black" stroke-width="0.3" />
<path d="M629.12,70.47619047619048 L629.12,65.47619047619048" stroke="black" stroke-width="0.3" />
<path d="M659.6,70.47619047619048 L659.6,60.47619047619048" stroke="black" stroke-width="0.3" />
<text x="659.6" y="55.476190476190474" font-size="7" text-anchor="middle">370</text>
<path d="M690.08,70.47619047619048 L690.08,65.47619047619048" stroke="black" stroke-width="0.3" />
<path d="M720.5600000000001,70.47619047619048 L720.5600000000001,65.47619047619048" stroke="black" stroke-width="0.3" />
<path d="M751.04,70.47619047619048 L751.04,65.47619047619048" stroke="black" stroke-width="0.3" />
<path d="M781.52,70.47619047619048 L781.52,65.47619047619048" stroke="black" stroke-width="0.3" />
<path d="M812.0,70.47619047619048 L812.0,60.47619047619048" stroke="black" stroke-width="0.3" />
<text x="812.0" y="55.476190476190474" font-size="7" text-anchor="middle">375</text>
<text x="16.0" y="297.5" font-size="24" dominant-baseline="middle">P</text>
<path d="M50.0,197.85714285714283 L50.0,187.85714285714283" stroke="black" stroke-width="0.3" />
<path d="M80.48,197.85714285714283 L80.48,192.85714285714283" stroke="black" stroke-width="0.3" />
<path d="M110.96000000000001,197.85714285714283 L110.96000000000001,192.85714285714283" stroke="black" stroke-width="0.3" />
<path d="M141.44,197.85714285714283 L141.44,192.85714285714283" stroke="black" stroke-width="0.3" />
<path d="M171.92000000000002,197.85714285714283 L171.92000000000002,192.85714285714283" stroke="black" stroke-width="0.3" />
<path d="M202.4,197.85714285714283 L202.4,187.85714285714283" stroke="black" stroke-width="0.3" />
<text x="202.4" y="182.85714285714283" font-size="7" text-anchor="middle">355</text>
<path d="M232.88,197.85714285714283 L232.88,192.85714285714283" stroke="black" stroke-width="0.3" />
<path d="M263.36,197.85714285714283 L263.36,192.85714285714283" stroke="black" stroke-width="0.3" />
<path d="M293.84000000000003,197.85714285714283 L293.84000000000003,192.85714285714283" stroke="black" stroke-width="0.3" />
<text x="293.84000000000003" y="177.85714285714283" font-size="12" text-anchor="middle">358</text>
<path d="M293.84000000000003,182.85714285714283 V202.85714285714283 M289.84000000000003,198.85714285714283 L293.84000000000003,202.85714285714283 L297.84000000000003,198.85714285714283" stroke-width="1" stroke="black" fill="none" transform="rotate(0.000000 293.840000 182.857143)" />
<path d="M324.32,197.85714285714283 L324.32,192.85714285714283" stroke="black" stroke-width="0.3" />
<path d="M354.8,197.85714285714283 L354.8,187.85714285714283" stroke="black" stroke-width="0.3" />
<text x="354.8" y="177.85714285714283" font-size="12" text-anchor="middle">360</text>
<path d="M354.8,182.85714285714283 V202.85714285714283 M350.8,198.85714285714283 L354.8,202.85714285714283 L358.8,198.85714285714283" stroke-width="1" stroke="black" fill="none" transform="rotate(0.000000 354.800000 182.857143)" />
<path d="M385.28000000000003,197.85714285714283 L385.28000000000003,192.85714285714283" stroke="black" stroke-width="0.3" />
<path d="M415.76,197.85714285714283 L415.76,192.85714285714283" stroke="black" stroke-width="0.3" />
<path d="M446.24,197.85714285714283 L446.24,192.85714285714283" stroke="black" stroke-width="0.3" />
<path d="M476.72,197.85714285714283 L476.72,192.85714285714283" stroke="black" stroke-width="0.3" />
<path d="M507.2,197.85714285714283 L507.2,187.85714285714283" stroke="black" stroke-width="0.3" />
<text x="507.2" y="182.85714285714283" font-size="7" text-anchor="middle">365</text>
<path d="M537.6800000000001,197.85714285714283 L537.6800000000001,192.85714285714283" stroke="black" stroke-width="0.3" />
<path d="M568.16,197.85714285714283 L568.16,192.85714285714283" stroke="black" stroke-width="0.3" />
<path d="M598.64,197.85714285714283 L598.64,192.85714285714283" stroke="black" stroke-width="0.3" />
<path d="M629.12,197.85714285714283 L629.12,192.85714285714283" stroke="black" stroke-width="0.3" />
<path d="M659.6,197.85714285714283 L659.6,187.85714285714283" stroke="black" stroke-width="0.3" />
<text x="659.6" y="182.85714285714283" font-size="7" text-anchor="middle">370</text>
<path d="M690.08,197.85714285714283 L690.08,192.85714285714283" stroke="black" stroke-width="0.3" />
<path d="M720.5600000000001,197.85714285714283 L720.5600000000001,192.85714285714283" stroke="black" stroke-width="0.3" />
<path d="M751.04,197.85714285714283 L751.04,192.85714285714283" stroke="black" stroke-width="0.3" />
<path d="M781.52,197.85714285714283 L781.52,192.85714285714283" stroke="black" stroke-width="0.3" />
<path d="M812.0,197.85714285714283 L812.0,187.85714285714283" stroke="black" stroke-width="0.3" />
<text x="812.0" y="182.85714285714283" font-size="7" text-anchor="middle">375</text>
<text x="16.0" y="488.57142857142856" font-size="24" dominant-baseline="middle">E</text>
<path d="M50.0,427.1428571428571 L50.0,417.1428571428571" stroke="black" stroke-width="0.3" />
<text x="50.0" y="412.1428571428571" font-size="7" text-anchor="middle">350</text>
<path d="M80.48,427.1428571428571 L80.48,422.1428571428571" stroke="black" stroke-width="0.3" />
<path d="M110.96000000000001,427.1428571428571 L110.96000000000001,422.1428571428571" stroke="black" stroke-width="0.3" />
<path d="M141.44,427.1428571428571 L141.44,422.1428571428571" stroke="black" stroke-width="0.3" />
<path d="M171.92000000000002,427.1428571428571 L171.92000000000002,422.1428571428571" stroke="black" stroke-width="0.3" />
<path d="M202.4,427.1428571428571 L202.4,417.1428571428571" stroke="black" stroke-width="0.3" />
<text x="202.4" y="412.1428571428571" font-size="7" text-anchor="middle">355</text>
<path d="M232.88,427.1428571428571 L232.88,422.1428571428571" stroke="black" stroke-width="0.3" />
<path d="M263.36,427.1428571428571 L263.36,422.1428571428571" stroke="black" stroke-width="0.3" />
<path d="M293.84000000000003,427.1428571428571 L293.84000000000003,422.1428571428571" stroke="black" stroke-width="0.3" />
<path d="M324.32,427.1428571428571 L324.32,422.1428571428571" stroke="black" stroke-width="0.3" />
<path d="M354.8,427.1428571428571 L354.8,417.1428571428571" stroke="black" stroke-width="0.3" />
<text x="354.8" y="412.1428571428571" font-size="7" text-anchor="middle">360</text>
<path d="M385.28000000000003,427.1428571428571 L385.28000000000003,422.1428571428571" stroke="black" stroke-width="0.3" />
<path d="M415.76,427.1428571428571 L415.76,422.1428571428571" stroke="black" stroke-width="0.3" />
<path d="M446.24,427.1428571428571 L446.24,422.1428571428571" stroke="black" stroke-width="0.3" />
<path d="M476.72,427.1428571428571 L476.72,422.1428571428571" stroke="black" stroke-width="0.3" />
<path d="M507.2,427.1428571428571 L507.2,417.1428571428571" stroke="black" stroke-width="0.3" />
<text x="507.2" y="412.1428571428571" font-size="7" text-anchor="middle">365</text>
<path d="M537.6800000000001,427.1428571428571 L537.6800000000001,422.1428571428571" stroke="black" stroke-width="0.3" />
<path d="M568.16,427.1428571428571 L568.16,422.1428571428571" stroke="black" stroke-width="0.3" />
<path d="M598.64,427.1428571428571 L598.64,422.1428571428571" stroke="black" stroke-width="0.3" />
<path d="M629.12,427.1428571428571 L629.12,422.1428571428571" stroke="black" stroke-width="0.3" />
<path d="M659.6,427.1428571428571 L659.6,417.1428571428571" stroke="black" stroke-width="0.3" />
<text x="659.6" y="412.1428571428571" font-size="7" text-anchor="middle">370</text>
<path d="M690.08,427.1428571428571 L690.08,422.1428571428571" stroke="black" stroke-width="0.3" />
<path d="M720.5600000000001,427.1428571428571 L720.5600000000001,422.1428571428571" stroke="black" stroke-width="0.3" />
<path d="M751.04,427.1428571428571 L751.04,422.1428571428571" stroke="black" stroke-width="0.3" />
<path d="M781.52,427.1428571428571 L781.52,422.1428571428571" stroke="black" stroke-width="0.3" />
<path d="M812.0,427.1428571428571 L812.0,417.1428571428571" stroke="black" stroke-width="0.3" />
<text x="812.0" y="412.1428571428571" font-size="7" text-anchor="middle">375</text>
<text x="348.8" y="96.23809523809524" font-size="16">-L-</text>
<path d="M354.1,120.51666666666665 C352.975,118.49166666666666,357.475,116.01666666666665,359.5,117.81666666666666 C360.625,119.84166666666665,356.125,122.31666666666666,354.1,120.51666666666665" fill="#444" />
<path d="M359.5,118.71666666666667 L359.5,104.31666666666666" stroke="black" stroke-width="0.45" />
<text x="366.8" y="119.16666666666666" font-size="10" font-family="Cantarell Light" text-anchor="start" dominant-baseline="middle">Mittellage</text>
<path d="M351.3,134.16666666666666 L351.3,139.16666666666666 Q351.3,134.16666666666666,352.55,134.16666666666666 Q353.8,134.16666666666666,353.8,139.16666666666666 Q353.8,134.16666666666666,355.05,134.16666666666666 Q356.3,134.16666666666666,356.3,139.16666666666666" stroke="black" fill="none" stroke-width="0.8333333333333334" />
<path d="M357.675,134.16666666666666 Q357.675,133.41666666666666,358.3,134.66666666666666 Q358.3,138.54166666666666,355.8,145.66666666666666 M358.3,134.66666666666666 C363.3,131.66666666666666,363.3,140.41666666666666,358.3,138.54166666666666" stroke="black" fill="none" stroke-width="0.8333333333333334" />
<path d="M50.0,310.23809523809524 L202.4,310.23809523809524" stroke="black" stroke-width="0.5" />
<text x="48.0" y="233.8095238095238" font-size="12" font-family="Cantarell"></text>
<path d="M293.84000000000003,361.19047619047615 L354.8,361.19047619047615" stroke="black" stroke-width="0.5" />
<text x="291.84000000000003" y="289.85714285714283" font-size="12" font-family="Cantarell">Bongos</text>
<path d="M354.8,272.0238095238095 L385.28000000000003,272.0238095238095" stroke="black" stroke-width="0.5" />
<text x="352.8" y="228.7142857142857" font-size="12" font-family="Cantarell">Rohre</text>
<text x="346.8" y="272.0238095238095" font-size="8" text-anchor="end" dominant-baseline="middle" font-family="Cantarell">1</text>
<path d="M507.2,310.23809523809524 L812.0,310.23809523809524" stroke="black" stroke-width="0.5" />
<text x="505.2" y="254.1904761904762" font-size="12" font-family="Cantarell">Tamtam</text>
<path d="M49.3,311.58809523809526 C48.175,309.56309523809523,52.675,307.08809523809526,54.7,308.8880952380952 C55.825,310.91309523809525,51.325,313.3880952380952,49.3,311.58809523809526" stroke="black" fill="none" stroke-width="0.675" />
<path d="M54.7,308.8880952380952 L54.7,295.92809523809524" stroke="black" stroke-width="0.45" />
<path d="M108.26,311.58809523809526 C107.135,309.56309523809523,111.635,307.08809523809526,113.66000000000001,308.8880952380952 C114.78500000000001,310.91309523809525,110.28500000000001,313.3880952380952,108.26,311.58809523809526" fill="#444" />
<path d="M113.66000000000001,309.7880952380952 L113.66000000000001,295.3880952380952" stroke="black" stroke-width="0.45" />
<path d="M128.37680000000077,311.58809523809526 C127.25180000000076,309.56309523809523,131.75180000000077,307.08809523809526,133.77680000000075,308.8880952380952 C134.90180000000075,310.91309523809525,130.40180000000075,313.3880952380952,128.37680000000077,311.58809523809526" fill="#444" />
<path d="M133.77680000000075,309.7880952380952 L133.77680000000075,294.0380952380952" stroke="black" stroke-width="0.45" />
<path d="M133.77680000000075,294.0380952380952 L138.27680000000075,301.2200952380952" stroke="black" stroke-width="0.9" />
<path d="M138.74,311.58809523809526 C137.615,309.56309523809523,142.115,307.08809523809526,144.14,308.8880952380952 C145.265,310.91309523809525,140.765,313.3880952380952,138.74,311.58809523809526" fill="#444" />
<path d="M144.14,309.7880952380952 L144.14,294.0380952380952" stroke="black" stroke-width="0.45" />
<path d="M144.14,294.0380952380952 L148.64,301.2200952380952" stroke="black" stroke-width="0.9" />
<path d="M148.79839999999953,311.58809523809526 C147.67339999999953,309.56309523809523,152.17339999999953,307.08809523809526,154.1983999999995,308.8880952380952 C155.3233999999995,310.91309523809525,150.8233999999995,313.3880952380952,148.79839999999953,311.58809523809526" fill="#444" />
<path d="M154.1983999999995,309.7880952380952 L154.1983999999995,295.3880952380952" stroke="black" stroke-width="0.45" />
<path d="M169.22000000000003,311.58809523809526 C168.09500000000003,309.56309523809523,172.59500000000003,307.08809523809526,174.62,308.8880952380952 C175.745,310.91309523809525,171.245,313.3880952380952,169.22000000000003,311.58809523809526" fill="#444" />
<path d="M174.62,309.7880952380952 L174.62,295.3880952380952" stroke="black" stroke-width="0.45" />
<text x="126.2" y="285.23809523809524" font-size="7" text-anchor="middle" font-family="Cantarell" font-style="italic" dominant-baseline="middle">3</text>
<path d="M111.96000000000001,289.23809523809524 L111.96000000000001,285.23809523809524 L122.7,285.23809523809524 M129.7,285.23809523809524 L140.44,285.23809523809524 L140.44,289.23809523809524" stroke="black" stroke-width="0.3" fill="none" />
<text x="156.68" y="285.23809523809524" font-size="7" text-anchor="middle" font-family="Cantarell" font-style="italic" dominant-baseline="middle">3</text>
<path d="M142.44,289.23809523809524 L142.44,285.23809523809524 L153.18,285.23809523809524 M160.18,285.23809523809524 L170.92,285.23809523809524 L170.92,289.23809523809524" stroke="black" stroke-width="0.3" fill="none" />
<path d="M153.63199999999932,314.23809523809524 Q161.25199999999933,317.28609523809524,168.8719999999993,314.23809523809524 Q161.25199999999933,317.89569523809524,153.63199999999932,314.23809523809524" fill="black" stroke="black" stroke-width="0.5" />
<path d="M287.84000000000003,311.19047619047615 C293.84000000000003,299.19047619047615,304.64000000000004,295.5904761904761,295.04,305.19047619047615 C303.44000000000005,295.5904761904761,305.84000000000003,299.19047619047615,296.24,307.5904761904761 C304.64000000000004,299.19047619047615,308.24,300.39047619047614,297.44000000000005,309.99047619047616 C305.84000000000003,302.79047619047617,304.64000000000004,308.79047619047617,291.44000000000005,317.19047619047615" fill="none" stroke="black" stroke-width="0.75" />
<path d="M296.84000000000003,301.5904761904761 L300.44000000000005,297.9904761904761" stroke="black" stroke-width="1" stroke-linecap="round" />
<path d="M300.44,301.5904761904761 L304.28,297.9904761904761" stroke="black" stroke-width="1" stroke-linecap="round" />
<path d="M302.00000000000006,303.99047619047616 L306.20000000000005,300.39047619047614" stroke="black" stroke-width="1" stroke-linecap="round" />
<path d="M301.0400000000001,308.19047619047615 L304.6400000000001,305.19047619047615" stroke="black" stroke-width="1" stroke-linecap="round" />
<path d="M290.84000000000003,331.19047619047615 L291.84000000000003,331.8225292613492 L292.84000000000003,334.56128790934594 L293.84000000000003,329.15726122407966 L294.84000000000003,327.9980571707905 L295.84000000000003,332.0816101890481 L296.84000000000003,333.65101777234304 L297.84000000000003,327.9268275758966 L298.84000000000003,328.95171959464847 L299.84000000000003,333.6565830966374 L300.84000000000003,330.40466542618293 L301.84000000000003,329.3349867309141 L302.84000000000003,334.13092459806154 L303.84000000000003,333.02383031044036 L304.84000000000003,327.3625888124619 L305.84000000000003,327.2698118973551 L306.84000000000003,333.1963061083949 L307.84000000000003,330.0640072038017 L308.84000000000003,330.9411513837054 L309.84000000000003,334.063396891633 L310.84000000000003,327.99795184683234 L311.84000000000003,333.4124434581673 L312.84000000000003,329.8152246038665 L313.84000000000003,331.2646364652934 L314.84000000000003,332.51245578311193 L315.84000000000003,328.62700760165956 L316.84000000000003,328.38697970958776 L317.84000000000003,328.3227816231266 L318.84000000000003,334.1148413723862 L319.84000000000003,329.6354592023702 L320.84000000000003,332.86506812005246 L321.84000000000003,333.867989487042 L322.84000000000003,332.00561740898877 L323.84000000000003,328.20087475086655 L324.84000000000003,328.8444006044958 L325.84000000000003,331.55441988116246 L326.84000000000003,332.97150458229993 L327.84000000000003,333.42842379251385 L328.84000000000003,333.75871491989875 L329.84000000000003,332.1786968108613 L330.84000000000003,332.5680627881068 L331.84000000000003,331.6140883583542 L332.84000000000003,334.73827308038835 L333.84000000000003,335.08595889091913 L334.84000000000003,328.8339494090456 L335.84000000000003,329.58188722271404 L336.84000000000003,331.49041469981506 L337.84000000000003,327.57894658477903 L338.84000000000003,334.0872681056413 L339.84000000000003,329.1688512827791 L340.84000000000003,333.4126884493166 L341.84000000000003,332.6470828148044 L342.84000000000003,330.7640361189084 L343.84000000000003,330.6318474852887 L344.84000000000003,329.1922347385796" fill="none" stroke="black" stroke-width="0.8" />
<path d="M291.14000000000004,362.54047619047617 C290.01500000000004,360.51547619047614,294.51500000000004,358.04047619047617,296.54,359.8404761904761 C297.665,361.86547619047616,293.165,364.3404761904761,291.14000000000004,362.54047619047617" fill="#444" />
<path d="M296.54,360.7404761904761 L296.54,346.3404761904761" stroke="black" stroke-width="0.45" />
<path d="M321.62,362.54047619047617 C320.495,360.51547619047614,324.995,358.04047619047617,327.02,359.8404761904761 C328.145,361.86547619047616,323.645,364.3404761904761,321.62,362.54047619047617" fill="#444" />
<circle cx="329.27" cy="359.39047619047614" r="0.75" fill="#444" />
<path d="M327.02,360.7404761904761 L327.02,344.9904761904761" stroke="black" stroke-width="0.45" />
<path d="M327.02,344.9904761904761 L331.52,352.1724761904761" stroke="black" stroke-width="0.9" />
<path d="M344.66,356.7804761904761 Q347.18,359.61547619047616,350.33,357.4104761904762 L348.755,359.30047619047616 Q347.18,360.87547619047615,344.345,358.67047619047617 M348.755,359.30047619047616 Q347.18,361.19047619047615,347.18,365.91547619047617" stroke="#444" fill="none" stroke-width="0.6749999999999999" />
<path d="M296.8880000000007,365.19047619047615 Q309.08000000000004,370.06727619047587,321.2719999999993,365.19047619047615 Q309.08000000000004,371.04263619047583,296.8880000000007,365.19047619047615" fill="black" stroke="black" stroke-width="0.5" />
<path d="M295.69000000000005,372.19047619047615 Q295.69000000000005,371.19047619047615,294.64000000000004,371.19047619047615 C293.24000000000007,371.19047619047615,292.89000000000004,383.19047619047615,292.5400000000001,383.69047619047615 Q291.84000000000003,383.69047619047615,291.84000000000003,382.69047619047615 M292.19000000000005,376.19047619047615 H294.99000000000007" stroke="black" fill="none" stroke-width="0.8333333333333334" />
<path d="M298.99,372.19047619047615 Q298.99,371.19047619047615,297.94,371.19047619047615 C296.54,371.19047619047615,296.19,383.19047619047615,295.84000000000003,383.69047619047615 Q295.14,383.69047619047615,295.14,382.69047619047615 M295.49,376.19047619047615 H298.29" stroke="black" fill="none" stroke-width="0.8333333333333334" />
<text x="354.8" y="243.7142857142857" font-size="10" font-family="Cantarell Light" dominant-baseline="middle">(Fingernagel)</text>
<path d="M352.1,273.37380952380954 C350.975,271.3488095238095,355.475,268.87380952380954,357.5,270.6738095238095 C358.625,272.69880952380953,354.125,275.1738095238095,352.1,273.37380952380954" fill="#444" />
<path d="M357.5,271.5738095238095 L357.5,257.1738095238095" stroke="black" stroke-width="0.45" />
<path d="M361.8,269.0238095238095 Q373.54,259.6318095238095,385.28000000000003,267.0238095238095 Q373.54,258.6926095238095,361.8,269.0238095238095" fill="black" stroke="black" stroke-width="0.3" />
<path d="M351.5,285.0238095238095 L351.5,290.0238095238095 Q351.5,285.0238095238095,352.75,285.0238095238095 Q354.0,285.0238095238095,354.0,290.0238095238095 Q354.0,285.0238095238095,355.25,285.0238095238095 Q356.5,285.0238095238095,356.5,290.0238095238095" stroke="black" fill="none" stroke-width="0.8333333333333334" />
<path d="M361.6,281.0238095238095 Q361.6,280.0238095238095,360.55,280.0238095238095 C359.15000000000003,280.0238095238095,358.8,292.0238095238095,358.45000000000005,292.5238095238095 Q357.75,292.5238095238095,357.75,291.5238095238095 M358.1,285.0238095238095 H360.90000000000003" stroke="black" fill="none" stroke-width="0.8333333333333334" />
<path d="M501.2,275.23809523809524 C507.2,263.23809523809524,518.0,259.6380952380952,508.4,269.23809523809524 C516.8,259.6380952380952,519.2,263.23809523809524,509.59999999999997,271.6380952380952 C518.0,263.23809523809524,521.6,264.43809523809523,510.8,274.03809523809525 C519.2,266.83809523809526,518.0,272.83809523809526,504.8,281.23809523809524" fill="none" stroke="black" stroke-width="0.75" />
<path d="M504.5,311.58809523809526 C503.375,309.56309523809523,507.875,307.08809523809526,509.9,308.8880952380952 C511.025,310.91309523809525,506.525,313.3880952380952,504.5,311.58809523809526" fill="#444" />
<path d="M509.9,309.7880952380952 L509.9,295.3880952380952" stroke="black" stroke-width="0.45" />
<path d="M534.98,311.58809523809526 C533.855,309.56309523809523,538.355,307.08809523809526,540.3800000000001,308.8880952380952 C541.5050000000001,310.91309523809525,537.0050000000001,313.3880952380952,534.98,311.58809523809526" fill="#444" />
<path d="M540.3800000000001,309.7880952380952 L540.3800000000001,295.3880952380952" stroke="black" stroke-width="0.45" />
<path d="M555.0968000000007,311.58809523809526 C553.9718000000007,309.56309523809523,558.4718000000007,307.08809523809526,560.4968000000008,308.8880952380952 C561.6218000000008,310.91309523809525,557.1218000000008,313.3880952380952,555.0968000000007,311.58809523809526" fill="#444" />
<path d="M560.4968000000008,309.7880952380952 L560.4968000000008,294.0380952380952" stroke="black" stroke-width="0.45" />
<path d="M560.4968000000008,294.0380952380952 L564.9968000000008,301.2200952380952" stroke="black" stroke-width="0.9" />
<path d="M565.4599999999999,311.58809523809526 C564.3349999999999,309.56309523809523,568.8349999999999,307.08809523809526,570.86,308.8880952380952 C571.985,310.91309523809525,567.485,313.3880952380952,565.4599999999999,311.58809523809526" fill="#444" />
<path d="M570.86,309.7880952380952 L570.86,295.3880952380952" stroke="black" stroke-width="0.45" />
<path d="M595.9399999999999,311.58809523809526 C594.8149999999999,309.56309523809523,599.3149999999999,307.08809523809526,601.34,308.8880952380952 C602.465,310.91309523809525,597.965,313.3880952380952,595.9399999999999,311.58809523809526" fill="#444" />
<path d="M601.34,309.7880952380952 L601.34,294.0380952380952" stroke="black" stroke-width="0.45" />
<path d="M601.34,294.0380952380952 L605.84,301.2200952380952" stroke="black" stroke-width="0.9" />
<path d="M605.9983999999995,311.58809523809526 C604.8733999999995,309.56309523809523,609.3733999999995,307.08809523809526,611.3983999999996,308.8880952380952 C612.5233999999996,310.91309523809525,608.0233999999996,313.3880952380952,605.9983999999995,311.58809523809526" fill="#444" />
<path d="M611.3983999999996,309.7880952380952 L611.3983999999996,295.3880952380952" stroke="black" stroke-width="0.45" />
<path d="M626.42,311.58809523809526 C625.295,309.56309523809523,629.795,307.08809523809526,631.82,308.8880952380952 C632.945,310.91309523809525,628.445,313.3880952380952,626.42,311.58809523809526" fill="#444" />
<path d="M631.82,309.7880952380952 L631.82,295.3880952380952" stroke="black" stroke-width="0.45" />
<path d="M656.9,311.58809523809526 C655.775,309.56309523809523,660.275,307.08809523809526,662.3000000000001,308.8880952380952 C663.4250000000001,310.91309523809525,658.9250000000001,313.3880952380952,656.9,311.58809523809526" stroke-width="0.30375" stroke="#444" fill="#444" />
<path d="M662.3000000000001,308.8880952380952 L662.3000000000001,292.0130952380952" stroke="black" stroke-width="0.45" />
<path d="M662.3000000000001,292.0130952380952 L662.4539393939394,292.01309523809516" stroke="black" stroke-width="1.5" />
<path d="M662.4539393939394,292.01309523809516 L662.6078787878788,292.0130952380952" stroke="black" stroke-width="1.5" />
<path d="M662.6078787878788,292.0130952380952 L662.7618181818183,292.01309523809516" stroke="black" stroke-width="1.5" />
<path d="M662.7618181818183,292.01309523809516 L662.9157575757577,292.0130952380952" stroke="black" stroke-width="1.5" />
<path d="M662.9157575757577,292.0130952380952 L663.069696969697,292.0130952380952" stroke="black" stroke-width="1.5" />
<path d="M663.069696969697,292.0130952380952 L663.2236363636364,292.0130952380952" stroke="black" stroke-width="1.5" />
<path d="M663.2236363636364,292.0130952380952 L663.3775757575759,292.0130952380952" stroke="black" stroke-width="1.5" />
<path d="M663.3775757575759,292.0130952380952 L663.5315151515152,292.0130952380952" stroke="black" stroke-width="1.5" />
<path d="M663.5315151515152,292.0130952380952 L663.6854545454546,292.01309523809516" stroke="black" stroke-width="1.5" />
<path d="M663.6854545454546,292.01309523809516 L663.839393939394,292.0130952380952" stroke="black" stroke-width="1.5" />
<path d="M663.839393939394,292.0130952380952 L663.9933333333335,292.0130952380953" stroke="black" stroke-width="1.5" />
<path d="M663.9933333333335,292.0130952380953 L664.1472727272728,292.0130952380953" stroke="black" stroke-width="1.5" />
<path d="M664.1472727272728,292.0130952380953 L664.3012121212122,292.0130952380952" stroke="black" stroke-width="1.5" />
<path d="M664.3012121212122,292.0130952380952 L664.4551515151516,292.0130952380952" stroke="black" stroke-width="1.5" />
<path d="M664.4551515151516,292.0130952380952 L664.6090909090909,292.0130952380952" stroke="black" stroke-width="1.5" />
<path d="M664.6090909090909,292.0130952380952 L664.7630303030304,292.0130952380952" stroke="black" stroke-width="1.5" />
<path d="M664.7630303030304,292.0130952380952 L664.9169696969698,292.0130952380952" stroke="black" stroke-width="1.5" />
<path d="M664.9169696969698,292.0130952380952 L665.0709090909091,292.0130952380952" stroke="black" stroke-width="1.5" />
<path d="M665.0709090909091,292.0130952380952 L665.2248484848485,292.0130952380952" stroke="black" stroke-width="1.5" />
<path d="M665.2248484848485,292.0130952380952 L665.378787878788,292.01309523809516" stroke="black" stroke-width="1.5" />
<path d="M665.378787878788,292.01309523809516 L665.5327272727274,292.01309523809516" stroke="black" stroke-width="1.5" />
<path d="M665.5327272727274,292.01309523809516 L665.6866666666667,292.0130952380952" stroke="black" stroke-width="1.5" />
<path d="M665.6866666666667,292.0130952380952 L665.8406060606061,292.01309523809516" stroke="black" stroke-width="1.5" />
<path d="M665.8406060606061,292.01309523809516 L665.9945454545456,292.0130952380952" stroke="black" stroke-width="1.5" />
<path d="M665.9945454545456,292.0130952380952 L666.1484848484849,292.0130952380952" stroke="black" stroke-width="1.5" />
<path d="M666.1484848484849,292.0130952380952 L666.3024242424243,292.0130952380952" stroke="black" stroke-width="1.5" />
<path d="M666.3024242424243,292.0130952380952 L666.4563636363637,292.0130952380952" stroke="black" stroke-width="1.5" />
<path d="M666.4563636363637,292.0130952380952 L666.6103030303032,292.0130952380952" stroke="black" stroke-width="1.5" />
<path d="M666.6103030303032,292.0130952380952 L666.7642424242425,292.0130952380952" stroke="black" stroke-width="1.5" />
<path d="M666.7642424242425,292.0130952380952 L666.9181818181819,292.0130952380953" stroke="black" stroke-width="1.5" />
<path d="M666.9181818181819,292.0130952380953 L667.0721212121213,292.0130952380952" stroke="black" stroke-width="1.5" />
<path d="M667.0721212121213,292.0130952380952 L667.2260606060606,292.0130952380952" stroke="black" stroke-width="1.5" />
<path d="M667.2260606060606,292.0130952380952 L667.3800000000001,292.0130952380952" stroke="black" stroke-width="1.5" />
<path d="M667.3800000000001,292.0130952380952 L667.5339393939395,292.0130952380952" stroke="black" stroke-width="1.5" />
<path d="M667.5339393939395,292.0130952380952 L667.6878787878788,292.0130952380953" stroke="black" stroke-width="1.5" />
<path d="M667.6878787878788,292.0130952380953 L667.8418181818182,292.0130952380953" stroke="black" stroke-width="1.5" />
<path d="M667.8418181818182,292.0130952380953 L667.9957575757577,292.0130952380952" stroke="black" stroke-width="1.5" />
<path d="M667.9957575757577,292.0130952380952 L668.1496969696971,292.01309523809516" stroke="black" stroke-width="1.5" />
<path d="M668.1496969696971,292.01309523809516 L668.3036363636364,292.0130952380952" stroke="black" stroke-width="1.5" />
<path d="M668.3036363636364,292.0130952380952 L668.4575757575758,292.0130952380952" stroke="black" stroke-width="1.5" />
<path d="M668.4575757575758,292.0130952380952 L668.6115151515153,292.0130952380952" stroke="black" stroke-width="1.5" />
<path d="M668.6115151515153,292.0130952380952 L668.7654545454546,292.0130952380952" stroke="black" stroke-width="1.5" />
<path d="M668.7654545454546,292.0130952380952 L668.919393939394,292.01309523809516" stroke="black" stroke-width="1.5" />
<path d="M668.919393939394,292.01309523809516 L669.0733333333334,292.0130952380952" stroke="black" stroke-width="1.5" />
<path d="M669.0733333333334,292.0130952380952 L669.2272727272727,292.0130952380952" stroke="black" stroke-width="1.5" />
<path d="M669.2272727272727,292.0130952380952 L669.3812121212122,292.0130952380952" stroke="black" stroke-width="1.5" />
<path d="M669.3812121212122,292.0130952380952 L669.5351515151516,292.0130952380952" stroke="black" stroke-width="1.5" />
<path d="M669.5351515151516,292.0130952380952 L669.689090909091,292.01309523809516" stroke="black" stroke-width="1.5" />
<path d="M669.689090909091,292.01309523809516 L669.8430303030303,292.0130952380952" stroke="black" stroke-width="1.5" />
<path d="M669.8430303030303,292.0130952380952 L669.9969696969698,292.0130952380952" stroke="black" stroke-width="1.5" />
<path d="M669.9969696969698,292.0130952380952 L670.1509090909092,292.0130952380952" stroke="black" stroke-width="1.5" />
<path d="M670.1509090909092,292.0130952380952 L670.3048484848485,292.0130952380952" stroke="black" stroke-width="1.5" />
<path d="M670.3048484848485,292.0130952380952 L670.4587878787879,292.0130952380952" stroke="black" stroke-width="1.5" />
<path d="M670.4587878787879,292.0130952380952 L670.6127272727274,292.0130952380952" stroke="black" stroke-width="1.5" />
<path d="M670.6127272727274,292.0130952380952 L670.7666666666668,292.0130952380952" stroke="black" stroke-width="1.5" />
<path d="M670.7666666666668,292.0130952380952 L670.9206060606061,292.01309523809516" stroke="black" stroke-width="1.5" />
<path d="M670.9206060606061,292.01309523809516 L671.0745454545455,292.0130952380952" stroke="black" stroke-width="1.5" />
<path d="M671.0745454545455,292.0130952380952 L671.2284848484849,292.0130952380952" stroke="black" stroke-width="1.5" />
<path d="M671.2284848484849,292.0130952380952 L671.3824242424243,292.0130952380952" stroke="black" stroke-width="1.5" />
<path d="M671.3824242424243,292.0130952380952 L671.5363636363637,292.0130952380952" stroke="black" stroke-width="1.5" />
<path d="M671.5363636363637,292.0130952380952 L671.6903030303031,292.0130952380952" stroke="black" stroke-width="1.5" />
<path d="M671.6903030303031,292.0130952380952 L671.8442424242425,292.0130952380952" stroke="black" stroke-width="1.5" />
<path d="M671.8442424242425,292.0130952380952 L671.9981818181819,292.0130952380952" stroke="black" stroke-width="1.5" />
<path d="M671.9981818181819,292.0130952380952 L672.1521212121213,292.0130952380952" stroke="black" stroke-width="1.5" />
<path d="M672.1521212121213,292.0130952380952 L672.3060606060607,292.0130952380952" stroke="black" stroke-width="1.5" />
<path d="M672.3060606060607,292.0130952380952 L672.46,292.0130952380952" stroke="black" stroke-width="1.5" />
<path d="M672.46,292.0130952380952 L672.6139393939395,292.0130952380952" stroke="black" stroke-width="1.5" />
<path d="M672.6139393939395,292.0130952380952 L672.7678787878789,292.0130952380952" stroke="black" stroke-width="1.5" />
<path d="M672.7678787878789,292.0130952380952 L672.9218181818183,292.0130952380952" stroke="black" stroke-width="1.5" />
<path d="M672.9218181818183,292.0130952380952 L673.0757575757576,292.0130952380952" stroke="black" stroke-width="1.5" />
<path d="M673.0757575757576,292.0130952380952 L673.229696969697,292.0130952380952" stroke="black" stroke-width="1.5" />
<path d="M673.229696969697,292.0130952380952 L673.3836363636365,292.0130952380952" stroke="black" stroke-width="1.5" />
<path d="M673.3836363636365,292.0130952380952 L673.5375757575758,292.0130952380952" stroke="black" stroke-width="1.5" />
<path d="M673.5375757575758,292.0130952380952 L673.6915151515152,292.0130952380953" stroke="black" stroke-width="1.5" />
<path d="M673.6915151515152,292.0130952380953 L673.8454545454546,292.0130952380952" stroke="black" stroke-width="1.5" />
<path d="M673.8454545454546,292.0130952380952 L673.999393939394,292.0130952380952" stroke="black" stroke-width="1.5" />
<path d="M673.999393939394,292.0130952380952 L674.1533333333334,292.0130952380952" stroke="black" stroke-width="1.5" />
<path d="M674.1533333333334,292.0130952380952 L674.3072727272728,292.0130952380952" stroke="black" stroke-width="1.5" />
<path d="M674.3072727272728,292.0130952380952 L674.4612121212122,292.0130952380952" stroke="black" stroke-width="1.5" />
<path d="M674.4612121212122,292.0130952380952 L674.6151515151516,292.0130952380952" stroke="black" stroke-width="1.5" />
<path d="M674.6151515151516,292.0130952380952 L674.769090909091,292.0130952380952" stroke="black" stroke-width="1.5" />
<path d="M674.769090909091,292.0130952380952 L674.9230303030304,292.0130952380952" stroke="black" stroke-width="1.5" />
<path d="M674.9230303030304,292.0130952380952 L675.0769696969697,292.0130952380952" stroke="black" stroke-width="1.5" />
<path d="M675.0769696969697,292.0130952380952 L675.2309090909092,292.0130952380952" stroke="black" stroke-width="1.5" />
<path d="M675.2309090909092,292.0130952380952 L675.3848484848486,292.0130952380952" stroke="black" stroke-width="1.5" />
<path d="M675.3848484848486,292.0130952380952 L675.538787878788,292.0130952380952" stroke="black" stroke-width="1.5" />
<path d="M675.538787878788,292.0130952380952 L675.6927272727273,292.0130952380952" stroke="black" stroke-width="1.5" />
<path d="M675.6927272727273,292.0130952380952 L675.8466666666667,292.0130952380952" stroke="black" stroke-width="1.5" />
<path d="M675.8466666666667,292.0130952380952 L676.0006060606062,292.0130952380952" stroke="black" stroke-width="1.5" />
<path d="M676.0006060606062,292.0130952380952 L676.1545454545455,292.0130952380952" stroke="black" stroke-width="1.5" />
<path d="M676.1545454545455,292.0130952380952 L676.3084848484849,292.0130952380952" stroke="black" stroke-width="1.5" />
<path d="M676.3084848484849,292.0130952380952 L676.4624242424243,292.0130952380952" stroke="black" stroke-width="1.5" />
<path d="M676.4624242424243,292.0130952380952 L676.6163636363638,292.0130952380952" stroke="black" stroke-width="1.5" />
<path d="M676.6163636363638,292.0130952380952 L676.7703030303031,292.0130952380952" stroke="black" stroke-width="1.5" />
<path d="M676.7703030303031,292.0130952380952 L676.9242424242425,292.0130952380952" stroke="black" stroke-width="1.5" />
<path d="M676.9242424242425,292.0130952380952 L677.0781818181819,292.0130952380952" stroke="black" stroke-width="1.5" />
<path d="M677.0781818181819,292.0130952380952 L677.2321212121213,292.0130952380952" stroke="black" stroke-width="1.5" />
<path d="M677.2321212121213,292.0130952380952 L677.3860606060607,292.0130952380952" stroke="black" stroke-width="1.5" />
<path d="M677.3860606060607,292.0130952380952 L677.5400000000001,292.0130952380952" stroke="black" stroke-width="1.5" />
<path d="M672.14,311.58809523809526 C671.015,309.56309523809523,675.515,307.08809523809526,677.5400000000001,308.8880952380952 C678.6650000000001,310.91309523809525,674.1650000000001,313.3880952380952,672.14,311.58809523809526" stroke-width="0.30375" stroke="#444" fill="#444" />
<path d="M677.5400000000001,308.8880952380952 L677.5400000000001,292.0130952380952" stroke="black" stroke-width="0.45" />
<path d="M675.2900000000001,292.0130952380952 L675.5400000000001,292.0130952380952" stroke="black" stroke-width="1.5" />
<path d="M675.5400000000001,292.0130952380952 L675.7900000000001,292.0130952380952" stroke="black" stroke-width="1.5" />
<path d="M675.7900000000001,292.0130952380952 L676.0400000000001,292.0130952380952" stroke="black" stroke-width="1.5" />
<path d="M676.0400000000001,292.0130952380952 L676.2900000000001,292.0130952380952" stroke="black" stroke-width="1.5" />
<path d="M676.2900000000001,292.0130952380952 L676.5400000000001,292.0130952380952" stroke="black" stroke-width="1.5" />
<path d="M676.5400000000001,292.0130952380952 L676.7900000000001,292.0130952380953" stroke="black" stroke-width="1.5" />
<path d="M676.7900000000001,292.0130952380953 L677.0400000000001,292.0130952380952" stroke="black" stroke-width="1.5" />
<path d="M677.0400000000001,292.0130952380952 L677.2900000000001,292.0130952380952" stroke="black" stroke-width="1.5" />
<path d="M677.2900000000001,292.0130952380952 L677.5400000000001,292.0130952380952" stroke="black" stroke-width="1.5" />
<path d="M687.38,311.58809523809526 C686.255,309.56309523809523,690.755,307.08809523809526,692.7800000000001,308.8880952380952 C693.9050000000001,310.91309523809525,689.4050000000001,313.3880952380952,687.38,311.58809523809526" fill="#444" />
<path d="M692.7800000000001,309.7880952380952 L692.7800000000001,295.3880952380952" stroke="black" stroke-width="0.45" />
<path d="M707.4968000000007,311.58809523809526 C706.3718000000007,309.56309523809523,710.8718000000007,307.08809523809526,712.8968000000008,308.8880952380952 C714.0218000000008,310.91309523809525,709.5218000000008,313.3880952380952,707.4968000000007,311.58809523809526" fill="#444" />
<path d="M712.8968000000008,309.7880952380952 L712.8968000000008,294.0380952380952" stroke="black" stroke-width="0.45" />
<path d="M712.8968000000008,294.0380952380952 L717.3968000000008,301.2200952380952" stroke="black" stroke-width="0.9" />
<path d="M717.86,311.58809523809526 C716.735,309.56309523809523,721.235,307.08809523809526,723.2600000000001,308.8880952380952 C724.3850000000001,310.91309523809525,719.8850000000001,313.3880952380952,717.86,311.58809523809526" fill="#444" />
<path d="M723.2600000000001,309.7880952380952 L723.2600000000001,295.3880952380952" stroke="black" stroke-width="0.45" />
<path d="M748.3399999999999,311.58809523809526 C747.2149999999999,309.56309523809523,751.7149999999999,307.08809523809526,753.74,308.8880952380952 C754.865,310.91309523809525,750.365,313.3880952380952,748.3399999999999,311.58809523809526" stroke="black" fill="none" stroke-width="0.675" />
<path d="M753.74,308.8880952380952 L753.74,295.92809523809524" stroke="black" stroke-width="0.45" />
<text x="552.9200000000001" y="285.23809523809524" font-size="7" text-anchor="middle" font-family="Cantarell" font-style="italic" dominant-baseline="middle">3</text>
<path d="M538.6800000000001,289.23809523809524 L538.6800000000001,285.23809523809524 L549.4200000000001,285.23809523809524 M556.4200000000001,285.23809523809524 L567.16,285.23809523809524 L567.16,289.23809523809524" stroke="black" stroke-width="0.3" fill="none" />
<text x="613.88" y="285.23809523809524" font-size="7" text-anchor="middle" font-family="Cantarell" font-style="italic" dominant-baseline="middle">3</text>
<path d="M599.64,289.23809523809524 L599.64,285.23809523809524 L610.38,285.23809523809524 M617.38,285.23809523809524 L628.12,285.23809523809524 L628.12,289.23809523809524" stroke="black" stroke-width="0.3" fill="none" />
<text x="705.32" y="285.23809523809524" font-size="7" text-anchor="middle" font-family="Cantarell" font-style="italic" dominant-baseline="middle">3</text>
<path d="M691.08,289.23809523809524 L691.08,285.23809523809524 L701.82,285.23809523809524 M708.82,285.23809523809524 L719.5600000000001,285.23809523809524 L719.5600000000001,289.23809523809524" stroke="black" stroke-width="0.3" fill="none" />
<path d="M510.2480000000007,314.23809523809524 Q522.44,319.11489523809496,534.6319999999994,314.23809523809524 Q522.44,320.0902552380949,510.2480000000007,314.23809523809524" fill="black" stroke="black" stroke-width="0.5" />
<path d="M632.1680000000007,314.23809523809524 Q645.8840000000004,319.72449523809513,659.6,314.23809523809524 Q645.8840000000004,320.8217752380951,632.1680000000007,314.23809523809524" fill="black" stroke="black" stroke-width="0.5" />
<path d="M676.3640000000004,314.23809523809524 Q682.46,317.40801523809506,688.5559999999997,314.23809523809524 Q682.46,318.041999238095,676.3640000000004,314.23809523809524" fill="black" stroke="black" stroke-width="0.6" />
<path d="M711.4159999999997,314.23809523809524 Q715.2259999999997,316.82889523809524,719.0359999999997,314.23809523809524 Q715.2259999999997,317.34705523809527,711.4159999999997,314.23809523809524" fill="black" stroke="black" stroke-width="0.7" />
<path d="M504.075,325.23809523809524 Q504.075,324.48809523809524,504.7,325.73809523809524 Q504.7,329.61309523809524,502.2,336.73809523809524 M504.7,325.73809523809524 C509.7,322.73809523809524,509.7,331.48809523809524,504.7,329.61309523809524" stroke="black" fill="none" stroke-width="0.8333333333333334" />
<path d="M509.075,325.23809523809524 Q509.075,324.48809523809524,509.7,325.73809523809524 Q509.7,329.61309523809524,507.2,336.73809523809524 M509.7,325.73809523809524 C514.7,322.73809523809524,514.7,331.48809523809524,509.7,329.61309523809524" stroke="black" fill="none" stroke-width="0.8333333333333334" />
<text x="527.2" y="333.23809523809524" font-size="8" font-style="italic" font-family="Cantarell Light">dunkel, weich (wie 345)</text>
<path d="M40.0,488.57142857142856 C58.48732135077804,471.6968105715978,58.48732135077804,497.6456151558813,64.33689651178993,484.6712128637395 C71.26038538050403,468.95716204829944,71.26038538050403,497.5180641535251,78.18387424921812,483.23761310091226 C85.23459242289952,479.0423745511687,85.23459242289952,485.06369674971006,92.28531059658093,482.05303565043937 C99.19082483238799,473.0491735971779,99.19082483238799,489.53715364625026,106.09633906819505,481.2931636217141 C111.90794811731367,476.0258205006304,111.90794811731367,485.5590417995311,117.71955716643228,480.79243115008074 C120.31969440088866,466.6626724520043,120.31969440088866,493.30840926087814,122.91983163534506,479.9855408564412 C129.1273909077178,474.3455968026587,129.1273909077178,482.174434076972,135.33495018009052,478.26001543981533 C142.6105483530532,460.1171884959644,142.6105483530532,489.1255217902422,149.88614652601586,474.6213551431033 C156.98911554822183,465.6443924368289,156.98911554822183,475.5150237898035,164.0920845704278,470.5797081133162 C168.47391173789367,462.4374844286179,168.47391173789367,473.55972556768273,172.85573890535954,467.9986049981503 C176.0786038259594,460.1388834106577,176.0786038259594,472.76928676268705,179.30146874655927,466.45408508667236 C186.16266523941104,458.67808762430127,186.16266523941104,467.4940767453418,193.02386173226282,463.0860821848215 C197.31004954025704,448.6886197668827,197.31004954025704,472.5195853399353,201.59623734825126,460.604102553409 C205.19902357926307,443.9935351048776,205.19902357926307,473.6998620732308,208.80180981027485,458.8466985890542 C216.2807474161861,452.60165370294374,216.2807474161861,461.6270167947663,223.75968502209736,457.114335248855 C228.4318333041167,449.83418006888644,228.4318333041167,460.2065023012068,233.1039815861361,455.0203411850466 C235.95543564126103,449.08203396548447,235.95543564126103,459.2726708822431,238.806889696386,454.1773524238638 C244.01769796517468,447.1262779445907,244.01769796517468,456.64551524333706,249.22850623396334,451.8858965939639 C254.71265366090805,434.8893483758394,254.71265366090805,463.53892717783776,260.19680108785275,449.2141377768386 C263.0782212881016,433.4889949762744,263.0782212881016,461.73799865549927,265.9596414883504,447.61349681588683 C269.38850482507104,436.41071161096784,269.38850482507104,456.3935665518768,272.8173681617917,446.4021390814223 C275.4055067674002,440.8295741949079,275.4055067674002,449.92487750644545,277.9936453730087,445.37722585067667 C280.52367965556016,438.0899854757954,280.52367965556016,451.09673046527564,283.05371393811157,444.5933579705355 C288.07425956020353,429.12057091730384,288.07425956020353,456.66288326760053,293.09480518229543,442.8917270924522 C298.8476595063841,426.6678325171059,298.8476595063841,455.2800579436963,304.6005138304728,440.9739452304011" fill="none" stroke="black" stroke-width="0.5" clip-path="url(#d0)" />
<path d="M40.0,488.57142857142856 C52.783486269631645,470.3946412413968,52.783486269631645,499.8322024020614,58.36097505903653,485.1134218217291 C62.9439697188772,471.75076424823226,62.9439697188772,494.95992419956974,67.52696437871788,483.355344223901 C71.66318031221282,472.8831577922869,71.66318031221282,490.0357232889083,75.79939624570774,481.4594405405976 C82.56610975914882,475.5229507920328,82.56610975914882,484.05711898129573,89.3328232725899,479.7900348866643 C94.04599404749847,471.3735486444816,94.04599404749847,483.91063247946533,98.75916482240703,477.6420905619735 C101.30758499181401,468.83275525615886,101.30758499181401,483.87602043933896,103.85600516122099,476.3543878477489 C108.03115360500796,465.26795446954264,108.03115360500796,483.8169677575973,112.20630204879491,474.54246111356997 C118.09590501536782,467.06607603531893,118.09590501536782,477.47679377495115,123.98550798194073,472.27143490513504 C127.75684237483595,456.04458203015275,127.75684237483595,484.4564274313254,131.5281767677312,470.25050473073907 C136.47271333498162,454.9278976871264,136.47271333498162,481.30741755830337,141.41724990223204,468.1176576227149 C147.67713242139942,463.6948698379353,147.67713242139942,469.8872170121718,153.9370149405668,466.79104342505354 C158.3400333034649,451.67097238351647,158.3400333034649,480.76669852988545,162.74305166636302,466.21883545670096 C166.62469503918805,451.0140230136596,166.62469503918805,480.1616548153142,170.5063384120131,465.5878389144869 C176.09246910542106,458.4283471563387,176.09246910542106,468.8102925188072,181.678599798829,463.61931983757296 C186.856014180475,448.386837404299,186.856014180475,476.62645697330316,192.03342856212097,462.5066471888011 C198.59675677430545,457.47765649228717,198.59675677430545,465.85084030179377,205.16008498648995,461.66424839704047 C212.29892569081406,456.8616297439076,212.29892569081406,464.27424866805035,219.43776639513817,460.567939205979 C225.9988161965009,452.6203220962427,225.9988161965009,465.82702786273364,232.55986599786368,459.2236749794882 C239.1074298437798,447.41267193617335,239.1074298437798,468.02731164529945,245.6549936896959,457.7199917907364 C252.7032032553643,446.69967321566855,252.7032032553643,466.3634278028658,259.75141282103266,456.53155050926716 C263.81676917075885,449.692738933469,263.81676917075885,461.83775285501196,267.882125520485,455.7652458942405 C273.66575169324113,444.7477706367482,273.66575169324113,462.0574230391576,279.44937786599735,453.4025968379529 C285.2248026530026,439.10117306409825,285.2248026530026,462.62888927099505,291.00022744000785,450.86503116754665 C296.36880840009417,442.8669680762137,296.36880840009417,454.9402930825825,301.7373893601805,448.9036305793981" fill="none" stroke="black" stroke-width="0.5" clip-path="url(#d0)" />
<path d="M293.84000000000003,366.19047619047615 L293.84000000000003,447.80952380952374" stroke="gray" stroke-width="0.5" stroke-dasharray="1 2" />
</svg>