<?xml version="1.0" encoding="UTF-8"?>
<svg xmlns="http://www.w3.org/2000/svg" xmlns:xlink="http://www.w3.org/1999/xlink"
    width="3368" height="2380" viewBox="0 0 842 595" font-family="Simvoni">
<defs>
<clipPath id="d0">
<rect x="50.0" y="412.1428571428571" width="243.84" height="254.76190476190476" />
</clipPath>
</defs>
<text x="421.0" y="585" font-size="10" text-anchor="middle">15</text>
<text x="16.0" y="119.16666666666666" font-size="24" dominant-baseline="middle">V</text>
<path d="M50.0,70.47619047619048 L50.0,60.47619047619048" stroke="black" stroke-width="0.3" />
<text x="50.0" y="55.476190476190474" font-size="7" text-anchor="middle">350</text>
<path d="M80.48,70.47619047619048 L80.48,65.47619047619048" stroke="black" stroke-width="0.3" />
<path d="M110.96000000000001,70.47619047619048 L110.96000000000001,65.47619047619048" stroke="black" stroke-width="0.3" />
<path d="M141.44,70.47619047619048 L141.44,65.47619047619048" stroke="black" stroke-width="0.3" />
<path d="M171.92000000000002,70.47619047619048 L171.92000000000002,65.47619047619048" stroke="black" stroke-width="0.3" />
<path d="M202.4,70.47619047619048 L202.4,60.47619047619048" stroke="black" stroke-width="0.3" />
<text x="202.4" y="55.476190476190474" font-size="7" text-anchor="middle">355</text>
<path d="M232.88,70.47619047619048 L232.88,65.47619047619048" stroke="black" stroke-width="0.3" />
<path d="M263.36,70.47619047619048 L263.36,65.47619047619048" stroke="black" stroke-width="0.3" />
<path d="M293.84000000000003,70.47619047619048 L293.84000000000003,65.47619047619048" stroke="black" stroke-width="0.3" />
<path d="M324.32,70.47619047619048 L324.32,65.47619047619048" stroke="black" stroke-width="0.3" />
<path d="M354.8,70.47619047619048 L354.8,60.47619047619048" stroke="black" stroke-width="0.3" />
<text x="354.8" y="50.476190476190474" font-size="12" text-anchor="middle">360</text>
<path d="M354.8,55.476190476190474 V75.47619047619048 M350.8,71.47619047619048 L354.8,75.47619047619048 L358.8,71.47619047619048" stroke-width="1" stroke="black" fill="none" transform="rotate(0.000000 354.800000 55.476190)" />
<path d="M385.28000000000003,70.47619047619048 L385.28000000000003,65.47619047619048" stroke="black" stroke-width="0.3" />
<path d="M415.76,70.47619047619048 L415.76,65.47619047619048" stroke="black" stroke-width="0.3" />
<path d="M446.24,70.47619047619048 L446.24,65.47619047619048" stroke="black" stroke-width="0.3" />
<path d="M476.72,70.47619047619048 L476.72,65.47619047619048" stroke="black" stroke-width="0.3" />
<path d="M507.2,70.47619047619048 L507.2,60.47619047619048" stroke="black" stroke-width="0.3" />
<text x="507.2" y="55.476190476190474" font-size="7" text-anchor="middle">365</text>
<path d="M537.6800000000001,70.47619047619048 L537.6800000000001,65.47619047619048" stroke="black" stroke-width="0.3" />
<path d="M568.16,70.47619047619048 L568.16,65.47619047619048" stroke="black" stroke-width="0.3" />
<path d="M598.64,70.47619047619048 L598.64,65.47619047619048" stroke="black" stroke-width="0.3" />
<path d="M629.12,70.47619047619048 L629.12,65.47619047619048" stroke="black" stroke-width="0.3" />
<path d="M659.6,70.47619047619048 L659.6,60.47619047619048" stroke="black" stroke-width="0.3" />
<text x="659.6" y="55.476190476190474" font-size="7" text-anchor="middle">370</text>
<path d="M690.08,70.47619047619048 L690.08,65.47619047619048" stroke="black" stroke-width="0.3" />
<path d="M720.5600000000001,70.47619047619048 L720.5600000000001,65.47619047619048" stroke="black" stroke-width="0.3" />
<path d="M751.04,70.47619047619048 L751.04,65.47619047619048" stroke="black" stroke-width="0.3" />
<path d="M781.52,70.47619047619048 L781.52,65.47619047619048" stroke="black" stroke-width="0.3" />
<path d="M812.0,70.47619047619048 L812.0,60.47619047619048" stroke="black" stroke-width="0.3" />
<text x="812.0" y="55.476190476190474" font-size="7" text-anchor="middle">375</text>
<text x="16.0" y="297.5" font-size="24" dominant-baseline="middle">P</text>
<path d="M50.0,197.85714285714283 L50.0,187.85714285714283" stroke="black" stroke-width="0.3" />
<path d="M80.48,197.85714285714283 L80.48,192.85714285714283" stroke="black" stroke-width="0.3" />
<path d="M110.96000000000001,197.85714285714283 L110.96000000000001,192.85714285714283" stroke="black" stroke-width="0.3" />
<path d="M141.44,197.85714285714283 L141.44,192.85714285714283" stroke="black" stroke-width="0.3" />
<path d="M171.92000000000002,197.85714285714283 L171.92000000000002,192.85714285714283" stroke="black" stroke-width="0.3" />
<path d="M202.4,197.85714285714283 L202.4,187.85714285714283" stroke="black" stroke-width="0.3" />
<text x="202.4" y="182.85714285714283" font-size="7" text-anchor="middle">355</text>
<path d="M232.88,197.85714285714283 L232.88,192.85714285714283" stroke="black" stroke-width="0.3" />
<path d="M263.36,197.85714285714283 L263.36,192.85714285714283" stroke="black" stroke-width="0.3" />
<path d="M293.84000000000003,197.85714285714283 L293.84000000000003,192.85714285714283" stroke="black" stroke-width="0.3" />
<text x="293.84000000000003" y="177.85714285714283" font-size="12" text-anchor="middle">358</text>
<path d="M293.84000000000003,182.85714285714283 V202.85714285714283 M289.84000000000003,198.85714285714283 L293.84000000000003,202.85714285714283 L297.84000000000003,198.85714285714283" stroke-width="1" stroke="black" fill="none" transform="rotate(0.000000 293.840000 182.857143)" />
<path d="M324.32,197.85714285714283 L324.32,192.85714285714283" stroke="black" stroke-width="0.3" />
<path d="M354.8,197.85714285714283 L354.8,187.85714285714283" stroke="black" stroke-width="0.3" />
<text x="354.8" y="177.85714285714283" font-size="12" text-anchor="middle">360</text>
<path d="M354.8,182.85714285714283 V202.85714285714283 M350.8,198.85714285714283 L354.8,202.85714285714283 L358.8,198.85714285714283" stroke-width="1" stroke="black" fill="none" transform="rotate(0.000000 354.800000 182.857143)" />
<path d="M385.28000000000003,197.85714285714283 L385.28000000000003,192.85714285714283" stroke="black" stroke-width="0.3" />
<path d="M415.76,197.85714285714283 L415.76,192.85714285714283" stroke="black" stroke-width="0.3" />
<path d="M446.24,197.85714285714283 L446.24,192.85714285714283" stroke="black" stroke-width="0.3" />
<path d="M476.72,197.85714285714283 L476.72,192.85714285714283" stroke="black" stroke-width="0.3" />
<path d="M507.2,197.85714285714283 L507.2,187.85714285714283" stroke="black" stroke-width="0.3" />
<text x="507.2" y="182.85714285714283" font-size="7" text-anchor="middle">365</text>
<path d="M537.6800000000001,197.85714285714283 L537.6800000000001,192.85714285714283" stroke="black" stroke-width="0.3" />
<path d="M568.16,197.85714285714283 L568.16,192.85714285714283" stroke="black" stroke-width="0.3" />
<path d="M598.64,197.85714285714283 L598.64,192.85714285714283" stroke="black" stroke-width="0.3" />
<path d="M629.12,197.85714285714283 L629.12,192.85714285714283" stroke="black" stroke-width="0.3" />
<path d="M659.6,197.85714285714283 L659.6,187.85714285714283" stroke="black" stroke-width="0.3" />
<text x="659.6" y="182.85714285714283" font-size="7" text-anchor="middle">370</text>
<path d="M690.08,197.85714285714283 L690.08,192.85714285714283" stroke="black" stroke-width="0.3" />
<path d="M720.5600000000001,197.85714285714283 L720.5600000000001,192.85714285714283" stroke="black" stroke-width="0.3" />
<path d="M751.04,197.85714285714283 L751.04,192.85714285714283" stroke="black" stroke-width="0.3" />
<path d="M781.52,197.85714285714283 L781.52,192.85714285714283" stroke="black" stroke-width="0.3" />
<path d="M812.0,197.85714285714283 L812.0,187.85714285714283" stroke="black" stroke-width="0.3" />
<text x="812.0" y="182.85714285714283" font-size="7" text-anchor="middle">375</text>
<text x="16.0" y="488.57142857142856" font-size="24" dominant-baseline="middle">E</text>
<path d="M50.0,427.1428571428571 L50.0,417.1428571428571" stroke="black" stroke-width="0.3" />
<text x="50.0" y="412.1428571428571" font-size="7" text-anchor="middle">350</text>
<path d="M80.48,427.1428571428571 L80.48,422.1428571428571" stroke="black" stroke-width="0.3" />
<path d="M110.96000000000001,427.1428571428571 L110.96000000000001,422.1428571428571" stroke="black" stroke-width="0.3" />
<path d="M141.44,427.1428571428571 L141.44,422.1428571428571" stroke="black" stroke-width="0.3" />
<path d="M171.92000000000002,427.1428571428571 L171.92000000000002,422.1428571428571" stroke="black" stroke-width="0.3" />
<path d="M202.4,427.1428571428571 L202.4,417.1428571428571" stroke="black" stroke-width="0.3" />
<text x="202.4" y="412.1428571428571" font-size="7" text-anchor="middle">355</text>
<path d="M232.88,427.1428571428571 L232.88,422.1428571428571" stroke="black" stroke-width="0.3" />
<path d="M263.36,427.1428571428571 L263.36,422.1428571428571" stroke="black" stroke-width="0.3" />
<path d="M293.84000000000003,427.1428571428571 L293.84000000000003,422.1428571428571" stroke="black" stroke-width="0.3" />
<path d="M324.32,427.1428571428571 L324.32,422.1428571428571" stroke="black" stroke-width="0.3" />
<path d="M354.8,427.1428571428571 L354.8,417.1428571428571" stroke="black" stroke-width="0.3" />
<text x="354.8" y="412.1428571428571" font-size="7" text-anchor="middle">360</text>
<path d="M385.28000000000003,427.1428571428571 L385.28000000000003,422.1428571428571" stroke="black" stroke-width="0.3" />
<path d="M415.76,427.1428571428571 L415.76,422.1428571428571" stroke="black" stroke-width="0.3" />
<path d="M446.24,427.1428571428571 L446.24,422.1428571428571" stroke="black" stroke-width="0.3" />
<path d="M476.72,427.1428571428571 L476.72,422.1428571428571" stroke="black" stroke-width="0.3" />
<path d="M507.2,427.1428571428571 L507.2,417.1428571428571" stroke="black" stroke-width="0.3" />
<text x="507.2" y="412.1428571428571" font-size="7" text-anchor="middle">365</text>
<path d="M537.6800000000001,427.1428571428571 L537.6800000000001,422.1428571428571" stroke="black" stroke-width="0.3" />
<path d="M568.16,427.1428571428571 L568.16,422.1428571428571" stroke="black" stroke-width="0.3" />
<path d="M598.64,427.1428571428571 L598.64,422.1428571428571" stroke="black" stroke-width="0.3" />
<path d="M629.12,427.1428571428571 L629.12,422.1428571428571" stroke="black" stroke-width="0.3" />
<path d="M659.6,427.1428571428571 L659.6,417.1428571428571" stroke="black" stroke-width="0.3" />
<text x="659.6" y="412.1428571428571" font-size="7" text-anchor="middle">370</text>
<path d="M690.08,427.1428571428571 L690.08,422.1428571428571" stroke="black" stroke-width="0.3" />
<path d="M720.5600000000001,427.1428571428571 L720.5600000000001,422.1428571428571" stroke="black" stroke-width="0.3" />
<path d="M751.04,427.1428571428571 L751.04,422.1428571428571" stroke="black" stroke-width="0.3" />
<path d="M781.52,427.1428571428571 L781.52,422.1428571428571" stroke="black" stroke-width="0.3" />
<path d="M812.0,427.1428571428571 L812.0,417.1428571428571" stroke="black" stroke-width="0.3" />
<text x="812.0" y="412.1428571428571" font-size="7" text-anchor="middle">375</text>
<text x="348.8" y="96.23809523809524" font-size="16">-L-</text>
<path d="M354.1,120.51666666666665 C352.975,118.49166666666666,357.475,116.01666666666665,359.5,117.81666666666666 C360.625,119.84166666666665,356.125,122.31666666666666,354.1,120.51666666666665" fill="#444" />
<path d="M359.5,118.71666666666667 L359.5,104.31666666666666" stroke="black" stroke-width="0.45" />
<text x="366.8" y="119.16666666666666" font-size="10" font-family="Cantarell Light" text-anchor="start" dominant-baseline="middle">Mittellage</text>
<path d="M351.3,134.16666666666666 L351.3,139.16666666666666 Q351.3,134.16666666666666,352.55,134.16666666666666 Q353.8,134.16666666666666,353.8,139.16666666666666 Q353.8,134.16666666666666,355.05,134.16666666666666 Q356.3,134.16666666666666,356.3,139.16666666666666" stroke="black" fill="none" stroke-width="0.8333333333333334" />
<path d="M357.675,134.16666666666666 Q357.675,133.41666666666666,358.3,134.66666666666666 Q358.3,138.54166666666666,355.8,145.66666666666666 M358.3,134.66666666666666 C363.3,131.66666666666666,363.3,140.41666666666666,358.3,138.54166666666666" stroke="black" fill="none" stroke-width="0.8333333333333334" />
<path d="M50.0,310.23809523809524 L202.4,310.23809523809524" stroke="black" stroke-width="0.5" />
<text x="48.0" y="233.8095238095238" font-size="12" font-family="Cantarell"></text>
<path d="M293.84000000000003,361.19047619047615 L354.8,361.19047619047615" stroke="black" stroke-width="0.5" />
<text x="291.84000000000003" y="289.85714285714283" font-size="12" font-family="Cantarell">Bongos</text>
<path d="M354.8,272.0238095238095 L385.28000000000003,272.0238095238095" stroke="black" stroke-width="0.5" />
<text x="352.8" y="228.7142857142857" font-size="12" font-family="Cantarell">Rohre</text>
<text x="346.8" y="272.0238095238095" font-size="8" text-anchor="end" dominant-baseline="middle" font-family="Cantarell">1</text>
<path d="M507.2,310.23809523809524 L812.0,310.23809523809524" stroke="black" stroke-width="0.5" />
<text x="505.2" y="254.1904761904762" font-size="12" font-family="Cantarell">Tamtam</text>
<path d="M49.3,311.58809523809526 C48.175,309.56309523809523,52.675,307.08809523809526,54.7,308.8880952380952 C55.825,310.91309523809525,51.325,313.3880952380952,49.3,311.58809523809526" stroke="black" fill="none" stroke-width="0.675" />
<path d="M54.7,308.8880952380952 L54.7,295.92809523809524" stroke="black" stroke-width="0.45" />
<path d="M108.26,311.58809523809526 C107.135,309.56309523809523,111.635,307.08809523809526,113.66000000000001,308.8880952380952 C114.78500000000001,310.91309523809525,110.28500000000001,313.3880952380952,108.26,311.58809523809526" fill="#444" />
<path d="M113.66000000000001,309.7880952380952 L113.66000000000001,295.3880952380952" stroke="black" stroke-width="0.45" />
<path d="M128.37680000000077,311.58809523809526 C127.25180000000076,309.56309523809523,131.75180000000077,307.08809523809526,133.77680000000075,308.8880952380952 C134.90180000000075,310.91309523809525,130.40180000000075,313.3880952380952,128.37680000000077,311.58809523809526" fill="#444" />
<path d="M133.77680000000075,309.7880952380952 L133.77680000000075,294.0380952380952" stroke="black" stroke-width="0.45" />
<path d="M133.77680000000075,294.0380952380952 L138.27680000000075,301.2200952380952" stroke="black" stroke-width="0.9" />
<path d="M138.74,311.58809523809526 C137.615,309.56309523809523,142.115,307.08809523809526,144.14,308.8880952380952 C145.265,310.91309523809525,140.765,313.3880952380952,138.74,311.58809523809526" fill="#444" />
<path d="M144.14,309.7880952380952 L144.14,294.0380952380952" stroke="black" stroke-width="0.45" />
<path d="M144.14,294.0380952380952 L148.64,301.2200952380952" stroke="black" stroke-width="0.9" />
<path d="M148.79839999999953,311.58809523809526 C147.67339999999953,309.56309523809523,152.17339999999953,307.08809523809526,154.1983999999995,308.8880952380952 C155.3233999999995,310.91309523809525,150.8233999999995,313.3880952380952,148.79839999999953,311.58809523809526" fill="#444" />
<path d="M154.1983999999995,309.7880952380952 L154.1983999999995,295.3880952380952" stroke="black" stroke-width="0.45" />
<path d="M169.22000000000003,311.58809523809526 C168.09500000000003,309.56309523809523,172.59500000000003,307.08809523809526,174.62,308.8880952380952 C175.745,310.91309523809525,171.245,313.3880952380952,169.22000000000003,311.58809523809526" fill="#444" />
<path d="M174.62,309.7880952380952 L174.62,295.3880952380952" stroke="black" stroke-width="0.45" />
<text x="126.2" y="285.23809523809524" font-size="7" text-anchor="middle" font-family="Cantarell" font-style="italic" dominant-baseline="middle">3</text>
<path d="M111.96000000000001,289.23809523809524 L111.96000000000001,285.23809523809524 L122.7,285.23809523809524 M129.7,285.23809523809524 L140.44,285.23809523809524 L140.44,289.23809523809524" stroke="black" stroke-width="0.3" fill="none" />
<text x="156.68" y="285.23809523809524" font-size="7" text-anchor="middle" font-family="Cantarell" font-style="italic" dominant-baseline="middle">3</text>
<path d="M142.44,289.23809523809524 L142.44,285.23809523809524 L153.18,285.23809523809524 M160.18,285.23809523809524 L170.92,285.23809523809524 L170.92,289.23809523809524" stroke="black" stroke-width="0.3" fill="none" />
<path d="M40.85599999999965,314.23809523809524 Q44.665999999999656,316.52409523809524,48.47599999999965,314.23809523809524 Q44.665999999999656,316.98129523809524,40.85599999999965,314.23809523809524" fill="black" stroke="black" stroke-width="0.7" />
<path d="M153.63199999999932,314.23809523809524 Q161.25199999999933,317.28609523809524,168.8719999999993,314.23809523809524 Q161.25199999999933,317.89569523809524,153.63199999999932,314.23809523809524" fill="black" stroke="black" stroke-width="0.5" />
<path d="M287.84000000000003,311.19047619047615 C293.84000000000003,299.19047619047615,304.64000000000004,295.5904761904761,295.04,305.19047619047615 C303.44000000000005,295.5904761904761,305.84000000000003,299.19047619047615,296.24,307.5904761904761 C304.64000000000004,299.19047619047615,308.24,300.39047619047614,297.44000000000005,309.99047619047616 C305.84000000000003,302.79047619047617,304.64000000000004,308.79047619047617,291.44000000000005,317.19047619047615" fill="none" stroke="black" stroke-width="0.75" />
<path d="M296.84000000000003,301.5904761904761 L300.44000000000005,297.9904761904761" stroke="black" stroke-width="1" stroke-linecap="round" />
<path d="M300.44,301.5904761904761 L304.28,297.9904761904761" stroke="black" stroke-width="1" stroke-linecap="round" />
<path d="M302.00000000000006,303.99047619047616 L306.20000000000005,300.39047619047614" stroke="black" stroke-width="1" stroke-linecap="round" />
<path d="M301.0400000000001,308.19047619047615 L304.6400000000001,305.19047619047615" stroke="black" stroke-width="1" stroke-linecap="round" />
<path d="M290.84000000000003,331.19047619047615 L291.84000000000003,327.6947319588223 L292.84000000000003,327.4009217397849 L293.84000000000003,329.1240639436938 L294.84000000000003,331.52090077977346 L295.84000000000003,333.1462987259034 L296.84000000000003,333.04361098461874 L297.84000000000003,327.65435494163154 L298.84000000000003,328.7858113675532 L299.84000000000003,328.74768158290374 L300.84000000000003,332.3431796645875 L301.84000000000003,331.7036913608927 L302.84000000000003,329.9934406628544 L303.84000000000003,330.67500352204434 L304.84000000000003,333.23848978714733 L305.84000000000003,328.376118429986 L306.84000000000003,333.4513062162791 L307.84000000000003,333.58346419556847 L308.84000000000003,330.5159467439754 L309.84000000000003,334.6526381974645 L310.84000000000003,333.4752008281142 L311.84000000000003,328.40770123416365 L312.84000000000003,328.63378691766485 L313.84000000000003,328.0427200490117 L314.84000000000003,327.8280912099579 L315.84000000000003,332.9577720156557 L316.84000000000003,330.02431546664263 L317.84000000000003,333.79862950511165 L318.84000000000003,332.57512278363436 L319.84000000000003,333.2134965190389 L320.84000000000003,330.3901208248475 L321.84000000000003,333.96038752189713 L322.84000000000003,328.30939426014197 L323.84000000000003,327.411190871286 L324.84000000000003,329.30734973184855 L325.84000000000003,328.5805509371829 L326.84000000000003,332.9565460788148 L327.84000000000003,334.41873364906564 L328.84000000000003,328.76144962698294 L329.84000000000003,329.02987338927176 L330.84000000000003,328.64215957914547 L331.84000000000003,329.8350240278113 L332.84000000000003,334.0685478539018 L333.84000000000003,330.5174822593231 L334.84000000000003,328.7908315879661 L335.84000000000003,335.12736143111914 L336.84000000000003,332.0216280878579 L337.84000000000003,327.3109290032419 L338.84000000000003,329.92974932059957 L339.84000000000003,331.8544168187003 L340.84000000000003,330.85018358835174 L341.84000000000003,329.25493275020426 L342.84000000000003,330.88255754560663 L343.84000000000003,333.2810308541595 L344.84000000000003,331.91363754538077" fill="none" stroke="black" stroke-width="0.8" />
<path d="M291.14000000000004,362.54047619047617 C290.01500000000004,360.51547619047614,294.51500000000004,358.04047619047617,296.54,359.8404761904761 C297.665,361.86547619047616,293.165,364.3404761904761,291.14000000000004,362.54047619047617" fill="#444" />
<path d="M296.54,360.7404761904761 L296.54,346.3404761904761" stroke="black" stroke-width="0.45" />
<path d="M321.62,362.54047619047617 C320.495,360.51547619047614,324.995,358.04047619047617,327.02,359.8404761904761 C328.145,361.86547619047616,323.645,364.3404761904761,321.62,362.54047619047617" fill="#444" />
<circle cx="329.27" cy="359.39047619047614" r="0.75" fill="#444" />
<path d="M327.02,360.7404761904761 L327.02,344.9904761904761" stroke="black" stroke-width="0.45" />
<path d="M327.02,344.9904761904761 L331.52,352.1724761904761" stroke="black" stroke-width="0.9" />
<path d="M344.66,356.7804761904761 Q347.18,359.61547619047616,350.33,357.4104761904762 L348.755,359.30047619047616 Q347.18,360.87547619047615,344.345,358.67047619047617 M348.755,359.30047619047616 Q347.18,361.19047619047615,347.18,365.91547619047617" stroke="#444" fill="none" stroke-width="0.6749999999999999" />
<path d="M296.8880000000007,365.19047619047615 Q309.08000000000004,370.06727619047587,321.2719999999993,365.19047619047615 Q309.08000000000004,371.04263619047583,296.8880000000007,365.19047619047615" fill="black" stroke="black" stroke-width="0.5" />
<path d="M295.69000000000005,372.19047619047615 Q295.69000000000005,371.19047619047615,294.64000000000004,371.19047619047615 C293.24000000000007,371.19047619047615,292.89000000000004,383.19047619047615,292.5400000000001,383.69047619047615 Q291.84000000000003,383.69047619047615,291.84000000000003,382.69047619047615 M292.19000000000005,376.19047619047615 H294.99000000000007" stroke="black" fill="none" stroke-width="0.8333333333333334" />
<path d="M298.99,372.19047619047615 Q298.99,371.19047619047615,297.94,371.19047619047615 C296.54,371.19047619047615,296.19,383.19047619047615,295.84000000000003,383.69047619047615 Q295.14,383.69047619047615,295.14,382.69047619047615 M295.49,376.19047619047615 H298.29" stroke="black" fill="none" stroke-width="0.8333333333333334" />
<text x="354.8" y="243.7142857142857" font-size="10" font-family="Cantarell Light" dominant-baseline="middle">(Fingernagel)</text>
<path d="M352.1,273.37380952380954 C350.975,271.3488095238095,355.475,268.87380952380954,357.5,270.6738095238095 C358.625,272.69880952380953,354.125,275.1738095238095,352.1,273.37380952380954" fill="#444" />
<path d="M357.5,271.5738095238095 L357.5,257.1738095238095" stroke="black" stroke-width="0.45" />
<path d="M361.8,269.0238095238095 Q373.54,259.6318095238095,385.28000000000003,267.0238095238095 Q373.54,258.6926095238095,361.8,269.0238095238095" fill="black" stroke="black" stroke-width="0.3" />
<path d="M351.5,285.0238095238095 L351.5,290.0238095238095 Q351.5,285.0238095238095,352.75,285.0238095238095 Q354.0,285.0238095238095,354.0,290.0238095238095 Q354.0,285.0238095238095,355.25,285.0238095238095 Q356.5,285.0238095238095,356.5,290.0238095238095" stroke="black" fill="none" stroke-width="0.8333333333333334" />
<path d="M361.6,281.0238095238095 Q361.6,280.0238095238095,360.55,280.0238095238095 C359.15000000000003,280.0238095238095,358.8,292.0238095238095,358.45000000000005,292.5238095238095 Q357.75,292.5238095238095,357.75,291.5238095238095 M358.1,285.0238095238095 H360.90000000000003" stroke="black" fill="none" stroke-width="0.8333333333333334" />
<path d="M501.2,275.23809523809524 C507.2,263.23809523809524,518.0,259.6380952380952,508.4,269.23809523809524 C516.8,259.6380952380952,519.2,263.23809523809524,509.59999999999997,271.6380952380952 C518.0,263.23809523809524,521.6,264.43809523809523,510.8,274.03809523809525 C519.2,266.83809523809526,518.0,272.83809523809526,504.8,281.23809523809524" fill="none" stroke="black" stroke-width="0.75" />
<path d="M504.5,311.58809523809526 C503.375,309.56309523809523,507.875,307.08809523809526,509.9,308.8880952380952 C511.025,310.91309523809525,506.525,313.3880952380952,504.5,311.58809523809526" fill="#444" />
<path d="M509.9,309.7880952380952 L509.9,295.3880952380952" stroke="black" stroke-width="0.45" />
<path d="M534.98,311.58809523809526 C533.855,309.56309523809523,538.355,307.08809523809526,540.3800000000001,308.8880952380952 C541.5050000000001,310.91309523809525,537.0050000000001,313.3880952380952,534.98,311.58809523809526" fill="#444" />
<path d="M540.3800000000001,309.7880952380952 L540.3800000000001,295.3880952380952" stroke="black" stroke-width="0.45" />
<path d="M555.0968000000007,311.58809523809526 C553.9718000000007,309.56309523809523,558.4718000000007,307.08809523809526,560.4968000000008,308.8880952380952 C561.6218000000008,310.91309523809525,557.1218000000008,313.3880952380952,555.0968000000007,311.58809523809526" fill="#444" />
<path d="M560.4968000000008,309.7880952380952 L560.4968000000008,294.0380952380952" stroke="black" stroke-width="0.45" />
<path d="M560.4968000000008,294.0380952380952 L564.9968000000008,301.2200952380952" stroke="black" stroke-width="0.9" />
<path d="M565.4599999999999,311.58809523809526 C564.3349999999999,309.56309523809523,568.8349999999999,307.08809523809526,570.86,308.8880952380952 C571.985,310.91309523809525,567.485,313.3880952380952,565.4599999999999,311.58809523809526" fill="#444" />
<path d="M570.86,309.7880952380952 L570.86,295.3880952380952" stroke="black" stroke-width="0.45" />
<path d="M595.9399999999999,311.58809523809526 C594.8149999999999,309.56309523809523,599.3149999999999,307.08809523809526,601.34,308.8880952380952 C602.465,310.91309523809525,597.965,313.3880952380952,595.9399999999999,311.58809523809526" fill="#444" />
<path d="M601.34,309.7880952380952 L601.34,294.0380952380952" stroke="black" stroke-width="0.45" />
<path d="M601.34,294.0380952380952 L605.84,301.2200952380952" stroke="black" stroke-width="0.9" />
<path d="M605.9983999999995,311.58809523809526 C604.8733999999995,309.56309523809523,609.3733999999995,307.08809523809526,611.3983999999996,308.8880952380952 C612.5233999999996,310.91309523809525,608.0233999999996,313.3880952380952,605.9983999999995,311.58809523809526" fill="#444" />
<path d="M611.3983999999996,309.7880952380952 L611.3983999999996,295.3880952380952" stroke="black" stroke-width="0.45" />
<path d="M626.42,311.58809523809526 C625.295,309.56309523809523,629.795,307.08809523809526,631.82,308.8880952380952 C632.945,310.91309523809525,628.445,313.3880952380952,626.42,311.58809523809526" fill="#444" />
<path d="M631.82,309.7880952380952 L631.82,295.3880952380952" stroke="black" stroke-width="0.45" />
<path d="M656.9,311.58809523809526 C655.775,309.56309523809523,660.275,307.08809523809526,662.3000000000001,308.8880952380952 C663.4250000000001,310.91309523809525,658.9250000000001,313.3880952380952,656.9,311.58809523809526" stroke-width="0.30375" stroke="#444" fill="#444" />
<path d="M662.3000000000001,308.8880952380952 L662.3000000000001,292.0130952380952" stroke="black" stroke-width="0.45" />
<path d="M662.3000000000001,292.0130952380952 L662.4539393939394,292.01309523809516" stroke="black" stroke-width="1.5" />
<path d="M662.4539393939394,292.01309523809516 L662.6078787878788,292.0130952380952" stroke="black" stroke-width="1.5" />
<path d="M662.6078787878788,292.0130952380952 L662.7618181818183,292.01309523809516" stroke="black" stroke-width="1.5" />
<path d="M662.7618181818183,292.01309523809516 L662.9157575757577,292.0130952380952" stroke="black" stroke-width="1.5" />
<path d="M662.9157575757577,292.0130952380952 L663.069696969697,292.0130952380952" stroke="black" stroke-width="1.5" />
<path d="M663.069696969697,292.0130952380952 L663.2236363636364,292.0130952380952" stroke="black" stroke-width="1.5" />
<path d="M663.2236363636364,292.0130952380952 L663.3775757575759,292.0130952380952" stroke="black" stroke-width="1.5" />
<path d="M663.3775757575759,292.0130952380952 L663.5315151515152,292.0130952380952" stroke="black" stroke-width="1.5" />
<path d="M663.5315151515152,292.0130952380952 L663.6854545454546,292.01309523809516" stroke="black" stroke-width="1.5" />
<path d="M663.6854545454546,292.01309523809516 L663.839393939394,292.0130952380952" stroke="black" stroke-width="1.5" />
<path d="M663.839393939394,292.0130952380952 L663.9933333333335,292.0130952380953" stroke="black" stroke-width="1.5" />
<path d="M663.9933333333335,292.0130952380953 L664.1472727272728,292.0130952380953" stroke="black" stroke-width="1.5" />
<path d="M664.1472727272728,292.0130952380953 L664.3012121212122,292.0130952380952" stroke="black" stroke-width="1.5" />
<path d="M664.3012121212122,292.0130952380952 L664.4551515151516,292.0130952380952" stroke="black" stroke-width="1.5" />
<path d="M664.4551515151516,292.0130952380952 L664.6090909090909,292.0130952380952" stroke="black" stroke-width="1.5" />
<path d="M664.6090909090909,292.0130952380952 L664.7630303030304,292.0130952380952" stroke="black" stroke-width="1.5" />
<path d="M664.7630303030304,292.0130952380952 L664.9169696969698,292.0130952380952" stroke="black" stroke-width="1.5" />
<path d="M664.9169696969698,292.0130952380952 L665.0709090909091,292.0130952380952" stroke="black" stroke-width="1.5" />
<path d="M665.0709090909091,292.0130952380952 L665.2248484848485,292.0130952380952" stroke="black" stroke-width="1.5" />
<path d="M665.2248484848485,292.0130952380952 L665.378787878788,292.01309523809516" stroke="black" stroke-width="1.5" />
<path d="M665.378787878788,292.01309523809516 L665.5327272727274,292.01309523809516" stroke="black" stroke-width="1.5" />
<path d="M665.5327272727274,292.01309523809516 L665.6866666666667,292.0130952380952" stroke="black" stroke-width="1.5" />
<path d="M665.6866666666667,292.0130952380952 L665.8406060606061,292.01309523809516" stroke="black" stroke-width="1.5" />
<path d="M665.8406060606061,292.01309523809516 L665.9945454545456,292.0130952380952" stroke="black" stroke-width="1.5" />
<path d="M665.9945454545456,292.0130952380952 L666.1484848484849,292.0130952380952" stroke="black" stroke-width="1.5" />
<path d="M666.1484848484849,292.0130952380952 L666.3024242424243,292.0130952380952" stroke="black" stroke-width="1.5" />
<path d="M666.3024242424243,292.0130952380952 L666.4563636363637,292.0130952380952" stroke="black" stroke-width="1.5" />
<path d="M666.4563636363637,292.0130952380952 L666.6103030303032,292.0130952380952" stroke="black" stroke-width="1.5" />
<path d="M666.6103030303032,292.0130952380952 L666.7642424242425,292.0130952380952" stroke="black" stroke-width="1.5" />
<path d="M666.7642424242425,292.0130952380952 L666.9181818181819,292.0130952380953" stroke="black" stroke-width="1.5" />
<path d="M666.9181818181819,292.0130952380953 L667.0721212121213,292.0130952380952" stroke="black" stroke-width="1.5" />
<path d="M667.0721212121213,292.0130952380952 L667.2260606060606,292.0130952380952" stroke="black" stroke-width="1.5" />
<path d="M667.2260606060606,292.0130952380952 L667.3800000000001,292.0130952380952" stroke="black" stroke-width="1.5" />
<path d="M667.3800000000001,292.0130952380952 L667.5339393939395,292.0130952380952" stroke="black" stroke-width="1.5" />
<path d="M667.5339393939395,292.0130952380952 L667.6878787878788,292.0130952380953" stroke="black" stroke-width="1.5" />
<path d="M667.6878787878788,292.0130952380953 L667.8418181818182,292.0130952380953" stroke="black" stroke-width="1.5" />
<path d="M667.8418181818182,292.0130952380953 L667.9957575757577,292.0130952380952" stroke="black" stroke-width="1.5" />
<path d="M667.9957575757577,292.0130952380952 L668.1496969696971,292.01309523809516" stroke="black" stroke-width="1.5" />
<path d="M668.1496969696971,292.01309523809516 L668.3036363636364,292.0130952380952" stroke="black" stroke-width="1.5" />
<path d="M668.3036363636364,292.0130952380952 L668.4575757575758,292.0130952380952" stroke="black" stroke-width="1.5" />
<path d="M668.4575757575758,292.0130952380952 L668.6115151515153,292.0130952380952" stroke="black" stroke-width="1.5" />
<path d="M668.6115151515153,292.0130952380952 L668.7654545454546,292.0130952380952" stroke="black" stroke-width="1.5" />
<path d="M668.7654545454546,292.0130952380952 L668.919393939394,292.01309523809516" stroke="black" stroke-width="1.5" />
<path d="M668.919393939394,292.01309523809516 L669.0733333333334,292.0130952380952" stroke="black" stroke-width="1.5" />
<path d="M669.0733333333334,292.0130952380952 L669.2272727272727,292.0130952380952" stroke="black" stroke-width="1.5" />
<path d="M669.2272727272727,292.0130952380952 L669.3812121212122,292.0130952380952" stroke="black" stroke-width="1.5" />
<path d="M669.3812121212122,292.0130952380952 L669.5351515151516,292.0130952380952" stroke="black" stroke-width="1.5" />
<path d="M669.5351515151516,292.0130952380952 L669.689090909091,292.01309523809516" stroke="black" stroke-width="1.5" />
<path d="M669.689090909091,292.01309523809516 L669.8430303030303,292.0130952380952" stroke="black" stroke-width="1.5" />
<path d="M669.8430303030303,292.0130952380952 L669.9969696969698,292.0130952380952" stroke="black" stroke-width="1.5" />
<path d="M669.9969696969698,292.0130952380952 L670.1509090909092,292.0130952380952" stroke="black" stroke-width="1.5" />
<path d="M670.1509090909092,292.0130952380952 L670.3048484848485,292.0130952380952" stroke="black" stroke-width="1.5" />
<path d="M670.3048484848485,292.0130952380952 L670.4587878787879,292.0130952380952" stroke="black" stroke-width="1.5" />
<path d="M670.4587878787879,292.0130952380952 L670.6127272727274,292.0130952380952" stroke="black" stroke-width="1.5" />
<path d="M670.6127272727274,292.0130952380952 L670.7666666666668,292.0130952380952" stroke="black" stroke-width="1.5" />
<path d="M670.7666666666668,292.0130952380952 L670.9206060606061,292.01309523809516" stroke="black" stroke-width="1.5" />
<path d="M670.9206060606061,292.01309523809516 L671.0745454545455,292.0130952380952" stroke="black" stroke-width="1.5" />
<path d="M671.0745454545455,292.0130952380952 L671.2284848484849,292.0130952380952" stroke="black" stroke-width="1.5" />
<path d="M671.2284848484849,292.0130952380952 L671.3824242424243,292.0130952380952" stroke="black" stroke-width="1.5" />
<path d="M671.3824242424243,292.0130952380952 L671.5363636363637,292.0130952380952" stroke="black" stroke-width="1.5" />
<path d="M671.5363636363637,292.0130952380952 L671.6903030303031,292.0130952380952" stroke="black" stroke-width="1.5" />
<path d="M671.6903030303031,292.0130952380952 L671.8442424242425,292.0130952380952" stroke="black" stroke-width="1.5" />
<path d="M671.8442424242425,292.0130952380952 L671.9981818181819,292.0130952380952" stroke="black" stroke-width="1.5" />
<path d="M671.9981818181819,292.0130952380952 L672.1521212121213,292.0130952380952" stroke="black" stroke-width="1.5" />
<path d="M672.1521212121213,292.0130952380952 L672.3060606060607,292.0130952380952" stroke="black" stroke-width="1.5" />
<path d="M672.3060606060607,292.0130952380952 L672.46,292.0130952380952" stroke="black" stroke-width="1.5" />
<path d="M672.46,292.0130952380952 L672.6139393939395,292.0130952380952" stroke="black" stroke-width="1.5" />
<path d="M672.6139393939395,292.0130952380952 L672.7678787878789,292.0130952380952" stroke="black" stroke-width="1.5" />
<path d="M672.7678787878789,292.0130952380952 L672.9218181818183,292.0130952380952" stroke="black" stroke-width="1.5" />
<path d="M672.9218181818183,292.0130952380952 L673.0757575757576,292.0130952380952" stroke="black" stroke-width="1.5" />
<path d="M673.0757575757576,292.0130952380952 L673.229696969697,292.0130952380952" stroke="black" stroke-width="1.5" />
<path d="M673.229696969697,292.0130952380952 L673.3836363636365,292.0130952380952" stroke="black" stroke-width="1.5" />
<path d="M673.3836363636365,292.0130952380952 L673.5375757575758,292.0130952380952" stroke="black" stroke-width="1.5" />
<path d="M673.5375757575758,292.0130952380952 L673.6915151515152,292.0130952380953" stroke="black" stroke-width="1.5" />
<path d="M673.6915151515152,292.0130952380953 L673.8454545454546,292.0130952380952" stroke="black" stroke-width="1.5" />
<path d="M673.8454545454546,292.0130952380952 L673.999393939394,292.0130952380952" stroke="black" stroke-width="1.5" />
<path d="M673.999393939394,292.0130952380952 L674.1533333333334,292.0130952380952" stroke="black" stroke-width="1.5" />
<path d="M674.1533333333334,292.0130952380952 L674.3072727272728,292.0130952380952" stroke="black" stroke-width="1.5" />
<path d="M674.3072727272728,292.0130952380952 L674.4612121212122,292.0130952380952" stroke="black" stroke-width="1.5" />
<path d="M674.4612121212122,292.0130952380952 L674.6151515151516,292.0130952380952" stroke="black" stroke-width="1.5" />
<path d="M674.6151515151516,292.0130952380952 L674.769090909091,292.0130952380952" stroke="black" stroke-width="1.5" />
<path d="M674.769090909091,292.0130952380952 L674.9230303030304,292.0130952380952" stroke="black" stroke-width="1.5" />
<path d="M674.9230303030304,292.0130952380952 L675.0769696969697,292.0130952380952" stroke="black" stroke-width="1.5" />
<path d="M675.0769696969697,292.0130952380952 L675.2309090909092,292.0130952380952" stroke="black" stroke-width="1.5" />
<path d="M675.2309090909092,292.0130952380952 L675.3848484848486,292.0130952380952" stroke="black" stroke-width="1.5" />
<path d="M675.3848484848486,292.0130952380952 L675.538787878788,292.0130952380952" stroke="black" stroke-width="1.5" />
<path d="M675.538787878788,292.0130952380952 L675.6927272727273,292.0130952380952" stroke="black" stroke-width="1.5" />
<path d="M675.6927272727273,292.0130952380952 L675.8466666666667,292.0130952380952" stroke="black" stroke-width="1.5" />
<path d="M675.8466666666667,292.0130952380952 L676.0006060606062,292.0130952380952" stroke="black" stroke-width="1.5" />
<path d="M676.0006060606062,292.0130952380952 L676.1545454545455,292.0130952380952" stroke="black" stroke-width="1.5" />
<path d="M676.1545454545455,292.0130952380952 L676.3084848484849,292.0130952380952" stroke="black" stroke-width="1.5" />
<path d="M676.3084848484849,292.0130952380952 L676.4624242424243,292.0130952380952" stroke="black" stroke-width="1.5" />
<path d="M676.4624242424243,292.0130952380952 L676.6163636363638,292.0130952380952" stroke="black" stroke-width="1.5" />
<path d="M676.6163636363638,292.0130952380952 L676.7703030303031,292.0130952380952" stroke="black" stroke-width="1.5" />
<path d="M676.7703030303031,292.0130952380952 L676.9242424242425,292.0130952380952" stroke="black" stroke-width="1.5" />
<path d="M676.9242424242425,292.0130952380952 L677.0781818181819,292.0130952380952" stroke="black" stroke-width="1.5" />
<path d="M677.0781818181819,292.0130952380952 L677.2321212121213,292.0130952380952" stroke="black" stroke-width="1.5" />
<path d="M677.2321212121213,292.0130952380952 L677.3860606060607,292.0130952380952" stroke="black" stroke-width="1.5" />
<path d="M677.3860606060607,292.0130952380952 L677.5400000000001,292.0130952380952" stroke="black" stroke-width="1.5" />
<path d="M672.14,311.58809523809526 C671.015,309.56309523809523,675.515,307.08809523809526,677.5400000000001,308.8880952380952 C678.6650000000001,310.91309523809525,674.1650000000001,313.3880952380952,672.14,311.58809523809526" stroke-width="0.30375" stroke="#444" fill="#444" />
<path d="M677.5400000000001,308.8880952380952 L677.5400000000001,292.0130952380952" stroke="black" stroke-width="0.45" />
<path d="M675.2900000000001,292.0130952380952 L675.5400000000001,292.0130952380952" stroke="black" stroke-width="1.5" />
<path d="M675.5400000000001,292.0130952380952 L675.7900000000001,292.0130952380952" stroke="black" stroke-width="1.5" />
<path d="M675.7900000000001,292.0130952380952 L676.0400000000001,292.0130952380952" stroke="black" stroke-width="1.5" />
<path d="M676.0400000000001,292.0130952380952 L676.2900000000001,292.0130952380952" stroke="black" stroke-width="1.5" />
<path d="M676.2900000000001,292.0130952380952 L676.5400000000001,292.0130952380952" stroke="black" stroke-width="1.5" />
<path d="M676.5400000000001,292.0130952380952 L676.7900000000001,292.0130952380953" stroke="black" stroke-width="1.5" />
<path d="M676.7900000000001,292.0130952380953 L677.0400000000001,292.0130952380952" stroke="black" stroke-width="1.5" />
<path d="M677.0400000000001,292.0130952380952 L677.2900000000001,292.0130952380952" stroke="black" stroke-width="1.5" />
<path d="M677.2900000000001,292.0130952380952 L677.5400000000001,292.0130952380952" stroke="black" stroke-width="1.5" />
<path d="M687.38,311.58809523809526 C686.255,309.56309523809523,690.755,307.08809523809526,692.7800000000001,308.8880952380952 C693.9050000000001,310.91309523809525,689.4050000000001,313.3880952380952,687.38,311.58809523809526" fill="#444" />
<path d="M692.7800000000001,309.7880952380952 L692.7800000000001,295.3880952380952" stroke="black" stroke-width="0.45" />
<path d="M707.4968000000007,311.58809523809526 C706.3718000000007,309.56309523809523,710.8718000000007,307.08809523809526,712.8968000000008,308.8880952380952 C714.0218000000008,310.91309523809525,709.5218000000008,313.3880952380952,707.4968000000007,311.58809523809526" fill="#444" />
<path d="M712.8968000000008,309.7880952380952 L712.8968000000008,294.0380952380952" stroke="black" stroke-width="0.45" />
<path d="M712.8968000000008,294.0380952380952 L717.3968000000008,301.2200952380952" stroke="black" stroke-width="0.9" />
<path d="M717.86,311.58809523809526 C716.735,309.56309523809523,721.235,307.08809523809526,723.2600000000001,308.8880952380952 C724.3850000000001,310.91309523809525,719.8850000000001,313.3880952380952,717.86,311.58809523809526" fill="#444" />
<path d="M723.2600000000001,309.7880952380952 L723.2600000000001,295.3880952380952" stroke="black" stroke-width="0.45" />
<path d="M748.3399999999999,311.58809523809526 C747.2149999999999,309.56309523809523,751.7149999999999,307.08809523809526,753.74,308.8880952380952 C754.865,310.91309523809525,750.365,313.3880952380952,748.3399999999999,311.58809523809526" stroke="black" fill="none" stroke-width="0.675" />
<path d="M753.74,308.8880952380952 L753.74,295.92809523809524" stroke="black" stroke-width="0.45" />
<text x="552.9200000000001" y="285.23809523809524" font-size="7" text-anchor="middle" font-family="Cantarell" font-style="italic" dominant-baseline="middle">3</text>
<path d="M538.6800000000001,289.23809523809524 L538.6800000000001,285.23809523809524 L549.4200000000001,285.23809523809524 M556.4200000000001,285.23809523809524 L567.16,285.23809523809524 L567.16,289.23809523809524" stroke="black" stroke-width="0.3" fill="none" />
<text x="613.88" y="285.23809523809524" font-size="7" text-anchor="middle" font-family="Cantarell" font-style="italic" dominant-baseline="middle">3</text>
<path d="M599.64,289.23809523809524 L599.64,285.23809523809524 L610.38,285.23809523809524 M617.38,285.23809523809524 L628.12,285.23809523809524 L628.12,289.23809523809524" stroke="black" stroke-width="0.3" fill="none" />
<text x="705.32" y="285.23809523809524" font-size="7" text-anchor="middle" font-family="Cantarell" font-style="italic" dominant-baseline="middle">3</text>
<path d="M691.08,289.23809523809524 L691.08,285.23809523809524 L701.82,285.23809523809524 M708.82,285.23809523809524 L719.5600000000001,285.23809523809524 L719.5600000000001,289.23809523809524" stroke="black" stroke-width="0.3" fill="none" />
<path d="M510.2480000000007,314.23809523809524 Q522.44,319.11489523809496,534.6319999999994,314.23809523809524 Q522.44,320.0902552380949,510.2480000000007,314.23809523809524" fill="black" stroke="black" stroke-width="0.5" />
<path d="M632.1680000000007,314.23809523809524 Q645.8840000000004,319.72449523809513,659.6,314.23809523809524 Q645.8840000000004,320.8217752380951,632.1680000000007,314.23809523809524" fill="black" stroke="black" stroke-width="0.5" />
<path d="M676.3640000000004,314.23809523809524 Q682.46,317.40801523809506,688.5559999999997,314.23809523809524 Q682.46,318.041999238095,676.3640000000004,314.23809523809524" fill="black" stroke="black" stroke-width="0.6" />
<path d="M711.4159999999997,314.23809523809524 Q715.2259999999997,316.82889523809524,719.0359999999997,314.23809523809524 Q715.2259999999997,317.34705523809527,711.4159999999997,314.23809523809524" fill="black" stroke="black" stroke-width="0.7" />
<path d="M504.075,325.23809523809524 Q504.075,324.48809523809524,504.7,325.73809523809524 Q504.7,329.61309523809524,502.2,336.73809523809524 M504.7,325.73809523809524 C509.7,322.73809523809524,509.7,331.48809523809524,504.7,329.61309523809524" stroke="black" fill="none" stroke-width="0.8333333333333334" />
<path d="M509.075,325.23809523809524 Q509.075,324.48809523809524,509.7,325.73809523809524 Q509.7,329.61309523809524,507.2,336.73809523809524 M509.7,325.73809523809524 C514.7,322.73809523809524,514.7,331.48809523809524,509.7,329.61309523809524" stroke="black" fill="none" stroke-width="0.8333333333333334" />
<text x="527.2" y="333.23809523809524" font-size="8" font-style="italic" font-family="Cantarell Light">dunkel, weich (wie 345)</text>
<path d="M40.0,488.57142857142856 C45.0,481.2226983326293,45.0,493.553289188068,50.0,487.38799376034865 C52.522824564540294,481.3119403674307,52.522824564540294,491.38990114028775,55.04564912908059,486.3509207538592 C61.701650084139644,474.5890811794054,61.701650084139644,495.35633460957774,68.35765103919869,484.9727078944916 C75.55783897778737,473.0740412724479,75.55783897778737,494.45199536646334,82.75802691637605,483.7630183194556 C85.26246904107218,473.14694581349994,85.26246904107218,493.82792100571845,87.76691116576832,483.4874334096092 C92.45190700932505,475.368655604875,92.45190700932505,490.79888590098903,97.13690285288178,483.083770752932 C100.37299062348607,476.08711124009994,100.37299062348607,488.07194565436464,103.60907839409037,482.0795284472323 C110.41027356260575,465.5387589902682,110.41027356260575,494.8392191865313,117.21146873112112,480.18898908839975 C120.09247649660304,467.03879641101685,120.09247649660304,490.45749195236374,122.97348426208497,478.7481441816903 C130.26688703172618,463.3031009949682,130.26688703172618,485.89317661268285,137.5602898013674,474.5981388038255 C140.8666713332371,462.38205090510934,140.8666713332371,482.91899699781953,144.1730528651068,472.65052395146444 C147.7401864357453,466.92380532451006,147.7401864357453,474.9582293945047,151.3073200063838,470.9410173595074 C155.1886540380566,454.8512247638739,155.1886540380566,483.22029547844704,159.0699880697294,469.0357601211605 C162.15665246994618,460.6791950681174,162.15665246994618,473.81756899760506,165.24331687016294,467.24838203286123 C171.4581013645489,457.8525200769209,171.4581013645489,470.58122153466206,177.67288585893488,464.2168708057915 C185.1117039773418,448.26201395405275,185.1117039773418,476.72558691354214,192.55052209574873,462.49380043379745 C195.68080607321176,453.59535712539923,195.68080607321176,468.5863413302076,198.8110900506748,461.0908492278034 C202.22199051574154,455.52131518889144,202.22199051574154,464.6436222023758,205.63289098080827,460.0824686956336 C209.0059403384663,449.8108922968092,209.0059403384663,467.3874444381102,212.37898969612436,458.5991683674597 C215.6121641333632,446.1444176368891,215.6121641333632,467.90365283510835,218.84533857060202,457.0240352359987 C226.06400082101834,449.81629348731093,226.06400082101834,456.2117828996207,233.28266307143465,453.0140381934658 C240.41787217127316,445.98168477943057,240.41787217127316,455.00490124680493,247.5530812711117,450.49329301311775 C252.96617605046774,444.8435547272723,252.96617605046774,451.8558169692362,258.3792708298238,448.34968584825424 C261.5241256863941,444.15281499229195,261.5241256863941,450.59784737108816,264.66898054296445,447.37533118169006 C268.6287190824395,437.13436773239073,268.6287190824395,454.9321188958828,272.5884576219146,446.03324331413677 C279.5764393615597,433.0473006893365,279.5764393615597,454.3601336224129,286.56442110120486,443.7037171558747 C293.7753013984112,426.68747034771263,293.7753013984112,453.2946972333332,300.9861816956175,439.9910837905229" fill="none" stroke="black" stroke-width="0.5" clip-path="url(#d0)" />
<path d="M40.0,488.57142857142856 C45.0,473.66057613411596,45.0,501.13812837071515,50.0,487.39935225241555 C56.60622904672563,481.2979091735944,56.60622904672563,490.5906774933739,63.212458093451254,485.94429333348415 C70.07429594505939,473.6402380065562,70.07429594505939,494.19968053478766,76.93613379666755,483.91995927067194 C82.53618113687651,473.5658569583751,82.53618113687651,493.3404757754365,88.13622847708548,483.4531663669058 C90.88487296606854,470.98510750323095,90.88487296606854,494.3139332702478,93.63351745505162,482.64952038673937 C97.7747171377866,474.7644622035415,97.7747171377866,487.7024850641508,101.91591682052157,481.23347363384613 C106.57923761746413,469.5982999790334,106.57923761746413,490.34461855666655,111.24255841440667,479.97145926785 C116.07762896563803,471.1146406303023,116.07762896563803,486.67912882239654,120.91269951686938,478.8968847263494 C124.05229182884607,468.2850686240495,124.05229182884607,487.0930797574023,127.19188414082275,477.6890741907259 C134.64032581651375,461.7346976005628,134.64032581651375,486.17407917082056,142.08876749220474,473.9543883856917 C149.1138080158133,463.3025955290888,149.1138080158133,480.6444255736365,156.1388485394219,471.97351055136266 C158.9582280845012,460.4895627281417,158.9582280845012,482.32965691750843,161.7776076295805,471.4096098228251 C169.18669079864026,460.0174372705126,169.18669079864026,479.3549315075286,176.5957739677,469.6861843890206 C183.82072370447852,452.87452588739484,183.82072370447852,480.3935592632088,191.04567344125704,466.6340425753018 C194.36110516987176,452.91068083643694,194.36110516987176,478.4678759157934,197.67653689848652,465.68927837611517 C204.90726453059526,451.34477211427446,204.90726453059526,479.1351906483332,212.137992162704,465.23998138130383 C215.22987901158407,449.83688018705425,215.22987901158407,479.2840016907253,218.32176586046418,464.56044093888977 C221.21353502489345,450.82256694088187,221.21353502489345,477.49629211033835,224.1053041893227,464.1594295256101 C228.20417477924119,451.3656867798424,228.20417477924119,475.6133071173245,232.3030453691597,463.48949694858345 C237.75028841999477,449.60631813372856,237.75028841999477,476.25703792602155,243.19753147082983,462.93167802987506 C248.44667345459638,455.42816502093615,248.44667345459638,467.7611893767065,253.69581543836293,461.59467719882133 C257.3785531167848,448.3753669323103,257.3785531167848,471.3174586844552,261.06129079520673,459.84641280838275 C265.8199948238091,447.7999744065276,265.8199948238091,468.3413272612376,270.57869885241155,458.0706508338826 C276.63283284028216,446.96539080535524,276.63283284028216,465.5538932908544,282.6869668281528,456.2596420481048 C286.5497164263792,446.50294387202376,286.5497164263792,462.4920699205007,290.4124660246055,454.4975068962622 C293.0836379006367,444.3477233619086,293.0836379006367,461.80260320595016,295.7548097766679,453.0751632839294" fill="none" stroke="black" stroke-width="0.5" clip-path="url(#d0)" />
<path d="M293.84000000000003,366.19047619047615 L293.84000000000003,447.80952380952374" stroke="gray" stroke-width="0.5" stroke-dasharray="1 2" />
</svg>