<?xml version="1.0" encoding="UTF-8"?>
<svg xmlns="http://www.w3.org/2000/svg" xmlns:xlink="http://www.w3.org/1999/xlink"
    width="3368" height="2380" viewBox="0 0 842 595" font-family="Simvoni">
<defs>
</defs>
<text x="421.0" y="585" font-size="10" text-anchor="middle">11</text>
<text x="16.0" y="119.16666666666666" font-size="24" dominant-baseline="middle">V</text>
<path d="M50.0,70.47619047619048 L50.0,60.47619047619048" stroke="black" stroke-width="0.3" />
<text x="50.0" y="55.476190476190474" font-size="7" text-anchor="middle">250</text>
<path d="M80.48,70.47619047619048 L80.48,65.47619047619048" stroke="black" stroke-width="0.3" />
<path d="M110.96000000000001,70.47619047619048 L110.96000000000001,65.47619047619048" stroke="black" stroke-width="0.3" />
<path d="M141.44,70.47619047619048 L141.44,65.47619047619048" stroke="black" stroke-width="0.3" />
<path d="M171.92000000000002,70.47619047619048 L171.92000000000002,65.47619047619048" stroke="black" stroke-width="0.3" />
<path d="M202.4,70.47619047619048 L202.4,60.47619047619048" stroke="black" stroke-width="0.3" />
<text x="202.4" y="55.476190476190474" font-size="7" text-anchor="middle">255</text>
<path d="M232.88,70.47619047619048 L232.88,65.47619047619048" stroke="black" stroke-width="0.3" />
<path d="M263.36,70.47619047619048 L263.36,65.47619047619048" stroke="black" stroke-width="0.3" />
<path d="M293.84000000000003,70.47619047619048 L293.84000000000003,65.47619047619048" stroke="black" stroke-width="0.3" />
<path d="M324.32,70.47619047619048 L324.32,65.47619047619048" stroke="black" stroke-width="0.3" />
<path d="M354.8,70.47619047619048 L354.8,60.47619047619048" stroke="black" stroke-width="0.3" />
<text x="354.8" y="55.476190476190474" font-size="7" text-anchor="middle">260</text>
<path d="M385.28000000000003,70.47619047619048 L385.28000000000003,65.47619047619048" stroke="black" stroke-width="0.3" />
<path d="M415.76,70.47619047619048 L415.76,65.47619047619048" stroke="black" stroke-width="0.3" />
<path d="M446.24,70.47619047619048 L446.24,65.47619047619048" stroke="black" stroke-width="0.3" />
<path d="M476.72,70.47619047619048 L476.72,65.47619047619048" stroke="black" stroke-width="0.3" />
<path d="M507.2,70.47619047619048 L507.2,60.47619047619048" stroke="black" stroke-width="0.3" />
<text x="507.2" y="55.476190476190474" font-size="7" text-anchor="middle">265</text>
<path d="M537.6800000000001,70.47619047619048 L537.6800000000001,65.47619047619048" stroke="black" stroke-width="0.3" />
<path d="M568.16,70.47619047619048 L568.16,65.47619047619048" stroke="black" stroke-width="0.3" />
<path d="M598.64,70.47619047619048 L598.64,65.47619047619048" stroke="black" stroke-width="0.3" />
<path d="M629.12,70.47619047619048 L629.12,65.47619047619048" stroke="black" stroke-width="0.3" />
<path d="M659.6,70.47619047619048 L659.6,60.47619047619048" stroke="black" stroke-width="0.3" />
<text x="659.6" y="50.476190476190474" font-size="12" text-anchor="middle">270</text>
<path d="M659.6,55.476190476190474 V75.47619047619048 M655.6,71.47619047619048 L659.6,75.47619047619048 L663.6,71.47619047619048" stroke-width="1" stroke="black" fill="none" transform="rotate(0.000000 659.600000 55.476190)" />
<path d="M690.08,70.47619047619048 L690.08,65.47619047619048" stroke="black" stroke-width="0.3" />
<path d="M720.5600000000001,70.47619047619048 L720.5600000000001,65.47619047619048" stroke="black" stroke-width="0.3" />
<path d="M751.04,70.47619047619048 L751.04,65.47619047619048" stroke="black" stroke-width="0.3" />
<path d="M781.52,70.47619047619048 L781.52,65.47619047619048" stroke="black" stroke-width="0.3" />
<path d="M812.0,70.47619047619048 L812.0,60.47619047619048" stroke="black" stroke-width="0.3" />
<text x="812.0" y="55.476190476190474" font-size="7" text-anchor="middle">275</text>
<text x="16.0" y="284.76190476190476" font-size="24" dominant-baseline="middle">P</text>
<path d="M50.0,197.85714285714283 L50.0,187.85714285714283" stroke="black" stroke-width="0.3" />
<text x="50.0" y="182.85714285714283" font-size="7" text-anchor="middle">250</text>
<path d="M80.48,197.85714285714283 L80.48,192.85714285714283" stroke="black" stroke-width="0.3" />
<path d="M110.96000000000001,197.85714285714283 L110.96000000000001,192.85714285714283" stroke="black" stroke-width="0.3" />
<path d="M141.44,197.85714285714283 L141.44,192.85714285714283" stroke="black" stroke-width="0.3" />
<path d="M171.92000000000002,197.85714285714283 L171.92000000000002,192.85714285714283" stroke="black" stroke-width="0.3" />
<path d="M202.4,197.85714285714283 L202.4,187.85714285714283" stroke="black" stroke-width="0.3" />
<text x="202.4" y="182.85714285714283" font-size="7" text-anchor="middle">255</text>
<path d="M232.88,197.85714285714283 L232.88,192.85714285714283" stroke="black" stroke-width="0.3" />
<path d="M263.36,197.85714285714283 L263.36,192.85714285714283" stroke="black" stroke-width="0.3" />
<path d="M293.84000000000003,197.85714285714283 L293.84000000000003,192.85714285714283" stroke="black" stroke-width="0.3" />
<path d="M324.32,197.85714285714283 L324.32,192.85714285714283" stroke="black" stroke-width="0.3" />
<path d="M354.8,197.85714285714283 L354.8,187.85714285714283" stroke="black" stroke-width="0.3" />
<text x="354.8" y="177.85714285714283" font-size="12" text-anchor="middle">260</text>
<path d="M354.8,182.85714285714283 V202.85714285714283 M350.8,198.85714285714283 L354.8,202.85714285714283 L358.8,198.85714285714283" stroke-width="1" stroke="black" fill="none" transform="rotate(0.000000 354.800000 182.857143)" />
<path d="M385.28000000000003,197.85714285714283 L385.28000000000003,192.85714285714283" stroke="black" stroke-width="0.3" />
<path d="M415.76,197.85714285714283 L415.76,192.85714285714283" stroke="black" stroke-width="0.3" />
<path d="M446.24,197.85714285714283 L446.24,192.85714285714283" stroke="black" stroke-width="0.3" />
<path d="M476.72,197.85714285714283 L476.72,192.85714285714283" stroke="black" stroke-width="0.3" />
<path d="M507.2,197.85714285714283 L507.2,187.85714285714283" stroke="black" stroke-width="0.3" />
<text x="507.2" y="177.85714285714283" font-size="12" text-anchor="middle">265</text>
<path d="M507.2,182.85714285714283 V202.85714285714283 M503.2,198.85714285714283 L507.2,202.85714285714283 L511.2,198.85714285714283" stroke-width="1" stroke="black" fill="none" transform="rotate(0.000000 507.200000 182.857143)" />
<path d="M537.6800000000001,197.85714285714283 L537.6800000000001,192.85714285714283" stroke="black" stroke-width="0.3" />
<path d="M568.16,197.85714285714283 L568.16,192.85714285714283" stroke="black" stroke-width="0.3" />
<path d="M598.64,197.85714285714283 L598.64,192.85714285714283" stroke="black" stroke-width="0.3" />
<path d="M629.12,197.85714285714283 L629.12,192.85714285714283" stroke="black" stroke-width="0.3" />
<path d="M659.6,197.85714285714283 L659.6,187.85714285714283" stroke="black" stroke-width="0.3" />
<text x="659.6" y="177.85714285714283" font-size="12" text-anchor="middle">270</text>
<path d="M659.6,182.85714285714283 V202.85714285714283 M655.6,198.85714285714283 L659.6,202.85714285714283 L663.6,198.85714285714283" stroke-width="1" stroke="black" fill="none" transform="rotate(0.000000 659.600000 182.857143)" />
<path d="M690.08,197.85714285714283 L690.08,192.85714285714283" stroke="black" stroke-width="0.3" />
<path d="M720.5600000000001,197.85714285714283 L720.5600000000001,192.85714285714283" stroke="black" stroke-width="0.3" />
<path d="M751.04,197.85714285714283 L751.04,192.85714285714283" stroke="black" stroke-width="0.3" />
<path d="M781.52,197.85714285714283 L781.52,192.85714285714283" stroke="black" stroke-width="0.3" />
<path d="M812.0,197.85714285714283 L812.0,187.85714285714283" stroke="black" stroke-width="0.3" />
<text x="812.0" y="182.85714285714283" font-size="7" text-anchor="middle">275</text>
<text x="16.0" y="475.8333333333333" font-size="24" dominant-baseline="middle">E</text>
<path d="M50.0,401.66666666666663 L50.0,391.66666666666663" stroke="black" stroke-width="0.3" />
<text x="50.0" y="386.66666666666663" font-size="7" text-anchor="middle">250</text>
<path d="M80.48,401.66666666666663 L80.48,396.66666666666663" stroke="black" stroke-width="0.3" />
<path d="M110.96000000000001,401.66666666666663 L110.96000000000001,396.66666666666663" stroke="black" stroke-width="0.3" />
<path d="M141.44,401.66666666666663 L141.44,396.66666666666663" stroke="black" stroke-width="0.3" />
<path d="M171.92000000000002,401.66666666666663 L171.92000000000002,396.66666666666663" stroke="black" stroke-width="0.3" />
<text x="171.92000000000002" y="381.66666666666663" font-size="12" text-anchor="middle">254</text>
<path d="M171.92000000000002,386.66666666666663 V406.66666666666663 M167.92000000000002,402.66666666666663 L171.92000000000002,406.66666666666663 L175.92000000000002,402.66666666666663" stroke-width="1" stroke="black" fill="none" transform="rotate(0.000000 171.920000 386.666667)" />
<path d="M202.4,401.66666666666663 L202.4,391.66666666666663" stroke="black" stroke-width="0.3" />
<path d="M232.88,401.66666666666663 L232.88,396.66666666666663" stroke="black" stroke-width="0.3" />
<path d="M263.36,401.66666666666663 L263.36,396.66666666666663" stroke="black" stroke-width="0.3" />
<text x="263.36" y="381.66666666666663" font-size="12" text-anchor="middle">257</text>
<path d="M263.36,386.66666666666663 V406.66666666666663 M259.36,402.66666666666663 L263.36,406.66666666666663 L267.36,402.66666666666663" stroke-width="1" stroke="black" fill="none" transform="rotate(0.000000 263.360000 386.666667)" />
<path d="M293.84000000000003,401.66666666666663 L293.84000000000003,396.66666666666663" stroke="black" stroke-width="0.3" />
<path d="M324.32,401.66666666666663 L324.32,396.66666666666663" stroke="black" stroke-width="0.3" />
<path d="M354.8,401.66666666666663 L354.8,391.66666666666663" stroke="black" stroke-width="0.3" />
<text x="354.8" y="381.66666666666663" font-size="12" text-anchor="middle">260</text>
<path d="M354.8,386.66666666666663 V406.66666666666663 M350.8,402.66666666666663 L354.8,406.66666666666663 L358.8,402.66666666666663" stroke-width="1" stroke="black" fill="none" transform="rotate(0.000000 354.800000 386.666667)" />
<path d="M385.28000000000003,401.66666666666663 L385.28000000000003,396.66666666666663" stroke="black" stroke-width="0.3" />
<path d="M415.76,401.66666666666663 L415.76,396.66666666666663" stroke="black" stroke-width="0.3" />
<path d="M446.24,401.66666666666663 L446.24,396.66666666666663" stroke="black" stroke-width="0.3" />
<text x="446.24" y="381.66666666666663" font-size="12" text-anchor="middle">263</text>
<path d="M446.24,386.66666666666663 V406.66666666666663 M442.24,402.66666666666663 L446.24,406.66666666666663 L450.24,402.66666666666663" stroke-width="1" stroke="black" fill="none" transform="rotate(0.000000 446.240000 386.666667)" />
<path d="M476.72,401.66666666666663 L476.72,396.66666666666663" stroke="black" stroke-width="0.3" />
<path d="M507.2,401.66666666666663 L507.2,391.66666666666663" stroke="black" stroke-width="0.3" />
<path d="M537.6800000000001,401.66666666666663 L537.6800000000001,396.66666666666663" stroke="black" stroke-width="0.3" />
<path d="M568.16,401.66666666666663 L568.16,396.66666666666663" stroke="black" stroke-width="0.3" />
<path d="M598.64,401.66666666666663 L598.64,396.66666666666663" stroke="black" stroke-width="0.3" />
<text x="598.64" y="381.66666666666663" font-size="12" text-anchor="middle">268</text>
<path d="M598.64,386.66666666666663 V406.66666666666663 M594.64,402.66666666666663 L598.64,406.66666666666663 L602.64,402.66666666666663" stroke-width="1" stroke="black" fill="none" transform="rotate(0.000000 598.640000 386.666667)" />
<path d="M629.12,401.66666666666663 L629.12,396.66666666666663" stroke="black" stroke-width="0.3" />
<path d="M659.6,401.66666666666663 L659.6,391.66666666666663" stroke="black" stroke-width="0.3" />
<path d="M690.08,401.66666666666663 L690.08,396.66666666666663" stroke="black" stroke-width="0.3" />
<path d="M720.5600000000001,401.66666666666663 L720.5600000000001,396.66666666666663" stroke="black" stroke-width="0.3" />
<path d="M751.04,401.66666666666663 L751.04,396.66666666666663" stroke="black" stroke-width="0.3" />
<text x="751.04" y="381.66666666666663" font-size="12" text-anchor="middle">273</text>
<path d="M751.04,386.66666666666663 V406.66666666666663 M747.04,402.66666666666663 L751.04,406.66666666666663 L755.04,402.66666666666663" stroke-width="1" stroke="black" fill="none" transform="rotate(0.000000 751.040000 386.666667)" />
<path d="M781.52,401.66666666666663 L781.52,396.66666666666663" stroke="black" stroke-width="0.3" />
<path d="M812.0,401.66666666666663 L812.0,391.66666666666663" stroke="black" stroke-width="0.3" />
<text x="812.0" y="386.66666666666663" font-size="7" text-anchor="middle">275</text>
<text x="659.6" y="96.23809523809524" font-size="16">NCKT(E)</text>
<path d="M657.6,106.42857142857142 L659.7095257112011,102.65824262529912 L662.198161002116,109.44429373443556 L663.8750105970643,103.23287156384741 L666.3905863302821,110.40259274057856 L667.8993638492893,103.00216979201566 L670.7254539684884,109.99903878718577 L672.7880866971022,102.6989836706387 L675.2319795135924,110.12212416304583 L677.8436824823984,102.68210686758431 L680.7149681831715,109.68155206343636 L683.3561317392215,103.07294164092924 L684.9833225009863,109.68559482318335 L686.8589719990563,102.61652073448619 L688.8267879148132,109.93725346515568 L690.6834474826577,102.62974885186163 L693.0378995018945,109.66590398755596 L695.740123225273,102.51962882829255 L697.901787434005,109.96643413104326 L699.8822182833752,103.16349200090019 L701.4821295009313,109.9046596493219 L703.6290579782859,103.00778736849443 L705.8244577832785,109.4513331369911 L707.9070494771013,103.32633240734476 L710.8146311670522,110.06549836420204 L713.6500933179118,103.09051958703284 L716.5023170520105,109.85065493404628" fill="none" stroke="black" stroke-width="0.6400000000000001" />
<path d="M656.9,138.35 C655.775,136.325,660.275,133.85,662.3000000000001,135.65 C663.4250000000001,137.675,658.9250000000001,140.15,656.9,138.35" stroke="black" fill="none" stroke-width="0.675" />
<path d="M662.3000000000001,135.65 L662.3000000000001,117.506" stroke="black" stroke-width="0.45" />
<circle cx="662.2" cy="125.0" r="2" stroke="black" stroke-width="0.4" fill="none" />
<path d="M661.45,148.0 Q661.45,147.0,660.4000000000001,147.0 C659.0,147.0,658.6500000000001,159.0,658.3000000000001,159.5 Q657.6,159.5,657.6,158.5 M657.95,152.0 H660.75" stroke="black" fill="none" stroke-width="0.8333333333333334" />
<path d="M664.75,148.0 Q664.75,147.0,663.7,147.0 C662.3,147.0,661.95,159.0,661.6,159.5 Q660.9,159.5,660.9,158.5 M661.25,152.0 H664.05" stroke="black" fill="none" stroke-width="0.8333333333333334" />
<path d="M50.0,310.23809523809524 L568.16,310.23809523809524" stroke="black" stroke-width="0.5" />
<text x="48.0" y="259.2857142857143" font-size="12" font-family="Cantarell"></text>
<path d="M47.3,311.58809523809526 C46.175,309.56309523809523,50.675,307.08809523809526,52.7,308.8880952380952 C53.825,310.91309523809525,49.325,313.3880952380952,47.3,311.58809523809526" stroke="black" fill="none" stroke-width="0.675" />
<path d="M52.7,308.8880952380952 L52.7,295.92809523809524" stroke="black" stroke-width="0.45" />
<path d="M111.545,317.2580952380952 Q108.03500000000001,311.7005952380952,112.42250000000001,312.87059523809523 L110.37500000000001,309.36059523809524 L112.13000000000001,307.31309523809523 Q110.96000000000001,306.1430952380952,110.96000000000001,304.97309523809525" stroke="#444" fill="none" stroke-width="1.0125" />
<path d="M142.025,317.2580952380952 Q138.515,311.7005952380952,142.9025,312.87059523809523 L140.855,309.36059523809524 L142.60999999999999,307.31309523809523 Q141.44,306.1430952380952,141.44,304.97309523809525" stroke="#444" fill="none" stroke-width="1.0125" />
<path d="M172.50500000000002,317.2580952380952 Q168.995,311.7005952380952,173.38250000000002,312.87059523809523 L171.335,309.36059523809524 L173.09,307.31309523809523 Q171.92000000000002,306.1430952380952,171.92000000000002,304.97309523809525" stroke="#444" fill="none" stroke-width="1.0125" />
<circle cx="51.0" cy="335.23809523809524" r="7" fill="none" stroke="black" stroke-width="0.7" />
<path d="M55.2,338.03809523809525 L58.0,335.23809523809524 L60.8,338.03809523809525" fill="none" stroke="black" stroke-width="0.7" />
<path d="M199.70000000000002,311.58809523809526 C198.57500000000002,309.56309523809523,203.07500000000002,307.08809523809526,205.1,308.8880952380952 C206.225,310.91309523809525,201.725,313.3880952380952,199.70000000000002,311.58809523809526" stroke="black" fill="none" stroke-width="0.675" />
<path d="M205.1,308.8880952380952 L205.1,295.92809523809524" stroke="black" stroke-width="0.45" />
<path d="M263.945,317.2580952380952 Q260.435,311.7005952380952,264.8225,312.87059523809523 L262.77500000000003,309.36059523809524 L264.53000000000003,307.31309523809523 Q263.36,306.1430952380952,263.36,304.97309523809525" stroke="#444" fill="none" stroke-width="1.0125" />
<path d="M294.425,317.2580952380952 Q290.915,311.7005952380952,295.3025,312.87059523809523 L293.25500000000005,309.36059523809524 L295.01000000000005,307.31309523809523 Q293.84000000000003,306.1430952380952,293.84000000000003,304.97309523809525" stroke="#444" fill="none" stroke-width="1.0125" />
<path d="M324.905,317.2580952380952 Q321.395,311.7005952380952,325.78249999999997,312.87059523809523 L323.735,309.36059523809524 L325.49,307.31309523809523 Q324.32,306.1430952380952,324.32,304.97309523809525" stroke="#444" fill="none" stroke-width="1.0125" />
<circle cx="203.4" cy="335.23809523809524" r="7" fill="none" stroke="black" stroke-width="0.7" />
<path d="M193.6,338.03809523809525 L196.4,335.23809523809524 L199.20000000000002,338.03809523809525" fill="none" stroke="black" stroke-width="0.7" />
<circle cx="354.8" cy="269.4761904761905" r="3.5" stroke="black" stroke-width="0.7000000000000001" fill="none" />
<path d="M352.7,270.255362391008 L353.33844798064496,277.968287150343 L355.2666791704787,277.968287150343" stroke="black" stroke-width="0.5399047331534468" fill="none" transform="rotate(13.419955,352.700000,270.255362)" />
<path d="M353.75,270.6075815168153 L354.0803579846959,282.69751250851436 L351.05787523677117,282.69751250851436" stroke="black" stroke-width="0.6527410965916876" fill="none" transform="rotate(4.272069,353.750000,270.607582)" />
<path d="M354.8,270.77912797259825 L354.91368562395684,281.0847952623234 L357.4901024463881,281.0847952623234" stroke="black" stroke-width="0.6726932567804269" fill="none" transform="rotate(8.920483,354.800000,270.779128)" />
<path d="M355.5,270.93803834259154 L356.19274738812965,281.6748135278887 L353.50855359180537,281.6748135278887" stroke="black" stroke-width="0.7222556266716829" fill="none" transform="rotate(-9.270370,355.500000,270.938038)" />
<path d="M356.2,270.8270418831267 L355.55029406115,280.5021489570976 L353.1315172926573,280.5021489570976" stroke="black" stroke-width="0.6987900522826468" fill="none" transform="rotate(-4.799403,356.200000,270.827042)" />
<path d="M352.1,311.58809523809526 C350.975,309.56309523809523,355.475,307.08809523809526,357.5,308.8880952380952 C358.625,310.91309523809525,354.125,313.3880952380952,352.1,311.58809523809526" stroke="black" fill="none" stroke-width="0.675" />
<path d="M357.5,308.8880952380952 L357.5,295.92809523809524" stroke="black" stroke-width="0.45" />
<path d="M356.65000000000003,326.23809523809524 Q356.65000000000003,325.23809523809524,355.6,325.23809523809524 C354.20000000000005,325.23809523809524,353.85,337.23809523809524,353.50000000000006,337.73809523809524 Q352.8,337.73809523809524,352.8,336.73809523809524 M353.15000000000003,330.23809523809524 H355.95000000000005" stroke="black" fill="none" stroke-width="0.8333333333333334" />
<path d="M359.95,326.23809523809524 Q359.95,325.23809523809524,358.9,325.23809523809524 C357.5,325.23809523809524,357.15,337.23809523809524,356.8,337.73809523809524 Q356.09999999999997,337.73809523809524,356.09999999999997,336.73809523809524 M356.45,330.23809523809524 H359.25" stroke="black" fill="none" stroke-width="0.8333333333333334" />
<path d="M416.34499999999997,317.2580952380952 Q412.835,311.7005952380952,417.22249999999997,312.87059523809523 L415.175,309.36059523809524 L416.93,307.31309523809523 Q415.76,306.1430952380952,415.76,304.97309523809525" stroke="#444" fill="none" stroke-width="1.0125" />
<path d="M446.825,317.2580952380952 Q443.315,311.7005952380952,447.7025,312.87059523809523 L445.65500000000003,309.36059523809524 L447.41,307.31309523809523 Q446.24,306.1430952380952,446.24,304.97309523809525" stroke="#444" fill="none" stroke-width="1.0125" />
<path d="M477.305,317.2580952380952 Q473.795,311.7005952380952,478.1825,312.87059523809523 L476.13500000000005,309.36059523809524 L477.89000000000004,307.31309523809523 Q476.72,306.1430952380952,476.72,304.97309523809525" stroke="#444" fill="none" stroke-width="1.0125" />
<circle cx="507.2" cy="269.4761904761905" r="2" stroke="black" fill="none" stroke-width="0.5" />
<path d="M507.2,271.4761904761905 L507.2,283.4761904761905" stroke="black" stroke-width="0.5" />
<circle cx="507.2" cy="269.4761904761905" r="1.0" fill="black" />
<path d="M504.5,311.58809523809526 C503.375,309.56309523809523,507.875,307.08809523809526,509.9,308.8880952380952 C511.025,310.91309523809525,506.525,313.3880952380952,504.5,311.58809523809526" stroke="black" fill="none" stroke-width="0.675" />
<path d="M509.9,308.8880952380952 L509.9,295.92809523809524" stroke="black" stroke-width="0.45" />
<path d="M512.2,310.23809523809524 Q543.9472,304.23809523809524,565.112,280.23809523809524 Q542.88896,303.6380952380952,512.2,310.23809523809524" fill="black" stroke="black" stroke-width="0.5" />
<path d="M510.7,326.23809523809524 Q510.7,325.23809523809524,509.65,325.23809523809524 C508.25,325.23809523809524,507.9,337.23809523809524,507.55,337.73809523809524 Q506.84999999999997,337.73809523809524,506.84999999999997,336.73809523809524 M507.2,330.23809523809524 H510.0" stroke="black" fill="none" stroke-width="0.8333333333333334" />
<text x="659.6" y="233.8095238095238" font-size="12" font-family="Cantarell">Quietschtier</text>
<text x="659.6" y="259.2857142857143" font-size="10" font-family="Cantarell Light">quasi Kantilene</text>
<path d="M656.9,311.58809523809526 C655.775,309.56309523809523,660.275,307.08809523809526,662.3000000000001,308.8880952380952 C663.4250000000001,310.91309523809525,658.9250000000001,313.3880952380952,656.9,311.58809523809526" stroke="black" fill="none" stroke-width="0.675" />
<path d="M656.9,311.58809523809526 L656.9,324.54809523809524" stroke="black" stroke-width="0.45" />
<path d="M659.6,300.23809523809524 C676.3802860302043,279.543883401532,676.3802860302043,290.27686949784317,681.9180458556106,284.9103764496876 C684.8848935415303,269.0400975756642,684.8848935415303,284.1373275957308,687.8517412274501,276.5887125856975 C693.6072486383457,263.3257992658977,693.6072486383457,286.47032164828954,699.3627560492412,274.8980604570936 C702.3541467290205,270.4688560744923,702.3541467290205,283.7808959383694,705.3455374087999,277.12487600643084 C708.9010743751434,273.2265244273187,708.9010743751434,289.0781061211405,712.4566113414868,281.1523152742296 C715.7573193815754,277.51639694348046,715.7573193815754,299.468845519389,719.0580274216641,288.4926212314347 C723.6676550958468,289.3595966512609,723.6676550958468,306.2187260294024,728.2772827700295,297.78916134033165" fill="none" stroke="black" stroke-width="0.5" />
<text x="171.92000000000002" y="509.5238095238095" font-size="10" font-family="Cantarell Light">Ton</text>
<path d="M169.22000000000003,540.8738095238095 C168.09500000000003,538.8488095238096,172.59500000000003,536.3738095238095,174.62,538.1738095238095 C175.745,540.1988095238095,171.245,542.6738095238095,169.22000000000003,540.8738095238095" stroke="black" fill="none" stroke-width="0.675" />
<path d="M174.62,538.1738095238095 L174.62,525.2138095238095" stroke="black" stroke-width="0.45" />
<circle cx="176.87" cy="537.7238095238095" r="0.75" fill="black" />
<path d="M179.92000000000002,539.5238095238095 Q226.3264,529.5238095238095,257.264,489.5238095238095 Q224.77952000000002,528.5238095238095,179.92000000000002,539.5238095238095" fill="black" stroke="black" stroke-width="0.5" />
<path d="M168.79500000000002,549.5238095238095 Q168.79500000000002,548.7738095238095,169.42000000000002,550.0238095238095 Q169.42000000000002,553.8988095238095,166.92000000000002,561.0238095238095 M169.42000000000002,550.0238095238095 C174.42000000000002,547.0238095238095,174.42000000000002,555.7738095238095,169.42000000000002,553.8988095238095" stroke="black" fill="none" stroke-width="0.8333333333333334" />
<path d="M173.79500000000002,549.5238095238095 Q173.79500000000002,548.7738095238095,174.42000000000002,550.0238095238095 Q174.42000000000002,553.8988095238095,171.92000000000002,561.0238095238095 M174.42000000000002,550.0238095238095 C179.42000000000002,547.0238095238095,179.42000000000002,555.7738095238095,174.42000000000002,553.8988095238095" stroke="black" fill="none" stroke-width="0.8333333333333334" />
<path d="M253.59099999999967,549.5238095238095 Q253.59099999999967,548.7738095238095,254.21599999999967,550.0238095238095 Q254.21599999999967,553.8988095238095,251.71599999999967,561.0238095238095 M254.21599999999967,550.0238095238095 C259.21599999999967,547.0238095238095,259.21599999999967,555.7738095238095,254.21599999999967,553.8988095238095" stroke="black" fill="none" stroke-width="0.8333333333333334" />
<path d="M245.07199999999932,551.5238095238095 L181.06400000000036,554.5238095238095 L245.07199999999932,557.5238095238095" stroke="black" fill="none" stroke-width="0.4" />
<text x="263.36" y="420.35714285714283" font-size="10" font-family="Cantarell Light">gefärbtes Rauschen</text>
<path d="M260.66,451.70714285714286 C259.535,449.6821428571428,264.035,447.20714285714286,266.06,449.0071428571428 C267.185,451.03214285714284,262.685,453.5071428571428,260.66,451.70714285714286" stroke-width="0.30375" stroke="#444" fill="#444" />
<circle cx="268.31" cy="448.5571428571428" r="0.75" fill="#444" />
<path d="M266.06,449.0071428571428 L266.06,432.1321428571428" stroke="black" stroke-width="0.45" />
<path d="M266.06,432.1321428571428 L266.5265306122449,432.1321428571428" stroke="black" stroke-width="1.5" />
<path d="M266.5265306122449,432.1321428571428 L266.9930612244898,432.1321428571428" stroke="black" stroke-width="1.5" />
<path d="M266.9930612244898,432.1321428571428 L267.4595918367347,432.1321428571428" stroke="black" stroke-width="1.5" />
<path d="M267.4595918367347,432.1321428571428 L267.9261224489796,432.13214285714275" stroke="black" stroke-width="1.5" />
<path d="M267.9261224489796,432.13214285714275 L268.3926530612245,432.1321428571428" stroke="black" stroke-width="1.5" />
<path d="M268.3926530612245,432.1321428571428 L268.8591836734694,432.1321428571428" stroke="black" stroke-width="1.5" />
<path d="M268.8591836734694,432.1321428571428 L269.3257142857143,432.1321428571428" stroke="black" stroke-width="1.5" />
<path d="M269.3257142857143,432.1321428571428 L269.79224489795916,432.13214285714275" stroke="black" stroke-width="1.5" />
<path d="M269.79224489795916,432.13214285714275 L270.2587755102041,432.1321428571428" stroke="black" stroke-width="1.5" />
<path d="M270.2587755102041,432.1321428571428 L270.72530612244896,432.13214285714287" stroke="black" stroke-width="1.5" />
<path d="M270.72530612244896,432.13214285714287 L271.1918367346939,432.13214285714287" stroke="black" stroke-width="1.5" />
<path d="M271.1918367346939,432.13214285714287 L271.6583673469388,432.13214285714287" stroke="black" stroke-width="1.5" />
<path d="M271.6583673469388,432.13214285714287 L272.12489795918367,432.1321428571428" stroke="black" stroke-width="1.5" />
<path d="M272.12489795918367,432.1321428571428 L272.5914285714286,432.1321428571428" stroke="black" stroke-width="1.5" />
<path d="M272.5914285714286,432.1321428571428 L273.05795918367346,432.1321428571428" stroke="black" stroke-width="1.5" />
<path d="M273.05795918367346,432.1321428571428 L273.5244897959184,432.13214285714287" stroke="black" stroke-width="1.5" />
<path d="M273.5244897959184,432.13214285714287 L273.99102040816325,432.13214285714287" stroke="black" stroke-width="1.5" />
<path d="M273.99102040816325,432.13214285714287 L274.4575510204082,432.13214285714287" stroke="black" stroke-width="1.5" />
<path d="M274.4575510204082,432.13214285714287 L274.92408163265304,432.1321428571428" stroke="black" stroke-width="1.5" />
<path d="M274.92408163265304,432.1321428571428 L275.39061224489797,432.1321428571428" stroke="black" stroke-width="1.5" />
<path d="M275.39061224489797,432.1321428571428 L275.8571428571429,432.1321428571428" stroke="black" stroke-width="1.5" />
<path d="M275.8571428571429,432.1321428571428 L276.32367346938776,432.1321428571428" stroke="black" stroke-width="1.5" />
<path d="M276.32367346938776,432.1321428571428 L276.7902040816327,432.1321428571428" stroke="black" stroke-width="1.5" />
<path d="M276.7902040816327,432.1321428571428 L277.25673469387755,432.1321428571428" stroke="black" stroke-width="1.5" />
<path d="M277.25673469387755,432.1321428571428 L277.72326530612247,432.1321428571428" stroke="black" stroke-width="1.5" />
<path d="M277.72326530612247,432.1321428571428 L278.18979591836734,432.1321428571428" stroke="black" stroke-width="1.5" />
<path d="M278.18979591836734,432.1321428571428 L278.65632653061226,432.13214285714287" stroke="black" stroke-width="1.5" />
<path d="M278.65632653061226,432.13214285714287 L279.12285714285713,432.13214285714275" stroke="black" stroke-width="1.5" />
<path d="M279.12285714285713,432.13214285714275 L279.58938775510205,432.13214285714275" stroke="black" stroke-width="1.5" />
<path d="M279.58938775510205,432.13214285714275 L280.055918367347,432.13214285714275" stroke="black" stroke-width="1.5" />
<path d="M280.055918367347,432.13214285714275 L280.52244897959184,432.13214285714287" stroke="black" stroke-width="1.5" />
<path d="M280.52244897959184,432.13214285714287 L280.98897959183677,432.13214285714287" stroke="black" stroke-width="1.5" />
<path d="M280.98897959183677,432.13214285714287 L281.45551020408163,432.13214285714275" stroke="black" stroke-width="1.5" />
<path d="M281.45551020408163,432.13214285714275 L281.92204081632656,432.13214285714275" stroke="black" stroke-width="1.5" />
<path d="M281.92204081632656,432.13214285714275 L282.3885714285714,432.1321428571428" stroke="black" stroke-width="1.5" />
<path d="M282.3885714285714,432.1321428571428 L282.85510204081635,432.13214285714287" stroke="black" stroke-width="1.5" />
<path d="M282.85510204081635,432.13214285714287 L283.3216326530612,432.1321428571428" stroke="black" stroke-width="1.5" />
<path d="M283.3216326530612,432.1321428571428 L283.78816326530614,432.1321428571428" stroke="black" stroke-width="1.5" />
<path d="M283.78816326530614,432.1321428571428 L284.25469387755106,432.1321428571428" stroke="black" stroke-width="1.5" />
<path d="M284.25469387755106,432.1321428571428 L284.72122448979593,432.1321428571428" stroke="black" stroke-width="1.5" />
<path d="M284.72122448979593,432.1321428571428 L285.18775510204085,432.1321428571428" stroke="black" stroke-width="1.5" />
<path d="M285.18775510204085,432.1321428571428 L285.6542857142857,432.1321428571428" stroke="black" stroke-width="1.5" />
<path d="M285.6542857142857,432.1321428571428 L286.12081632653064,432.13214285714287" stroke="black" stroke-width="1.5" />
<path d="M286.12081632653064,432.13214285714287 L286.5873469387755,432.13214285714287" stroke="black" stroke-width="1.5" />
<path d="M286.5873469387755,432.13214285714287 L287.05387755102043,432.13214285714287" stroke="black" stroke-width="1.5" />
<path d="M287.05387755102043,432.13214285714287 L287.5204081632653,432.1321428571428" stroke="black" stroke-width="1.5" />
<path d="M287.5204081632653,432.1321428571428 L287.9869387755102,432.13214285714287" stroke="black" stroke-width="1.5" />
<path d="M287.9869387755102,432.13214285714287 L288.4534693877551,432.1321428571428" stroke="black" stroke-width="1.5" />
<path d="M288.4534693877551,432.1321428571428 L288.92,432.1321428571428" stroke="black" stroke-width="1.5" />
<path d="M283.52000000000004,451.70714285714286 C282.39500000000004,449.6821428571428,286.89500000000004,447.20714285714286,288.92,449.0071428571428 C290.045,451.03214285714284,285.545,453.5071428571428,283.52000000000004,451.70714285714286" stroke-width="0.30375" stroke="#444" fill="#444" />
<circle cx="291.17" cy="448.5571428571428" r="0.75" fill="#444" />
<path d="M288.92,449.0071428571428 L288.92,432.1321428571428" stroke="black" stroke-width="0.45" />
<path d="M288.92,432.1321428571428 L289.38653061224494,432.1321428571428" stroke="black" stroke-width="1.5" />
<path d="M289.38653061224494,432.1321428571428 L289.8530612244898,432.1321428571428" stroke="black" stroke-width="1.5" />
<path d="M289.8530612244898,432.1321428571428 L290.31959183673473,432.13214285714287" stroke="black" stroke-width="1.5" />
<path d="M290.31959183673473,432.13214285714287 L290.7861224489796,432.1321428571428" stroke="black" stroke-width="1.5" />
<path d="M290.7861224489796,432.1321428571428 L291.2526530612245,432.13214285714287" stroke="black" stroke-width="1.5" />
<path d="M291.2526530612245,432.13214285714287 L291.7191836734694,432.13214285714275" stroke="black" stroke-width="1.5" />
<path d="M291.7191836734694,432.13214285714275 L292.1857142857143,432.13214285714287" stroke="black" stroke-width="1.5" />
<path d="M292.1857142857143,432.13214285714287 L292.6522448979592,432.1321428571428" stroke="black" stroke-width="1.5" />
<path d="M292.6522448979592,432.1321428571428 L293.1187755102041,432.1321428571428" stroke="black" stroke-width="1.5" />
<path d="M293.1187755102041,432.1321428571428 L293.58530612244897,432.13214285714287" stroke="black" stroke-width="1.5" />
<path d="M293.58530612244897,432.13214285714287 L294.0518367346939,432.1321428571428" stroke="black" stroke-width="1.5" />
<path d="M294.0518367346939,432.1321428571428 L294.51836734693876,432.13214285714275" stroke="black" stroke-width="1.5" />
<path d="M294.51836734693876,432.13214285714275 L294.9848979591837,432.13214285714275" stroke="black" stroke-width="1.5" />
<path d="M294.9848979591837,432.13214285714275 L295.45142857142855,432.1321428571428" stroke="black" stroke-width="1.5" />
<path d="M295.45142857142855,432.1321428571428 L295.9179591836735,432.13214285714287" stroke="black" stroke-width="1.5" />
<path d="M295.9179591836735,432.13214285714287 L296.38448979591834,432.1321428571428" stroke="black" stroke-width="1.5" />
<path d="M296.38448979591834,432.1321428571428 L296.85102040816327,432.13214285714275" stroke="black" stroke-width="1.5" />
<path d="M296.85102040816327,432.13214285714275 L297.3175510204082,432.1321428571428" stroke="black" stroke-width="1.5" />
<path d="M297.3175510204082,432.1321428571428 L297.78408163265306,432.13214285714275" stroke="black" stroke-width="1.5" />
<path d="M297.78408163265306,432.13214285714275 L298.250612244898,432.1321428571428" stroke="black" stroke-width="1.5" />
<path d="M298.250612244898,432.1321428571428 L298.71714285714285,432.1321428571428" stroke="black" stroke-width="1.5" />
<path d="M298.71714285714285,432.1321428571428 L299.18367346938777,432.13214285714275" stroke="black" stroke-width="1.5" />
<path d="M299.18367346938777,432.13214285714275 L299.65020408163264,432.13214285714275" stroke="black" stroke-width="1.5" />
<path d="M299.65020408163264,432.13214285714275 L300.11673469387756,432.13214285714275" stroke="black" stroke-width="1.5" />
<path d="M300.11673469387756,432.13214285714275 L300.5832653061224,432.13214285714287" stroke="black" stroke-width="1.5" />
<path d="M300.5832653061224,432.13214285714287 L301.04979591836735,432.1321428571428" stroke="black" stroke-width="1.5" />
<path d="M301.04979591836735,432.1321428571428 L301.5163265306122,432.13214285714275" stroke="black" stroke-width="1.5" />
<path d="M301.5163265306122,432.13214285714275 L301.98285714285714,432.13214285714275" stroke="black" stroke-width="1.5" />
<path d="M301.98285714285714,432.13214285714275 L302.449387755102,432.1321428571428" stroke="black" stroke-width="1.5" />
<path d="M302.449387755102,432.1321428571428 L302.91591836734693,432.1321428571428" stroke="black" stroke-width="1.5" />
<path d="M302.91591836734693,432.1321428571428 L303.3824489795918,432.1321428571428" stroke="black" stroke-width="1.5" />
<path d="M303.3824489795918,432.1321428571428 L303.8489795918367,432.13214285714287" stroke="black" stroke-width="1.5" />
<path d="M303.8489795918367,432.13214285714287 L304.31551020408165,432.13214285714275" stroke="black" stroke-width="1.5" />
<path d="M304.31551020408165,432.13214285714275 L304.7820408163265,432.13214285714275" stroke="black" stroke-width="1.5" />
<path d="M304.7820408163265,432.13214285714275 L305.24857142857144,432.1321428571428" stroke="black" stroke-width="1.5" />
<path d="M305.24857142857144,432.1321428571428 L305.7151020408163,432.1321428571428" stroke="black" stroke-width="1.5" />
<path d="M305.7151020408163,432.1321428571428 L306.18163265306123,432.1321428571428" stroke="black" stroke-width="1.5" />
<path d="M306.18163265306123,432.1321428571428 L306.6481632653061,432.13214285714275" stroke="black" stroke-width="1.5" />
<path d="M306.6481632653061,432.13214285714275 L307.114693877551,432.13214285714287" stroke="black" stroke-width="1.5" />
<path d="M307.114693877551,432.13214285714287 L307.5812244897959,432.13214285714287" stroke="black" stroke-width="1.5" />
<path d="M307.5812244897959,432.13214285714287 L308.0477551020408,432.1321428571428" stroke="black" stroke-width="1.5" />
<path d="M308.0477551020408,432.1321428571428 L308.5142857142857,432.1321428571428" stroke="black" stroke-width="1.5" />
<path d="M308.5142857142857,432.1321428571428 L308.9808163265306,432.13214285714287" stroke="black" stroke-width="1.5" />
<path d="M308.9808163265306,432.13214285714287 L309.44734693877547,432.1321428571428" stroke="black" stroke-width="1.5" />
<path d="M309.44734693877547,432.1321428571428 L309.9138775510204,432.13214285714275" stroke="black" stroke-width="1.5" />
<path d="M309.9138775510204,432.13214285714275 L310.38040816326526,432.1321428571428" stroke="black" stroke-width="1.5" />
<path d="M310.38040816326526,432.1321428571428 L310.8469387755102,432.1321428571428" stroke="black" stroke-width="1.5" />
<path d="M310.8469387755102,432.1321428571428 L311.31346938775505,432.1321428571428" stroke="black" stroke-width="1.5" />
<path d="M311.31346938775505,432.1321428571428 L311.78,432.1321428571428" stroke="black" stroke-width="1.5" />
<path d="M306.38,451.70714285714286 C305.255,449.6821428571428,309.755,447.20714285714286,311.78,449.0071428571428 C312.905,451.03214285714284,308.405,453.5071428571428,306.38,451.70714285714286" stroke-width="0.30375" stroke="#444" fill="#444" />
<circle cx="314.03" cy="448.5571428571428" r="0.75" fill="#444" />
<path d="M311.78,449.0071428571428 L311.78,432.1321428571428" stroke="black" stroke-width="0.45" />
<path d="M309.53,432.13214285714287 L309.78,432.1321428571428" stroke="black" stroke-width="1.5" />
<path d="M309.78,432.1321428571428 L310.03,432.1321428571428" stroke="black" stroke-width="1.5" />
<path d="M310.03,432.1321428571428 L310.28,432.1321428571428" stroke="black" stroke-width="1.5" />
<path d="M310.28,432.1321428571428 L310.53,432.13214285714275" stroke="black" stroke-width="1.5" />
<path d="M310.53,432.13214285714275 L310.78,432.13214285714275" stroke="black" stroke-width="1.5" />
<path d="M310.78,432.13214285714275 L311.03,432.1321428571428" stroke="black" stroke-width="1.5" />
<path d="M311.03,432.1321428571428 L311.28,432.1321428571428" stroke="black" stroke-width="1.5" />
<path d="M311.28,432.1321428571428 L311.53,432.1321428571428" stroke="black" stroke-width="1.5" />
<path d="M311.53,432.1321428571428 L311.78,432.1321428571428" stroke="black" stroke-width="1.5" />
<path d="M329.42,446.57714285714286 Q331.94,449.5696428571428,335.09,447.20714285714286 Q331.94,450.35714285714283,331.94,455.08214285714286" stroke="#444" fill="none" stroke-width="0.6749999999999999" />
<circle cx="336.66499999999996" cy="448.78214285714284" r="0.63" fill="#444" />
<path d="M262.735,460.35714285714283 Q262.735,459.60714285714283,263.36,460.85714285714283 Q263.36,464.73214285714283,260.86,471.85714285714283 M263.36,460.85714285714283 C268.36,457.85714285714283,268.36,466.60714285714283,263.36,464.73214285714283" stroke="black" fill="none" stroke-width="0.8333333333333334" />
<path d="M352.1,489.9214285714286 C350.975,487.89642857142854,355.475,485.4214285714286,357.5,487.22142857142853 C358.625,489.24642857142857,354.125,491.72142857142853,352.1,489.9214285714286" stroke="black" fill="none" stroke-width="0.675" />
<path d="M357.5,487.22142857142853 L357.5,474.26142857142855" stroke="black" stroke-width="0.45" />
<path d="M416.34499999999997,495.59142857142854 Q412.835,490.03392857142853,417.22249999999997,491.20392857142855 L415.175,487.69392857142856 L416.93,485.64642857142854 Q415.76,484.4764285714285,415.76,483.30642857142857" stroke="#444" fill="none" stroke-width="0.6749999999999999" />
<path d="M354.8,463.57142857142856 L356.36770507042024,461.1104164065469 L358.09147802429226,466.4917590106205 L359.3132890352833,461.084820016567 L361.01286067335354,465.89609581519744 L362.92080116997965,461.40535888593445 L364.8321790058477,465.8395660843284 L366.78954071740384,461.2618654464791 L368.29378953438714,466.2776343777962 L369.9452039333539,461.05368081528 L371.2570482579049,466.15937328322303 L372.7689399162602,461.3636100968906 L374.3922050029861,466.50558293056235 L376.2126049976981,461.4960532023545 L378.1202586186494,466.29737785890586 L379.86504134292676,461.3800258381244 L381.5179512703613,465.6301874678272 L382.7445677996061,461.2983288390914 L383.85083378225164,466.4469197428768 L385.7047767894365,461.04906590606964 L386.91525572813214,465.81626054939755 L388.3381733765218,460.69084681206226 L389.37004644664853,466.2883896703335 L390.5419274387743,461.2090716601253 L391.6248306161789,466.2441940128421 L392.6501753310058,460.6168664060828 L393.671320200729,466.3008520788704 L395.48467458813127,461.31573851737113 L396.66841339738227,465.72854686011533 L398.0539792787348,460.87993314541495 L400.0439808249376,465.61458956722606 L401.080249819181,461.420008462672 L402.69548930250585,465.91562957696533 L403.8086042055239,460.82896894830276 L404.8394150631506,465.9086423446252 L406.6053849997387,461.12277530893624 L408.5074051580887,466.3113752351492 L410.36985093441416,460.8157664177535" fill="none" stroke="black" stroke-width="0.6000000000000001" />
<path d="M356.65000000000003,499.57142857142856 Q356.65000000000003,498.57142857142856,355.6,498.57142857142856 C354.20000000000005,498.57142857142856,353.85,510.57142857142856,353.50000000000006,511.07142857142856 Q352.8,511.07142857142856,352.8,510.07142857142856 M353.15000000000003,503.57142857142856 H355.95000000000005" stroke="black" fill="none" stroke-width="0.8333333333333334" />
<path d="M359.95,499.57142857142856 Q359.95,498.57142857142856,358.9,498.57142857142856 C357.5,498.57142857142856,357.15,510.57142857142856,356.8,511.07142857142856 Q356.09999999999997,511.07142857142856,356.09999999999997,510.07142857142856 M356.45,503.57142857142856 H359.25" stroke="black" fill="none" stroke-width="0.8333333333333334" />
<path d="M443.54,438.9690476190476 C442.415,436.9440476190476,446.915,434.4690476190476,448.94,436.26904761904757 C450.065,438.2940476190476,445.565,440.76904761904757,443.54,438.9690476190476" fill="#444" />
<path d="M443.54,438.06904761904764 L443.54,452.4690476190476" stroke="black" stroke-width="0.45" />
<path d="M474.02000000000004,431.9690476190476 C472.89500000000004,429.9440476190476,477.39500000000004,427.4690476190476,479.42,429.26904761904757 C480.545,431.2940476190476,476.045,433.76904761904757,474.02000000000004,431.9690476190476" fill="#444" />
<path d="M474.02000000000004,431.06904761904764 L474.02000000000004,445.4690476190476" stroke="black" stroke-width="0.45" />
<text x="444.24" y="422.6190476190476" font-size="10" font-family="Cantarell Light">quasi Rohre</text>
<path d="M445.615,457.6190476190476 Q445.615,456.8690476190476,446.24,458.1190476190476 Q446.24,461.9940476190476,443.74,469.1190476190476 M446.24,458.1190476190476 C451.24,455.1190476190476,451.24,463.8690476190476,446.24,461.9940476190476" stroke="black" fill="none" stroke-width="0.8333333333333334" />
<path d="M598.64,468.19047619047615 C610.63932373356,443.20622210150634,610.63932373356,469.04583573909736,614.1119217668663,456.12602892030185 C617.9033609617195,437.17036506346096,617.9033609617195,461.8998902233459,621.6948001565728,449.5351276434034 C625.8458130113684,431.13041634427185,625.8458130113684,460.18257702633406,629.9968258661639,445.65649668530295 C633.0984498568201,437.5505949551573,633.0984498568201,453.2119526650815,636.2000738474763,445.3812738101194 C639.1597453485746,441.9885203316727,639.1597453485746,453.7819176772473,642.1194168496728,447.88521900446 C646.6667775946177,440.13372243774666,646.6667775946177,464.7371388350314,651.2141383395626,452.435430636389 C654.1530906777665,456.5731596319117,654.1530906777665,470.5038371063238,657.0920430159704,463.53849836911775 C661.5090887180443,459.93242555581816,661.5090887180443,486.7967691461807,665.926134420118,473.3645973509994" fill="none" stroke="black" stroke-width="0.3" />
<text x="596.64" y="433.19047619047615" font-size="10" font-family="Cantarell Light">Sinus als Quietschtier</text>
<path d="M598.015,483.19047619047615 Q598.015,482.44047619047615,598.64,483.69047619047615 Q598.64,487.56547619047615,596.14,494.69047619047615 M598.64,483.69047619047615 C603.64,480.69047619047615,603.64,489.44047619047615,598.64,487.56547619047615" stroke="black" fill="none" stroke-width="0.8333333333333334" />
<path d="M751.04,468.19047619047615 C760.3758211343909,454.22771558821427,760.3758211343909,463.5244734524677,763.4285958263415,458.876094520341 C765.977984920495,448.5698506041428,765.977984920495,455.6353346190995,768.5273740146484,452.10259261162116 C771.6201471955978,440.126233500671,771.6201471955978,456.2064241531664,774.7129203765472,448.1663288269187 C778.2245440897996,434.4118271021821,778.2245440897996,456.57413220812634,781.7361678030519,445.4929796551542 C785.0468717037434,432.4703221223617,785.0468717037434,458.0319848032084,788.3575756044349,445.25115346278506 C791.5401926461119,441.26374953182415,791.5401926461119,454.22386343699657,794.7228096877888,447.74380648441036 C798.1398937006114,441.7550153344869,798.1398937006114,463.5035444367008,801.5569777134342,452.62927988559386 C805.8362678316319,446.24186811454854,805.8362678316319,474.9403356374863,810.1155579498294,460.59110187601743 C813.4642812931917,468.4034935192877,813.4642812931917,480.6545049066686,816.813004636554,474.52899921297814" fill="none" stroke="black" stroke-width="0.3" />
<text x="749.04" y="433.19047619047615" font-size="10" font-family="Cantarell Light">fast gleich</text>
<path d="M750.415,483.19047619047615 Q750.415,482.44047619047615,751.04,483.69047619047615 Q751.04,487.56547619047615,748.54,494.69047619047615 M751.04,483.69047619047615 C756.04,480.69047619047615,756.04,489.44047619047615,751.04,487.56547619047615" stroke="black" fill="none" stroke-width="0.8333333333333334" />
</svg>