<?xml version="1.0" encoding="UTF-8"?>
<svg xmlns="http://www.w3.org/2000/svg" xmlns:xlink="http://www.w3.org/1999/xlink"
    width="3368" height="2380" viewBox="0 0 842 595" font-family="Simvoni">
<defs>
</defs>
<text x="421.0" y="585" font-size="10" text-anchor="middle">19</text>
<text x="16.0" y="125.53571428571428" font-size="24" dominant-baseline="middle">V</text>
<path d="M50.0,70.47619047619048 L50.0,60.47619047619048" stroke="black" stroke-width="0.3" />
<text x="50.0" y="55.476190476190474" font-size="7" text-anchor="middle">450</text>
<path d="M80.48,70.47619047619048 L80.48,65.47619047619048" stroke="black" stroke-width="0.3" />
<path d="M110.96000000000001,70.47619047619048 L110.96000000000001,65.47619047619048" stroke="black" stroke-width="0.3" />
<path d="M141.44,70.47619047619048 L141.44,65.47619047619048" stroke="black" stroke-width="0.3" />
<path d="M171.92000000000002,70.47619047619048 L171.92000000000002,65.47619047619048" stroke="black" stroke-width="0.3" />
<path d="M202.4,70.47619047619048 L202.4,60.47619047619048" stroke="black" stroke-width="0.3" />
<text x="202.4" y="55.476190476190474" font-size="7" text-anchor="middle">455</text>
<path d="M232.88,70.47619047619048 L232.88,65.47619047619048" stroke="black" stroke-width="0.3" />
<path d="M263.36,70.47619047619048 L263.36,65.47619047619048" stroke="black" stroke-width="0.3" />
<path d="M293.84000000000003,70.47619047619048 L293.84000000000003,65.47619047619048" stroke="black" stroke-width="0.3" />
<path d="M324.32,70.47619047619048 L324.32,65.47619047619048" stroke="black" stroke-width="0.3" />
<path d="M354.8,70.47619047619048 L354.8,60.47619047619048" stroke="black" stroke-width="0.3" />
<path d="M385.28000000000003,70.47619047619048 L385.28000000000003,65.47619047619048" stroke="black" stroke-width="0.3" />
<path d="M415.76,70.47619047619048 L415.76,65.47619047619048" stroke="black" stroke-width="0.3" />
<path d="M446.24,70.47619047619048 L446.24,65.47619047619048" stroke="black" stroke-width="0.3" />
<path d="M476.72,70.47619047619048 L476.72,65.47619047619048" stroke="black" stroke-width="0.3" />
<path d="M507.2,70.47619047619048 L507.2,60.47619047619048" stroke="black" stroke-width="0.3" />
<text x="507.2" y="55.476190476190474" font-size="7" text-anchor="middle">465</text>
<path d="M537.6800000000001,70.47619047619048 L537.6800000000001,65.47619047619048" stroke="black" stroke-width="0.3" />
<path d="M568.16,70.47619047619048 L568.16,65.47619047619048" stroke="black" stroke-width="0.3" />
<path d="M598.64,70.47619047619048 L598.64,65.47619047619048" stroke="black" stroke-width="0.3" />
<text x="598.64" y="50.476190476190474" font-size="12" text-anchor="middle">468</text>
<path d="M598.64,55.476190476190474 V75.47619047619048 M594.64,71.47619047619048 L598.64,75.47619047619048 L602.64,71.47619047619048" stroke-width="1" stroke="black" fill="none" transform="rotate(0.000000 598.640000 55.476190)" />
<path d="M629.12,70.47619047619048 L629.12,65.47619047619048" stroke="black" stroke-width="0.3" />
<path d="M659.6,70.47619047619048 L659.6,60.47619047619048" stroke="black" stroke-width="0.3" />
<text x="659.6" y="55.476190476190474" font-size="7" text-anchor="middle">470</text>
<path d="M690.08,70.47619047619048 L690.08,65.47619047619048" stroke="black" stroke-width="0.3" />
<path d="M720.5600000000001,70.47619047619048 L720.5600000000001,65.47619047619048" stroke="black" stroke-width="0.3" />
<path d="M751.04,70.47619047619048 L751.04,65.47619047619048" stroke="black" stroke-width="0.3" />
<path d="M781.52,70.47619047619048 L781.52,65.47619047619048" stroke="black" stroke-width="0.3" />
<path d="M812.0,70.47619047619048 L812.0,60.47619047619048" stroke="black" stroke-width="0.3" />
<text x="812.0" y="55.476190476190474" font-size="7" text-anchor="middle">475</text>
<text x="16.0" y="291.13095238095235" font-size="24" dominant-baseline="middle">P</text>
<path d="M50.0,210.59523809523807 L50.0,200.59523809523807" stroke="black" stroke-width="0.3" />
<text x="50.0" y="190.59523809523807" font-size="12" text-anchor="middle">450</text>
<path d="M50.0,195.59523809523807 V215.59523809523807 M46.0,211.59523809523807 L50.0,215.59523809523807 L54.0,211.59523809523807" stroke-width="1" stroke="black" fill="none" transform="rotate(0.000000 50.000000 195.595238)" />
<path d="M80.48,210.59523809523807 L80.48,205.59523809523807" stroke="black" stroke-width="0.3" />
<path d="M110.96000000000001,210.59523809523807 L110.96000000000001,205.59523809523807" stroke="black" stroke-width="0.3" />
<path d="M141.44,210.59523809523807 L141.44,205.59523809523807" stroke="black" stroke-width="0.3" />
<path d="M171.92000000000002,210.59523809523807 L171.92000000000002,205.59523809523807" stroke="black" stroke-width="0.3" />
<path d="M202.4,210.59523809523807 L202.4,200.59523809523807" stroke="black" stroke-width="0.3" />
<text x="202.4" y="195.59523809523807" font-size="7" text-anchor="middle">455</text>
<path d="M232.88,210.59523809523807 L232.88,205.59523809523807" stroke="black" stroke-width="0.3" />
<path d="M263.36,210.59523809523807 L263.36,205.59523809523807" stroke="black" stroke-width="0.3" />
<path d="M293.84000000000003,210.59523809523807 L293.84000000000003,205.59523809523807" stroke="black" stroke-width="0.3" />
<path d="M324.32,210.59523809523807 L324.32,205.59523809523807" stroke="black" stroke-width="0.3" />
<path d="M354.8,210.59523809523807 L354.8,200.59523809523807" stroke="black" stroke-width="0.3" />
<text x="354.8" y="195.59523809523807" font-size="7" text-anchor="middle">460</text>
<path d="M385.28000000000003,210.59523809523807 L385.28000000000003,205.59523809523807" stroke="black" stroke-width="0.3" />
<path d="M415.76,210.59523809523807 L415.76,205.59523809523807" stroke="black" stroke-width="0.3" />
<path d="M446.24,210.59523809523807 L446.24,205.59523809523807" stroke="black" stroke-width="0.3" />
<path d="M476.72,210.59523809523807 L476.72,205.59523809523807" stroke="black" stroke-width="0.3" />
<path d="M507.2,210.59523809523807 L507.2,200.59523809523807" stroke="black" stroke-width="0.3" />
<text x="507.2" y="195.59523809523807" font-size="7" text-anchor="middle">465</text>
<path d="M537.6800000000001,210.59523809523807 L537.6800000000001,205.59523809523807" stroke="black" stroke-width="0.3" />
<path d="M568.16,210.59523809523807 L568.16,205.59523809523807" stroke="black" stroke-width="0.3" />
<path d="M598.64,210.59523809523807 L598.64,205.59523809523807" stroke="black" stroke-width="0.3" />
<path d="M629.12,210.59523809523807 L629.12,205.59523809523807" stroke="black" stroke-width="0.3" />
<path d="M659.6,210.59523809523807 L659.6,200.59523809523807" stroke="black" stroke-width="0.3" />
<text x="659.6" y="195.59523809523807" font-size="7" text-anchor="middle">470</text>
<path d="M690.08,210.59523809523807 L690.08,205.59523809523807" stroke="black" stroke-width="0.3" />
<path d="M720.5600000000001,210.59523809523807 L720.5600000000001,205.59523809523807" stroke="black" stroke-width="0.3" />
<path d="M751.04,210.59523809523807 L751.04,205.59523809523807" stroke="black" stroke-width="0.3" />
<path d="M781.52,210.59523809523807 L781.52,205.59523809523807" stroke="black" stroke-width="0.3" />
<path d="M812.0,210.59523809523807 L812.0,200.59523809523807" stroke="black" stroke-width="0.3" />
<text x="812.0" y="195.59523809523807" font-size="7" text-anchor="middle">475</text>
<text x="16.0" y="475.8333333333333" font-size="24" dominant-baseline="middle">E</text>
<path d="M50.0,401.66666666666663 L50.0,391.66666666666663" stroke="black" stroke-width="0.3" />
<text x="50.0" y="386.66666666666663" font-size="7" text-anchor="middle">450</text>
<path d="M80.48,401.66666666666663 L80.48,396.66666666666663" stroke="black" stroke-width="0.3" />
<path d="M110.96000000000001,401.66666666666663 L110.96000000000001,396.66666666666663" stroke="black" stroke-width="0.3" />
<path d="M141.44,401.66666666666663 L141.44,396.66666666666663" stroke="black" stroke-width="0.3" />
<path d="M171.92000000000002,401.66666666666663 L171.92000000000002,396.66666666666663" stroke="black" stroke-width="0.3" />
<path d="M202.4,401.66666666666663 L202.4,391.66666666666663" stroke="black" stroke-width="0.3" />
<text x="202.4" y="381.66666666666663" font-size="12" text-anchor="middle">455</text>
<path d="M202.4,386.66666666666663 V406.66666666666663 M198.4,402.66666666666663 L202.4,406.66666666666663 L206.4,402.66666666666663" stroke-width="1" stroke="black" fill="none" transform="rotate(0.000000 202.400000 386.666667)" />
<path d="M232.88,401.66666666666663 L232.88,396.66666666666663" stroke="black" stroke-width="0.3" />
<path d="M263.36,401.66666666666663 L263.36,396.66666666666663" stroke="black" stroke-width="0.3" />
<path d="M293.84000000000003,401.66666666666663 L293.84000000000003,396.66666666666663" stroke="black" stroke-width="0.3" />
<path d="M324.32,401.66666666666663 L324.32,396.66666666666663" stroke="black" stroke-width="0.3" />
<path d="M354.8,401.66666666666663 L354.8,391.66666666666663" stroke="black" stroke-width="0.3" />
<text x="354.8" y="386.66666666666663" font-size="7" text-anchor="middle">460</text>
<path d="M385.28000000000003,401.66666666666663 L385.28000000000003,396.66666666666663" stroke="black" stroke-width="0.3" />
<path d="M415.76,401.66666666666663 L415.76,396.66666666666663" stroke="black" stroke-width="0.3" />
<path d="M446.24,401.66666666666663 L446.24,396.66666666666663" stroke="black" stroke-width="0.3" />
<path d="M476.72,401.66666666666663 L476.72,396.66666666666663" stroke="black" stroke-width="0.3" />
<path d="M507.2,401.66666666666663 L507.2,391.66666666666663" stroke="black" stroke-width="0.3" />
<text x="507.2" y="386.66666666666663" font-size="7" text-anchor="middle">465</text>
<path d="M537.6800000000001,401.66666666666663 L537.6800000000001,396.66666666666663" stroke="black" stroke-width="0.3" />
<path d="M568.16,401.66666666666663 L568.16,396.66666666666663" stroke="black" stroke-width="0.3" />
<path d="M598.64,401.66666666666663 L598.64,396.66666666666663" stroke="black" stroke-width="0.3" />
<path d="M629.12,401.66666666666663 L629.12,396.66666666666663" stroke="black" stroke-width="0.3" />
<path d="M659.6,401.66666666666663 L659.6,391.66666666666663" stroke="black" stroke-width="0.3" />
<text x="659.6" y="386.66666666666663" font-size="7" text-anchor="middle">470</text>
<path d="M690.08,401.66666666666663 L690.08,396.66666666666663" stroke="black" stroke-width="0.3" />
<path d="M720.5600000000001,401.66666666666663 L720.5600000000001,396.66666666666663" stroke="black" stroke-width="0.3" />
<path d="M751.04,401.66666666666663 L751.04,396.66666666666663" stroke="black" stroke-width="0.3" />
<path d="M781.52,401.66666666666663 L781.52,396.66666666666663" stroke="black" stroke-width="0.3" />
<path d="M812.0,401.66666666666663 L812.0,391.66666666666663" stroke="black" stroke-width="0.3" />
<text x="812.0" y="386.66666666666663" font-size="7" text-anchor="middle">475</text>
<text x="596.64" y="96.23809523809524" font-size="16">SCHMRZT</text>
<path d="M596.64,106.42857142857142 L599.0746926772781,102.77850045465735 L600.6694400573658,110.2602730539214 L603.4887875161673,103.39291864811153 L606.1559501259823,110.02818951352427 L608.5423892911843,103.10227807602315 L610.3928577476347,109.62389280608069 L611.8997484058767,103.13441985792515 L614.3819508643869,109.51356018994674 L616.7088524678288,103.02179269068624 L618.3336576840348,110.36025665155638 L620.970642757605,103.17457668567667 L622.5152706260288,109.94145606992848 L624.1771609994123,102.8654291679135 L626.1135153391294,109.53637453373636 L627.6388510479187,103.36174492143488 L629.4591035656381,110.11346890352007 L631.0375874541821,102.50152928023262 L633.6009361691606,109.80403463847136 L635.950298787966,103.00878002759465 L638.4626625414685,109.62706156229288 L640.4294769849291,103.09167859212626 L642.5445533639381,109.44372093970065 L644.2464480672189,102.50572372459305 L645.7628805878904,110.1355874577881 L647.9931155257558,102.96363158249518 L649.7756937271328,110.11064887037773 L652.7536158358861,102.919705988749 L654.8824615794646,110.19809342592609 L656.9747416367692,103.04481964045809 L658.4754479995285,110.4186236757147 L661.4377335904835,102.56423748625548" fill="none" stroke="black" stroke-width="0.6400000000000001" />
<path d="M595.9399999999999,138.35 C594.8149999999999,136.325,599.3149999999999,133.85,601.34,135.65 C602.465,137.675,597.965,140.15,595.9399999999999,138.35" stroke="black" fill="none" stroke-width="0.675" />
<path d="M601.34,135.65 L601.34,117.506" stroke="black" stroke-width="0.45" />
<circle cx="601.24" cy="125.0" r="2" stroke="black" stroke-width="0.4" fill="none" />
<path d="M600.49,148.0 Q600.49,147.0,599.44,147.0 C598.04,147.0,597.69,159.0,597.34,159.5 Q596.64,159.5,596.64,158.5 M596.99,152.0 H599.79" stroke="black" fill="none" stroke-width="0.8333333333333334" />
<path d="M603.79,148.0 Q603.79,147.0,602.74,147.0 C601.3399999999999,147.0,600.99,159.0,600.64,159.5 Q599.9399999999999,159.5,599.9399999999999,158.5 M600.29,152.0 H603.0899999999999" stroke="black" fill="none" stroke-width="0.8333333333333334" />
<text x="50.0" y="246.54761904761904" font-size="12" font-family="Cantarell">Waldteufel</text>
<path d="M50.0,335.71428571428567 C141.44,335.71428571428567,202.4,233.8095238095238,324.32,233.8095238095238 C446.24,233.8095238095238,507.2,335.71428571428567,598.64,335.71428571428567" stroke="black" stroke-width="0.5" fill="none" />
<text x="324.32" y="284.76190476190476" font-size="12" font-family="Cantarell Light" text-anchor="middle">Den Waldteufel langsam nehmen,</text>
<text x="324.32" y="299.76190476190476" font-size="12" font-family="Cantarell Light" text-anchor="middle">hochhalten, anspannen.</text>
<text x="324.32" y="314.76190476190476" font-size="12" font-family="Cantarell Light" text-anchor="middle">Es kommt aber entweder nichts, oder höchstens ein Knackser.</text>
<text x="552.9200000000001" y="314.76190476190476" font-size="12" font-family="Cantarell Light" text-anchor="middle">Langsam weglegen.</text>
<circle cx="552.9200000000001" cy="294.76190476190476" r="2.0" fill="black" />
<path d="M542.9200000000001,296.76190476190476 A10,10,0,1,1,562.9200000000001,296.76190476190476 A10,9.0,0,1,0,542.9200000000001,296.76190476190476" fill="black" stroke="black" stroke-width="1.0" transform="rotate(0.000000,552.920000,294.761905)" />
<text x="202.4" y="437.6190476190476" font-size="10" font-family="Cantarell Light">einzelne Knackser, quasi Waldteufel</text>
<path d="M201.81071533486764,514.047619047619 L202.4,511.69048038708956 L202.98928466513237,514.047619047619 L202.4,516.4047577081485 L201.81071533486764,514.047619047619" stroke="black" stroke-width="0" fill="black" />
<path d="M259.3688420619815,498.4498951868141 L260.31199999999933,494.67726343474294 L261.25515793801713,498.4498951868141 L260.31199999999933,502.22252693888527 L259.3688420619815,498.4498951868141" stroke="black" stroke-width="0" fill="black" />
<path d="M329.785119045203,483.79339448581635 L330.41599999999966,481.2698706666295 L331.04688095479634,483.79339448581635 L330.41599999999966,486.3169183050032 L329.785119045203,483.79339448581635" stroke="black" stroke-width="0" fill="black" />
<path d="M372.6995047421095,467.9195461973174 L373.0880000000007,466.3655651657528 L373.4764952578919,467.9195461973174 L373.0880000000007,469.473527228882 L372.6995047421095,467.9195461973174" stroke="black" stroke-width="0" fill="black" />
<path d="M454.66158795983773,452.80045980689937 L455.38400000000036,449.910811646249 L456.106412040163,452.80045980689937 L455.38400000000036,455.69010796754975 L454.66158795983773,452.80045980689937" stroke="black" stroke-width="0" fill="black" />
<path d="M488.5914074078274,434.8706910816998 L488.9119999999993,433.58832071301214 L489.2325925921712,434.8706910816998 L488.9119999999993,436.1530614503875 L488.5914074078274,434.8706910816998" stroke="black" stroke-width="0" fill="black" />
<path d="M327.7823999999999,486.57142857142856 L328.2823999999999,484.57142857142856 L328.7823999999999,486.57142857142856 L328.2823999999999,488.57142857142856 L327.7823999999999,486.57142857142856" stroke="black" stroke-width="0" fill="black" />
<path d="M209.1,539.047619047619 L209.1,544.047619047619 Q209.1,539.047619047619,210.35,539.047619047619 Q211.6,539.047619047619,211.6,544.047619047619 Q211.6,539.047619047619,212.85,539.047619047619 Q214.1,539.047619047619,214.1,544.047619047619" stroke="black" fill="none" stroke-width="0.8333333333333334" />
<path d="M219.20000000000002,535.047619047619 Q219.20000000000002,534.047619047619,218.15,534.047619047619 C216.75000000000003,534.047619047619,216.4,546.047619047619,216.05,546.547619047619 Q215.35000000000002,546.547619047619,215.35000000000002,545.547619047619 M215.70000000000002,539.047619047619 H218.50000000000003" stroke="black" fill="none" stroke-width="0.8333333333333334" />
<text x="220.4" y="544.047619047619" font-size="14">-</text>
<path d="M230.9,535.047619047619 Q230.9,534.047619047619,229.85,534.047619047619 C228.45000000000002,534.047619047619,228.1,546.047619047619,227.75,546.547619047619 Q227.05,546.547619047619,227.05,545.547619047619 M227.4,539.047619047619 H230.20000000000002" stroke="black" fill="none" stroke-width="0.8333333333333334" />
</svg>