<?xml version="1.0" encoding="UTF-8"?>
<svg xmlns="http://www.w3.org/2000/svg" xmlns:xlink="http://www.w3.org/1999/xlink"
    width="3368" height="2380" viewBox="0 0 842 595" font-family="Simvoni">
<defs>
</defs>
<text x="20.0" y="112.79761904761904" font-size="24" dominant-baseline="middle">V</text>
<path d="M50.0,70.47619047619048 L50.0,60.47619047619048" stroke="black" stroke-width="0.5" />
<text x="50.0" y="55.476190476190474" font-size="8" text-anchor="middle">25</text>
<path d="M80.48,70.47619047619048 L80.48,65.47619047619048" stroke="black" stroke-width="0.5" />
<path d="M110.96000000000001,70.47619047619048 L110.96000000000001,65.47619047619048" stroke="black" stroke-width="0.5" />
<path d="M141.44,70.47619047619048 L141.44,65.47619047619048" stroke="black" stroke-width="0.5" />
<path d="M171.92000000000002,70.47619047619048 L171.92000000000002,65.47619047619048" stroke="black" stroke-width="0.5" />
<path d="M202.4,70.47619047619048 L202.4,60.47619047619048" stroke="black" stroke-width="0.5" />
<text x="202.4" y="55.476190476190474" font-size="8" text-anchor="middle">30</text>
<path d="M232.88,70.47619047619048 L232.88,65.47619047619048" stroke="black" stroke-width="0.5" />
<path d="M263.36,70.47619047619048 L263.36,65.47619047619048" stroke="black" stroke-width="0.5" />
<path d="M293.84000000000003,70.47619047619048 L293.84000000000003,65.47619047619048" stroke="black" stroke-width="0.5" />
<path d="M324.32,70.47619047619048 L324.32,65.47619047619048" stroke="black" stroke-width="0.5" />
<path d="M354.8,70.47619047619048 L354.8,60.47619047619048" stroke="black" stroke-width="0.5" />
<path d="M385.28000000000003,70.47619047619048 L385.28000000000003,65.47619047619048" stroke="black" stroke-width="0.5" />
<text x="385.28000000000003" y="50.476190476190474" font-size="12" text-anchor="middle">36</text>
<path d="M385.28000000000003,55.476190476190474 V75.47619047619048 M381.28000000000003,71.47619047619048 L385.28000000000003,75.47619047619048 L389.28000000000003,71.47619047619048" stroke-width="1" stroke="black" fill="none" transform="rotate(0.000000 385.280000 55.476190)" />
<path d="M415.76,70.47619047619048 L415.76,65.47619047619048" stroke="black" stroke-width="0.5" />
<path d="M446.24,70.47619047619048 L446.24,65.47619047619048" stroke="black" stroke-width="0.5" />
<path d="M476.72,70.47619047619048 L476.72,65.47619047619048" stroke="black" stroke-width="0.5" />
<path d="M507.2,70.47619047619048 L507.2,60.47619047619048" stroke="black" stroke-width="0.5" />
<text x="507.2" y="55.476190476190474" font-size="8" text-anchor="middle">40</text>
<path d="M537.6800000000001,70.47619047619048 L537.6800000000001,65.47619047619048" stroke="black" stroke-width="0.5" />
<path d="M568.16,70.47619047619048 L568.16,65.47619047619048" stroke="black" stroke-width="0.5" />
<path d="M598.64,70.47619047619048 L598.64,65.47619047619048" stroke="black" stroke-width="0.5" />
<path d="M629.12,70.47619047619048 L629.12,65.47619047619048" stroke="black" stroke-width="0.5" />
<path d="M659.6,70.47619047619048 L659.6,60.47619047619048" stroke="black" stroke-width="0.5" />
<text x="659.6" y="55.476190476190474" font-size="8" text-anchor="middle">45</text>
<path d="M690.08,70.47619047619048 L690.08,65.47619047619048" stroke="black" stroke-width="0.5" />
<path d="M720.5600000000001,70.47619047619048 L720.5600000000001,65.47619047619048" stroke="black" stroke-width="0.5" />
<path d="M751.04,70.47619047619048 L751.04,65.47619047619048" stroke="black" stroke-width="0.5" />
<path d="M781.52,70.47619047619048 L781.52,65.47619047619048" stroke="black" stroke-width="0.5" />
<path d="M812.0,70.47619047619048 L812.0,60.47619047619048" stroke="black" stroke-width="0.5" />
<text x="812.0" y="55.476190476190474" font-size="8" text-anchor="middle">50</text>
<text x="20.0" y="278.3928571428571" font-size="24" dominant-baseline="middle">P</text>
<path d="M50.0,185.11904761904762 L50.0,175.11904761904762" stroke="black" stroke-width="0.5" />
<text x="50.0" y="170.11904761904762" font-size="8" text-anchor="middle">25</text>
<path d="M80.48,185.11904761904762 L80.48,180.11904761904762" stroke="black" stroke-width="0.5" />
<path d="M110.96000000000001,185.11904761904762 L110.96000000000001,180.11904761904762" stroke="black" stroke-width="0.5" />
<path d="M141.44,185.11904761904762 L141.44,180.11904761904762" stroke="black" stroke-width="0.5" />
<path d="M171.92000000000002,185.11904761904762 L171.92000000000002,180.11904761904762" stroke="black" stroke-width="0.5" />
<path d="M202.4,185.11904761904762 L202.4,175.11904761904762" stroke="black" stroke-width="0.5" />
<path d="M232.88,185.11904761904762 L232.88,180.11904761904762" stroke="black" stroke-width="0.5" />
<text x="232.88" y="165.11904761904762" font-size="12" text-anchor="middle">31</text>
<path d="M232.88,170.11904761904762 V190.11904761904762 M228.88,186.11904761904762 L232.88,190.11904761904762 L236.88,186.11904761904762" stroke-width="1" stroke="black" fill="none" transform="rotate(0.000000 232.880000 170.119048)" />
<path d="M263.36,185.11904761904762 L263.36,180.11904761904762" stroke="black" stroke-width="0.5" />
<path d="M293.84000000000003,185.11904761904762 L293.84000000000003,180.11904761904762" stroke="black" stroke-width="0.5" />
<path d="M324.32,185.11904761904762 L324.32,180.11904761904762" stroke="black" stroke-width="0.5" />
<text x="324.32" y="165.11904761904762" font-size="12" text-anchor="middle">34</text>
<path d="M324.32,170.11904761904762 V190.11904761904762 M320.32,186.11904761904762 L324.32,190.11904761904762 L328.32,186.11904761904762" stroke-width="1" stroke="black" fill="none" transform="rotate(0.000000 324.320000 170.119048)" />
<path d="M354.8,185.11904761904762 L354.8,175.11904761904762" stroke="black" stroke-width="0.5" />
<path d="M385.28000000000003,185.11904761904762 L385.28000000000003,180.11904761904762" stroke="black" stroke-width="0.5" />
<path d="M415.76,185.11904761904762 L415.76,180.11904761904762" stroke="black" stroke-width="0.5" />
<path d="M446.24,185.11904761904762 L446.24,180.11904761904762" stroke="black" stroke-width="0.5" />
<path d="M476.72,185.11904761904762 L476.72,180.11904761904762" stroke="black" stroke-width="0.5" />
<path d="M507.2,185.11904761904762 L507.2,175.11904761904762" stroke="black" stroke-width="0.5" />
<text x="507.2" y="165.11904761904762" font-size="12" text-anchor="middle">40</text>
<path d="M507.2,170.11904761904762 V190.11904761904762 M503.2,186.11904761904762 L507.2,190.11904761904762 L511.2,186.11904761904762" stroke-width="1" stroke="black" fill="none" transform="rotate(0.000000 507.200000 170.119048)" />
<path d="M537.6800000000001,185.11904761904762 L537.6800000000001,180.11904761904762" stroke="black" stroke-width="0.5" />
<path d="M568.16,185.11904761904762 L568.16,180.11904761904762" stroke="black" stroke-width="0.5" />
<path d="M598.64,185.11904761904762 L598.64,180.11904761904762" stroke="black" stroke-width="0.5" />
<path d="M629.12,185.11904761904762 L629.12,180.11904761904762" stroke="black" stroke-width="0.5" />
<path d="M659.6,185.11904761904762 L659.6,175.11904761904762" stroke="black" stroke-width="0.5" />
<text x="659.6" y="170.11904761904762" font-size="8" text-anchor="middle">45</text>
<path d="M690.08,185.11904761904762 L690.08,180.11904761904762" stroke="black" stroke-width="0.5" />
<path d="M720.5600000000001,185.11904761904762 L720.5600000000001,180.11904761904762" stroke="black" stroke-width="0.5" />
<path d="M751.04,185.11904761904762 L751.04,180.11904761904762" stroke="black" stroke-width="0.5" />
<path d="M781.52,185.11904761904762 L781.52,180.11904761904762" stroke="black" stroke-width="0.5" />
<text x="781.52" y="165.11904761904762" font-size="12" text-anchor="middle">49</text>
<path d="M781.52,170.11904761904762 V190.11904761904762 M777.52,186.11904761904762 L781.52,190.11904761904762 L785.52,186.11904761904762" stroke-width="1" stroke="black" fill="none" transform="rotate(0.000000 781.520000 170.119048)" />
<path d="M812.0,185.11904761904762 L812.0,175.11904761904762" stroke="black" stroke-width="0.5" />
<text x="20.0" y="475.8333333333333" font-size="24" dominant-baseline="middle">E</text>
<path d="M50.0,401.66666666666663 L50.0,391.66666666666663" stroke="black" stroke-width="0.5" />
<text x="50.0" y="386.66666666666663" font-size="8" text-anchor="middle">25</text>
<path d="M80.48,401.66666666666663 L80.48,396.66666666666663" stroke="black" stroke-width="0.5" />
<path d="M110.96000000000001,401.66666666666663 L110.96000000000001,396.66666666666663" stroke="black" stroke-width="0.5" />
<path d="M141.44,401.66666666666663 L141.44,396.66666666666663" stroke="black" stroke-width="0.5" />
<path d="M171.92000000000002,401.66666666666663 L171.92000000000002,396.66666666666663" stroke="black" stroke-width="0.5" />
<path d="M202.4,401.66666666666663 L202.4,391.66666666666663" stroke="black" stroke-width="0.5" />
<text x="202.4" y="386.66666666666663" font-size="8" text-anchor="middle">30</text>
<path d="M232.88,401.66666666666663 L232.88,396.66666666666663" stroke="black" stroke-width="0.5" />
<path d="M263.36,401.66666666666663 L263.36,396.66666666666663" stroke="black" stroke-width="0.5" />
<path d="M293.84000000000003,401.66666666666663 L293.84000000000003,396.66666666666663" stroke="black" stroke-width="0.5" />
<path d="M324.32,401.66666666666663 L324.32,396.66666666666663" stroke="black" stroke-width="0.5" />
<path d="M354.8,401.66666666666663 L354.8,391.66666666666663" stroke="black" stroke-width="0.5" />
<text x="354.8" y="386.66666666666663" font-size="8" text-anchor="middle">35</text>
<path d="M385.28000000000003,401.66666666666663 L385.28000000000003,396.66666666666663" stroke="black" stroke-width="0.5" />
<path d="M415.76,401.66666666666663 L415.76,396.66666666666663" stroke="black" stroke-width="0.5" />
<path d="M446.24,401.66666666666663 L446.24,396.66666666666663" stroke="black" stroke-width="0.5" />
<path d="M476.72,401.66666666666663 L476.72,396.66666666666663" stroke="black" stroke-width="0.5" />
<path d="M507.2,401.66666666666663 L507.2,391.66666666666663" stroke="black" stroke-width="0.5" />
<text x="507.2" y="386.66666666666663" font-size="8" text-anchor="middle">40</text>
<path d="M537.6800000000001,401.66666666666663 L537.6800000000001,396.66666666666663" stroke="black" stroke-width="0.5" />
<path d="M568.16,401.66666666666663 L568.16,396.66666666666663" stroke="black" stroke-width="0.5" />
<path d="M598.64,401.66666666666663 L598.64,396.66666666666663" stroke="black" stroke-width="0.5" />
<path d="M629.12,401.66666666666663 L629.12,396.66666666666663" stroke="black" stroke-width="0.5" />
<path d="M659.6,401.66666666666663 L659.6,391.66666666666663" stroke="black" stroke-width="0.5" />
<text x="659.6" y="381.66666666666663" font-size="12" text-anchor="middle">45</text>
<path d="M659.6,386.66666666666663 V406.66666666666663 M655.6,402.66666666666663 L659.6,406.66666666666663 L663.6,402.66666666666663" stroke-width="1" stroke="black" fill="none" transform="rotate(0.000000 659.600000 386.666667)" />
<path d="M690.08,401.66666666666663 L690.08,396.66666666666663" stroke="black" stroke-width="0.5" />
<path d="M720.5600000000001,401.66666666666663 L720.5600000000001,396.66666666666663" stroke="black" stroke-width="0.5" />
<path d="M751.04,401.66666666666663 L751.04,396.66666666666663" stroke="black" stroke-width="0.5" />
<path d="M781.52,401.66666666666663 L781.52,396.66666666666663" stroke="black" stroke-width="0.5" />
<path d="M812.0,401.66666666666663 L812.0,391.66666666666663" stroke="black" stroke-width="0.5" />
<text x="812.0" y="386.66666666666663" font-size="8" text-anchor="middle">50</text>
<text x="383.28000000000003" y="93.69047619047619" font-size="16">FLUSS</text>
<path d="M427.95199999999994,93.69047619047619 L443.19199999999995,93.69047619047619" stroke="black" stroke-width="0.5" />
<path d="M382.58000000000004,123.0642857142857 C381.45500000000004,121.03928571428571,385.95500000000004,118.5642857142857,387.98,120.36428571428571 C389.105,122.3892857142857,384.605,124.86428571428571,382.58000000000004,123.0642857142857" stroke="#444" fill="none" />
<path d="M387.98,120.36428571428571 L387.98,100.92428571428572" stroke="#444" stroke-width="0.45" />
<circle cx="387.88000000000005" cy="106.42857142857142" r="2" stroke="black" stroke-width="0.4" fill="none" />
<text x="400.52" y="121.71428571428571" font-size="10" font-family="Cantarell Light" font-style="italic">(sehr laut flüstern)</text>
<path d="M384.68500000000006,135.4904761904762 Q384.68500000000006,134.19047619047618,383.32000000000005,134.19047619047618 C381.50000000000006,134.19047619047618,381.0450000000001,149.79047619047617,380.59000000000003,150.44047619047618 Q379.68000000000006,150.44047619047618,379.68000000000006,149.14047619047616 M380.13500000000005,140.69047619047618 H383.77500000000003" stroke="black" fill="none" stroke-width="1.0833333333333333" />
<path d="M388.975,135.4904761904762 Q388.975,134.19047619047618,387.61,134.19047619047618 C385.79,134.19047619047618,385.33500000000004,149.79047619047617,384.88,150.44047619047618 Q383.97,150.44047619047618,383.97,149.14047619047616 M384.425,140.69047619047618 H388.065" stroke="black" fill="none" stroke-width="1.0833333333333333" />
<path d="M232.88,259.2857142857143 L598.64,259.2857142857143" stroke="black" stroke-width="0.5" />
<text x="230.88" y="208.33333333333331" font-size="12" font-family="Cantarell">Rohre</text>
<path d="M232.88,263.7857142857143 L598.64,263.7857142857143" stroke="black" stroke-width="0.5" />
<text x="224.88" y="257.2857142857143" font-size="6" font-family="Cantarell" text-anchor="end" dominant-baseline="middle">2</text>
<text x="224.88" y="265.7857142857143" font-size="6" font-family="Cantarell" text-anchor="end" dominant-baseline="middle">4</text>
<text x="228.88" y="261.5357142857143" font-size="6" font-family="Cantarell" text-anchor="end" dominant-baseline="middle">3</text>
<text x="218.88" y="261.5357142857143" font-size="10" text-anchor="end" dominant-baseline="middle" font-family="Cantarell">r.H.</text>
<path d="M324.32,348.4523809523809 L507.2,348.4523809523809" stroke="black" stroke-width="0.5" />
<text x="322.32" y="297.5" font-size="12" font-family="Cantarell">Bongos</text>
<path d="M781.52,272.0238095238095 L812.0,272.0238095238095" stroke="black" stroke-width="0.5" />
<text x="779.52" y="233.8095238095238" font-size="12" font-family="Cantarell">Tamtam</text>
<circle cx="237.88" cy="213.33333333333331" r="2" stroke="black" fill="none" stroke-width="0.5" transform="rotate(25 237 225)" />
<path d="M237.88,215.33333333333331 L237.88,231.33333333333331" stroke="black" stroke-width="0.5" transform="rotate(25 237 225)" />
<circle cx="237.88" cy="213.33333333333331" r="2" stroke="black" fill="none" stroke-width="0.5" transform="rotate(-25 237 225)" />
<path d="M237.88,215.33333333333331 L237.88,231.33333333333331" stroke="black" stroke-width="0.5" transform="rotate(-25 237 225)" />
<path d="M232.18,265.1357142857143 C231.055,263.11071428571427,235.555,260.6357142857143,237.57999999999998,262.43571428571425 C238.70499999999998,264.4607142857143,234.20499999999998,266.93571428571425,232.18,265.1357142857143" stroke="#444" fill="none" />
<path d="M237.57999999999998,262.43571428571425 L237.57999999999998,249.47571428571425" stroke="#444" stroke-width="0.45" />
<circle cx="239.82999999999998" cy="261.98571428571427" r="0.75" fill="#444" />
<path d="M238.97599999999997,268.7857142857143 Q278.59999999999997,276.7105142857143,318.22399999999993,268.7857142857143 Q278.59999999999997,278.2954742857143,238.97599999999997,268.7857142857143" fill="black" stroke="black" stroke-width="0.5" />
<path d="M321.62,265.1357142857143 C320.495,263.11071428571427,324.995,260.6357142857143,327.02,262.43571428571425 C328.145,264.4607142857143,323.645,266.93571428571425,321.62,265.1357142857143" stroke="#444" fill="none" />
<path d="M327.02,262.43571428571425 L327.02,249.47571428571425" stroke="#444" stroke-width="0.45" />
<path d="M234.88,236.28571428571428 C233.755,246.78571428571428,236.38,245.28571428571428,236.38,244.16071428571428 M233.38,239.34571428571428 L236.38,239.34571428571428 M237.88,245.28571428571428 L237.88,240.3357142857143 Q239.005,241.8357142857143,240.13,240.3357142857143" fill="none" stroke="black" stroke-width="0.8" />
<path d="M240.13,240.3357142857143 C242.13,236.3357142857143,242.13,244.3357142857143,244.13,240.3357142857143 C246.13,236.3357142857143,246.13,244.3357142857143,248.13,240.3357142857143 C250.13,236.3357142857143,250.13,244.3357142857143,252.13,240.3357142857143 C254.13,236.3357142857143,254.13,244.3357142857143,256.13,240.3357142857143 C258.13,236.3357142857143,258.13,244.3357142857143,260.13,240.3357142857143 C262.13,236.3357142857143,262.13,244.3357142857143,264.13,240.3357142857143 C266.13,236.3357142857143,266.13,244.3357142857143,268.13,240.3357142857143 C270.13,236.3357142857143,270.13,244.3357142857143,272.13,240.3357142857143 C274.13,236.3357142857143,274.13,244.3357142857143,276.13,240.3357142857143 C278.13,236.3357142857143,278.13,244.3357142857143,280.13,240.3357142857143 C282.13,236.3357142857143,282.13,244.3357142857143,284.13,240.3357142857143 C286.13,236.3357142857143,286.13,244.3357142857143,288.13,240.3357142857143 C290.13,236.3357142857143,290.13,244.3357142857143,292.13,240.3357142857143 C294.13,236.3357142857143,294.13,244.3357142857143,296.13,240.3357142857143 C298.13,236.3357142857143,298.13,244.3357142857143,300.13,240.3357142857143 C302.13,236.3357142857143,302.13,244.3357142857143,304.13,240.3357142857143 C306.13,236.3357142857143,306.13,244.3357142857143,308.13,240.3357142857143 C310.13,236.3357142857143,310.13,244.3357142857143,312.13,240.3357142857143 C314.13,236.3357142857143,314.13,244.3357142857143,316.13,240.3357142857143 C318.13,236.3357142857143,318.13,244.3357142857143,320.13,240.3357142857143 C322.13,236.3357142857143,322.13,244.3357142857143,324.13,240.3357142857143 C326.13,236.3357142857143,326.13,244.3357142857143,328.13,240.3357142857143 C330.13,236.3357142857143,330.13,244.3357142857143,332.13,240.3357142857143 C334.13,236.3357142857143,334.13,244.3357142857143,336.13,240.3357142857143 C338.13,236.3357142857143,338.13,244.3357142857143,340.13,240.3357142857143 C342.13,236.3357142857143,342.13,244.3357142857143,344.13,240.3357142857143 C346.13,236.3357142857143,346.13,244.3357142857143,348.13,240.3357142857143 C350.13,236.3357142857143,350.13,244.3357142857143,352.13,240.3357142857143 C354.13,236.3357142857143,354.13,244.3357142857143,356.13,240.3357142857143 C358.13,236.3357142857143,358.13,244.3357142857143,360.13,240.3357142857143 C362.13,236.3357142857143,362.13,244.3357142857143,364.13,240.3357142857143 C366.13,236.3357142857143,366.13,244.3357142857143,368.13,240.3357142857143 C370.13,236.3357142857143,370.13,244.3357142857143,372.13,240.3357142857143 C374.13,236.3357142857143,374.13,244.3357142857143,376.13,240.3357142857143 C378.13,236.3357142857143,378.13,244.3357142857143,380.13,240.3357142857143 C382.13,236.3357142857143,382.13,244.3357142857143,384.13,240.3357142857143" fill="none" stroke="black" stroke-width="0.5" />
<path d="M229.755,276.2857142857143 Q229.755,275.5357142857143,230.38,276.7857142857143 Q230.38,280.6607142857143,227.88,287.7857142857143 M230.38,276.7857142857143 C235.38,273.7857142857143,235.38,282.5357142857143,230.38,280.6607142857143" stroke="black" fill="none" stroke-width="0.8333333333333334" />
<path d="M234.755,276.2857142857143 Q234.755,275.5357142857143,235.38,276.7857142857143 Q235.38,280.6607142857143,232.88,287.7857142857143 M235.38,276.7857142857143 C240.38,273.7857142857143,240.38,282.5357142857143,235.38,280.6607142857143" stroke="black" fill="none" stroke-width="0.8333333333333334" />
<path d="M385.865,268.55571428571426 Q382.355,262.99821428571425,386.7425,264.16821428571427 L384.69500000000005,260.6582142857143 L386.45000000000005,258.61071428571427 Q385.28000000000003,257.44071428571425,385.28000000000003,256.2707142857143" stroke="#444" fill="none" stroke-width="1.0125" />
<path d="M416.34499999999997,268.55571428571426 Q412.835,262.99821428571425,417.22249999999997,264.16821428571427 L415.175,260.6582142857143 L416.93,258.61071428571427 Q415.76,257.44071428571425,415.76,256.2707142857143" stroke="#444" fill="none" stroke-width="1.0125" />
<path d="M446.825,268.55571428571426 Q443.315,262.99821428571425,447.7025,264.16821428571427 L445.65500000000003,260.6582142857143 L447.41,258.61071428571427 Q446.24,257.44071428571425,446.24,256.2707142857143" stroke="#444" fill="none" stroke-width="1.0125" />
<path d="M477.305,268.55571428571426 Q473.795,262.99821428571425,478.1825,264.16821428571427 L476.13500000000005,260.6582142857143 L477.89000000000004,258.61071428571427 Q476.72,257.44071428571425,476.72,256.2707142857143" stroke="#444" fill="none" stroke-width="1.0125" />
<circle cx="507.2" cy="221.07142857142856" r="2" fill="black" />
<path d="M507.2,221.07142857142856 L507.2,235.07142857142856" stroke="black" stroke-width="0.4" />
<path d="M504.5,262.8857142857143 C503.375,260.86071428571427,507.875,258.3857142857143,509.9,260.18571428571425 C511.025,262.2107142857143,506.525,264.68571428571425,504.5,262.8857142857143" fill="#444" />
<path d="M509.9,261.08571428571423 L509.9,246.68571428571425" stroke="#444" stroke-width="0.45" />
<path d="M534.98,262.8857142857143 C533.855,260.86071428571427,538.355,258.3857142857143,540.3800000000001,260.18571428571425 C541.5050000000001,262.2107142857143,537.0050000000001,264.68571428571425,534.98,262.8857142857143" fill="#444" />
<path d="M540.3800000000001,261.08571428571423 L540.3800000000001,245.56071428571425" stroke="#444" stroke-width="0.45" />
<path d="M547.1719999999999,260.6357142857143 C546.0469999999999,258.61071428571427,550.5469999999999,256.1357142857143,552.572,257.93571428571425 C553.697,259.9607142857143,549.197,262.43571428571425,547.1719999999999,260.6357142857143" fill="#444" />
<path d="M552.572,258.83571428571423 L552.572,243.31071428571425" stroke="#444" stroke-width="0.45" />
<circle cx="554.822" cy="257.48571428571427" r="0.75" fill="#444" />
<path d="M540.3800000000001,245.56071428571425 L552.572,243.31071428571425" stroke="black" stroke-width="2" />
<path d="M552.9200000000001,262.5357142857143 Q559.0160000000001,266.1933142857142,565.112,262.5357142857143 Q559.0160000000001,266.9248342857142,552.9200000000001,262.5357142857143" fill="black" stroke="black" stroke-width="0.5" />
<path d="M565.4599999999999,260.6357142857143 C564.3349999999999,258.61071428571427,568.8349999999999,256.1357142857143,570.86,257.93571428571425 C571.985,259.9607142857143,567.485,262.43571428571425,565.4599999999999,260.6357142857143" fill="#444" />
<path d="M570.86,258.83571428571423 L570.86,241.73571428571427" stroke="#444" stroke-width="0.45" />
<path d="M570.86,241.73571428571427 L575.36,248.91771428571425" stroke="#444" stroke-width="0.9" />
<path d="M570.86,244.43571428571425 L575.36,251.61771428571424" stroke="#444" stroke-width="0.9" />
<path d="M574.6039999999999,260.6357142857143 C573.4789999999999,258.61071428571427,577.9789999999999,256.1357142857143,580.004,257.93571428571425 C581.129,259.9607142857143,576.629,262.43571428571425,574.6039999999999,260.6357142857143" fill="#444" />
<path d="M580.004,258.83571428571423 L580.004,244.43571428571425" stroke="#444" stroke-width="0.45" />
<path d="M575.384,237.93571428571425 L580.184,239.43571428571425 L575.384,240.93571428571425" stroke="black" stroke-width="1" fill="none" />
<path d="M581.8760000000001,258.2857142857143 Q594.8299999999999,247.92251428571436,607.7839999999999,252.28571428571428 Q594.8299999999999,245.84987428571438,581.8760000000001,258.2857142857143" fill="black" stroke="black" stroke-width="0.4" />
<text x="552.9200000000001" y="231.43571428571425" font-size="7" text-anchor="middle" font-family="Cantarell" font-style="italic" dominant-baseline="middle">5</text>
<path d="M538.6800000000001,235.43571428571425 L538.6800000000001,231.43571428571425 L549.4200000000001,231.43571428571425 M556.4200000000001,231.43571428571425 L567.16,231.43571428571425 L567.16,235.43571428571425" stroke="black" stroke-width="0.3" fill="none" />
<text x="583.3999999999999" y="231.43571428571425" font-size="7" text-anchor="middle" font-family="Cantarell" font-style="italic" dominant-baseline="middle">5</text>
<path d="M569.16,235.43571428571425 L569.16,231.43571428571425 L579.8999999999999,231.43571428571425 M586.8999999999999,231.43571428571425 L597.6399999999999,231.43571428571425 L597.6399999999999,235.43571428571425" stroke="black" stroke-width="0.3" fill="none" />
<path d="M506.575,276.2857142857143 Q506.575,275.5357142857143,507.2,276.7857142857143 Q507.2,280.6607142857143,504.7,287.7857142857143 M507.2,276.7857142857143 C512.2,273.7857142857143,512.2,282.5357142857143,507.2,280.6607142857143" stroke="black" fill="none" stroke-width="0.8333333333333334" />
<text x="319.32" y="348.4523809523809" font-size="10" text-anchor="end" dominant-baseline="middle" font-family="Cantarell">l.H.</text>
<path d="M324.32,304.5 L340.32,304.5" stroke="black" stroke-width="1.6" />
<path d="M324.32,304.5 L324.32,309.3" stroke="black" stroke-width="0.8" />
<path d="M326.32,304.5 L326.32,309.3" stroke="black" stroke-width="0.8" />
<path d="M328.32,304.5 L328.32,309.3" stroke="black" stroke-width="0.8" />
<path d="M330.32,304.5 L330.32,309.3" stroke="black" stroke-width="0.8" />
<path d="M332.32,304.5 L332.32,309.3" stroke="black" stroke-width="0.8" />
<path d="M334.32,304.5 L334.32,309.3" stroke="black" stroke-width="0.8" />
<path d="M336.32,304.5 L336.32,309.3" stroke="black" stroke-width="0.8" />
<path d="M338.32,304.5 L338.32,309.3" stroke="black" stroke-width="0.8" />
<path d="M340.32,304.5 L340.32,309.3" stroke="black" stroke-width="0.8" />
<circle cx="328.32" cy="322.5" r="7" fill="none" stroke="black" stroke-width="0.7" />
<path d="M332.52,325.3 L335.32,322.5 L338.12,325.3" fill="none" stroke="black" stroke-width="0.7" />
<path d="M321.02,363.4523809523809 L321.02,368.4523809523809 Q321.02,363.4523809523809,322.27,363.4523809523809 Q323.52,363.4523809523809,323.52,368.4523809523809 Q323.52,363.4523809523809,324.77,363.4523809523809 Q326.02,363.4523809523809,326.02,368.4523809523809" stroke="black" fill="none" stroke-width="0.8333333333333334" />
<path d="M331.12,359.4523809523809 Q331.12,358.4523809523809,330.07,358.4523809523809 C328.67,358.4523809523809,328.32,370.4523809523809,327.97,370.9523809523809 Q327.27,370.9523809523809,327.27,369.9523809523809 M327.62,363.4523809523809 H330.42" stroke="black" fill="none" stroke-width="0.8333333333333334" />
<path d="M323.62,352.77238095238096 C322.495,350.7473809523809,326.995,348.27238095238096,329.02,350.0723809523809 C330.145,352.09738095238095,325.645,354.5723809523809,323.62,352.77238095238096" fill="#444" />
<path d="M329.02,350.9723809523809 L329.02,336.5723809523809" stroke="#444" stroke-width="0.45" />
<path d="M355.385,355.4723809523809 Q351.875,349.9148809523809,356.2625,351.0848809523809 L354.21500000000003,347.5748809523809 L355.97,345.5273809523809 Q354.8,344.3573809523809,354.8,343.1873809523809" stroke="#444" fill="none" stroke-width="1.0125" />
<path d="M382.58000000000004,352.77238095238096 C381.45500000000004,350.7473809523809,385.95500000000004,348.27238095238096,387.98,350.0723809523809 C389.105,352.09738095238095,384.605,354.5723809523809,382.58000000000004,352.77238095238096" fill="#444" />
<path d="M387.98,350.9723809523809 L387.98,336.5723809523809" stroke="#444" stroke-width="0.45" />
<path d="M416.34499999999997,355.4723809523809 Q412.835,349.9148809523809,417.22249999999997,351.0848809523809 L415.175,347.5748809523809 L416.93,345.5273809523809 Q415.76,344.3573809523809,415.76,343.1873809523809" stroke="#444" fill="none" stroke-width="1.0125" />
<path d="M443.54,346.8323809523809 C442.415,344.80738095238087,446.915,342.3323809523809,448.94,344.13238095238086 C450.065,346.1573809523809,445.565,348.63238095238086,443.54,346.8323809523809" fill="#444" />
<path d="M448.94,345.03238095238083 L448.94,330.63238095238086" stroke="#444" stroke-width="0.45" />
<path d="M477.305,355.4723809523809 Q473.795,349.9148809523809,478.1825,351.0848809523809 L476.13500000000005,347.5748809523809 L477.89000000000004,345.5273809523809 Q476.72,344.3573809523809,476.72,343.1873809523809" stroke="#444" fill="none" stroke-width="1.0125" />
<path d="M781.52,243.8095238095238 L797.52,243.8095238095238" stroke="black" stroke-width="1.6" />
<path d="M781.52,243.8095238095238 L781.52,248.6095238095238" stroke="black" stroke-width="0.8" />
<path d="M783.52,243.8095238095238 L783.52,248.6095238095238" stroke="black" stroke-width="0.8" />
<path d="M785.52,243.8095238095238 L785.52,248.6095238095238" stroke="black" stroke-width="0.8" />
<path d="M787.52,243.8095238095238 L787.52,248.6095238095238" stroke="black" stroke-width="0.8" />
<path d="M789.52,243.8095238095238 L789.52,248.6095238095238" stroke="black" stroke-width="0.8" />
<path d="M791.52,243.8095238095238 L791.52,248.6095238095238" stroke="black" stroke-width="0.8" />
<path d="M793.52,243.8095238095238 L793.52,248.6095238095238" stroke="black" stroke-width="0.8" />
<path d="M795.52,243.8095238095238 L795.52,248.6095238095238" stroke="black" stroke-width="0.8" />
<path d="M797.52,243.8095238095238 L797.52,248.6095238095238" stroke="black" stroke-width="0.8" />
<path d="M780.8199999999999,273.37380952380954 C779.6949999999999,271.3488095238095,784.1949999999999,268.87380952380954,786.22,270.6738095238095 C787.345,272.69880952380953,782.845,275.1738095238095,780.8199999999999,273.37380952380954" fill="#444" />
<path d="M786.22,271.5738095238095 L786.22,257.1738095238095" stroke="#444" stroke-width="0.45" />
<path d="M785.52,276.0238095238095 Q798.76,281.3198095238095,812.0,276.0238095238095 Q798.76,282.3790095238095,785.52,276.0238095238095" fill="black" stroke="black" stroke-width="0.5" />
<path d="M778.22,287.0238095238095 L778.22,292.0238095238095 Q778.22,287.0238095238095,779.47,287.0238095238095 Q780.72,287.0238095238095,780.72,292.0238095238095 Q780.72,287.0238095238095,781.97,287.0238095238095 Q783.22,287.0238095238095,783.22,292.0238095238095" stroke="black" fill="none" stroke-width="0.8333333333333334" />
<path d="M788.3199999999999,283.0238095238095 Q788.3199999999999,282.0238095238095,787.27,282.0238095238095 C785.8699999999999,282.0238095238095,785.52,294.0238095238095,785.17,294.5238095238095 Q784.4699999999999,294.5238095238095,784.4699999999999,293.5238095238095 M784.8199999999999,287.0238095238095 H787.6199999999999" stroke="black" fill="none" stroke-width="0.8333333333333334" />
<path d="M40.85599999999998,463.0952380952381 L232.88,463.0952380952381" stroke="black" stroke-width="1" />
<path d="M56.095999999999975,463.0952380952381 L56.095999999999975,479.90952380952376" stroke="black" stroke-width="0.5" />
<path d="M78.04160000000005,463.0952380952381 L78.04160000000005,479.90952380952376" stroke="black" stroke-width="0.5" />
<path d="M102.42559999999997,463.0952380952381 L102.42559999999997,479.90952380952376" stroke="black" stroke-width="0.5" />
<path d="M129.85760000000005,463.0952380952381 L129.85760000000005,479.90952380952376" stroke="black" stroke-width="0.5" />
<path d="M160.9472,463.0952380952381 L160.9472,479.90952380952376" stroke="black" stroke-width="0.5" />
<path d="M187.16,463.0952380952381 L187.16,479.90952380952376" stroke="black" stroke-width="0.5" />
<path d="M233.33199999999997,494.0952380952381 Q233.33199999999997,493.0952380952381,232.28199999999995,493.0952380952381 C230.88199999999998,493.0952380952381,230.53199999999995,505.0952380952381,230.18199999999996,505.5952380952381 Q229.48199999999997,505.5952380952381,229.48199999999997,504.5952380952381 M229.83199999999997,498.0952380952381 H232.63199999999998" stroke="black" fill="none" stroke-width="0.8333333333333334" />
<path d="M223.736,494.0952380952381 L50.0,497.5952380952381 M50.0,500.5952380952381 L223.736,504.0952380952381" stroke="black" fill="none" stroke-width="0.4" />
<path d="M206.396,454.1452380952381 C205.521,452.5702380952381,209.021,450.6452380952381,210.59599999999998,452.04523809523806 C211.47099999999998,453.62023809523805,207.97099999999998,455.54523809523806,206.396,454.1452380952381" fill="#444" />
<path d="M210.59599999999998,452.74523809523805 L210.59599999999998,441.54523809523806" stroke="#444" stroke-width="0.35000000000000003" />
<circle cx="212.34599999999998" cy="451.69523809523804" r="0.5833333333333334" fill="#444" />
<text x="210.01999999999998" y="453.0952380952381" font-size="7" text-anchor="middle" font-family="Cantarell" font-style="italic" dominant-baseline="middle"></text>
<path d="M187.16,457.0952380952381 L187.16,453.0952380952381 L204.51999999999998,453.0952380952381 M215.51999999999998,453.0952380952381 L232.88,453.0952380952381 L232.88,457.0952380952381" stroke="black" stroke-width="0.3" fill="none" />
<path d="M659.6,475.8333333333333 L661.8183084449844,471.95799421594256 L664.0803185520614,479.40887736920536 L666.2964844887956,472.1408272705562 L668.2116083277816,479.6714109124463 L670.4216168453804,472.6512862943876 L672.5085022003559,479.4148899260002 L675.1675266451302,472.58742876904876 L677.6840054847042,479.6941479154524 L680.4519072860182,471.86472071773983 L682.8195174389724,479.8250864646468 L685.2314179588635,471.96166046153735 L688.0443689414677,479.3818811316998 L690.4860604419868,472.0329074899471 L692.7549357477989,478.84236864394035 L695.1986172327786,472.0901443610108 L697.3416993368194,478.8873926053886 L698.9200527829146,472.3150362629944 L700.5275629566962,479.28201675149154 L703.0435269707256,472.2976077431327 L705.6064133105491,479.06528701108175 L707.1933263552054,472.42167531719195 L709.504270368876,478.956226830163 L711.792097430397,472.5427198349125 L714.2870304506855,479.25763150340094 L715.8684969728048,472.82815763496217 L717.6971403362967,479.2949883781306 L719.3031551785119,472.10260234981706 L721.6516816085007,479.8167656284737" fill="none" stroke="black" stroke-width="0.8" />
<path d="M663.1,491.8333333333333 Q663.1,490.8333333333333,662.0500000000001,490.8333333333333 C660.65,490.8333333333333,660.3000000000001,502.8333333333333,659.95,503.3333333333333 Q659.25,503.3333333333333,659.25,502.3333333333333 M659.6,495.8333333333333 H662.4" stroke="black" fill="none" stroke-width="0.8333333333333334" />
<path d="M232.88,291.2857142857143 L232.88,451.0952380952381" stroke="gray" stroke-width="0.5" stroke-dasharray="1 2" />
</svg>