<?xml version="1.0" encoding="UTF-8"?>
<svg xmlns="http://www.w3.org/2000/svg" xmlns:xlink="http://www.w3.org/1999/xlink"
    width="3368" height="2380" viewBox="0 0 842 595" font-family="Simvoni">
<defs>
</defs>
<text x="421.0" y="585" font-size="10" text-anchor="middle">6</text>
<text x="16.0" y="112.79761904761904" font-size="24" dominant-baseline="middle">V</text>
<path d="M50.0,70.47619047619048 L50.0,60.47619047619048" stroke="black" stroke-width="0.3" />
<text x="50.0" y="55.476190476190474" font-size="7" text-anchor="middle">125</text>
<path d="M80.48,70.47619047619048 L80.48,65.47619047619048" stroke="black" stroke-width="0.3" />
<path d="M110.96000000000001,70.47619047619048 L110.96000000000001,65.47619047619048" stroke="black" stroke-width="0.3" />
<path d="M141.44,70.47619047619048 L141.44,65.47619047619048" stroke="black" stroke-width="0.3" />
<path d="M171.92000000000002,70.47619047619048 L171.92000000000002,65.47619047619048" stroke="black" stroke-width="0.3" />
<path d="M202.4,70.47619047619048 L202.4,60.47619047619048" stroke="black" stroke-width="0.3" />
<text x="202.4" y="50.476190476190474" font-size="12" text-anchor="middle">130</text>
<path d="M202.4,55.476190476190474 V75.47619047619048 M198.4,71.47619047619048 L202.4,75.47619047619048 L206.4,71.47619047619048" stroke-width="1" stroke="black" fill="none" transform="rotate(0.000000 202.400000 55.476190)" />
<path d="M232.88,70.47619047619048 L232.88,65.47619047619048" stroke="black" stroke-width="0.3" />
<path d="M263.36,70.47619047619048 L263.36,65.47619047619048" stroke="black" stroke-width="0.3" />
<path d="M293.84000000000003,70.47619047619048 L293.84000000000003,65.47619047619048" stroke="black" stroke-width="0.3" />
<path d="M324.32,70.47619047619048 L324.32,65.47619047619048" stroke="black" stroke-width="0.3" />
<path d="M354.8,70.47619047619048 L354.8,60.47619047619048" stroke="black" stroke-width="0.3" />
<text x="354.8" y="55.476190476190474" font-size="7" text-anchor="middle">135</text>
<path d="M385.28000000000003,70.47619047619048 L385.28000000000003,65.47619047619048" stroke="black" stroke-width="0.3" />
<path d="M415.76,70.47619047619048 L415.76,65.47619047619048" stroke="black" stroke-width="0.3" />
<path d="M446.24,70.47619047619048 L446.24,65.47619047619048" stroke="black" stroke-width="0.3" />
<path d="M476.72,70.47619047619048 L476.72,65.47619047619048" stroke="black" stroke-width="0.3" />
<path d="M507.2,70.47619047619048 L507.2,60.47619047619048" stroke="black" stroke-width="0.3" />
<text x="507.2" y="50.476190476190474" font-size="12" text-anchor="middle">140</text>
<path d="M507.2,55.476190476190474 V75.47619047619048 M503.2,71.47619047619048 L507.2,75.47619047619048 L511.2,71.47619047619048" stroke-width="1" stroke="black" fill="none" transform="rotate(0.000000 507.200000 55.476190)" />
<path d="M537.6800000000001,70.47619047619048 L537.6800000000001,65.47619047619048" stroke="black" stroke-width="0.3" />
<path d="M568.16,70.47619047619048 L568.16,65.47619047619048" stroke="black" stroke-width="0.3" />
<path d="M598.64,70.47619047619048 L598.64,65.47619047619048" stroke="black" stroke-width="0.3" />
<path d="M629.12,70.47619047619048 L629.12,65.47619047619048" stroke="black" stroke-width="0.3" />
<path d="M659.6,70.47619047619048 L659.6,60.47619047619048" stroke="black" stroke-width="0.3" />
<text x="659.6" y="55.476190476190474" font-size="7" text-anchor="middle">145</text>
<path d="M690.08,70.47619047619048 L690.08,65.47619047619048" stroke="black" stroke-width="0.3" />
<path d="M720.5600000000001,70.47619047619048 L720.5600000000001,65.47619047619048" stroke="black" stroke-width="0.3" />
<path d="M751.04,70.47619047619048 L751.04,65.47619047619048" stroke="black" stroke-width="0.3" />
<path d="M781.52,70.47619047619048 L781.52,65.47619047619048" stroke="black" stroke-width="0.3" />
<path d="M812.0,70.47619047619048 L812.0,60.47619047619048" stroke="black" stroke-width="0.3" />
<text x="812.0" y="55.476190476190474" font-size="7" text-anchor="middle">150</text>
<text x="16.0" y="278.3928571428571" font-size="24" dominant-baseline="middle">P</text>
<path d="M50.0,185.11904761904762 L50.0,175.11904761904762" stroke="black" stroke-width="0.3" />
<path d="M80.48,185.11904761904762 L80.48,180.11904761904762" stroke="black" stroke-width="0.3" />
<text x="80.48" y="165.11904761904762" font-size="12" text-anchor="middle">126</text>
<path d="M80.48,170.11904761904762 V190.11904761904762 M76.48,186.11904761904762 L80.48,190.11904761904762 L84.48,186.11904761904762" stroke-width="1" stroke="black" fill="none" transform="rotate(0.000000 80.480000 170.119048)" />
<path d="M110.96000000000001,185.11904761904762 L110.96000000000001,180.11904761904762" stroke="black" stroke-width="0.3" />
<path d="M141.44,185.11904761904762 L141.44,180.11904761904762" stroke="black" stroke-width="0.3" />
<text x="141.44" y="165.11904761904762" font-size="12" text-anchor="middle">128</text>
<path d="M141.44,170.11904761904762 V190.11904761904762 M137.44,186.11904761904762 L141.44,190.11904761904762 L145.44,186.11904761904762" stroke-width="1" stroke="black" fill="none" transform="rotate(0.000000 141.440000 170.119048)" />
<path d="M171.92000000000002,185.11904761904762 L171.92000000000002,180.11904761904762" stroke="black" stroke-width="0.3" />
<path d="M202.4,185.11904761904762 L202.4,175.11904761904762" stroke="black" stroke-width="0.3" />
<path d="M232.88,185.11904761904762 L232.88,180.11904761904762" stroke="black" stroke-width="0.3" />
<text x="232.88" y="165.11904761904762" font-size="12" text-anchor="middle">131</text>
<path d="M232.88,170.11904761904762 V190.11904761904762 M228.88,186.11904761904762 L232.88,190.11904761904762 L236.88,186.11904761904762" stroke-width="1" stroke="black" fill="none" transform="rotate(0.000000 232.880000 170.119048)" />
<path d="M263.36,185.11904761904762 L263.36,180.11904761904762" stroke="black" stroke-width="0.3" />
<path d="M293.84000000000003,185.11904761904762 L293.84000000000003,180.11904761904762" stroke="black" stroke-width="0.3" />
<path d="M324.32,185.11904761904762 L324.32,180.11904761904762" stroke="black" stroke-width="0.3" />
<path d="M354.8,185.11904761904762 L354.8,175.11904761904762" stroke="black" stroke-width="0.3" />
<text x="354.8" y="165.11904761904762" font-size="12" text-anchor="middle">135</text>
<path d="M354.8,170.11904761904762 V190.11904761904762 M350.8,186.11904761904762 L354.8,190.11904761904762 L358.8,186.11904761904762" stroke-width="1" stroke="black" fill="none" transform="rotate(0.000000 354.800000 170.119048)" />
<path d="M385.28000000000003,185.11904761904762 L385.28000000000003,180.11904761904762" stroke="black" stroke-width="0.3" />
<path d="M415.76,185.11904761904762 L415.76,180.11904761904762" stroke="black" stroke-width="0.3" />
<path d="M446.24,185.11904761904762 L446.24,180.11904761904762" stroke="black" stroke-width="0.3" />
<path d="M476.72,185.11904761904762 L476.72,180.11904761904762" stroke="black" stroke-width="0.3" />
<path d="M507.2,185.11904761904762 L507.2,175.11904761904762" stroke="black" stroke-width="0.3" />
<text x="507.2" y="170.11904761904762" font-size="7" text-anchor="middle">140</text>
<path d="M537.6800000000001,185.11904761904762 L537.6800000000001,180.11904761904762" stroke="black" stroke-width="0.3" />
<path d="M568.16,185.11904761904762 L568.16,180.11904761904762" stroke="black" stroke-width="0.3" />
<path d="M598.64,185.11904761904762 L598.64,180.11904761904762" stroke="black" stroke-width="0.3" />
<path d="M629.12,185.11904761904762 L629.12,180.11904761904762" stroke="black" stroke-width="0.3" />
<path d="M659.6,185.11904761904762 L659.6,175.11904761904762" stroke="black" stroke-width="0.3" />
<text x="659.6" y="170.11904761904762" font-size="7" text-anchor="middle">145</text>
<path d="M690.08,185.11904761904762 L690.08,180.11904761904762" stroke="black" stroke-width="0.3" />
<path d="M720.5600000000001,185.11904761904762 L720.5600000000001,180.11904761904762" stroke="black" stroke-width="0.3" />
<path d="M751.04,185.11904761904762 L751.04,180.11904761904762" stroke="black" stroke-width="0.3" />
<path d="M781.52,185.11904761904762 L781.52,180.11904761904762" stroke="black" stroke-width="0.3" />
<path d="M812.0,185.11904761904762 L812.0,175.11904761904762" stroke="black" stroke-width="0.3" />
<text x="812.0" y="170.11904761904762" font-size="7" text-anchor="middle">150</text>
<text x="16.0" y="475.8333333333333" font-size="24" dominant-baseline="middle">E</text>
<path d="M50.0,401.66666666666663 L50.0,391.66666666666663" stroke="black" stroke-width="0.3" />
<text x="50.0" y="381.66666666666663" font-size="12" text-anchor="middle">125</text>
<path d="M50.0,386.66666666666663 V406.66666666666663 M46.0,402.66666666666663 L50.0,406.66666666666663 L54.0,402.66666666666663" stroke-width="1" stroke="black" fill="none" transform="rotate(0.000000 50.000000 386.666667)" />
<path d="M80.48,401.66666666666663 L80.48,396.66666666666663" stroke="black" stroke-width="0.3" />
<path d="M110.96000000000001,401.66666666666663 L110.96000000000001,396.66666666666663" stroke="black" stroke-width="0.3" />
<text x="110.96000000000001" y="381.66666666666663" font-size="12" text-anchor="middle">127</text>
<path d="M110.96000000000001,386.66666666666663 V406.66666666666663 M106.96000000000001,402.66666666666663 L110.96000000000001,406.66666666666663 L114.96000000000001,402.66666666666663" stroke-width="1" stroke="black" fill="none" transform="rotate(0.000000 110.960000 386.666667)" />
<path d="M141.44,401.66666666666663 L141.44,396.66666666666663" stroke="black" stroke-width="0.3" />
<path d="M171.92000000000002,401.66666666666663 L171.92000000000002,396.66666666666663" stroke="black" stroke-width="0.3" />
<text x="171.92000000000002" y="381.66666666666663" font-size="12" text-anchor="middle">129</text>
<path d="M171.92000000000002,386.66666666666663 V406.66666666666663 M167.92000000000002,402.66666666666663 L171.92000000000002,406.66666666666663 L175.92000000000002,402.66666666666663" stroke-width="1" stroke="black" fill="none" transform="rotate(0.000000 171.920000 386.666667)" />
<path d="M202.4,401.66666666666663 L202.4,391.66666666666663" stroke="black" stroke-width="0.3" />
<path d="M232.88,401.66666666666663 L232.88,396.66666666666663" stroke="black" stroke-width="0.3" />
<path d="M263.36,401.66666666666663 L263.36,396.66666666666663" stroke="black" stroke-width="0.3" />
<path d="M293.84000000000003,401.66666666666663 L293.84000000000003,396.66666666666663" stroke="black" stroke-width="0.3" />
<path d="M324.32,401.66666666666663 L324.32,396.66666666666663" stroke="black" stroke-width="0.3" />
<text x="324.32" y="381.66666666666663" font-size="12" text-anchor="middle">134</text>
<path d="M324.32,386.66666666666663 V406.66666666666663 M320.32,402.66666666666663 L324.32,406.66666666666663 L328.32,402.66666666666663" stroke-width="1" stroke="black" fill="none" transform="rotate(0.000000 324.320000 386.666667)" />
<path d="M354.8,401.66666666666663 L354.8,391.66666666666663" stroke="black" stroke-width="0.3" />
<path d="M385.28000000000003,401.66666666666663 L385.28000000000003,396.66666666666663" stroke="black" stroke-width="0.3" />
<path d="M415.76,401.66666666666663 L415.76,396.66666666666663" stroke="black" stroke-width="0.3" />
<path d="M446.24,401.66666666666663 L446.24,396.66666666666663" stroke="black" stroke-width="0.3" />
<text x="446.24" y="381.66666666666663" font-size="12" text-anchor="middle">138</text>
<path d="M446.24,386.66666666666663 V406.66666666666663 M442.24,402.66666666666663 L446.24,406.66666666666663 L450.24,402.66666666666663" stroke-width="1" stroke="black" fill="none" transform="rotate(0.000000 446.240000 386.666667)" />
<path d="M476.72,401.66666666666663 L476.72,396.66666666666663" stroke="black" stroke-width="0.3" />
<path d="M507.2,401.66666666666663 L507.2,391.66666666666663" stroke="black" stroke-width="0.3" />
<path d="M537.6800000000001,401.66666666666663 L537.6800000000001,396.66666666666663" stroke="black" stroke-width="0.3" />
<path d="M568.16,401.66666666666663 L568.16,396.66666666666663" stroke="black" stroke-width="0.3" />
<path d="M598.64,401.66666666666663 L598.64,396.66666666666663" stroke="black" stroke-width="0.3" />
<path d="M629.12,401.66666666666663 L629.12,396.66666666666663" stroke="black" stroke-width="0.3" />
<path d="M659.6,401.66666666666663 L659.6,391.66666666666663" stroke="black" stroke-width="0.3" />
<text x="659.6" y="386.66666666666663" font-size="7" text-anchor="middle">145</text>
<path d="M690.08,401.66666666666663 L690.08,396.66666666666663" stroke="black" stroke-width="0.3" />
<path d="M720.5600000000001,401.66666666666663 L720.5600000000001,396.66666666666663" stroke="black" stroke-width="0.3" />
<path d="M751.04,401.66666666666663 L751.04,396.66666666666663" stroke="black" stroke-width="0.3" />
<path d="M781.52,401.66666666666663 L781.52,396.66666666666663" stroke="black" stroke-width="0.3" />
<path d="M812.0,401.66666666666663 L812.0,391.66666666666663" stroke="black" stroke-width="0.3" />
<text x="812.0" y="386.66666666666663" font-size="7" text-anchor="middle">150</text>
<text x="200.4" y="96.23809523809524" font-size="16">WEH</text>
<path d="M199.70000000000002,125.51666666666665 C198.57500000000002,123.49166666666666,203.07500000000002,121.01666666666665,205.1,122.81666666666666 C206.225,124.84166666666665,201.725,127.31666666666666,199.70000000000002,125.51666666666665" fill="#444" />
<path d="M205.1,123.71666666666667 L205.1,109.31666666666666" stroke="black" stroke-width="0.45" />
<text x="171.92000000000002" y="111.16666666666666" font-size="10" font-family="Cantarell Light" font-style="italic"><tspan x="171.92000000000002" dy="0em">sehr</tspan><tspan x="171.92000000000002" dy="1em">tief</tspan></text>
<path d="M201.775,134.16666666666666 Q201.775,133.41666666666666,202.4,134.66666666666666 Q202.4,138.54166666666666,199.9,145.66666666666666 M202.4,134.66666666666666 C207.4,131.66666666666666,207.4,140.41666666666666,202.4,138.54166666666666" stroke="black" fill="none" stroke-width="0.8333333333333334" />
<text x="505.2" y="96.23809523809524" font-size="16">TAT</text>
<path d="M504.5,105.51666666666665 C503.375,103.49166666666666,507.875,101.01666666666665,509.9,102.81666666666666 C511.025,104.84166666666665,506.525,107.31666666666666,504.5,105.51666666666665" fill="#444" />
<path d="M504.5,104.61666666666665 L504.5,119.01666666666665" stroke="black" stroke-width="0.45" />
<text x="476.72" y="111.16666666666666" font-size="10" font-family="Cantarell Light" font-style="italic"><tspan x="476.72" dy="0em">sehr</tspan><tspan x="476.72" dy="1em">hoch</tspan></text>
<path d="M504.075,134.16666666666666 Q504.075,133.41666666666666,504.7,134.66666666666666 Q504.7,138.54166666666666,502.2,145.66666666666666 M504.7,134.66666666666666 C509.7,131.66666666666666,509.7,140.41666666666666,504.7,138.54166666666666" stroke="black" fill="none" stroke-width="0.8333333333333334" />
<path d="M509.075,134.16666666666666 Q509.075,133.41666666666666,509.7,134.66666666666666 Q509.7,138.54166666666666,507.2,145.66666666666666 M509.7,134.66666666666666 C514.7,131.66666666666666,514.7,140.41666666666666,509.7,138.54166666666666" stroke="black" fill="none" stroke-width="0.8333333333333334" />
<path d="M80.48,322.9761904761905 L141.44,322.9761904761905" stroke="black" stroke-width="0.5" />
<text x="78.48" y="282.21428571428567" font-size="12" font-family="Cantarell">Tomtom</text>
<path d="M141.44,272.0238095238095 L171.92000000000002,272.0238095238095" stroke="black" stroke-width="0.5" />
<text x="139.44" y="215.97619047619045" font-size="12" font-family="Cantarell">Woodblock</text>
<path d="M232.88,297.5 L263.36,297.5" stroke="black" stroke-width="0.5" />
<text x="230.88" y="246.54761904761904" font-size="12" font-family="Cantarell">Papier</text>
<path d="M354.8,297.5 L476.72,297.5" stroke="black" stroke-width="0.5" />
<text x="352.8" y="246.54761904761904" font-size="12" font-family="Cantarell">Tempelblock</text>
<circle cx="82.48" cy="289.9761904761905" r="2" stroke="black" fill="none" stroke-width="0.5" />
<path d="M82.48,291.9761904761905 L82.48,303.9761904761905" stroke="black" stroke-width="0.5" />
<circle cx="82.48" cy="289.9761904761905" r="1.0" fill="black" />
<path d="M79.78,324.3261904761905 C78.655,322.30119047619047,83.155,319.8261904761905,85.18,321.62619047619046 C86.305,323.6511904761905,81.805,326.12619047619046,79.78,324.3261904761905" stroke="black" fill="none" stroke-width="0.81" />
<path d="M85.18,321.62619047619046 L85.18,308.6661904761905" stroke="black" stroke-width="0.45" />
<path d="M88.48,322.9761904761905 Q120.256,328.07142857142856,141.44,348.45238095238096 Q119.1968,328.5809523809524,88.48,322.9761904761905" fill="black" stroke="black" stroke-width="1" />
<path d="M79.855,337.9761904761905 Q79.855,337.2261904761905,80.48,338.4761904761905 Q80.48,342.3511904761905,77.98,349.4761904761905 M80.48,338.4761904761905 C85.48,335.4761904761905,85.48,344.2261904761905,80.48,342.3511904761905" stroke="black" fill="none" stroke-width="0.8333333333333334" />
<path d="M143.44,222.02380952380952 L143.44,242.02380952380952" stroke="black" stroke-width="1.0" />
<path d="M138.74,273.37380952380954 C137.615,271.3488095238095,142.115,268.87380952380954,144.14,270.6738095238095 C145.265,272.69880952380953,140.765,275.1738095238095,138.74,273.37380952380954" stroke-width="0.30375" stroke="#444" fill="#444" />
<path d="M144.14,270.6738095238095 L144.14,253.7988095238095" stroke="black" stroke-width="0.45" />
<path d="M144.14,253.7988095238095 L144.26440816326527,253.79880952380952" stroke="black" stroke-width="1.5" />
<path d="M144.26440816326527,253.79880952380952 L144.3888163265306,253.7988095238095" stroke="black" stroke-width="1.5" />
<path d="M144.3888163265306,253.7988095238095 L144.51322448979587,253.7988095238095" stroke="black" stroke-width="1.5" />
<path d="M144.51322448979587,253.7988095238095 L144.6376326530612,253.7988095238095" stroke="black" stroke-width="1.5" />
<path d="M144.6376326530612,253.7988095238095 L144.76204081632648,253.79880952380952" stroke="black" stroke-width="1.5" />
<path d="M144.76204081632648,253.79880952380952 L144.8864489795918,253.7988095238095" stroke="black" stroke-width="1.5" />
<path d="M144.8864489795918,253.7988095238095 L145.01085714285708,253.79880952380952" stroke="black" stroke-width="1.5" />
<path d="M145.01085714285708,253.79880952380952 L145.1352653061224,253.79880952380952" stroke="black" stroke-width="1.5" />
<path d="M145.1352653061224,253.79880952380952 L145.25967346938768,253.79880952380952" stroke="black" stroke-width="1.5" />
<path d="M145.25967346938768,253.79880952380952 L145.38408163265296,253.79880952380952" stroke="black" stroke-width="1.5" />
<path d="M145.38408163265296,253.79880952380952 L145.50848979591828,253.7988095238095" stroke="black" stroke-width="1.5" />
<path d="M145.50848979591828,253.7988095238095 L145.63289795918357,253.79880952380947" stroke="black" stroke-width="1.5" />
<path d="M145.63289795918357,253.79880952380947 L145.75730612244888,253.7988095238095" stroke="black" stroke-width="1.5" />
<path d="M145.75730612244888,253.7988095238095 L145.88171428571417,253.79880952380952" stroke="black" stroke-width="1.5" />
<path d="M145.88171428571417,253.79880952380952 L146.00612244897948,253.79880952380952" stroke="black" stroke-width="1.5" />
<path d="M146.00612244897948,253.79880952380952 L146.13053061224477,253.7988095238095" stroke="black" stroke-width="1.5" />
<path d="M146.13053061224477,253.7988095238095 L146.25493877551008,253.7988095238095" stroke="black" stroke-width="1.5" />
<path d="M146.25493877551008,253.7988095238095 L146.37934693877537,253.7988095238095" stroke="black" stroke-width="1.5" />
<path d="M146.37934693877537,253.7988095238095 L146.50375510204069,253.79880952380947" stroke="black" stroke-width="1.5" />
<path d="M146.50375510204069,253.79880952380947 L146.62816326530597,253.7988095238095" stroke="black" stroke-width="1.5" />
<path d="M146.62816326530597,253.7988095238095 L146.75257142857126,253.7988095238095" stroke="black" stroke-width="1.5" />
<path d="M146.75257142857126,253.7988095238095 L146.87697959183657,253.79880952380947" stroke="black" stroke-width="1.5" />
<path d="M146.87697959183657,253.79880952380947 L147.00138775510186,253.7988095238095" stroke="black" stroke-width="1.5" />
<path d="M147.00138775510186,253.7988095238095 L147.12579591836717,253.7988095238095" stroke="black" stroke-width="1.5" />
<path d="M147.12579591836717,253.7988095238095 L147.25020408163246,253.79880952380952" stroke="black" stroke-width="1.5" />
<path d="M147.25020408163246,253.79880952380952 L147.37461224489778,253.79880952380952" stroke="black" stroke-width="1.5" />
<path d="M147.37461224489778,253.79880952380952 L147.49902040816306,253.7988095238095" stroke="black" stroke-width="1.5" />
<path d="M147.49902040816306,253.7988095238095 L147.62342857142838,253.79880952380947" stroke="black" stroke-width="1.5" />
<path d="M147.62342857142838,253.79880952380947 L147.74783673469366,253.79880952380947" stroke="black" stroke-width="1.5" />
<path d="M147.74783673469366,253.79880952380947 L147.87224489795895,253.7988095238095" stroke="black" stroke-width="1.5" />
<path d="M147.87224489795895,253.7988095238095 L147.99665306122427,253.79880952380952" stroke="black" stroke-width="1.5" />
<path d="M147.99665306122427,253.79880952380952 L148.12106122448955,253.79880952380947" stroke="black" stroke-width="1.5" />
<path d="M148.12106122448955,253.79880952380947 L148.24546938775487,253.79880952380944" stroke="black" stroke-width="1.5" />
<path d="M148.24546938775487,253.79880952380944 L148.36987755102015,253.79880952380952" stroke="black" stroke-width="1.5" />
<path d="M148.36987755102015,253.79880952380952 L148.49428571428547,253.79880952380952" stroke="black" stroke-width="1.5" />
<path d="M148.49428571428547,253.79880952380952 L148.61869387755075,253.79880952380947" stroke="black" stroke-width="1.5" />
<path d="M148.61869387755075,253.79880952380947 L148.74310204081607,253.79880952380947" stroke="black" stroke-width="1.5" />
<path d="M148.74310204081607,253.79880952380947 L148.86751020408136,253.79880952380955" stroke="black" stroke-width="1.5" />
<path d="M148.86751020408136,253.79880952380955 L148.99191836734667,253.79880952380952" stroke="black" stroke-width="1.5" />
<path d="M148.99191836734667,253.79880952380952 L149.11632653061196,253.79880952380944" stroke="black" stroke-width="1.5" />
<path d="M149.11632653061196,253.79880952380944 L149.24073469387724,253.79880952380955" stroke="black" stroke-width="1.5" />
<path d="M149.24073469387724,253.79880952380955 L149.36514285714256,253.7988095238095" stroke="black" stroke-width="1.5" />
<path d="M149.36514285714256,253.7988095238095 L149.48955102040784,253.7988095238095" stroke="black" stroke-width="1.5" />
<path d="M149.48955102040784,253.7988095238095 L149.61395918367316,253.7988095238095" stroke="black" stroke-width="1.5" />
<path d="M149.61395918367316,253.7988095238095 L149.73836734693845,253.7988095238095" stroke="black" stroke-width="1.5" />
<path d="M149.73836734693845,253.7988095238095 L149.86277551020376,253.7988095238095" stroke="black" stroke-width="1.5" />
<path d="M149.86277551020376,253.7988095238095 L149.98718367346905,253.7988095238095" stroke="black" stroke-width="1.5" />
<path d="M149.98718367346905,253.7988095238095 L150.11159183673436,253.7988095238095" stroke="black" stroke-width="1.5" />
<path d="M150.11159183673436,253.7988095238095 L150.23599999999965,253.7988095238095" stroke="black" stroke-width="1.5" />
<path d="M144.14,258.2988095238095 L144.26440816326527,258.2988095238095" stroke="black" stroke-width="1.5" />
<path d="M144.26440816326527,258.2988095238095 L144.3888163265306,258.2988095238095" stroke="black" stroke-width="1.5" />
<path d="M144.3888163265306,258.2988095238095 L144.51322448979587,258.2988095238095" stroke="black" stroke-width="1.5" />
<path d="M144.51322448979587,258.2988095238095 L144.6376326530612,258.2988095238095" stroke="black" stroke-width="1.5" />
<path d="M144.6376326530612,258.2988095238095 L144.76204081632648,258.2988095238095" stroke="black" stroke-width="1.5" />
<path d="M144.76204081632648,258.2988095238095 L144.8864489795918,258.2988095238095" stroke="black" stroke-width="1.5" />
<path d="M144.8864489795918,258.2988095238095 L145.01085714285708,258.2988095238095" stroke="black" stroke-width="1.5" />
<path d="M145.01085714285708,258.2988095238095 L145.1352653061224,258.2988095238095" stroke="black" stroke-width="1.5" />
<path d="M145.1352653061224,258.2988095238095 L145.25967346938768,258.2988095238095" stroke="black" stroke-width="1.5" />
<path d="M145.25967346938768,258.2988095238095 L145.38408163265296,258.2988095238095" stroke="black" stroke-width="1.5" />
<path d="M145.38408163265296,258.2988095238095 L145.50848979591828,258.2988095238095" stroke="black" stroke-width="1.5" />
<path d="M145.50848979591828,258.2988095238095 L145.63289795918357,258.2988095238095" stroke="black" stroke-width="1.5" />
<path d="M145.63289795918357,258.2988095238095 L145.75730612244888,258.2988095238095" stroke="black" stroke-width="1.5" />
<path d="M145.75730612244888,258.2988095238095 L145.88171428571417,258.2988095238095" stroke="black" stroke-width="1.5" />
<path d="M145.88171428571417,258.2988095238095 L146.00612244897948,258.2988095238095" stroke="black" stroke-width="1.5" />
<path d="M146.00612244897948,258.2988095238095 L146.13053061224477,258.2988095238095" stroke="black" stroke-width="1.5" />
<path d="M146.13053061224477,258.2988095238095 L146.25493877551008,258.2988095238095" stroke="black" stroke-width="1.5" />
<path d="M146.25493877551008,258.2988095238095 L146.37934693877537,258.2988095238095" stroke="black" stroke-width="1.5" />
<path d="M146.37934693877537,258.2988095238095 L146.50375510204069,258.2988095238095" stroke="black" stroke-width="1.5" />
<path d="M146.50375510204069,258.2988095238095 L146.62816326530597,258.2988095238095" stroke="black" stroke-width="1.5" />
<path d="M146.62816326530597,258.2988095238095 L146.75257142857126,258.2988095238095" stroke="black" stroke-width="1.5" />
<path d="M146.75257142857126,258.2988095238095 L146.87697959183657,258.2988095238095" stroke="black" stroke-width="1.5" />
<path d="M146.87697959183657,258.2988095238095 L147.00138775510186,258.2988095238095" stroke="black" stroke-width="1.5" />
<path d="M147.00138775510186,258.2988095238095 L147.12579591836717,258.2988095238095" stroke="black" stroke-width="1.5" />
<path d="M147.12579591836717,258.2988095238095 L147.25020408163246,258.2988095238095" stroke="black" stroke-width="1.5" />
<path d="M147.25020408163246,258.2988095238095 L147.37461224489778,258.2988095238095" stroke="black" stroke-width="1.5" />
<path d="M147.37461224489778,258.2988095238095 L147.49902040816306,258.2988095238095" stroke="black" stroke-width="1.5" />
<path d="M147.49902040816306,258.2988095238095 L147.62342857142838,258.2988095238095" stroke="black" stroke-width="1.5" />
<path d="M147.62342857142838,258.2988095238095 L147.74783673469366,258.2988095238095" stroke="black" stroke-width="1.5" />
<path d="M147.74783673469366,258.2988095238095 L147.87224489795895,258.2988095238095" stroke="black" stroke-width="1.5" />
<path d="M147.87224489795895,258.2988095238095 L147.99665306122427,258.2988095238095" stroke="black" stroke-width="1.5" />
<path d="M147.99665306122427,258.2988095238095 L148.12106122448955,258.2988095238095" stroke="black" stroke-width="1.5" />
<path d="M148.12106122448955,258.2988095238095 L148.24546938775487,258.29880952380944" stroke="black" stroke-width="1.5" />
<path d="M148.24546938775487,258.29880952380944 L148.36987755102015,258.2988095238095" stroke="black" stroke-width="1.5" />
<path d="M148.36987755102015,258.2988095238095 L148.49428571428547,258.2988095238095" stroke="black" stroke-width="1.5" />
<path d="M148.49428571428547,258.2988095238095 L148.61869387755075,258.2988095238095" stroke="black" stroke-width="1.5" />
<path d="M148.61869387755075,258.2988095238095 L148.74310204081607,258.2988095238095" stroke="black" stroke-width="1.5" />
<path d="M148.74310204081607,258.2988095238095 L148.86751020408136,258.29880952380955" stroke="black" stroke-width="1.5" />
<path d="M148.86751020408136,258.29880952380955 L148.99191836734667,258.2988095238095" stroke="black" stroke-width="1.5" />
<path d="M148.99191836734667,258.2988095238095 L149.11632653061196,258.29880952380944" stroke="black" stroke-width="1.5" />
<path d="M149.11632653061196,258.29880952380944 L149.24073469387724,258.29880952380955" stroke="black" stroke-width="1.5" />
<path d="M149.24073469387724,258.29880952380955 L149.36514285714256,258.2988095238095" stroke="black" stroke-width="1.5" />
<path d="M149.36514285714256,258.2988095238095 L149.48955102040784,258.2988095238095" stroke="black" stroke-width="1.5" />
<path d="M149.48955102040784,258.2988095238095 L149.61395918367316,258.2988095238095" stroke="black" stroke-width="1.5" />
<path d="M149.61395918367316,258.2988095238095 L149.73836734693845,258.2988095238095" stroke="black" stroke-width="1.5" />
<path d="M149.73836734693845,258.2988095238095 L149.86277551020376,258.2988095238095" stroke="black" stroke-width="1.5" />
<path d="M149.86277551020376,258.2988095238095 L149.98718367346905,258.2988095238095" stroke="black" stroke-width="1.5" />
<path d="M149.98718367346905,258.2988095238095 L150.11159183673436,258.2988095238095" stroke="black" stroke-width="1.5" />
<path d="M150.11159183673436,258.2988095238095 L150.23599999999965,258.2988095238095" stroke="black" stroke-width="1.5" />
<path d="M144.83599999999967,273.37380952380954 C143.71099999999967,271.3488095238095,148.21099999999967,268.87380952380954,150.23599999999965,270.6738095238095 C151.36099999999965,272.69880952380953,146.86099999999965,275.1738095238095,144.83599999999967,273.37380952380954" stroke-width="0.30375" stroke="#444" fill="#444" />
<path d="M150.23599999999965,270.6738095238095 L150.23599999999965,253.7988095238095" stroke="black" stroke-width="0.45" />
<path d="M150.23599999999965,253.7988095238095 L150.36040816326496,253.7988095238095" stroke="black" stroke-width="1.5" />
<path d="M150.36040816326496,253.7988095238095 L150.48481632653028,253.7988095238095" stroke="black" stroke-width="1.5" />
<path d="M150.48481632653028,253.7988095238095 L150.6092244897956,253.7988095238095" stroke="black" stroke-width="1.5" />
<path d="M150.6092244897956,253.7988095238095 L150.7336326530609,253.7988095238095" stroke="black" stroke-width="1.5" />
<path d="M150.7336326530609,253.7988095238095 L150.85804081632622,253.79880952380947" stroke="black" stroke-width="1.5" />
<path d="M150.85804081632622,253.79880952380947 L150.98244897959154,253.7988095238095" stroke="black" stroke-width="1.5" />
<path d="M150.98244897959154,253.7988095238095 L151.10685714285685,253.7988095238095" stroke="black" stroke-width="1.5" />
<path d="M151.10685714285685,253.7988095238095 L151.23126530612217,253.7988095238095" stroke="black" stroke-width="1.5" />
<path d="M151.23126530612217,253.7988095238095 L151.3556734693875,253.7988095238095" stroke="black" stroke-width="1.5" />
<path d="M151.3556734693875,253.7988095238095 L151.48008163265283,253.7988095238095" stroke="black" stroke-width="1.5" />
<path d="M151.48008163265283,253.7988095238095 L151.60448979591814,253.79880952380952" stroke="black" stroke-width="1.5" />
<path d="M151.60448979591814,253.79880952380952 L151.72889795918346,253.7988095238095" stroke="black" stroke-width="1.5" />
<path d="M151.72889795918346,253.7988095238095 L151.85330612244877,253.7988095238095" stroke="black" stroke-width="1.5" />
<path d="M151.85330612244877,253.7988095238095 L151.9777142857141,253.7988095238095" stroke="black" stroke-width="1.5" />
<path d="M151.9777142857141,253.7988095238095 L152.1021224489794,253.7988095238095" stroke="black" stroke-width="1.5" />
<path d="M152.1021224489794,253.7988095238095 L152.22653061224472,253.7988095238095" stroke="black" stroke-width="1.5" />
<path d="M152.22653061224472,253.7988095238095 L152.35093877551003,253.79880952380952" stroke="black" stroke-width="1.5" />
<path d="M152.35093877551003,253.79880952380952 L152.47534693877535,253.7988095238095" stroke="black" stroke-width="1.5" />
<path d="M152.47534693877535,253.7988095238095 L152.59975510204066,253.7988095238095" stroke="black" stroke-width="1.5" />
<path d="M152.59975510204066,253.7988095238095 L152.72416326530598,253.7988095238095" stroke="black" stroke-width="1.5" />
<path d="M152.72416326530598,253.7988095238095 L152.8485714285713,253.7988095238095" stroke="black" stroke-width="1.5" />
<path d="M152.8485714285713,253.7988095238095 L152.9729795918366,253.79880952380952" stroke="black" stroke-width="1.5" />
<path d="M152.9729795918366,253.79880952380952 L153.09738775510192,253.7988095238095" stroke="black" stroke-width="1.5" />
<path d="M153.09738775510192,253.7988095238095 L153.22179591836723,253.7988095238095" stroke="black" stroke-width="1.5" />
<path d="M153.22179591836723,253.7988095238095 L153.34620408163258,253.7988095238095" stroke="black" stroke-width="1.5" />
<path d="M153.34620408163258,253.7988095238095 L153.4706122448979,253.7988095238095" stroke="black" stroke-width="1.5" />
<path d="M153.4706122448979,253.7988095238095 L153.5950204081632,253.7988095238095" stroke="black" stroke-width="1.5" />
<path d="M153.5950204081632,253.7988095238095 L153.71942857142852,253.7988095238095" stroke="black" stroke-width="1.5" />
<path d="M153.71942857142852,253.7988095238095 L153.84383673469384,253.7988095238095" stroke="black" stroke-width="1.5" />
<path d="M153.84383673469384,253.7988095238095 L153.96824489795915,253.7988095238095" stroke="black" stroke-width="1.5" />
<path d="M153.96824489795915,253.7988095238095 L154.09265306122447,253.7988095238095" stroke="black" stroke-width="1.5" />
<path d="M154.09265306122447,253.7988095238095 L154.21706122448978,253.79880952380952" stroke="black" stroke-width="1.5" />
<path d="M154.21706122448978,253.79880952380952 L154.3414693877551,253.79880952380952" stroke="black" stroke-width="1.5" />
<path d="M154.3414693877551,253.79880952380952 L154.4658775510204,253.7988095238095" stroke="black" stroke-width="1.5" />
<path d="M154.4658775510204,253.7988095238095 L154.59028571428573,253.7988095238095" stroke="black" stroke-width="1.5" />
<path d="M154.59028571428573,253.7988095238095 L154.71469387755104,253.7988095238095" stroke="black" stroke-width="1.5" />
<path d="M154.71469387755104,253.7988095238095 L154.83910204081636,253.79880952380952" stroke="black" stroke-width="1.5" />
<path d="M154.83910204081636,253.79880952380952 L154.96351020408167,253.79880952380947" stroke="black" stroke-width="1.5" />
<path d="M154.96351020408167,253.79880952380947 L155.087918367347,253.7988095238095" stroke="black" stroke-width="1.5" />
<path d="M155.087918367347,253.7988095238095 L155.2123265306123,253.7988095238095" stroke="black" stroke-width="1.5" />
<path d="M155.2123265306123,253.7988095238095 L155.33673469387764,253.7988095238095" stroke="black" stroke-width="1.5" />
<path d="M155.33673469387764,253.7988095238095 L155.46114285714296,253.79880952380952" stroke="black" stroke-width="1.5" />
<path d="M155.46114285714296,253.79880952380952 L155.58555102040827,253.7988095238095" stroke="black" stroke-width="1.5" />
<path d="M155.58555102040827,253.7988095238095 L155.7099591836736,253.7988095238095" stroke="black" stroke-width="1.5" />
<path d="M155.7099591836736,253.7988095238095 L155.8343673469389,253.7988095238095" stroke="black" stroke-width="1.5" />
<path d="M155.8343673469389,253.7988095238095 L155.95877551020422,253.79880952380952" stroke="black" stroke-width="1.5" />
<path d="M155.95877551020422,253.79880952380952 L156.08318367346953,253.7988095238095" stroke="black" stroke-width="1.5" />
<path d="M156.08318367346953,253.7988095238095 L156.20759183673485,253.79880952380947" stroke="black" stroke-width="1.5" />
<path d="M156.20759183673485,253.79880952380947 L156.33200000000016,253.7988095238095" stroke="black" stroke-width="1.5" />
<path d="M150.23599999999965,258.2988095238095 L150.36040816326496,258.2988095238095" stroke="black" stroke-width="1.5" />
<path d="M150.36040816326496,258.2988095238095 L150.48481632653028,258.2988095238095" stroke="black" stroke-width="1.5" />
<path d="M150.48481632653028,258.2988095238095 L150.6092244897956,258.2988095238095" stroke="black" stroke-width="1.5" />
<path d="M150.6092244897956,258.2988095238095 L150.7336326530609,258.2988095238095" stroke="black" stroke-width="1.5" />
<path d="M150.7336326530609,258.2988095238095 L150.85804081632622,258.2988095238095" stroke="black" stroke-width="1.5" />
<path d="M150.85804081632622,258.2988095238095 L150.98244897959154,258.2988095238095" stroke="black" stroke-width="1.5" />
<path d="M150.98244897959154,258.2988095238095 L151.10685714285685,258.2988095238095" stroke="black" stroke-width="1.5" />
<path d="M151.10685714285685,258.2988095238095 L151.23126530612217,258.2988095238095" stroke="black" stroke-width="1.5" />
<path d="M151.23126530612217,258.2988095238095 L151.3556734693875,258.2988095238095" stroke="black" stroke-width="1.5" />
<path d="M151.3556734693875,258.2988095238095 L151.48008163265283,258.2988095238095" stroke="black" stroke-width="1.5" />
<path d="M151.48008163265283,258.2988095238095 L151.60448979591814,258.2988095238095" stroke="black" stroke-width="1.5" />
<path d="M151.60448979591814,258.2988095238095 L151.72889795918346,258.2988095238095" stroke="black" stroke-width="1.5" />
<path d="M151.72889795918346,258.2988095238095 L151.85330612244877,258.2988095238095" stroke="black" stroke-width="1.5" />
<path d="M151.85330612244877,258.2988095238095 L151.9777142857141,258.2988095238095" stroke="black" stroke-width="1.5" />
<path d="M151.9777142857141,258.2988095238095 L152.1021224489794,258.2988095238095" stroke="black" stroke-width="1.5" />
<path d="M152.1021224489794,258.2988095238095 L152.22653061224472,258.2988095238095" stroke="black" stroke-width="1.5" />
<path d="M152.22653061224472,258.2988095238095 L152.35093877551003,258.2988095238095" stroke="black" stroke-width="1.5" />
<path d="M152.35093877551003,258.2988095238095 L152.47534693877535,258.2988095238095" stroke="black" stroke-width="1.5" />
<path d="M152.47534693877535,258.2988095238095 L152.59975510204066,258.2988095238095" stroke="black" stroke-width="1.5" />
<path d="M152.59975510204066,258.2988095238095 L152.72416326530598,258.2988095238095" stroke="black" stroke-width="1.5" />
<path d="M152.72416326530598,258.2988095238095 L152.8485714285713,258.2988095238095" stroke="black" stroke-width="1.5" />
<path d="M152.8485714285713,258.2988095238095 L152.9729795918366,258.2988095238095" stroke="black" stroke-width="1.5" />
<path d="M152.9729795918366,258.2988095238095 L153.09738775510192,258.2988095238095" stroke="black" stroke-width="1.5" />
<path d="M153.09738775510192,258.2988095238095 L153.22179591836723,258.2988095238095" stroke="black" stroke-width="1.5" />
<path d="M153.22179591836723,258.2988095238095 L153.34620408163258,258.2988095238095" stroke="black" stroke-width="1.5" />
<path d="M153.34620408163258,258.2988095238095 L153.4706122448979,258.2988095238095" stroke="black" stroke-width="1.5" />
<path d="M153.4706122448979,258.2988095238095 L153.5950204081632,258.2988095238095" stroke="black" stroke-width="1.5" />
<path d="M153.5950204081632,258.2988095238095 L153.71942857142852,258.2988095238095" stroke="black" stroke-width="1.5" />
<path d="M153.71942857142852,258.2988095238095 L153.84383673469384,258.2988095238095" stroke="black" stroke-width="1.5" />
<path d="M153.84383673469384,258.2988095238095 L153.96824489795915,258.2988095238095" stroke="black" stroke-width="1.5" />
<path d="M153.96824489795915,258.2988095238095 L154.09265306122447,258.2988095238095" stroke="black" stroke-width="1.5" />
<path d="M154.09265306122447,258.2988095238095 L154.21706122448978,258.2988095238095" stroke="black" stroke-width="1.5" />
<path d="M154.21706122448978,258.2988095238095 L154.3414693877551,258.2988095238095" stroke="black" stroke-width="1.5" />
<path d="M154.3414693877551,258.2988095238095 L154.4658775510204,258.2988095238095" stroke="black" stroke-width="1.5" />
<path d="M154.4658775510204,258.2988095238095 L154.59028571428573,258.2988095238095" stroke="black" stroke-width="1.5" />
<path d="M154.59028571428573,258.2988095238095 L154.71469387755104,258.2988095238095" stroke="black" stroke-width="1.5" />
<path d="M154.71469387755104,258.2988095238095 L154.83910204081636,258.2988095238095" stroke="black" stroke-width="1.5" />
<path d="M154.83910204081636,258.2988095238095 L154.96351020408167,258.2988095238095" stroke="black" stroke-width="1.5" />
<path d="M154.96351020408167,258.2988095238095 L155.087918367347,258.2988095238095" stroke="black" stroke-width="1.5" />
<path d="M155.087918367347,258.2988095238095 L155.2123265306123,258.2988095238095" stroke="black" stroke-width="1.5" />
<path d="M155.2123265306123,258.2988095238095 L155.33673469387764,258.2988095238095" stroke="black" stroke-width="1.5" />
<path d="M155.33673469387764,258.2988095238095 L155.46114285714296,258.2988095238095" stroke="black" stroke-width="1.5" />
<path d="M155.46114285714296,258.2988095238095 L155.58555102040827,258.2988095238095" stroke="black" stroke-width="1.5" />
<path d="M155.58555102040827,258.2988095238095 L155.7099591836736,258.2988095238095" stroke="black" stroke-width="1.5" />
<path d="M155.7099591836736,258.2988095238095 L155.8343673469389,258.2988095238095" stroke="black" stroke-width="1.5" />
<path d="M155.8343673469389,258.2988095238095 L155.95877551020422,258.2988095238095" stroke="black" stroke-width="1.5" />
<path d="M155.95877551020422,258.2988095238095 L156.08318367346953,258.2988095238095" stroke="black" stroke-width="1.5" />
<path d="M156.08318367346953,258.2988095238095 L156.20759183673485,258.2988095238095" stroke="black" stroke-width="1.5" />
<path d="M156.20759183673485,258.2988095238095 L156.33200000000016,258.2988095238095" stroke="black" stroke-width="1.5" />
<path d="M150.9320000000002,273.37380952380954 C149.8070000000002,271.3488095238095,154.3070000000002,268.87380952380954,156.33200000000016,270.6738095238095 C157.45700000000016,272.69880952380953,152.95700000000016,275.1738095238095,150.9320000000002,273.37380952380954" stroke-width="0.30375" stroke="#444" fill="#444" />
<path d="M156.33200000000016,270.6738095238095 L156.33200000000016,253.7988095238095" stroke="black" stroke-width="0.45" />
<path d="M154.08200000000016,253.7988095238095 L154.33200000000016,253.7988095238095" stroke="black" stroke-width="1.5" />
<path d="M154.33200000000016,253.7988095238095 L154.58200000000016,253.7988095238095" stroke="black" stroke-width="1.5" />
<path d="M154.58200000000016,253.7988095238095 L154.83200000000016,253.7988095238095" stroke="black" stroke-width="1.5" />
<path d="M154.83200000000016,253.7988095238095 L155.08200000000016,253.7988095238095" stroke="black" stroke-width="1.5" />
<path d="M155.08200000000016,253.7988095238095 L155.33200000000016,253.7988095238095" stroke="black" stroke-width="1.5" />
<path d="M155.33200000000016,253.7988095238095 L155.58200000000016,253.79880952380947" stroke="black" stroke-width="1.5" />
<path d="M155.58200000000016,253.79880952380947 L155.83200000000016,253.7988095238095" stroke="black" stroke-width="1.5" />
<path d="M155.83200000000016,253.7988095238095 L156.08200000000016,253.7988095238095" stroke="black" stroke-width="1.5" />
<path d="M156.08200000000016,253.7988095238095 L156.33200000000016,253.7988095238095" stroke="black" stroke-width="1.5" />
<path d="M154.08200000000016,258.2988095238095 L154.33200000000016,258.2988095238095" stroke="black" stroke-width="1.5" />
<path d="M154.33200000000016,258.2988095238095 L154.58200000000016,258.2988095238095" stroke="black" stroke-width="1.5" />
<path d="M154.58200000000016,258.2988095238095 L154.83200000000016,258.2988095238095" stroke="black" stroke-width="1.5" />
<path d="M154.83200000000016,258.2988095238095 L155.08200000000016,258.2988095238095" stroke="black" stroke-width="1.5" />
<path d="M155.08200000000016,258.2988095238095 L155.33200000000016,258.2988095238095" stroke="black" stroke-width="1.5" />
<path d="M155.33200000000016,258.2988095238095 L155.58200000000016,258.2988095238095" stroke="black" stroke-width="1.5" />
<path d="M155.58200000000016,258.2988095238095 L155.83200000000016,258.2988095238095" stroke="black" stroke-width="1.5" />
<path d="M155.83200000000016,258.2988095238095 L156.08200000000016,258.2988095238095" stroke="black" stroke-width="1.5" />
<path d="M156.08200000000016,258.2988095238095 L156.33200000000016,258.2988095238095" stroke="black" stroke-width="1.5" />
<text x="149.06" y="248.02380952380952" font-size="7" text-anchor="middle" font-family="Cantarell" font-style="italic" dominant-baseline="middle">3</text>
<path d="M142.44,252.02380952380952 L142.44,248.02380952380952 L145.56,248.02380952380952 M152.56,248.02380952380952 L155.68,248.02380952380952 L155.68,252.02380952380952" stroke="black" stroke-width="0.3" fill="none" />
<path d="M160.25599999999966,268.24380952380955 Q162.77599999999967,271.2363095238095,165.92599999999968,268.87380952380954 Q162.77599999999967,272.0238095238095,162.77599999999967,276.74880952380954" stroke="#444" fill="none" stroke-width="0.6749999999999999" />
<path d="M140.815,282.0238095238095 Q140.815,281.2738095238095,141.44,282.5238095238095 Q141.44,286.3988095238095,138.94,293.5238095238095 M141.44,282.5238095238095 C146.44,279.5238095238095,146.44,288.2738095238095,141.44,286.3988095238095" stroke="black" fill="none" stroke-width="0.8333333333333334" />
<path d="M175.55299999999986,279.0438095238095 Q172.04299999999984,273.4863095238095,176.43049999999985,274.6563095238095 L174.38299999999984,271.1463095238095 L176.13799999999983,269.0988095238095 Q174.96799999999985,267.9288095238095,174.96799999999985,266.75880952380953" stroke="#444" fill="none" stroke-width="0.6749999999999999" />
<path d="M202.985,279.0438095238095 Q199.475,273.4863095238095,203.8625,274.6563095238095 L201.815,271.1463095238095 L203.57,269.0988095238095 Q202.4,267.9288095238095,202.4,266.75880952380953" stroke="#444" fill="none" stroke-width="0.6749999999999999" />
<text x="266.4079999999998" y="246.54761904761904" font-size="10" font-family="Cantarell Light" font-style="italic"><tspan x="266.4079999999998" dy="0em">(klein)</tspan></text>
<path d="M228.88,262.5 C234.88,250.5,245.68,246.9,236.07999999999998,256.5 C244.48,246.9,246.88,250.5,237.28,258.9 C245.68,250.5,249.28,251.7,238.48,261.3 C246.88,254.1,245.68,260.1,232.48,268.5" fill="none" stroke="black" stroke-width="0.75" />
<path d="M229.88,277.5 L230.88,275.0053399438313 L231.88,278.1747957314399 L232.88,280.57942911767003 L233.88,274.328620743218 L234.88,274.9912929680382 L235.88,280.3726613976979 L236.88,277.92446765531173 L237.88,281.10962992947174 L238.88,273.60418863521426 L239.88,276.2328476800251 L240.88,274.83437447753124 L241.88,276.58190272620385 L242.88,274.5554661501368 L243.88,280.1497171817987 L244.88,276.8044265643312 L245.88,279.3202133705449 L246.88,277.95950089542094 L247.88,279.46453462051335 L248.88,280.80867969339243 L249.88,274.96724066416795 L250.88,274.2882058453988 L251.88,277.5091062920194 L252.88,278.1090332465873 L253.88,277.47511428153246 L254.88,279.0275135299499 L255.88,281.3265250293106 L256.88,274.9198090907572 L257.88,276.40694196761757 L258.88,276.75431256666883 L259.88,277.4553851778831 L260.88,280.6062055545924 L261.88,280.79806715003343 L262.88,276.56688924252956 L263.88,277.50427249212686" fill="none" stroke="black" stroke-width="0.8" />
<path d="M230.18,298.85 C229.055,296.825,233.555,294.35,235.57999999999998,296.15 C236.70499999999998,298.175,232.20499999999998,300.65,230.18,298.85" fill="#444" />
<path d="M235.57999999999998,297.04999999999995 L235.57999999999998,282.65" stroke="black" stroke-width="0.45" />
<path d="M235.38,305.5 Q235.38,304.5,234.32999999999998,304.5 C232.93,304.5,232.57999999999998,316.5,232.23,317.0 Q231.53,317.0,231.53,316.0 M231.88,309.5 H234.68" stroke="black" fill="none" stroke-width="0.8333333333333334" />
<path d="M266.99299999999977,304.52 Q263.4829999999998,298.9625,267.87049999999977,300.1325 L265.8229999999998,296.6225 L267.5779999999998,294.575 Q266.4079999999998,293.405,266.4079999999998,292.235" stroke="#444" fill="none" stroke-width="0.6749999999999999" />
<path d="M294.425,304.52 Q290.915,298.9625,295.3025,300.1325 L293.25500000000005,296.6225 L295.01000000000005,294.575 Q293.84000000000003,293.405,293.84000000000003,292.235" stroke="#444" fill="none" stroke-width="0.6749999999999999" />
<path d="M324.905,304.52 Q321.395,298.9625,325.78249999999997,300.1325 L323.735,296.6225 L325.49,294.575 Q324.32,293.405,324.32,292.235" stroke="#444" fill="none" stroke-width="0.6749999999999999" />
<circle cx="356.8" cy="257.5" r="2" stroke="black" fill="none" stroke-width="0.5" />
<path d="M356.8,259.5 L356.8,271.5" stroke="black" stroke-width="0.5" />
<path d="M354.8,278.5 C353.675,289.0,356.3,287.5,356.3,286.375 M353.3,281.56 L356.3,281.56 M357.8,287.5 L357.8,282.55 Q358.925,284.05,360.05,282.55" fill="none" stroke="black" stroke-width="0.8" />
<path d="M360.05,282.55 C362.05,278.55,362.05,286.55,364.05,282.55 C366.05,278.55,366.05,286.55,368.05,282.55 C370.05,278.55,370.05,286.55,372.05,282.55 C374.05,278.55,374.05,286.55,376.05,282.55 C378.05,278.55,378.05,286.55,380.05,282.55 C382.05,278.55,382.05,286.55,384.05,282.55 C386.05,278.55,386.05,286.55,388.05,282.55 C390.05,278.55,390.05,286.55,392.05,282.55 C394.05,278.55,394.05,286.55,396.05,282.55 C398.05,278.55,398.05,286.55,400.05,282.55 C402.05,278.55,402.05,286.55,404.05,282.55 C406.05,278.55,406.05,286.55,408.05,282.55 C410.05,278.55,410.05,286.55,412.05,282.55 C414.05,278.55,414.05,286.55,416.05,282.55 C418.05,278.55,418.05,286.55,420.05,282.55 C422.05,278.55,422.05,286.55,424.05,282.55 C426.05,278.55,426.05,286.55,428.05,282.55 C430.05,278.55,430.05,286.55,432.05,282.55 C434.05,278.55,434.05,286.55,436.05,282.55 C438.05,278.55,438.05,286.55,440.05,282.55 C442.05,278.55,442.05,286.55,444.05,282.55 C446.05,278.55,446.05,286.55,448.05,282.55 C450.05,278.55,450.05,286.55,452.05,282.55 C454.05,278.55,454.05,286.55,456.05,282.55 C458.05,278.55,458.05,286.55,460.05,282.55 C462.05,278.55,462.05,286.55,464.05,282.55 C466.05,278.55,466.05,286.55,468.05,282.55 C470.05,278.55,470.05,286.55,472.05,282.55 C474.05,278.55,474.05,286.55,476.05,282.55" fill="none" stroke="black" stroke-width="0.5" />
<path d="M354.1,298.85 C352.975,296.825,357.475,294.35,359.5,296.15 C360.625,298.175,356.125,300.65,354.1,298.85" stroke-width="0.5399999999999999" stroke="black" fill="none" />
<path d="M354.175,309.5 Q354.175,308.75,354.8,310.0 Q354.8,313.875,352.3,321.0 M354.8,310.0 C359.8,307.0,359.8,315.75,354.8,313.875" stroke="black" fill="none" stroke-width="0.8333333333333334" />
<text x="552.9200000000001" y="119.16666666666666" font-size="10" font-family="Cantarell Light" font-style="italic">regungslos stehen</text>
<text x="552.9200000000001" y="284.76190476190476" font-size="10" font-family="Cantarell Light" font-style="italic">regungslos stehen</text>
<path d="M635.2159999999997,119.16666666666666 L812.0,119.16666666666666" stroke="gray" stroke-width="0.3" stroke-dasharray="5 5" />
<path d="M635.2159999999997,284.76190476190476 L812.0,284.76190476190476" stroke="gray" stroke-width="0.3" stroke-dasharray="5 5" />
<text x="50.0" y="433.0952380952381" font-size="10" font-family="Cantarell Light" font-style="italic">quasi "m"</text>
<path d="M49.375,478.0952380952381 Q49.375,477.3452380952381,50.0,478.5952380952381 Q50.0,482.4702380952381,47.5,489.5952380952381 M50.0,478.5952380952381 C55.0,475.5952380952381,55.0,484.3452380952381,50.0,482.4702380952381" stroke="black" fill="none" stroke-width="0.8333333333333334" />
<path d="M47.3,464.4452380952381 C46.175,462.42023809523806,50.675,459.9452380952381,52.7,461.74523809523805 C53.825,463.7702380952381,49.325,466.24523809523805,47.3,464.4452380952381" fill="#444" />
<path d="M52.7,462.645238095238 L52.7,448.24523809523805" stroke="black" stroke-width="0.45" />
<circle cx="54.95" cy="461.29523809523806" r="0.75" fill="#444" />
<path d="M93.2,459.3152380952381 Q95.72,462.30773809523805,98.87,459.9452380952381 Q95.72,463.0952380952381,95.72,467.8202380952381" stroke="#444" fill="none" stroke-width="0.6749999999999999" />
<path d="M108.26,464.4452380952381 C107.135,462.42023809523806,111.635,459.9452380952381,113.66000000000001,461.74523809523805 C114.78500000000001,463.7702380952381,110.28500000000001,466.24523809523805,108.26,464.4452380952381" fill="#444" />
<path d="M113.66000000000001,462.645238095238 L113.66000000000001,448.24523809523805" stroke="black" stroke-width="0.45" />
<circle cx="115.91000000000001" cy="461.29523809523806" r="0.75" fill="#444" />
<path d="M154.16,459.3152380952381 Q156.68,462.30773809523805,159.83,459.9452380952381 Q156.68,463.0952380952381,156.68,467.8202380952381" stroke="#444" fill="none" stroke-width="0.6749999999999999" />
<path d="M169.22000000000003,464.4452380952381 C168.09500000000003,462.42023809523806,172.59500000000003,459.9452380952381,174.62,461.74523809523805 C175.745,463.7702380952381,171.245,466.24523809523805,169.22000000000003,464.4452380952381" stroke="black" fill="none" stroke-width="0.675" />
<path d="M174.62,461.74523809523805 L174.62,448.78523809523807" stroke="black" stroke-width="0.45" />
<path d="M321.32,438.0952380952381 L322.62809872173546,435.6166985647404 L323.896144520692,440.213127483949 L325.7353471723771,435.5622664449117 L327.6065170201492,440.51028582942314 L328.93577404820775,435.5807890219255 L330.14267229966026,440.8903122709754 L331.40787044608334,435.12455852659343 L332.84846944933435,440.3580915857046 L334.217910367955,435.473734961181 L335.81971342397446,440.48676529272507 L337.5996458598433,435.30094131101987 L338.8935715641604,440.6569090317872 L340.17647037639136,435.43836071588646 L341.9153162692411,440.5655882734103 L343.2017300271496,435.2798610465984 L344.22250901316545,440.13482161893415 L345.9093702052853,435.6525672156588 L347.28777240641176,440.29820611881564 L348.59776939908386,435.44849796288065 L350.26435784159673,440.93643557313885 L351.6073777593124,436.04040934088584 L352.71747149849773,441.00272830808046 L354.1437492798545,435.8733883275945 L355.20640530153327,441.02556836860435 L356.65063819375115,435.70081346040746 L358.0291204944759,440.10148443712234 L359.09250640726094,435.44428382552593 L360.3094175532338,440.63870318388626 L362.01334637359275,436.01063433830325 L363.3659236386733,440.54490083518425 L365.34981419375157,435.26623715240476 L366.8892022826136,440.26114033690976 L367.9791386619077,435.6869260464978 L369.29158397896026,440.1654170149694 L371.09670248613764,435.48388237393056" fill="none" stroke="black" stroke-width="0.6000000000000001" />
<path d="M324.82,474.0952380952381 Q324.82,473.0952380952381,323.77,473.0952380952381 C322.37,473.0952380952381,322.02,485.0952380952381,321.67,485.5952380952381 Q320.96999999999997,485.5952380952381,320.96999999999997,484.5952380952381 M321.32,478.0952380952381 H324.12" stroke="black" fill="none" stroke-width="0.8333333333333334" />
<path d="M321.62,464.4452380952381 C320.495,462.42023809523806,324.995,459.9452380952381,327.02,461.74523809523805 C328.145,463.7702380952381,323.645,466.24523809523805,321.62,464.4452380952381" fill="#444" />
<path d="M327.02,462.645238095238 L327.02,448.24523809523805" stroke="black" stroke-width="0.45" />
<circle cx="329.27" cy="461.29523809523806" r="0.75" fill="#444" />
<path d="M367.52000000000004,459.3152380952381 Q370.04,462.30773809523805,373.19,459.9452380952381 Q370.04,463.0952380952381,370.04,467.8202380952381" stroke="#444" fill="none" stroke-width="0.6749999999999999" />
<path d="M385.865,470.11523809523806 Q382.355,464.55773809523805,386.7425,465.72773809523807 L384.69500000000005,462.2177380952381 L386.45000000000005,460.17023809523806 Q385.28000000000003,459.00023809523805,385.28000000000003,457.8302380952381" stroke="#444" fill="none" stroke-width="0.6749999999999999" />
<path d="M416.34499999999997,470.11523809523806 Q412.835,464.55773809523805,417.22249999999997,465.72773809523807 L415.175,462.2177380952381 L416.93,460.17023809523806 Q415.76,459.00023809523805,415.76,457.8302380952381" stroke="#444" fill="none" stroke-width="0.6749999999999999" />
<path d="M446.24,438.0952380952381 L447.36408149858215,436.0138622523647 L449.0527422522594,440.3155467730089 L450.1332771973494,435.1802348884144 L451.37074255565545,440.6714223297131 L452.9521432786514,435.84297181968225 L454.1506409819129,440.86314756339954 L455.2911596138954,435.6780115911076 L457.0534758244863,440.4427396891763 L458.72525966152426,435.991313644243 L459.8300768227348,441.0284442357964 L461.5023142230115,435.79551219928845 L463.0865810850409,440.1760765111344 L464.58216088305153,435.435649003892 L465.95148957014493,440.98533982688264 L467.0836399905152,435.5346595573996 L468.9615863010493,440.43221395648897 L470.7737413870791,435.92018558245786 L472.7483942567804,440.6447763320426 L474.12123137223443,435.42300362987913 L475.6876507851778,440.77997787436004 L477.3969646439361,435.8958712361821 L479.2881858394986,440.6462647742872 L480.7834959422256,436.08749891974094 L481.92845561254944,440.94117857590726 L483.3485772560757,435.43608070243556 L485.26585603582055,440.2622846933137 L486.3334648324255,435.7995183698475 L487.66049116959675,440.3909009410587 L489.53284381458474,435.29697012644317 L491.1149149198585,440.27490310808685 L493.0577884076651,435.10472130005064" fill="none" stroke="black" stroke-width="0.6000000000000001" />
<path d="M443.54,464.4452380952381 C442.415,462.42023809523806,446.915,459.9452380952381,448.94,461.74523809523805 C450.065,463.7702380952381,445.565,466.24523809523805,443.54,464.4452380952381" fill="#444" />
<path d="M448.94,462.645238095238 L448.94,448.24523809523805" stroke="black" stroke-width="0.45" />
<circle cx="451.19" cy="461.29523809523806" r="0.75" fill="#444" />
<path d="M489.44,459.3152380952381 Q491.96,462.30773809523805,495.10999999999996,459.9452380952381 Q491.96,463.0952380952381,491.96,467.8202380952381" stroke="#444" fill="none" stroke-width="0.6749999999999999" />
</svg>