<?xml version="1.0" encoding="UTF-8"?>
<svg xmlns="http://www.w3.org/2000/svg" xmlns:xlink="http://www.w3.org/1999/xlink"
    width="3368" height="2380" viewBox="0 0 842 595" font-family="Simvoni">
<defs>
</defs>
<text x="16.0" y="112.79761904761904" font-size="24" dominant-baseline="middle">V</text>
<path d="M50.0,70.47619047619048 L50.0,60.47619047619048" stroke="black" stroke-width="0.5" />
<text x="50.0" y="55.476190476190474" font-size="8" text-anchor="middle">100</text>
<path d="M80.48,70.47619047619048 L80.48,65.47619047619048" stroke="black" stroke-width="0.5" />
<path d="M110.96000000000001,70.47619047619048 L110.96000000000001,65.47619047619048" stroke="black" stroke-width="0.5" />
<path d="M141.44,70.47619047619048 L141.44,65.47619047619048" stroke="black" stroke-width="0.5" />
<path d="M171.92000000000002,70.47619047619048 L171.92000000000002,65.47619047619048" stroke="black" stroke-width="0.5" />
<path d="M202.4,70.47619047619048 L202.4,60.47619047619048" stroke="black" stroke-width="0.5" />
<path d="M232.88,70.47619047619048 L232.88,65.47619047619048" stroke="black" stroke-width="0.5" />
<text x="232.88" y="50.476190476190474" font-size="12" text-anchor="middle">106</text>
<path d="M232.88,55.476190476190474 V75.47619047619048 M228.88,71.47619047619048 L232.88,75.47619047619048 L236.88,71.47619047619048" stroke-width="1" stroke="black" fill="none" transform="rotate(0.000000 232.880000 55.476190)" />
<path d="M263.36,70.47619047619048 L263.36,65.47619047619048" stroke="black" stroke-width="0.5" />
<path d="M293.84000000000003,70.47619047619048 L293.84000000000003,65.47619047619048" stroke="black" stroke-width="0.5" />
<path d="M324.32,70.47619047619048 L324.32,65.47619047619048" stroke="black" stroke-width="0.5" />
<path d="M354.8,70.47619047619048 L354.8,60.47619047619048" stroke="black" stroke-width="0.5" />
<text x="354.8" y="55.476190476190474" font-size="8" text-anchor="middle">110</text>
<path d="M385.28000000000003,70.47619047619048 L385.28000000000003,65.47619047619048" stroke="black" stroke-width="0.5" />
<path d="M415.76,70.47619047619048 L415.76,65.47619047619048" stroke="black" stroke-width="0.5" />
<path d="M446.24,70.47619047619048 L446.24,65.47619047619048" stroke="black" stroke-width="0.5" />
<path d="M476.72,70.47619047619048 L476.72,65.47619047619048" stroke="black" stroke-width="0.5" />
<path d="M507.2,70.47619047619048 L507.2,60.47619047619048" stroke="black" stroke-width="0.5" />
<text x="507.2" y="55.476190476190474" font-size="8" text-anchor="middle">115</text>
<path d="M537.6800000000001,70.47619047619048 L537.6800000000001,65.47619047619048" stroke="black" stroke-width="0.5" />
<path d="M568.16,70.47619047619048 L568.16,65.47619047619048" stroke="black" stroke-width="0.5" />
<path d="M598.64,70.47619047619048 L598.64,65.47619047619048" stroke="black" stroke-width="0.5" />
<path d="M629.12,70.47619047619048 L629.12,65.47619047619048" stroke="black" stroke-width="0.5" />
<path d="M659.6,70.47619047619048 L659.6,60.47619047619048" stroke="black" stroke-width="0.5" />
<text x="659.6" y="55.476190476190474" font-size="8" text-anchor="middle">120</text>
<path d="M690.08,70.47619047619048 L690.08,65.47619047619048" stroke="black" stroke-width="0.5" />
<path d="M720.5600000000001,70.47619047619048 L720.5600000000001,65.47619047619048" stroke="black" stroke-width="0.5" />
<path d="M751.04,70.47619047619048 L751.04,65.47619047619048" stroke="black" stroke-width="0.5" />
<path d="M781.52,70.47619047619048 L781.52,65.47619047619048" stroke="black" stroke-width="0.5" />
<path d="M812.0,70.47619047619048 L812.0,60.47619047619048" stroke="black" stroke-width="0.5" />
<text x="812.0" y="55.476190476190474" font-size="8" text-anchor="middle">125</text>
<text x="16.0" y="278.3928571428571" font-size="24" dominant-baseline="middle">P</text>
<path d="M50.0,185.11904761904762 L50.0,175.11904761904762" stroke="black" stroke-width="0.5" />
<text x="50.0" y="170.11904761904762" font-size="8" text-anchor="middle">100</text>
<path d="M80.48,185.11904761904762 L80.48,180.11904761904762" stroke="black" stroke-width="0.5" />
<path d="M110.96000000000001,185.11904761904762 L110.96000000000001,180.11904761904762" stroke="black" stroke-width="0.5" />
<path d="M141.44,185.11904761904762 L141.44,180.11904761904762" stroke="black" stroke-width="0.5" />
<path d="M171.92000000000002,185.11904761904762 L171.92000000000002,180.11904761904762" stroke="black" stroke-width="0.5" />
<path d="M202.4,185.11904761904762 L202.4,175.11904761904762" stroke="black" stroke-width="0.5" />
<text x="202.4" y="170.11904761904762" font-size="8" text-anchor="middle">105</text>
<path d="M232.88,185.11904761904762 L232.88,180.11904761904762" stroke="black" stroke-width="0.5" />
<path d="M263.36,185.11904761904762 L263.36,180.11904761904762" stroke="black" stroke-width="0.5" />
<path d="M293.84000000000003,185.11904761904762 L293.84000000000003,180.11904761904762" stroke="black" stroke-width="0.5" />
<path d="M324.32,185.11904761904762 L324.32,180.11904761904762" stroke="black" stroke-width="0.5" />
<path d="M354.8,185.11904761904762 L354.8,175.11904761904762" stroke="black" stroke-width="0.5" />
<text x="354.8" y="170.11904761904762" font-size="8" text-anchor="middle">110</text>
<path d="M385.28000000000003,185.11904761904762 L385.28000000000003,180.11904761904762" stroke="black" stroke-width="0.5" />
<path d="M415.76,185.11904761904762 L415.76,180.11904761904762" stroke="black" stroke-width="0.5" />
<path d="M446.24,185.11904761904762 L446.24,180.11904761904762" stroke="black" stroke-width="0.5" />
<path d="M476.72,185.11904761904762 L476.72,180.11904761904762" stroke="black" stroke-width="0.5" />
<path d="M507.2,185.11904761904762 L507.2,175.11904761904762" stroke="black" stroke-width="0.5" />
<text x="507.2" y="165.11904761904762" font-size="12" text-anchor="middle">115</text>
<path d="M507.2,170.11904761904762 V190.11904761904762 M503.2,186.11904761904762 L507.2,190.11904761904762 L511.2,186.11904761904762" stroke-width="1" stroke="black" fill="none" transform="rotate(0.000000 507.200000 170.119048)" />
<path d="M537.6800000000001,185.11904761904762 L537.6800000000001,180.11904761904762" stroke="black" stroke-width="0.5" />
<path d="M568.16,185.11904761904762 L568.16,180.11904761904762" stroke="black" stroke-width="0.5" />
<path d="M598.64,185.11904761904762 L598.64,180.11904761904762" stroke="black" stroke-width="0.5" />
<path d="M629.12,185.11904761904762 L629.12,180.11904761904762" stroke="black" stroke-width="0.5" />
<path d="M659.6,185.11904761904762 L659.6,175.11904761904762" stroke="black" stroke-width="0.5" />
<text x="659.6" y="170.11904761904762" font-size="8" text-anchor="middle">120</text>
<path d="M690.08,185.11904761904762 L690.08,180.11904761904762" stroke="black" stroke-width="0.5" />
<path d="M720.5600000000001,185.11904761904762 L720.5600000000001,180.11904761904762" stroke="black" stroke-width="0.5" />
<path d="M751.04,185.11904761904762 L751.04,180.11904761904762" stroke="black" stroke-width="0.5" />
<path d="M781.52,185.11904761904762 L781.52,180.11904761904762" stroke="black" stroke-width="0.5" />
<path d="M812.0,185.11904761904762 L812.0,175.11904761904762" stroke="black" stroke-width="0.5" />
<text x="812.0" y="170.11904761904762" font-size="8" text-anchor="middle">125</text>
<text x="16.0" y="475.8333333333333" font-size="24" dominant-baseline="middle">E</text>
<path d="M50.0,401.66666666666663 L50.0,391.66666666666663" stroke="black" stroke-width="0.5" />
<text x="50.0" y="386.66666666666663" font-size="8" text-anchor="middle">100</text>
<path d="M80.48,401.66666666666663 L80.48,396.66666666666663" stroke="black" stroke-width="0.5" />
<path d="M110.96000000000001,401.66666666666663 L110.96000000000001,396.66666666666663" stroke="black" stroke-width="0.5" />
<path d="M141.44,401.66666666666663 L141.44,396.66666666666663" stroke="black" stroke-width="0.5" />
<path d="M171.92000000000002,401.66666666666663 L171.92000000000002,396.66666666666663" stroke="black" stroke-width="0.5" />
<path d="M202.4,401.66666666666663 L202.4,391.66666666666663" stroke="black" stroke-width="0.5" />
<text x="202.4" y="386.66666666666663" font-size="8" text-anchor="middle">105</text>
<path d="M232.88,401.66666666666663 L232.88,396.66666666666663" stroke="black" stroke-width="0.5" />
<path d="M263.36,401.66666666666663 L263.36,396.66666666666663" stroke="black" stroke-width="0.5" />
<path d="M293.84000000000003,401.66666666666663 L293.84000000000003,396.66666666666663" stroke="black" stroke-width="0.5" />
<path d="M324.32,401.66666666666663 L324.32,396.66666666666663" stroke="black" stroke-width="0.5" />
<path d="M354.8,401.66666666666663 L354.8,391.66666666666663" stroke="black" stroke-width="0.5" />
<path d="M385.28000000000003,401.66666666666663 L385.28000000000003,396.66666666666663" stroke="black" stroke-width="0.5" />
<path d="M415.76,401.66666666666663 L415.76,396.66666666666663" stroke="black" stroke-width="0.5" />
<text x="415.76" y="381.66666666666663" font-size="12" text-anchor="middle">112</text>
<path d="M415.76,386.66666666666663 V406.66666666666663 M411.76,402.66666666666663 L415.76,406.66666666666663 L419.76,402.66666666666663" stroke-width="1" stroke="black" fill="none" transform="rotate(0.000000 415.760000 386.666667)" />
<path d="M446.24,401.66666666666663 L446.24,396.66666666666663" stroke="black" stroke-width="0.5" />
<path d="M476.72,401.66666666666663 L476.72,396.66666666666663" stroke="black" stroke-width="0.5" />
<path d="M507.2,401.66666666666663 L507.2,391.66666666666663" stroke="black" stroke-width="0.5" />
<path d="M537.6800000000001,401.66666666666663 L537.6800000000001,396.66666666666663" stroke="black" stroke-width="0.5" />
<path d="M568.16,401.66666666666663 L568.16,396.66666666666663" stroke="black" stroke-width="0.5" />
<path d="M598.64,401.66666666666663 L598.64,396.66666666666663" stroke="black" stroke-width="0.5" />
<path d="M629.12,401.66666666666663 L629.12,396.66666666666663" stroke="black" stroke-width="0.5" />
<path d="M659.6,401.66666666666663 L659.6,391.66666666666663" stroke="black" stroke-width="0.5" />
<text x="659.6" y="381.66666666666663" font-size="12" text-anchor="middle">120</text>
<path d="M659.6,386.66666666666663 V406.66666666666663 M655.6,402.66666666666663 L659.6,406.66666666666663 L663.6,402.66666666666663" stroke-width="1" stroke="black" fill="none" transform="rotate(0.000000 659.600000 386.666667)" />
<path d="M690.08,401.66666666666663 L690.08,396.66666666666663" stroke="black" stroke-width="0.5" />
<path d="M720.5600000000001,401.66666666666663 L720.5600000000001,396.66666666666663" stroke="black" stroke-width="0.5" />
<path d="M751.04,401.66666666666663 L751.04,396.66666666666663" stroke="black" stroke-width="0.5" />
<text x="751.04" y="381.66666666666663" font-size="12" text-anchor="middle">123</text>
<path d="M751.04,386.66666666666663 V406.66666666666663 M747.04,402.66666666666663 L751.04,406.66666666666663 L755.04,402.66666666666663" stroke-width="1" stroke="black" fill="none" transform="rotate(0.000000 751.040000 386.666667)" />
<path d="M781.52,401.66666666666663 L781.52,396.66666666666663" stroke="black" stroke-width="0.5" />
<path d="M812.0,401.66666666666663 L812.0,391.66666666666663" stroke="black" stroke-width="0.5" />
<text x="812.0" y="386.66666666666663" font-size="8" text-anchor="middle">125</text>
<text x="230.88" y="96.23809523809524" font-size="16">UND</text>
<path d="M230.18,120.51666666666665 C229.055,118.49166666666666,233.555,116.01666666666665,235.57999999999998,117.81666666666666 C236.70499999999998,119.84166666666665,232.20499999999998,122.31666666666666,230.18,120.51666666666665" fill="#444" />
<path d="M235.57999999999998,118.71666666666667 L235.57999999999998,104.31666666666666" stroke="#444" stroke-width="0.45" />
<path d="M237.88,119.16666666666666 Q253.168,121.16666666666666,263.36,129.16666666666666 Q252.6584,121.36666666666666,237.88,119.16666666666666" fill="black" stroke="black" stroke-width="1" />
<text x="263.36" y="119.16666666666666" font-size="10" font-family="Cantarell Light" font-style="italic">Sprechstimme</text>
<path d="M227.57999999999998,144.16666666666666 L227.57999999999998,149.16666666666666 Q227.57999999999998,144.16666666666666,228.82999999999998,144.16666666666666 Q230.07999999999998,144.16666666666666,230.07999999999998,149.16666666666666 Q230.07999999999998,144.16666666666666,231.32999999999998,144.16666666666666 Q232.57999999999998,144.16666666666666,232.57999999999998,149.16666666666666" stroke="black" fill="none" stroke-width="0.8333333333333334" />
<path d="M237.68,140.16666666666666 Q237.68,139.16666666666666,236.63,139.16666666666666 C235.23000000000002,139.16666666666666,234.88,151.16666666666666,234.53,151.66666666666666 Q233.83,151.66666666666666,233.83,150.66666666666666 M234.18,144.16666666666666 H236.98000000000002" stroke="black" fill="none" stroke-width="0.8333333333333334" />
<path d="M262.735,144.16666666666666 Q262.735,143.41666666666666,263.36,144.66666666666666 Q263.36,148.54166666666666,260.86,155.66666666666666 M263.36,144.66666666666666 C268.36,141.66666666666666,268.36,150.41666666666666,263.36,148.54166666666666" stroke="black" fill="none" stroke-width="0.8333333333333334" />
<path d="M242.88,144.16666666666666 L257.264,148.16666666666666 L242.88,150.16666666666666" stroke="black" fill="none" stroke-width="0.4" />
<path d="M50.0,297.5 L354.8,297.5" stroke="black" stroke-width="0.5" />
<text x="48.0" y="246.54761904761904" font-size="12" font-family="Cantarell"></text>
<path d="M507.2,297.5 L629.12,297.5" stroke="black" stroke-width="0.5" />
<text x="505.2" y="246.54761904761904" font-size="12" font-family="Cantarell">Alufolie</text>
<path d="M50.585,304.52 Q47.075,298.9625,51.4625,300.1325 L49.415,296.6225 L51.17,294.575 Q50.0,293.405,50.0,292.235" stroke="#444" fill="none" stroke-width="1.0125" />
<path d="M81.065,304.52 Q77.555,298.9625,81.94250000000001,300.1325 L79.89500000000001,296.6225 L81.65,294.575 Q80.48,293.405,80.48,292.235" stroke="#444" fill="none" stroke-width="1.0125" />
<path d="M111.545,304.52 Q108.03500000000001,298.9625,112.42250000000001,300.1325 L110.37500000000001,296.6225 L112.13000000000001,294.575 Q110.96000000000001,293.405,110.96000000000001,292.235" stroke="#444" fill="none" stroke-width="1.0125" />
<path d="M138.74,298.85 C137.615,296.825,142.115,294.35,144.14,296.15 C145.265,298.175,140.765,300.65,138.74,298.85" fill="#444" />
<path d="M138.74,297.95000000000005 L138.74,312.35" stroke="#444" stroke-width="0.45" />
<path d="M138.74,293.0 L144.59,293.0" stroke="black" stroke-width="0.9" />
<path d="M172.50500000000002,304.52 Q168.995,298.9625,173.38250000000002,300.1325 L171.335,296.6225 L173.09,294.575 Q171.92000000000002,293.405,171.92000000000002,292.235" stroke="#444" fill="none" stroke-width="1.0125" />
<path d="M202.985,304.52 Q199.475,298.9625,203.8625,300.1325 L201.815,296.6225 L203.57,294.575 Q202.4,293.405,202.4,292.235" stroke="#444" fill="none" stroke-width="1.0125" />
<path d="M233.465,304.52 Q229.95499999999998,298.9625,234.3425,300.1325 L232.295,296.6225 L234.04999999999998,294.575 Q232.88,293.405,232.88,292.235" stroke="#444" fill="none" stroke-width="1.0125" />
<path d="M263.945,304.52 Q260.435,298.9625,264.8225,300.1325 L262.77500000000003,296.6225 L264.53000000000003,294.575 Q263.36,293.405,263.36,292.235" stroke="#444" fill="none" stroke-width="1.0125" />
<path d="M291.14000000000004,298.85 C290.01500000000004,296.825,294.51500000000004,294.35,296.54,296.15 C297.665,298.175,293.165,300.65,291.14000000000004,298.85" stroke="black" fill="none" stroke-width="0.675" />
<path d="M291.14000000000004,298.85 L291.14000000000004,311.81" stroke="black" stroke-width="0.45" />
<path d="M291.14000000000004,293.0 L296.99,293.0" stroke="black" stroke-width="0.9" />
<path d="M501.2,267.5 C507.2,255.5,518.0,251.9,508.4,261.5 C516.8,251.9,519.2,255.5,509.59999999999997,263.9 C518.0,255.5,521.6,256.7,510.8,266.3 C519.2,259.1,518.0,265.1,504.8,273.5" fill="none" stroke="black" stroke-width="0.75" />
<path d="M506.5,298.85 C505.375,296.825,509.875,294.35,511.9,296.15 C513.025,298.175,508.525,300.65,506.5,298.85" stroke="black" fill="none" stroke-width="0.81" />
<path d="M506.5,298.85 L506.5,298.85" stroke="black" stroke-width="0.45" />
<path d="M507.2,287.5 C509.7,283.5,509.7,291.5,512.2,287.5 C514.2614274394139,284.1027270295916,514.2614274394139,290.8972729704084,516.3228548788277,287.5 C518.4095283300419,283.8636814271813,518.4095283300419,291.1363185728187,520.496201781256,287.5 C522.6931185155801,283.1826415018101,522.6931185155801,291.8173584981899,524.8900352499043,287.5 C527.7683904104479,283.05642207535493,527.7683904104479,291.94357792464507,530.6467455709916,287.5 C533.2998611914136,283.92811522024095,533.2998611914136,291.07188477975905,535.9529768118356,287.5 C538.0792943685312,284.46782956143664,538.0792943685312,290.53217043856336,540.205611925227,287.5 C542.3136266599196,283.7237072911813,542.3136266599196,291.2762927088187,544.4216413946122,287.5 C547.3475718055722,283.84717549438574,547.3475718055722,291.15282450561426,550.2735022165322,287.5 C552.5369454836482,282.9564124499542,552.5369454836482,292.0435875500458,554.8003887507642,287.5 C557.6617381920497,283.9776903617689,557.6617381920497,291.0223096382311,560.5230876333352,287.5 C563.0383865906891,283.2192921929962,563.0383865906891,291.7807078070038,565.553685548043,287.5 C568.43183034721,282.61923172149613,568.43183034721,292.38076827850387,571.309975146377,287.5 C573.9378252453039,282.5486730504713,573.9378252453039,292.4513269495287,576.5656753442307,287.5 C579.513182668352,283.67184925472816,579.513182668352,291.32815074527184,582.4606899924732,287.5 C585.2711223121083,283.9767701400752,585.2711223121083,291.0232298599248,588.0815546317434,287.5 C591.0413974008723,284.0862896956015,591.0413974008723,290.9137103043985,594.0012401700011,287.5 C596.3245183159992,283.05594840047274,596.3245183159992,291.94405159952726,598.6477964619972,287.5 C601.1941633509032,284.3809204302888,601.1941633509032,290.6190795697112,603.7405302398091,287.5 C606.009854972025,283.57512621782064,606.009854972025,291.42487378217936,608.2791797042407,287.5 C610.9675078415388,282.7638820632195,610.9675078415388,292.2361179367805,613.6558359788368,287.5 C616.1686421439566,283.3501513657585,616.1686421439566,291.6498486342415,618.6814483090766,287.5 C620.9058118451235,283.9055114555096,620.9058118451235,291.0944885444904,623.1301753811703,287.5 C625.7486855683563,283.49488042193434,625.7486855683563,291.50511957806566,628.3671957555425,287.5" fill="none" stroke="black" stroke-width="0.5" />
<path d="M503.7,312.5 L503.7,317.5 Q503.7,312.5,504.95,312.5 Q506.2,312.5,506.2,317.5 Q506.2,312.5,507.45,312.5 Q508.7,312.5,508.7,317.5" stroke="black" fill="none" stroke-width="0.8333333333333334" />
<path d="M510.075,312.5 Q510.075,311.75,510.7,313.0 Q510.7,316.875,508.2,324.0 M510.7,313.0 C515.7,310.0,515.7,318.75,510.7,316.875" stroke="black" fill="none" stroke-width="0.8333333333333334" />
<text x="415.76" y="424.88095238095235" font-size="10" font-family="Cantarell Light" font-style="italic">sehr hoch</text>
<path d="M413.06,457.93095238095236 C411.935,455.90595238095233,416.435,453.43095238095236,418.46,455.2309523809523 C419.585,457.25595238095235,415.085,459.7309523809523,413.06,457.93095238095236" stroke-width="0.30375" stroke="#444" fill="#444" />
<path d="M418.46,455.2309523809523 L418.46,438.3559523809523" stroke="#444" stroke-width="0.45" />
<path d="M418.46,438.3559523809523 L418.61630769230766,438.1497590870667" stroke="#444" stroke-width="1.5" />
<path d="M418.61630769230766,438.1497590870667 L418.7726153846154,437.95066638489703" stroke="#444" stroke-width="1.5" />
<path d="M418.7726153846154,437.95066638489703 L418.92892307692307,437.75867427444336" stroke="#444" stroke-width="1.5" />
<path d="M418.92892307692307,437.75867427444336 L419.08523076923075,437.5737827557058" stroke="#444" stroke-width="1.5" />
<path d="M419.08523076923075,437.5737827557058 L419.2415384615385,437.395991828684" stroke="#444" stroke-width="1.5" />
<path d="M419.2415384615385,437.395991828684 L419.39784615384616,437.2253014933783" stroke="#444" stroke-width="1.5" />
<path d="M419.39784615384616,437.2253014933783 L419.55415384615384,437.0617117497886" stroke="#444" stroke-width="1.5" />
<path d="M419.55415384615384,437.0617117497886 L419.7104615384615,436.9052225979148" stroke="#444" stroke-width="1.5" />
<path d="M419.7104615384615,436.9052225979148 L419.86676923076925,436.75583403775704" stroke="#444" stroke-width="1.5" />
<path d="M419.86676923076925,436.75583403775704 L420.0230769230769,436.6135460693152" stroke="#444" stroke-width="1.5" />
<path d="M420.0230769230769,436.6135460693152 L420.1793846153846,436.4783586925894" stroke="#444" stroke-width="1.5" />
<path d="M420.1793846153846,436.4783586925894 L420.33569230769234,436.35027190757944" stroke="#444" stroke-width="1.5" />
<path d="M420.33569230769234,436.35027190757944 L420.492,436.2292857142856" stroke="#444" stroke-width="1.5" />
<path d="M420.492,436.2292857142856 L420.6483076923077,436.1154001127078" stroke="#444" stroke-width="1.5" />
<path d="M420.6483076923077,436.1154001127078 L420.80461538461543,436.00861510284574" stroke="#444" stroke-width="1.5" />
<path d="M420.80461538461543,436.00861510284574 L420.9609230769231,435.9089306846998" stroke="#444" stroke-width="1.5" />
<path d="M420.9609230769231,435.9089306846998 L421.1172307692308,435.8163468582698" stroke="#444" stroke-width="1.5" />
<path d="M421.1172307692308,435.8163468582698 L421.2735384615385,435.7308636235559" stroke="#444" stroke-width="1.5" />
<path d="M421.2735384615385,435.7308636235559 L421.4298461538462,435.65248098055787" stroke="#444" stroke-width="1.5" />
<path d="M421.4298461538462,435.65248098055787 L421.5861538461539,435.58119892927573" stroke="#444" stroke-width="1.5" />
<path d="M421.5861538461539,435.58119892927573 L421.74246153846155,435.5170174697097" stroke="#444" stroke-width="1.5" />
<path d="M421.74246153846155,435.5170174697097 L421.8987692307693,435.45993660185957" stroke="#444" stroke-width="1.5" />
<path d="M421.8987692307693,435.45993660185957 L422.05507692307697,435.40995632572555" stroke="#444" stroke-width="1.5" />
<path d="M422.05507692307697,435.40995632572555 L422.21138461538465,435.36707664130734" stroke="#444" stroke-width="1.5" />
<path d="M422.21138461538465,435.36707664130734 L422.3676923076924,435.3312975486051" stroke="#444" stroke-width="1.5" />
<path d="M422.3676923076924,435.3312975486051 L422.52400000000006,435.3026190476189" stroke="#444" stroke-width="1.5" />
<path d="M422.52400000000006,435.3026190476189 L422.68030769230774,435.2810411383487" stroke="#444" stroke-width="1.5" />
<path d="M422.68030769230774,435.2810411383487 L422.83661538461547,435.26656382079454" stroke="#444" stroke-width="1.5" />
<path d="M422.83661538461547,435.26656382079454 L422.99292307692315,435.25918709495625" stroke="#444" stroke-width="1.5" />
<path d="M422.99292307692315,435.25918709495625 L423.1492307692308,435.258910960834" stroke="#444" stroke-width="1.5" />
<path d="M423.1492307692308,435.258910960834 L423.30553846153856,435.26573541842765" stroke="#444" stroke-width="1.5" />
<path d="M423.30553846153856,435.26573541842765 L423.46184615384624,435.27966046773736" stroke="#444" stroke-width="1.5" />
<path d="M423.46184615384624,435.27966046773736 L423.6181538461539,435.30068610876305" stroke="#444" stroke-width="1.5" />
<path d="M423.6181538461539,435.30068610876305 L423.7744615384616,435.3288123415046" stroke="#444" stroke-width="1.5" />
<path d="M423.7744615384616,435.3288123415046 L423.93076923076933,435.36403916596214" stroke="#444" stroke-width="1.5" />
<path d="M423.93076923076933,435.36403916596214 L424.087076923077,435.4063665821358" stroke="#444" stroke-width="1.5" />
<path d="M424.087076923077,435.4063665821358 L424.2433846153847,435.45579459002533" stroke="#444" stroke-width="1.5" />
<path d="M424.2433846153847,435.45579459002533 L424.3996923076924,435.5123231896309" stroke="#444" stroke-width="1.5" />
<path d="M424.3996923076924,435.5123231896309 L424.5560000000001,435.57595238095234" stroke="#444" stroke-width="1.5" />
<path d="M418.46,442.8559523809523 L418.5176923076923,442.77902083748114" stroke="#444" stroke-width="1.5" />
<path d="M418.5176923076923,442.77902083748114 L418.5753846153846,442.7030566128827" stroke="#444" stroke-width="1.5" />
<path d="M418.5753846153846,442.7030566128827 L418.6330769230769,442.6280597071567" stroke="#444" stroke-width="1.5" />
<path d="M418.6330769230769,442.6280597071567 L418.6907692307692,442.5540301203031" stroke="#444" stroke-width="1.5" />
<path d="M418.6907692307692,442.5540301203031 L418.7484615384615,442.480967852322" stroke="#444" stroke-width="1.5" />
<path d="M418.7484615384615,442.480967852322 L418.80615384615385,442.4088729032134" stroke="#444" stroke-width="1.5" />
<path d="M418.80615384615385,442.4088729032134 L418.8638461538461,442.33774527297743" stroke="#444" stroke-width="1.5" />
<path d="M418.8638461538461,442.33774527297743 L418.92153846153843,442.26758496161403" stroke="#444" stroke-width="1.5" />
<path d="M418.92153846153843,442.26758496161403 L418.97923076923075,442.19839196912295" stroke="#444" stroke-width="1.5" />
<path d="M418.97923076923075,442.19839196912295 L419.0369230769231,442.13016629550447" stroke="#444" stroke-width="1.5" />
<path d="M419.0369230769231,442.13016629550447 L419.09461538461534,442.0629079407585" stroke="#444" stroke-width="1.5" />
<path d="M419.09461538461534,442.0629079407585 L419.15230769230766,441.99661690488495" stroke="#444" stroke-width="1.5" />
<path d="M419.15230769230766,441.99661690488495 L419.21,441.93129318788397" stroke="#444" stroke-width="1.5" />
<path d="M419.21,441.93129318788397 L419.2676923076923,441.8669367897554" stroke="#444" stroke-width="1.5" />
<path d="M419.2676923076923,441.8669367897554 L419.3253846153846,441.8035477104994" stroke="#444" stroke-width="1.5" />
<path d="M419.3253846153846,441.8035477104994 L419.3830769230769,441.74112595011604" stroke="#444" stroke-width="1.5" />
<path d="M419.3830769230769,441.74112595011604 L419.4407692307692,441.6796715086051" stroke="#444" stroke-width="1.5" />
<path d="M419.4407692307692,441.6796715086051 L419.4984615384615,441.61918438596655" stroke="#444" stroke-width="1.5" />
<path d="M419.4984615384615,441.61918438596655 L419.55615384615385,441.55966458220064" stroke="#444" stroke-width="1.5" />
<path d="M419.55615384615385,441.55966458220064 L419.6138461538461,441.50111209730727" stroke="#444" stroke-width="1.5" />
<path d="M419.6138461538461,441.50111209730727 L419.67153846153843,441.4435269312863" stroke="#444" stroke-width="1.5" />
<path d="M419.67153846153843,441.4435269312863 L419.72923076923075,441.3869090841379" stroke="#444" stroke-width="1.5" />
<path d="M419.72923076923075,441.3869090841379 L419.7869230769231,441.33125855586195" stroke="#444" stroke-width="1.5" />
<path d="M419.7869230769231,441.33125855586195 L419.84461538461534,441.2765753464586" stroke="#444" stroke-width="1.5" />
<path d="M419.84461538461534,441.2765753464586 L419.90230769230766,441.2228594559278" stroke="#444" stroke-width="1.5" />
<path d="M419.90230769230766,441.2228594559278 L419.96,441.1701108842693" stroke="#444" stroke-width="1.5" />
<path d="M419.96,441.1701108842693 L420.0176923076923,441.11832963148345" stroke="#444" stroke-width="1.5" />
<path d="M420.0176923076923,441.11832963148345 L420.0753846153846,441.06751569757006" stroke="#444" stroke-width="1.5" />
<path d="M420.0753846153846,441.06751569757006 L420.1330769230769,441.01766908252927" stroke="#444" stroke-width="1.5" />
<path d="M420.1330769230769,441.01766908252927 L420.1907692307692,440.96878978636084" stroke="#444" stroke-width="1.5" />
<path d="M420.1907692307692,440.96878978636084 L420.2484615384615,440.920877809065" stroke="#444" stroke-width="1.5" />
<path d="M420.2484615384615,440.920877809065 L420.30615384615385,440.8739331506416" stroke="#444" stroke-width="1.5" />
<path d="M420.30615384615385,440.8739331506416 L420.3638461538461,440.8279558110908" stroke="#444" stroke-width="1.5" />
<path d="M420.3638461538461,440.8279558110908 L420.42153846153843,440.78294579041255" stroke="#444" stroke-width="1.5" />
<path d="M420.42153846153843,440.78294579041255 L420.47923076923075,440.73890308860666" stroke="#444" stroke-width="1.5" />
<path d="M420.47923076923075,440.73890308860666 L420.5369230769231,440.6958277056733" stroke="#444" stroke-width="1.5" />
<path d="M420.5369230769231,440.6958277056733 L420.59461538461534,440.6537196416126" stroke="#444" stroke-width="1.5" />
<path d="M420.59461538461534,440.6537196416126 L420.65230769230766,440.6125788964243" stroke="#444" stroke-width="1.5" />
<path d="M420.65230769230766,440.6125788964243 L420.71,440.57240547010844" stroke="#444" stroke-width="1.5" />
<path d="M419.1560000000001,456.2309523809524 C418.0310000000001,454.20595238095234,422.5310000000001,451.7309523809524,424.5560000000001,453.53095238095233 C425.6810000000001,455.55595238095236,421.1810000000001,458.03095238095233,419.1560000000001,456.2309523809524" stroke-width="0.30375" stroke="#444" fill="#444" />
<path d="M424.5560000000001,453.53095238095233 L424.5560000000001,435.57595238095234" stroke="#444" stroke-width="0.45" />
<path d="M424.5560000000001,435.57595238095234 L424.7109830508476,435.64605292677254" stroke="#444" stroke-width="1.5" />
<path d="M424.7109830508476,435.64605292677254 L424.865966101695,435.72313422524996" stroke="#444" stroke-width="1.5" />
<path d="M424.865966101695,435.72313422524996 L425.02094915254247,435.80719627638473" stroke="#444" stroke-width="1.5" />
<path d="M425.02094915254247,435.80719627638473 L425.17593220338995,435.89823908017667" stroke="#444" stroke-width="1.5" />
<path d="M425.17593220338995,435.89823908017667 L425.33091525423737,435.99626263662606" stroke="#444" stroke-width="1.5" />
<path d="M425.33091525423737,435.99626263662606 L425.48589830508485,436.1012669457326" stroke="#444" stroke-width="1.5" />
<path d="M425.48589830508485,436.1012669457326 L425.64088135593227,436.2132520074964" stroke="#444" stroke-width="1.5" />
<path d="M425.64088135593227,436.2132520074964 L425.79586440677974,436.3322178219176" stroke="#444" stroke-width="1.5" />
<path d="M425.79586440677974,436.3322178219176 L425.9508474576272,436.4581643889961" stroke="#444" stroke-width="1.5" />
<path d="M425.9508474576272,436.4581643889961 L426.10583050847464,436.5910917087317" stroke="#444" stroke-width="1.5" />
<path d="M426.10583050847464,436.5910917087317 L426.2608135593221,436.73099978112475" stroke="#444" stroke-width="1.5" />
<path d="M426.2608135593221,436.73099978112475 L426.4157966101696,436.8778886061751" stroke="#444" stroke-width="1.5" />
<path d="M426.4157966101696,436.8778886061751 L426.570779661017,437.0317581838826" stroke="#444" stroke-width="1.5" />
<path d="M426.570779661017,437.0317581838826 L426.7257627118645,437.1926085142474" stroke="#444" stroke-width="1.5" />
<path d="M426.7257627118645,437.1926085142474 L426.8807457627119,437.36043959726953" stroke="#444" stroke-width="1.5" />
<path d="M426.8807457627119,437.36043959726953 L427.0357288135594,437.535251432949" stroke="#444" stroke-width="1.5" />
<path d="M427.0357288135594,437.535251432949 L427.19071186440686,437.7170440212857" stroke="#444" stroke-width="1.5" />
<path d="M427.19071186440686,437.7170440212857 L427.3456949152543,437.90581736227955" stroke="#444" stroke-width="1.5" />
<path d="M427.3456949152543,437.90581736227955 L427.50067796610176,438.10157145593087" stroke="#444" stroke-width="1.5" />
<path d="M427.50067796610176,438.10157145593087 L427.65566101694924,438.3043063022394" stroke="#444" stroke-width="1.5" />
<path d="M427.65566101694924,438.3043063022394 L427.81064406779666,438.5140219012052" stroke="#444" stroke-width="1.5" />
<path d="M427.81064406779666,438.5140219012052 L427.96562711864414,438.7307182528283" stroke="#444" stroke-width="1.5" />
<path d="M427.96562711864414,438.7307182528283 L428.12061016949156,438.95439535710864" stroke="#444" stroke-width="1.5" />
<path d="M428.12061016949156,438.95439535710864 L428.27559322033903,439.1850532140463" stroke="#444" stroke-width="1.5" />
<path d="M428.27559322033903,439.1850532140463 L428.4305762711865,439.42269182364134" stroke="#444" stroke-width="1.5" />
<path d="M428.4305762711865,439.42269182364134 L428.58555932203393,439.6673111858935" stroke="#444" stroke-width="1.5" />
<path d="M428.58555932203393,439.6673111858935 L428.7405423728814,439.9189113008031" stroke="#444" stroke-width="1.5" />
<path d="M428.7405423728814,439.9189113008031 L428.8955254237289,440.1774921683699" stroke="#444" stroke-width="1.5" />
<path d="M428.8955254237289,440.1774921683699 L429.0505084745763,440.44305378859383" stroke="#444" stroke-width="1.5" />
<path d="M429.0505084745763,440.44305378859383 L429.2054915254238,440.7155961614753" stroke="#444" stroke-width="1.5" />
<path d="M429.2054915254238,440.7155961614753 L429.3604745762712,440.99511928701384" stroke="#444" stroke-width="1.5" />
<path d="M429.3604745762712,440.99511928701384 L429.5154576271187,441.2816231652098" stroke="#444" stroke-width="1.5" />
<path d="M429.5154576271187,441.2816231652098 L429.67044067796616,441.5751077960631" stroke="#444" stroke-width="1.5" />
<path d="M429.67044067796616,441.5751077960631 L429.8254237288136,441.87557317957345" stroke="#444" stroke-width="1.5" />
<path d="M429.8254237288136,441.87557317957345 L429.98040677966105,442.1830193157413" stroke="#444" stroke-width="1.5" />
<path d="M429.98040677966105,442.1830193157413 L430.13538983050853,442.49744620456636" stroke="#444" stroke-width="1.5" />
<path d="M430.13538983050853,442.49744620456636 L430.29037288135595,442.81885384604857" stroke="#444" stroke-width="1.5" />
<path d="M430.29037288135595,442.81885384604857 L430.4453559322034,443.1472422401883" stroke="#444" stroke-width="1.5" />
<path d="M430.4453559322034,443.1472422401883 L430.60033898305085,443.48261138698507" stroke="#444" stroke-width="1.5" />
<path d="M430.60033898305085,443.48261138698507 L430.7553220338983,443.82496128643936" stroke="#444" stroke-width="1.5" />
<path d="M430.7553220338983,443.82496128643936 L430.9103050847458,444.1742919385508" stroke="#444" stroke-width="1.5" />
<path d="M430.9103050847458,444.1742919385508 L431.0652881355932,444.5306033433195" stroke="#444" stroke-width="1.5" />
<path d="M431.0652881355932,444.5306033433195 L431.2202711864407,444.89389550074554" stroke="#444" stroke-width="1.5" />
<path d="M431.2202711864407,444.89389550074554 L431.3752542372882,445.2641684108289" stroke="#444" stroke-width="1.5" />
<path d="M431.3752542372882,445.2641684108289 L431.5302372881356,445.6414220735694" stroke="#444" stroke-width="1.5" />
<path d="M431.5302372881356,445.6414220735694 L431.6852203389831,446.02565648896734" stroke="#444" stroke-width="1.5" />
<path d="M431.6852203389831,446.02565648896734 L431.8402033898305,446.4168716570224" stroke="#444" stroke-width="1.5" />
<path d="M431.8402033898305,446.4168716570224 L431.99518644067797,446.8150675777349" stroke="#444" stroke-width="1.5" />
<path d="M431.99518644067797,446.8150675777349 L432.15016949152545,447.2202442511047" stroke="#444" stroke-width="1.5" />
<path d="M432.15016949152545,447.2202442511047 L432.30515254237287,447.6324016771316" stroke="#444" stroke-width="1.5" />
<path d="M432.30515254237287,447.6324016771316 L432.46013559322034,448.0515398558159" stroke="#444" stroke-width="1.5" />
<path d="M432.46013559322034,448.0515398558159 L432.6151186440678,448.4776587871575" stroke="#444" stroke-width="1.5" />
<path d="M432.6151186440678,448.4776587871575 L432.77010169491524,448.91075847115627" stroke="#444" stroke-width="1.5" />
<path d="M432.77010169491524,448.91075847115627 L432.9250847457627,449.3508389078125" stroke="#444" stroke-width="1.5" />
<path d="M432.9250847457627,449.3508389078125 L433.08006779661014,449.79790009712576" stroke="#444" stroke-width="1.5" />
<path d="M433.08006779661014,449.79790009712576 L433.2350508474576,450.2519420390965" stroke="#444" stroke-width="1.5" />
<path d="M433.2350508474576,450.2519420390965 L433.3900338983051,450.71296473372456" stroke="#444" stroke-width="1.5" />
<path d="M433.3900338983051,450.71296473372456 L433.5450169491525,451.1809681810097" stroke="#444" stroke-width="1.5" />
<path d="M433.5450169491525,451.1809681810097 L433.7,451.65595238095233" stroke="#444" stroke-width="1.5" />
<path d="M428.3,471.2309523809524 C427.175,469.20595238095234,431.675,466.7309523809524,433.7,468.53095238095233 C434.825,470.55595238095236,430.325,473.03095238095233,428.3,471.2309523809524" stroke-width="0.30375" stroke="#444" fill="#444" />
<circle cx="435.95" cy="468.08095238095234" r="0.75" fill="#444" />
<path d="M433.7,468.53095238095233 L433.7,451.65595238095233" stroke="#444" stroke-width="0.45" />
<text x="429.476" y="431.88095238095235" font-size="7" text-anchor="middle" font-family="Cantarell" font-style="italic" dominant-baseline="middle">6</text>
<path d="M416.76,435.88095238095235 L416.76,431.88095238095235 L425.976,431.88095238095235 M432.976,431.88095238095235 L442.192,431.88095238095235 L442.192,435.88095238095235" stroke="black" stroke-width="0.3" fill="none" />
<path d="M443.54,468.7309523809524 C442.415,466.70595238095234,446.915,464.2309523809524,448.94,466.03095238095233 C450.065,468.05595238095236,445.565,470.53095238095233,443.54,468.7309523809524" stroke-width="0.30375" stroke="#444" fill="#444" />
<path d="M448.94,466.03095238095233 L448.94,449.15595238095233" stroke="#444" stroke-width="0.45" />
<path d="M448.94,449.15595238095233 L449.1709090909091,449.1140331890332" stroke="#444" stroke-width="1.5" />
<path d="M449.1709090909091,449.1140331890332 L449.40181818181816,449.07211399711395" stroke="#444" stroke-width="1.5" />
<path d="M449.40181818181816,449.07211399711395 L449.63272727272727,449.03019480519475" stroke="#444" stroke-width="1.5" />
<path d="M449.63272727272727,449.03019480519475 L449.8636363636364,448.98827561327556" stroke="#444" stroke-width="1.5" />
<path d="M449.8636363636364,448.98827561327556 L450.0945454545454,448.9463564213563" stroke="#444" stroke-width="1.5" />
<path d="M450.0945454545454,448.9463564213563 L450.32545454545453,448.90443722943724" stroke="#444" stroke-width="1.5" />
<path d="M450.32545454545453,448.90443722943724 L450.55636363636364,448.86251803751793" stroke="#444" stroke-width="1.5" />
<path d="M450.55636363636364,448.86251803751793 L450.78727272727275,448.82059884559874" stroke="#444" stroke-width="1.5" />
<path d="M450.78727272727275,448.82059884559874 L451.0181818181818,448.7786796536795" stroke="#444" stroke-width="1.5" />
<path d="M451.0181818181818,448.7786796536795 L451.2490909090909,448.7367604617604" stroke="#444" stroke-width="1.5" />
<path d="M451.2490909090909,448.7367604617604 L451.48,448.6948412698412" stroke="#444" stroke-width="1.5" />
<path d="M451.48,448.6948412698412 L451.71090909090907,448.652922077922" stroke="#444" stroke-width="1.5" />
<path d="M451.71090909090907,448.652922077922 L451.9418181818182,448.61100288600284" stroke="#444" stroke-width="1.5" />
<path d="M451.9418181818182,448.61100288600284 L452.1727272727273,448.5690836940837" stroke="#444" stroke-width="1.5" />
<path d="M452.1727272727273,448.5690836940837 L452.40363636363634,448.5271645021644" stroke="#444" stroke-width="1.5" />
<path d="M452.40363636363634,448.5271645021644 L452.63454545454545,448.48524531024526" stroke="#444" stroke-width="1.5" />
<path d="M452.63454545454545,448.48524531024526 L452.86545454545455,448.443326118326" stroke="#444" stroke-width="1.5" />
<path d="M452.86545454545455,448.443326118326 L453.09636363636366,448.4014069264069" stroke="#444" stroke-width="1.5" />
<path d="M453.09636363636366,448.4014069264069 L453.3272727272727,448.35948773448763" stroke="#444" stroke-width="1.5" />
<path d="M453.3272727272727,448.35948773448763 L453.5581818181818,448.3175685425685" stroke="#444" stroke-width="1.5" />
<path d="M453.5581818181818,448.3175685425685 L453.78909090909093,448.27564935064925" stroke="#444" stroke-width="1.5" />
<path d="M453.78909090909093,448.27564935064925 L454.02,448.23373015873005" stroke="#444" stroke-width="1.5" />
<path d="M454.02,448.23373015873005 L454.2509090909091,448.1918109668109" stroke="#444" stroke-width="1.5" />
<path d="M454.2509090909091,448.1918109668109 L454.4818181818182,448.1498917748917" stroke="#444" stroke-width="1.5" />
<path d="M454.4818181818182,448.1498917748917 L454.71272727272725,448.10797258297254" stroke="#444" stroke-width="1.5" />
<path d="M454.71272727272725,448.10797258297254 L454.94363636363636,448.06605339105334" stroke="#444" stroke-width="1.5" />
<path d="M454.94363636363636,448.06605339105334 L455.17454545454547,448.02413419913415" stroke="#444" stroke-width="1.5" />
<path d="M455.17454545454547,448.02413419913415 L455.4054545454546,447.98221500721496" stroke="#444" stroke-width="1.5" />
<path d="M455.4054545454546,447.98221500721496 L455.6363636363636,447.9402958152958" stroke="#444" stroke-width="1.5" />
<path d="M455.6363636363636,447.9402958152958 L455.86727272727273,447.89837662337663" stroke="#444" stroke-width="1.5" />
<path d="M455.86727272727273,447.89837662337663 L456.09818181818184,447.85645743145744" stroke="#444" stroke-width="1.5" />
<path d="M456.09818181818184,447.85645743145744 L456.3290909090909,447.8145382395383" stroke="#444" stroke-width="1.5" />
<path d="M456.3290909090909,447.8145382395383 L456.56,447.77261904761906" stroke="#444" stroke-width="1.5" />
<path d="M456.56,447.77261904761906 L456.7909090909091,447.7306998556998" stroke="#444" stroke-width="1.5" />
<path d="M456.7909090909091,447.7306998556998 L457.02181818181816,447.68878066378073" stroke="#444" stroke-width="1.5" />
<path d="M457.02181818181816,447.68878066378073 L457.25272727272727,447.6468614718614" stroke="#444" stroke-width="1.5" />
<path d="M457.25272727272727,447.6468614718614 L457.4836363636364,447.60494227994224" stroke="#444" stroke-width="1.5" />
<path d="M457.4836363636364,447.60494227994224 L457.71454545454543,447.5630230880231" stroke="#444" stroke-width="1.5" />
<path d="M457.71454545454543,447.5630230880231 L457.94545454545454,447.5211038961039" stroke="#444" stroke-width="1.5" />
<path d="M457.94545454545454,447.5211038961039 L458.17636363636365,447.4791847041846" stroke="#444" stroke-width="1.5" />
<path d="M458.17636363636365,447.4791847041846 L458.40727272727275,447.43726551226547" stroke="#444" stroke-width="1.5" />
<path d="M458.40727272727275,447.43726551226547 L458.6381818181818,447.39534632034616" stroke="#444" stroke-width="1.5" />
<path d="M458.6381818181818,447.39534632034616 L458.8690909090909,447.35342712842703" stroke="#444" stroke-width="1.5" />
<path d="M458.8690909090909,447.35342712842703 L459.1,447.31150793650784" stroke="#444" stroke-width="1.5" />
<path d="M459.1,447.31150793650784 L459.3309090909091,447.2695887445887" stroke="#444" stroke-width="1.5" />
<path d="M459.3309090909091,447.2695887445887 L459.5618181818182,447.22766955266945" stroke="#444" stroke-width="1.5" />
<path d="M459.5618181818182,447.22766955266945 L459.7927272727273,447.1857503607503" stroke="#444" stroke-width="1.5" />
<path d="M459.7927272727273,447.1857503607503 L460.02363636363634,447.14383116883107" stroke="#444" stroke-width="1.5" />
<path d="M460.02363636363634,447.14383116883107 L460.25454545454545,447.10191197691194" stroke="#444" stroke-width="1.5" />
<path d="M460.25454545454545,447.10191197691194 L460.48545454545456,447.05999278499274" stroke="#444" stroke-width="1.5" />
<path d="M460.48545454545456,447.05999278499274 L460.71636363636367,447.01807359307355" stroke="#444" stroke-width="1.5" />
<path d="M460.71636363636367,447.01807359307355 L460.9472727272727,446.97615440115436" stroke="#444" stroke-width="1.5" />
<path d="M460.9472727272727,446.97615440115436 L461.1781818181818,446.93423520923517" stroke="#444" stroke-width="1.5" />
<path d="M461.1781818181818,446.93423520923517 L461.40909090909093,446.89231601731603" stroke="#444" stroke-width="1.5" />
<path d="M461.40909090909093,446.89231601731603 L461.64,446.85039682539673" stroke="#444" stroke-width="1.5" />
<path d="M461.64,446.85039682539673 L461.8709090909091,446.8084776334776" stroke="#444" stroke-width="1.5" />
<path d="M461.8709090909091,446.8084776334776 L462.1018181818182,446.76655844155846" stroke="#444" stroke-width="1.5" />
<path d="M462.1018181818182,446.76655844155846 L462.33272727272725,446.72463924963927" stroke="#444" stroke-width="1.5" />
<path d="M462.33272727272725,446.72463924963927 L462.56363636363636,446.6827200577201" stroke="#444" stroke-width="1.5" />
<path d="M462.56363636363636,446.6827200577201 L462.79454545454547,446.6408008658008" stroke="#444" stroke-width="1.5" />
<path d="M462.79454545454547,446.6408008658008 L463.0254545454545,446.5988816738817" stroke="#444" stroke-width="1.5" />
<path d="M463.0254545454545,446.5988816738817 L463.25636363636363,446.5569624819625" stroke="#444" stroke-width="1.5" />
<path d="M463.25636363636363,446.5569624819625 L463.48727272727274,446.5150432900432" stroke="#444" stroke-width="1.5" />
<path d="M463.48727272727274,446.5150432900432 L463.71818181818185,446.47312409812406" stroke="#444" stroke-width="1.5" />
<path d="M463.71818181818185,446.47312409812406 L463.9490909090909,446.4312049062049" stroke="#444" stroke-width="1.5" />
<path d="M463.9490909090909,446.4312049062049 L464.18,446.38928571428573" stroke="#444" stroke-width="1.5" />
<path d="M458.78000000000003,466.2309523809524 C457.65500000000003,464.20595238095234,462.15500000000003,461.7309523809524,464.18,463.53095238095233 C465.305,465.55595238095236,460.805,468.03095238095233,458.78000000000003,466.2309523809524" stroke-width="0.30375" stroke="#444" fill="#444" />
<path d="M464.18,463.53095238095233 L464.18,446.38928571428573" stroke="#444" stroke-width="0.45" />
<path d="M464.18,446.38928571428573 L464.41812500000003,446.346056547619" stroke="#444" stroke-width="1.5" />
<path d="M464.41812500000003,446.346056547619 L464.65625,446.30282738095235" stroke="#444" stroke-width="1.5" />
<path d="M464.65625,446.30282738095235 L464.894375,446.2595982142857" stroke="#444" stroke-width="1.5" />
<path d="M464.894375,446.2595982142857 L465.1325,446.216369047619" stroke="#444" stroke-width="1.5" />
<path d="M465.1325,446.216369047619 L465.370625,446.17313988095236" stroke="#444" stroke-width="1.5" />
<path d="M465.370625,446.17313988095236 L465.60875,446.12991071428564" stroke="#444" stroke-width="1.5" />
<path d="M465.60875,446.12991071428564 L465.846875,446.08668154761904" stroke="#444" stroke-width="1.5" />
<path d="M465.846875,446.08668154761904 L466.08500000000004,446.0434523809524" stroke="#444" stroke-width="1.5" />
<path d="M466.08500000000004,446.0434523809524 L466.323125,446.0002232142857" stroke="#444" stroke-width="1.5" />
<path d="M466.323125,446.0002232142857 L466.56125000000003,445.95699404761905" stroke="#444" stroke-width="1.5" />
<path d="M466.56125000000003,445.95699404761905 L466.799375,445.9137648809524" stroke="#444" stroke-width="1.5" />
<path d="M466.799375,445.9137648809524 L467.0375,445.87053571428567" stroke="#444" stroke-width="1.5" />
<path d="M467.0375,445.87053571428567 L467.275625,445.827306547619" stroke="#444" stroke-width="1.5" />
<path d="M467.275625,445.827306547619 L467.51375,445.78407738095234" stroke="#444" stroke-width="1.5" />
<path d="M467.51375,445.78407738095234 L467.751875,445.74084821428573" stroke="#444" stroke-width="1.5" />
<path d="M467.751875,445.74084821428573 L467.99,445.697619047619" stroke="#444" stroke-width="1.5" />
<path d="M467.99,445.697619047619 L468.22812500000003,445.65438988095235" stroke="#444" stroke-width="1.5" />
<path d="M468.22812500000003,445.65438988095235 L468.46625,445.6111607142857" stroke="#444" stroke-width="1.5" />
<path d="M468.46625,445.6111607142857 L468.704375,445.5679315476191" stroke="#444" stroke-width="1.5" />
<path d="M468.704375,445.5679315476191 L468.9425,445.5247023809524" stroke="#444" stroke-width="1.5" />
<path d="M468.9425,445.5247023809524 L469.180625,445.48147321428564" stroke="#444" stroke-width="1.5" />
<path d="M469.180625,445.48147321428564 L469.41875,445.438244047619" stroke="#444" stroke-width="1.5" />
<path d="M469.41875,445.438244047619 L469.656875,445.3950148809523" stroke="#444" stroke-width="1.5" />
<path d="M469.656875,445.3950148809523 L469.895,445.3517857142857" stroke="#444" stroke-width="1.5" />
<path d="M469.895,445.3517857142857 L470.133125,445.308556547619" stroke="#444" stroke-width="1.5" />
<path d="M470.133125,445.308556547619 L470.37125000000003,445.26532738095233" stroke="#444" stroke-width="1.5" />
<path d="M470.37125000000003,445.26532738095233 L470.609375,445.22209821428567" stroke="#444" stroke-width="1.5" />
<path d="M470.609375,445.22209821428567 L470.8475,445.17886904761906" stroke="#444" stroke-width="1.5" />
<path d="M470.8475,445.17886904761906 L471.085625,445.13563988095234" stroke="#444" stroke-width="1.5" />
<path d="M471.085625,445.13563988095234 L471.32375,445.0924107142857" stroke="#444" stroke-width="1.5" />
<path d="M471.32375,445.0924107142857 L471.561875,445.049181547619" stroke="#444" stroke-width="1.5" />
<path d="M471.561875,445.049181547619 L471.8,445.00595238095235" stroke="#444" stroke-width="1.5" />
<path d="M464.18,450.88928571428573 L464.41812500000003,450.846056547619" stroke="#444" stroke-width="1.5" />
<path d="M464.41812500000003,450.846056547619 L464.65625,450.80282738095235" stroke="#444" stroke-width="1.5" />
<path d="M464.65625,450.80282738095235 L464.894375,450.7595982142857" stroke="#444" stroke-width="1.5" />
<path d="M464.894375,450.7595982142857 L465.1325,450.716369047619" stroke="#444" stroke-width="1.5" />
<path d="M465.1325,450.716369047619 L465.370625,450.67313988095236" stroke="#444" stroke-width="1.5" />
<path d="M465.370625,450.67313988095236 L465.60875,450.62991071428564" stroke="#444" stroke-width="1.5" />
<path d="M465.60875,450.62991071428564 L465.846875,450.58668154761904" stroke="#444" stroke-width="1.5" />
<path d="M465.846875,450.58668154761904 L466.08500000000004,450.5434523809524" stroke="#444" stroke-width="1.5" />
<path d="M466.08500000000004,450.5434523809524 L466.323125,450.5002232142857" stroke="#444" stroke-width="1.5" />
<path d="M466.323125,450.5002232142857 L466.56125000000003,450.45699404761905" stroke="#444" stroke-width="1.5" />
<path d="M466.56125000000003,450.45699404761905 L466.799375,450.4137648809524" stroke="#444" stroke-width="1.5" />
<path d="M466.799375,450.4137648809524 L467.0375,450.37053571428567" stroke="#444" stroke-width="1.5" />
<path d="M467.0375,450.37053571428567 L467.275625,450.327306547619" stroke="#444" stroke-width="1.5" />
<path d="M467.275625,450.327306547619 L467.51375,450.28407738095234" stroke="#444" stroke-width="1.5" />
<path d="M467.51375,450.28407738095234 L467.751875,450.24084821428573" stroke="#444" stroke-width="1.5" />
<path d="M467.751875,450.24084821428573 L467.99,450.197619047619" stroke="#444" stroke-width="1.5" />
<path d="M467.99,450.197619047619 L468.22812500000003,450.15438988095235" stroke="#444" stroke-width="1.5" />
<path d="M468.22812500000003,450.15438988095235 L468.46625,450.1111607142857" stroke="#444" stroke-width="1.5" />
<path d="M468.46625,450.1111607142857 L468.704375,450.0679315476191" stroke="#444" stroke-width="1.5" />
<path d="M468.704375,450.0679315476191 L468.9425,450.0247023809524" stroke="#444" stroke-width="1.5" />
<path d="M468.9425,450.0247023809524 L469.180625,449.98147321428564" stroke="#444" stroke-width="1.5" />
<path d="M469.180625,449.98147321428564 L469.41875,449.938244047619" stroke="#444" stroke-width="1.5" />
<path d="M469.41875,449.938244047619 L469.656875,449.8950148809523" stroke="#444" stroke-width="1.5" />
<path d="M469.656875,449.8950148809523 L469.895,449.8517857142857" stroke="#444" stroke-width="1.5" />
<path d="M469.895,449.8517857142857 L470.133125,449.808556547619" stroke="#444" stroke-width="1.5" />
<path d="M470.133125,449.808556547619 L470.37125000000003,449.76532738095233" stroke="#444" stroke-width="1.5" />
<path d="M470.37125000000003,449.76532738095233 L470.609375,449.72209821428567" stroke="#444" stroke-width="1.5" />
<path d="M470.609375,449.72209821428567 L470.8475,449.67886904761906" stroke="#444" stroke-width="1.5" />
<path d="M470.8475,449.67886904761906 L471.085625,449.63563988095234" stroke="#444" stroke-width="1.5" />
<path d="M471.085625,449.63563988095234 L471.32375,449.5924107142857" stroke="#444" stroke-width="1.5" />
<path d="M471.32375,449.5924107142857 L471.561875,449.549181547619" stroke="#444" stroke-width="1.5" />
<path d="M471.561875,449.549181547619 L471.8,449.50595238095235" stroke="#444" stroke-width="1.5" />
<path d="M466.40000000000003,464.5809523809524 C465.27500000000003,462.55595238095236,469.77500000000003,460.0809523809524,471.8,461.88095238095235 C472.925,463.9059523809524,468.425,466.38095238095235,466.40000000000003,464.5809523809524" stroke-width="0.30375" stroke="#444" fill="#444" />
<path d="M471.8,461.88095238095235 L471.8,445.00595238095235" stroke="#444" stroke-width="0.45" />
<path d="M474.02000000000004,462.93095238095236 C472.89500000000004,460.90595238095233,477.39500000000004,458.43095238095236,479.42,460.2309523809523 C480.545,462.25595238095235,476.045,464.7309523809523,474.02000000000004,462.93095238095236" fill="#444" />
<path d="M479.42,461.1309523809523 L479.42,446.7309523809523" stroke="#444" stroke-width="0.45" />
<path d="M418.76,464.58095238095234 Q487.4440170677482,519.5281660351509,556.1280341354964,466.58095238095234 Q487.4440170677482,519.5281660351509,418.76,464.58095238095234" fill="#555" stroke="#555" stroke-width="0.3" />
<path d="M424.8560000000001,462.88095238095235 Q487.0071168591961,505.14371184520564,549.1582337183921,464.58095238095234 Q487.0071168591961,505.14371184520564,424.8560000000001,462.88095238095235" fill="#555" stroke="#555" stroke-width="0.3" />
<path d="M434.0,477.88095238095235 Q486.8883321855698,507.4984184048715,539.7766643711396,479.28095238095233 Q486.8883321855698,507.4984184048715,434.0,477.88095238095235" fill="#555" stroke="#555" stroke-width="0.3" />
<path d="M449.24,475.38095238095235 Q508.08101870613694,501.2710006116526,566.9220374122739,476.4809523809524 Q508.08101870613694,501.2710006116526,449.24,475.38095238095235" fill="#555" stroke="#555" stroke-width="0.3" />
<path d="M464.48,472.88095238095235 Q508.4514457301577,490.4695306730154,552.4228914603153,473.88095238095235 Q508.4514457301577,490.4695306730154,464.48,472.88095238095235" fill="#555" stroke="#555" stroke-width="0.3" />
<path d="M472.1,471.2309523809524 Q508.17740232265,485.6619133100124,544.2548046452999,472.2309523809524 Q508.17740232265,485.6619133100124,472.1,471.2309523809524" fill="#555" stroke="#555" stroke-width="0.3" />
<path d="M479.72,469.58095238095234 Q521.6115522956861,486.3375732992268,563.5031045913722,470.58095238095234 Q521.6115522956861,486.3375732992268,479.72,469.58095238095234" fill="#555" stroke="#555" stroke-width="0.3" />
<path d="M415.135,499.88095238095235 Q415.135,499.13095238095235,415.76,500.38095238095235 Q415.76,504.25595238095235,413.26,511.38095238095235 M415.76,500.38095238095235 C420.76,497.38095238095235,420.76,506.13095238095235,415.76,504.25595238095235" stroke="black" fill="none" stroke-width="0.8333333333333334" />
<path d="M473.22,499.88095238095235 L473.22,504.88095238095235 Q473.22,499.88095238095235,474.47,499.88095238095235 Q475.72,499.88095238095235,475.72,504.88095238095235 Q475.72,499.88095238095235,476.97,499.88095238095235 Q478.22,499.88095238095235,478.22,504.88095238095235" stroke="black" fill="none" stroke-width="0.8333333333333334" />
<path d="M479.595,499.88095238095235 Q479.595,499.13095238095235,480.22,500.38095238095235 Q480.22,504.25595238095235,477.72,511.38095238095235 M480.22,500.38095238095235 C485.22,497.38095238095235,485.22,506.13095238095235,480.22,504.25595238095235" stroke="black" fill="none" stroke-width="0.8333333333333334" />
<text x="552.9200000000001" y="504.88095238095235" font-size="8" font-family="Cantarell" font-style="italic">o</text>
<path d="M467.5760000000001,500.88095238095235 L421.8560000000001,501.88095238095235 L467.5760000000001,506.88095238095235" stroke="black" fill="none" stroke-width="0.4" />
<path d="M486.72,500.88095238095235 L552.9200000000001,502.88095238095235 L486.72,506.88095238095235" stroke="black" fill="none" stroke-width="0.4" />
<text x="659.6" y="417.2380952380952" font-size="10" font-family="Cantarell Light" font-style="italic">krachen, fallen</text>
<path d="M659.6,423.60592404125646 L661.1949262586979,431.4627268090998 L668.0143300725001,430.35718459989283 M669.6,430.91952214045773 L672.0276394513176,422.58107030727706 L675.4862808830185,430.9975056930258 M678.4399071925754,426.5920325200184 L682.0975449842518,430.1934366072038 L685.8428023176406,429.81961751210315 M686.4575917895942,424.5954226859248 L692.8145370639631,426.31116333853214 L694.0924587107576,425.06792627319686 M693.8515157768315,429.1791188173547 L697.1294112665324,431.49755307049253 L702.4155757034018,428.08697431188625 M700.7504704416061,426.31514779989465 L702.7779910661691,429.16601066051976 L706.5558457393905,427.4938717269562 M707.2438402349482,428.974159097062 L711.3169616928689,423.14829445677367 L712.3641971998353,430.4661694516438 M713.3967502105625,430.47064740920575 L717.2191717189573,424.9910847747944 L720.7001911162321,426.172334790424 M719.2584352047315,429.5828708920495 L722.8363723805747,432.15228976984656 L726.1407322463261,426.1252689315146 M724.867214658519,426.199643893845 L730.4139042814897,429.79975433954 L733.4753404345201,427.9248673457837 M730.2536216916917,432.1608471231935 L732.245792240618,425.14338248606646 L737.2908383112491,430.59223626796125 M735.4424620568259,427.04769461422325 L741.6845224006488,426.1652879445373 L742.4099036042929,422.2861116867668 M740.454219888761,425.3701410879351 L746.6893236607067,429.4204956974765 L746.7502194394307,424.61445252187673 M745.3060474967025,429.49637760972 L746.5198856138082,429.26773391101847 L751.282184444862,427.9632246013081 M750.0124807138775,428.6075151341036 L754.4525695473558,429.4844434051622 L755.8220750749044,429.5490719241569 M754.5859676263531,430.44688933530523 L755.8821613626073,431.63133030432306 L762.3032962492684,423.37297009795157 M759.0372670556568,422.91792971778426 L764.3482715317681,422.60552744350053 L767.9452193793644,423.89246276068224 M763.3757540565878,430.27697265517094 L767.761700931079,424.11884031828623 L771.0883977549796,428.397213768519 M767.6096576954102,431.39977433773964 L773.5366903215557,425.21928467604926 L775.2084339208046,431.42349276385335 M771.7462486295292,426.5827711006158 L777.4377431862947,431.63388326795274 L779.2830577872317,431.8232761489467 M775.7919888847483,425.5815880671505 L775.941543737338,431.0619511851055 L781.581020056665,424.6017117363758 M779.7526527586297,425.35769138856494 L789.4728647180495,422.5433147282266 L789.5703721354986,429.3371902751108 M783.633425385301,427.3407583444574 L790.2948314466774,431.1967312838287 L790.5449108438154,424.4915995663265 M787.4389838155867,432.2080536046439 L789.9845193317923,431.9856946600648 L793.1372745012707,425.98809786551715 M791.1735642656084,428.7080216739327 L792.7341690773457,430.5186577378833 L798.2779527090167,425.7440556349158 M794.8410183168172,422.3556666025035 L798.4075240094484,425.3168111139059 L800.4710070020204,424.34597097089977 M798.4448602111947,424.41186414340893 L802.2802698900795,425.2829593086847 L806.351524826487,429.6237216495525 M801.9883069099517,429.6578406690114 L802.765928249081,432.0412677971373 L811.9273883665079,427.01470438812953 M805.4743122263931,422.3900583808074 L809.2177445491486,431.2116150966788 L811.435143829397,431.9448259230333 M808.9055960716997,422.9910122304399 L813.5658320425338,427.16849790037094 L814.9998841898567,426.96085940383784" fill="none" stroke="black" stroke-width="1" />
<path d="M748.3399999999999,464.4452380952381 C747.2149999999999,462.42023809523806,751.7149999999999,459.9452380952381,753.74,461.74523809523805 C754.865,463.7702380952381,750.365,466.24523809523805,748.3399999999999,464.4452380952381" stroke="black" fill="none" stroke-width="0.675" />
<path d="M753.74,461.74523809523805 L753.74,448.78523809523807" stroke="black" stroke-width="0.45" />
<path d="M756.04,463.0952380952381 Q789.616,459.0,812.0,442.6190476190476 Q789.616,459.0,756.04,463.0952380952381" fill="black" stroke="black" stroke-width="1" />
<path d="M810.56,436.4940476190476 L814.16,437.6190476190476 L810.56,438.7440476190476" stroke="black" stroke-width="1" fill="none" />
<path d="M748.52,484.7914285714286 Q751.04,487.78392857142853,754.1899999999999,485.4214285714286 Q751.04,488.57142857142856,751.04,493.2964285714286" stroke="#444" fill="none" stroke-width="0.6749999999999999" />
<path d="M763.5799999999999,489.9214285714286 C762.4549999999999,487.89642857142854,766.9549999999999,485.4214285714286,768.98,487.22142857142853 C770.105,489.24642857142857,765.605,491.72142857142853,763.5799999999999,489.9214285714286" fill="#444" />
<path d="M768.98,488.1214285714285 L768.98,473.72142857142853" stroke="#444" stroke-width="0.45" />
<circle cx="771.23" cy="486.77142857142854" r="0.75" fill="#444" />
<path d="M775.424,488.57142857142856 Q797.3696,484.4761904761905,812.0,468.0952380952381 Q797.3696,484.4761904761905,775.424,488.57142857142856" fill="black" stroke="black" stroke-width="1" />
<path d="M810.56,461.9702380952381 L814.16,463.0952380952381 L810.56,464.2202380952381" stroke="black" stroke-width="1" fill="none" />
<path d="M748.52,510.26761904761906 Q751.04,513.260119047619,754.1899999999999,510.89761904761906 Q751.04,514.047619047619,751.04,518.7726190476191" stroke="#444" fill="none" stroke-width="0.6749999999999999" />
<circle cx="755.765" cy="512.4726190476191" r="0.63" fill="#444" />
<path d="M771.1999999999999,515.3976190476191 C770.0749999999999,513.3726190476191,774.5749999999999,510.89761904761906,776.6,512.697619047619 C777.725,514.722619047619,773.225,517.197619047619,771.1999999999999,515.3976190476191" fill="#444" />
<path d="M776.6,513.597619047619 L776.6,496.497619047619" stroke="#444" stroke-width="0.45" />
<path d="M776.6,496.497619047619 L781.1,503.67961904761904" stroke="#444" stroke-width="0.9" />
<path d="M776.6,499.197619047619 L781.1,506.37961904761903" stroke="#444" stroke-width="0.9" />
<path d="M784.5679999999999,512.047619047619 L784.5679999999999,498.54761904761904" stroke="#444" stroke-width="0.45" />
<path d="M778.4720000000002,514.047619047619 Q798.5888000000001,509.95238095238096,812.0,493.57142857142856 Q798.5888000000001,509.95238095238096,778.4720000000002,514.047619047619" fill="black" stroke="black" stroke-width="1" />
<path d="M810.56,487.44642857142856 L814.16,488.57142857142856 L810.56,489.69642857142856" stroke="black" stroke-width="1" fill="none" />
<path d="M751.625,541.4485714285713 Q748.115,535.8910714285713,752.5024999999999,537.0610714285714 L750.4549999999999,533.5510714285713 L752.2099999999999,531.5035714285714 Q751.04,530.3335714285713,751.04,529.1635714285713" stroke="#444" fill="none" stroke-width="0.6749999999999999" />
<path d="M778.8199999999999,535.7785714285714 C777.6949999999999,533.7535714285714,782.1949999999999,531.2785714285714,784.22,533.0785714285713 C785.345,535.1035714285713,780.845,537.5785714285713,778.8199999999999,535.7785714285714" fill="#444" />
<path d="M784.22,533.9785714285713 L784.22,519.5785714285713" stroke="#444" stroke-width="0.45" />
<path d="M787.6160000000001,534.4285714285713 Q802.2464,531.3523809523808,812.0,519.047619047619 Q802.2464,531.3523809523808,787.6160000000001,534.4285714285713" fill="black" stroke="black" stroke-width="1" />
<path d="M810.56,512.922619047619 L814.16,514.047619047619 L810.56,515.172619047619" stroke="black" stroke-width="1" fill="none" />
<path d="M751.625,561.8295238095238 Q748.115,556.2720238095238,752.5024999999999,557.4420238095239 L750.4549999999999,553.9320238095238 L752.2099999999999,551.8845238095239 Q751.04,550.7145238095238,751.04,549.5445238095239" stroke="#444" fill="none" stroke-width="0.6749999999999999" />
<path d="M779.0,551.0295238095239 Q781.52,554.0220238095238,784.67,551.6595238095239 Q781.52,554.8095238095239,781.52,559.5345238095239" stroke="#444" fill="none" stroke-width="0.6749999999999999" />
<path d="M794.06,556.1595238095239 C792.935,554.1345238095239,797.435,551.6595238095239,799.46,553.4595238095238 C800.585,555.4845238095238,796.085,557.9595238095238,794.06,556.1595238095239" fill="#444" />
<path d="M799.46,554.3595238095238 L799.46,538.6095238095238" stroke="#444" stroke-width="0.45" />
<path d="M799.46,538.6095238095238 L803.96,545.7915238095238" stroke="#444" stroke-width="0.9" />
<path d="M799.8079999999999,554.8095238095239 Q807.1232,551.7333333333333,812.0,539.4285714285713 Q807.1232,551.7333333333333,799.8079999999999,554.8095238095239" fill="black" stroke="black" stroke-width="1" />
<path d="M810.56,533.3035714285713 L814.16,534.4285714285713 L810.56,535.5535714285713" stroke="black" stroke-width="1" fill="none" />
<path d="M750.415,569.8095238095239 Q750.415,569.0595238095239,751.04,570.3095238095239 Q751.04,574.1845238095239,748.54,581.3095238095239 M751.04,570.3095238095239 C756.04,567.3095238095239,756.04,576.0595238095239,751.04,574.1845238095239" stroke="black" fill="none" stroke-width="0.8333333333333334" />
<path d="M815.85,566.9095238095239 Q815.85,565.8095238095239,814.695,565.8095238095239 C813.155,565.8095238095239,812.77,579.0095238095239,812.385,579.5595238095239 Q811.615,579.5595238095239,811.615,578.4595238095238 M812.0,571.3095238095239 H815.08" stroke="black" fill="none" stroke-width="0.9166666666666666" />
<path d="M805.9039999999999,568.8095238095239 L760.184,573.8095238095239 L805.9039999999999,576.8095238095239" stroke="black" fill="none" stroke-width="0.4" />
</svg>